<?xml version="1.0" encoding="utf-8"?>
<!-- Generator: Adobe Illustrator 28.0.0, SVG Export Plug-In . SVG Version: 6.00 Build 0)  -->
<svg version="1.1" id="Ebene_1" xmlns="http://www.w3.org/2000/svg" xmlns:xlink="http://www.w3.org/1999/xlink" x="0px" y="0px"
	 viewBox="0 0 110.1 110.3" style="enable-background:new 0 0 110.1 110.3;" xml:space="preserve">
<style type="text/css">
	.st0{fill:#FBDC34;stroke:#000000;stroke-width:0.25;stroke-miterlimit:10;}
</style>
<path d="M27.8,22.1l6.2,4c0.2,0.1,0.4,0.2,0.7,0.2c0.4,0,0.8-0.2,1-0.6c0.4-0.6,0.2-1.3-0.4-1.7l-6.2-4c-0.6-0.4-1.3-0.2-1.7,0.4
	C27,21,27.2,21.7,27.8,22.1z"/>
<path d="M42.4,21.1c0.2,0.5,0.6,0.8,1.2,0.8c0.1,0,0.3,0,0.4-0.1c0.6-0.2,1-0.9,0.8-1.6l-3.4-9.9c-0.2-0.6-0.9-1-1.6-0.8
	c-0.6,0.2-1,0.9-0.8,1.6L42.4,21.1z"/>
<path d="M53.2,20.2c0.1,0.1,0.3,0.1,0.4,0.1c0.5,0,1-0.3,1.1-0.8l2.5-6.9c0.2-0.6-0.1-1.3-0.7-1.6c-0.6-0.2-1.3,0.1-1.6,0.7
	l-2.5,6.9C52.2,19.3,52.6,20,53.2,20.2z"/>
<path d="M62,89.2c-0.6-0.2-1.3,0.2-1.5,0.8l-2.1,7c-0.2,0.6,0.2,1.3,0.8,1.5c0.1,0,0.2,0.1,0.4,0.1c0.5,0,1-0.3,1.2-0.9l2.1-7
	C63,90.1,62.7,89.4,62,89.2z"/>
<path d="M72.4,87.4c-0.3-0.6-1-0.9-1.6-0.7c-0.6,0.3-0.9,1-0.7,1.6l4,9.7c0.2,0.5,0.7,0.8,1.1,0.8c0.2,0,0.3,0,0.5-0.1
	c0.6-0.3,0.9-1,0.7-1.6L72.4,87.4z"/>
<path d="M87,85l-6.4-3.6c-0.6-0.3-1.3-0.1-1.7,0.5c-0.3,0.6-0.1,1.3,0.5,1.7l6.4,3.6c0.2,0.1,0.4,0.2,0.6,0.2c0.4,0,0.8-0.2,1.1-0.6
	C87.8,86.1,87.6,85.4,87,85z"/>
<g>
	<path class="st0" d="M95.2,54.6c-1.7-2.2-4.7-2.7-7.9-1.4c-0.8,0.3-2,0.8-3.4,1.4l5.8-15.9c0.5-1.4,0.4-2.9-0.2-4.2
		c-0.6-1.3-1.7-2.3-3.1-2.8c-1-0.4-2.1-0.4-3.1-0.1l0.7-2c0.5-1.4,0.4-2.9-0.2-4.2s-1.7-2.3-3.1-2.8c-2.8-1-5.9,0.5-6.9,3.2
		c-0.6-0.8-1.5-1.5-2.5-1.9c-2.8-1-5.9,0.5-7,3.3l-1,2.8c-0.6-0.8-1.5-1.5-2.5-1.8c-2.8-1-5.9,0.5-7,3.4c0,0-2.7,8.1-3.1,9.1
		c-0.3,0.9-3.1,10-4.6,15.6c-0.5,2-0.6,3.9-0.5,5.6c0,1.7,0.3,3.1,0.5,3.7c0.5,1.5,1.4,3.2,3.1,5.3c1.2,1.5,3.4,3.5,5.5,4.9
		c1,0.6,2.9,1.6,4.9,2.3c2.5,0.9,5.3,1.1,6.7,1.1c4.2,0,8.2-1.3,11.6-3.8c4.2-3.1,15.7-12.7,16.4-13.3C96.6,60.4,97,56.9,95.2,54.6z
		"/>
	<path d="M95.2,54.6c-1.7-2.2-4.7-2.7-7.9-1.4c-0.8,0.3-2,0.8-3.4,1.4l5.8-15.9c0.5-1.4,0.4-2.9-0.2-4.2c-0.6-1.3-1.7-2.3-3.1-2.8
		c-1-0.4-2.1-0.4-3.1-0.1l0.7-2c0.5-1.4,0.4-2.9-0.2-4.2s-1.7-2.3-3.1-2.8c-2.8-1-5.9,0.5-6.9,3.2c-0.6-0.8-1.5-1.5-2.5-1.9
		c-2.8-1-5.9,0.5-7,3.3l-1,2.8c-0.6-0.8-1.5-1.5-2.5-1.8c-2.8-1-5.9,0.5-7,3.4c0,0-3.1,9-3.1,9s-3,9.9-4.4,15.5
		c-0.5,2-0.7,4.2-0.6,5.9c0,1.7,0.3,3.1,0.5,3.7c0.5,1.5,1.4,3.2,3.1,5.3c1.2,1.5,3.4,3.5,5.5,4.9c1,0.6,2.9,1.6,4.9,2.3
		c2.5,0.9,5.3,1.1,6.7,1.1c4.2,0,8.2-1.3,11.6-3.8c4.2-3.1,15.7-12.7,16.4-13.3C96.6,60.4,97,56.9,95.2,54.6z M92.7,60.3
		c-0.1,0.1-12.2,10.1-16.3,13.2c-4.5,3.4-10.7,4.2-16.3,2.2c-0.6-0.2-3.3-1.2-5.5-2.8c-1.9-1.4-3.5-3.5-4.1-4.2
		c-0.9-1-2-3.4-2.3-5.2c-0.3-1.9-0.1-3.3,0.1-4.6c0.3-2.2,1.1-5,1.7-7.1c1.3-4.2,3.2-10.2,3.2-10.2l3-9.1c0.6-1.6,2.3-2.4,3.8-1.9
		c0.7,0.3,1.3,0.8,1.7,1.5c0.3,0.7,0.4,1.6,0.1,2.3l-3.6,10.2c-0.2,0.6,0.1,1.3,0.7,1.6c0.1,0,0.3,0.1,0.4,0.1c0.5,0,1-0.3,1.2-0.8
		l3.6-10.2c0-0.1,0-0.1,0.1-0.2l2.5-6.9c0.6-1.6,2.3-2.4,3.8-1.9c0.7,0.3,1.3,0.8,1.7,1.5c0.3,0.7,0.4,1.6,0.1,2.4l-0.1,0.3l-5,14.5
		c-0.2,0.6,0.1,1.3,0.8,1.6c0.1,0,0.3,0.1,0.4,0.1c0.5,0,1-0.3,1.2-0.8l5.2-14.8l1.5-4.2c0.6-1.6,2.3-2.4,3.8-1.9
		c0.7,0.3,1.3,0.8,1.7,1.5c0.3,0.7,0.4,1.6,0.1,2.3l-2.2,6c-0.1,0.2-0.1,0.3-0.2,0.5c0,0.1-4.6,12.6-4.6,12.6
		c-0.2,0.6,0.1,1.3,0.7,1.6c0.1,0,0.3,0.1,0.4,0.1c0.5,0,1-0.3,1.2-0.8l4.7-13c0.7-1.4,2.4-2.2,3.7-1.7c0.7,0.3,1.3,0.8,1.7,1.5
		c0.3,0.7,0.4,1.6,0.1,2.3l-6.6,17.9c-1.1,0.4-2.1,0.8-2.6,1c-6.3-2.4-9.7,0.4-12.5,2.6c-0.5,0.4-0.6,1.2-0.2,1.7s1.2,0.6,1.7,0.2
		c2.7-2.2,5.2-4.3,10.5-2.1c0.3,0.1,0.6,0.1,0.9,0s7.2-2.8,9.6-3.8c1.3-0.5,3.7-1.2,5,0.6C94.3,57.4,94,59.3,92.7,60.3z"/>
</g>
<g>
	<path class="st0" d="M59.9,42.2l-1.5-3.8c-0.5-1.4-1.6-2.5-2.9-3.1c-1.3-0.6-2.7-0.6-4-0.1c-1,0.4-1.8,1.1-2.4,1.9L48,34.4
		c-0.5-1.4-1.6-2.5-2.9-3.1c-1.3-0.6-2.7-0.6-4-0.1c-1,0.4-1.8,1.1-2.4,1.9c-0.6-1.3-1.6-2.3-2.9-2.9s-2.7-0.6-4-0.1
		c-2.7,1.1-4.1,4.3-3,7.1l0.8,2c-1-0.2-2-0.2-3,0.2c-2.7,1.1-4.1,4.3-3,7.1l7.1,18l-4.3-2.6c-1.2-0.8-2.6-1.2-3.9-1
		c-1.4,0.2-2.7,1-3.5,2.2c-1.7,2.4-1.1,5.8,1.2,7.6c0.9,0.9,12.5,10.1,16.7,13.1c3.1,2.2,6.9,3.4,10.7,3.4c2.5,0,5.1-0.5,7.6-1.5
		c2-0.8,5.8-3.3,8.2-6.3c2.2-2.8,3.2-6.1,3.5-7.2c0.6-2,0.7-4.1,0.6-6.4c-0.1-2.2-0.9-5.2-1.1-6C64.9,54.7,59.9,42.2,59.9,42.2z"/>
	<path d="M59.9,42.2l-1.5-3.8c-0.5-1.4-1.6-2.5-2.9-3.1c-1.3-0.6-2.7-0.6-4-0.1c-1,0.4-1.8,1.1-2.4,1.9L48,34.4
		c-0.5-1.4-1.6-2.5-2.9-3.1c-1.3-0.6-2.7-0.6-4-0.1c-1,0.4-1.8,1.1-2.4,1.9c-0.6-1.3-1.6-2.3-2.9-2.9s-2.7-0.6-4-0.1
		c-2.7,1.1-4.1,4.3-3,7.1l0.8,2c-1-0.2-2-0.2-3,0.2c-2.7,1.1-4.1,4.3-3,7.1l7.1,18l-4.3-2.6c-1.2-0.8-2.6-1.2-3.9-1
		c-1.4,0.2-2.7,1-3.5,2.2c-1.7,2.4-1.1,5.8,1.2,7.6c0.9,0.9,12.5,10.1,16.7,13.1c3.1,2.2,6.9,3.4,10.7,3.4c2.5,0,5.1-0.5,7.6-1.5
		c2-0.8,5.8-3.3,8.2-6.3c2.2-2.8,3.2-6.1,3.5-7.2c0.6-2,0.7-4.1,0.6-6.4c-0.1-2.2-0.9-5.2-1.1-6C64.9,54.7,59.9,42.2,59.9,42.2z
		 M54.2,83.4c-5.5,2.2-11.4,1.6-16-1.6c-4.1-3-16.1-12.6-16.2-12.7l0,0c-1.3-1-1.6-2.9-0.7-4.3c0.4-0.6,1.1-1.1,1.9-1.2
		c0.8-0.1,1.5,0.1,2.1,0.5l7.6,4.6c0.4,0.3,1,0.2,1.4-0.1c0.4-0.3,0.5-0.9,0.3-1.4l-8.5-21.4c-0.6-1.6,0.1-3.3,1.6-3.9
		c0.6-0.2,1.3-0.2,2,0.1s1.3,0.9,1.7,1.6l4.5,11.6c0.2,0.5,0.7,0.8,1.1,0.8c0.1,0,0.3,0,0.4-0.1c0.6-0.2,0.9-1,0.7-1.6l-4.4-11.2
		l-2.5-6.6c-0.6-1.6,0.1-3.3,1.6-3.9c0.7-0.3,1.5-0.3,2.2,0s1.3,0.9,1.6,1.7l1.6,4.2l0,0L43.4,52c0.2,0.5,0.7,0.8,1.1,0.8
		c0.1,0,0.3,0,0.4-0.1c0.6-0.2,0.9-1,0.7-1.6l-5.1-13.4c-0.6-1.6,0.1-3.3,1.6-3.9c0.7-0.3,1.5-0.3,2.2,0c0.7,0.3,1.3,0.9,1.6,1.7
		l2.8,7l3.6,9.5c0.2,0.6,1,0.9,1.6,0.7s0.9-1,0.7-1.6l-3.7-9.5c-0.6-1.6,0.1-3.3,1.6-3.9c0.7-0.3,1.5-0.3,2.2,0s1.3,0.9,1.6,1.7
		l8,20.8C67.6,69.6,63.2,79.8,54.2,83.4z"/>
</g>
</svg>
