<?xml version="1.0" encoding="UTF-8"?>
<svg id="Ebene_1" data-name="Ebene 1" xmlns="http://www.w3.org/2000/svg" viewBox="0 0 1020 350">
  <g>
    <g style="isolation: isolate;">
      <path d="M402.01,19.18h19.79v110.73h-19.79v-48.06h-56.7v48.06h-19.95V19.18h19.95v46.33h56.7V19.18Z" style="fill: #373737;"/>
      <path d="M511.32,95.04h-52.3c.63,7.12,2.77,12.41,6.44,15.86,3.66,3.46,8.9,5.18,15.71,5.18,8.48,0,16.23-2.72,23.25-8.17l5.65,13.51c-3.56,2.93-8.04,5.29-13.43,7.07-5.39,1.78-10.81,2.67-16.26,2.67-12.57,0-22.49-3.56-29.76-10.68-7.28-7.12-10.92-16.86-10.92-29.21,0-7.85,1.57-14.82,4.71-20.89,3.14-6.07,7.56-10.78,13.27-14.14,5.71-3.35,12.17-5.03,19.4-5.03,10.58,0,18.93,3.4,25.05,10.21,6.12,6.81,9.19,16.18,9.19,28.11v5.5Zm-46.41-24.97c-3.2,3.35-5.16,8.17-5.89,14.45h35.5c-.21-6.39-1.78-11.23-4.71-14.53-2.93-3.3-7.02-4.95-12.25-4.95s-9.45,1.68-12.64,5.03Z" style="fill: #373737;"/>
      <path d="M527.34,129.91V19.18h19.63v110.73h-19.63Z" style="fill: #373737;"/>
      <path d="M567.24,129.91V19.18h19.63v110.73h-19.63Z" style="fill: #373737;"/>
      <path d="M621.5,126.3c-5.92-3.24-10.5-7.9-13.74-13.98-3.25-6.07-4.87-13.14-4.87-21.2s1.62-15.1,4.87-21.12c3.25-6.02,7.83-10.65,13.74-13.9,5.91-3.24,12.8-4.87,20.65-4.87s14.74,1.62,20.65,4.87c5.91,3.25,10.47,7.88,13.66,13.9,3.19,6.02,4.79,13.06,4.79,21.12s-1.6,15.13-4.79,21.2c-3.2,6.07-7.75,10.73-13.66,13.98-5.92,3.25-12.8,4.87-20.65,4.87s-14.74-1.62-20.65-4.87Zm35.1-16.65c3.35-4.19,5.03-10.37,5.03-18.53s-1.68-14.21-5.03-18.46c-3.35-4.24-8.17-6.36-14.45-6.36s-11.13,2.12-14.53,6.36c-3.4,4.24-5.1,10.39-5.1,18.46s1.67,14.35,5.03,18.53c3.35,4.19,8.17,6.28,14.45,6.28s11.25-2.09,14.61-6.28Z" style="fill: #373737;"/>
    </g>
    <path id="Pfad_34" data-name="Pfad 34" d="M697.97,110c5.52,0,10,4.48,10,10s-4.48,10-10,10-10-4.48-10-10,4.48-10,10-10Z" style="fill: #42c3a7;"/>
    <rect x="312.49" y="145.65" width="143.22" height="20" transform="translate(768.19 311.29) rotate(180)" style="fill: #42c3a7;"/>
  </g>
  <g style="isolation: isolate;">
    <path d="M160.41,187.82h19.32l-39.12,110.75h-16.49l-27.8-79.64-27.96,79.64h-16.49L12.9,187.82h20.42l27.49,82.47,28.9-82.47h14.29l28.12,82.94,28.28-82.94Z" style="fill: #373737;"/>
    <path d="M258.9,227.72c4.5,5.24,6.75,13.14,6.75,23.72v47.13h-19.64v-46.03c0-5.97-1.13-10.31-3.38-13.04-2.25-2.72-5.79-4.08-10.6-4.08-5.66,0-10.19,1.78-13.59,5.34-3.4,3.56-5.11,8.33-5.11,14.29v43.51h-19.64v-110.75h19.64v44.61c2.62-4.08,6.1-7.2,10.45-9.35,4.34-2.15,9.19-3.22,14.53-3.22,9.21,0,16.08,2.62,20.58,7.85Z" style="fill: #373737;"/>
    <path d="M299.97,294.95c-5.92-3.25-10.5-7.91-13.75-13.98-3.25-6.07-4.87-13.14-4.87-21.21s1.62-15.11,4.87-21.13c3.25-6.02,7.83-10.65,13.75-13.9,5.92-3.25,12.8-4.87,20.66-4.87s14.74,1.62,20.66,4.87c5.92,3.25,10.47,7.88,13.67,13.9,3.19,6.02,4.79,13.07,4.79,21.13s-1.6,15.13-4.79,21.21c-3.2,6.07-7.75,10.74-13.67,13.98-5.92,3.25-12.8,4.87-20.66,4.87s-14.74-1.62-20.66-4.87Zm35.11-16.65c3.35-4.19,5.03-10.37,5.03-18.54s-1.68-14.22-5.03-18.46c-3.35-4.24-8.17-6.36-14.45-6.36s-11.13,2.12-14.53,6.36c-3.4,4.24-5.11,10.39-5.11,18.46s1.67,14.35,5.03,18.54c3.35,4.19,8.17,6.28,14.45,6.28s11.26-2.09,14.61-6.28Z" style="fill: #373737;"/>
    <path d="M475.52,227.72c5.24,5.24,7.85,13.3,7.85,24.19v46.66h-18.69v-11.78c-1.78,4.08-4.58,7.28-8.4,9.58-3.82,2.3-8.25,3.46-13.27,3.46s-9.79-1.05-13.98-3.14c-4.19-2.09-7.49-4.97-9.9-8.64-2.41-3.66-3.61-7.75-3.61-12.25,0-5.66,1.44-10.1,4.32-13.35,2.88-3.24,7.56-5.6,14.06-7.07,6.49-1.47,15.45-2.2,26.86-2.2h3.93v-3.61c0-5.24-1.13-9.01-3.38-11.31-2.25-2.3-6-3.46-11.23-3.46-4.08,0-8.35,.71-12.8,2.12-4.45,1.41-8.82,3.38-13.12,5.89l-5.5-13.51c4.29-2.72,9.48-4.97,15.55-6.75,6.07-1.78,11.83-2.67,17.28-2.67,10.79,0,18.8,2.62,24.03,7.85Zm-15.79,52.7c3.3-3.51,4.95-8.04,4.95-13.59v-3.3h-2.83c-7.02,0-12.46,.31-16.34,.94-3.88,.63-6.65,1.73-8.33,3.3-1.68,1.57-2.51,3.72-2.51,6.44,0,3.35,1.15,6.1,3.46,8.25,2.3,2.15,5.24,3.22,8.8,3.22,5.24,0,9.5-1.75,12.8-5.26Z" style="fill: #373737;"/>
    <path d="M553.91,236.2l-11.47,1.1c-12.99,1.36-19.48,7.96-19.48,19.79v41.47h-19.64v-76.82h18.69v13.51c3.98-9.21,12.2-14.24,24.66-15.08l5.97-.47,1.26,16.49Z" style="fill: #373737;"/>
    <path d="M629.31,263.69h-52.31c.63,7.12,2.77,12.41,6.44,15.87,3.67,3.46,8.9,5.18,15.71,5.18,8.48,0,16.23-2.72,23.25-8.17l5.66,13.51c-3.56,2.93-8.04,5.29-13.43,7.07-5.4,1.78-10.81,2.67-16.26,2.67-12.57,0-22.49-3.56-29.77-10.68-7.28-7.12-10.92-16.86-10.92-29.22,0-7.85,1.57-14.82,4.71-20.89,3.14-6.07,7.57-10.79,13.27-14.14,5.71-3.35,12.17-5.03,19.4-5.03,10.58,0,18.93,3.4,25.06,10.21,6.13,6.81,9.19,16.18,9.19,28.12v5.5Zm-46.42-24.98c-3.2,3.35-5.16,8.17-5.89,14.45h35.5c-.21-6.39-1.78-11.23-4.71-14.53-2.93-3.3-7.02-4.95-12.25-4.95s-9.45,1.68-12.65,5.03Z" style="fill: #373737;"/>
    <path d="M741.78,221.91h19.32l-46.18,104.93h-19.79l13.98-31.26-32.05-73.67h20.74l21.68,54.2,22.31-54.2Z" style="fill: #373737;"/>
    <path d="M783.64,294.95c-5.92-3.25-10.5-7.91-13.75-13.98-3.25-6.07-4.87-13.14-4.87-21.21s1.62-15.11,4.87-21.13c3.25-6.02,7.83-10.65,13.75-13.9,5.92-3.25,12.8-4.87,20.66-4.87s14.74,1.62,20.66,4.87c5.92,3.25,10.47,7.88,13.67,13.9,3.19,6.02,4.79,13.07,4.79,21.13s-1.6,15.13-4.79,21.21c-3.2,6.07-7.75,10.74-13.67,13.98-5.92,3.25-12.8,4.87-20.66,4.87s-14.74-1.62-20.66-4.87Zm35.11-16.65c3.35-4.19,5.03-10.37,5.03-18.54s-1.68-14.22-5.03-18.46c-3.35-4.24-8.17-6.36-14.45-6.36s-11.13,2.12-14.53,6.36c-3.4,4.24-5.11,10.39-5.11,18.46s1.67,14.35,5.03,18.54c3.35,4.19,8.17,6.28,14.45,6.28s11.26-2.09,14.61-6.28Z" style="fill: #373737;"/>
    <path d="M930.13,221.75v76.82h-19.17v-11.78c-2.41,4.19-5.66,7.41-9.74,9.66s-8.69,3.38-13.82,3.38c-18.85,0-28.28-10.58-28.28-31.73v-46.34h19.64v46.5c0,5.45,1.1,9.48,3.3,12.1,2.2,2.62,5.66,3.93,10.37,3.93,5.44,0,9.82-1.81,13.12-5.42s4.95-8.4,4.95-14.37v-42.73h19.64Z" style="fill: #373737;"/>
    <path d="M967.36,259.45c0-5.76,1.05-10.63,3.14-14.61,2.09-3.98,5.13-8.33,9.11-13.04,3.04-3.66,5.29-6.75,6.75-9.27,1.46-2.51,2.2-5.34,2.2-8.48,0-3.56-1.26-6.36-3.77-8.4-2.51-2.04-6.02-3.06-10.52-3.06s-9.24,1-14.22,2.98c-4.97,1.99-9.87,4.82-14.69,8.48l-6.6-14.77c4.29-3.87,9.84-6.96,16.65-9.27,6.81-2.3,13.61-3.46,20.42-3.46,6.39,0,12.04,1.08,16.97,3.22,4.92,2.15,8.77,5.18,11.55,9.11,2.77,3.93,4.16,8.4,4.16,13.43,0,5.45-1.31,10.21-3.93,14.29-2.62,4.08-6.39,8.59-11.31,13.51-4.3,4.61-7.52,8.38-9.66,11.31-2.15,2.93-3.48,6.28-4.01,10.05l-.63,4.24h-11.62v-6.28Zm-4.87,39.12v-21.68h21.99v21.68h-21.99Z" style="fill: #373737;"/>
  </g>
</svg>