<?xml version="1.0" encoding="UTF-8"?>
<svg id="Ebene_1" data-name="Ebene 1" xmlns="http://www.w3.org/2000/svg" viewBox="0 0 710 180">
  <g style="isolation: isolate;">
    <path d="M12.26,120.9l10.99-.79c9.32-.63,13.98-5.76,13.98-15.39V25.09h20.26V104.57c0,9.84-2.59,17.46-7.77,22.85-5.18,5.39-12.91,8.4-23.17,9.03l-12.88,.79-1.41-16.33Z" style="fill: #ededed;"/>
    <path d="M94.01,132.21c-5.92-3.24-10.5-7.9-13.74-13.98-3.25-6.07-4.87-13.14-4.87-21.2s1.62-15.1,4.87-21.12c3.25-6.02,7.83-10.65,13.74-13.9,5.91-3.24,12.8-4.87,20.65-4.87s14.74,1.62,20.65,4.87c5.91,3.25,10.47,7.88,13.66,13.9,3.19,6.02,4.79,13.06,4.79,21.12s-1.6,15.13-4.79,21.2c-3.2,6.07-7.75,10.73-13.66,13.98-5.92,3.25-12.8,4.87-20.65,4.87s-14.74-1.62-20.65-4.87Zm35.1-16.65c3.35-4.19,5.03-10.37,5.03-18.53s-1.68-14.21-5.03-18.46c-3.35-4.24-8.17-6.36-14.45-6.36s-11.13,2.12-14.53,6.36c-3.4,4.24-5.1,10.39-5.1,18.46s1.67,14.35,5.03,18.53c3.35,4.19,8.17,6.28,14.45,6.28s11.25-2.09,14.61-6.28Z" style="fill: #ededed;"/>
    <path d="M168.85,23.37h21.67v19.32h-21.67V23.37Zm1.1,112.46V59.02h19.63v76.8h-19.63Z" style="fill: #ededed;"/>
    <path d="M275.02,64.99c4.5,5.24,6.75,13.14,6.75,23.72v47.12h-19.63v-46.02c0-5.97-1.13-10.31-3.38-13.04-2.25-2.72-5.79-4.08-10.6-4.08-5.65,0-10.18,1.78-13.59,5.34-3.4,3.56-5.1,8.32-5.1,14.29v43.51h-19.63V59.02h19.16v11.47c2.62-4.29,6.13-7.59,10.52-9.9,4.4-2.3,9.37-3.46,14.92-3.46,9.21,0,16.07,2.62,20.58,7.85Z" style="fill: #ededed;"/>
    <path d="M425.64,135.74c1.88,1.62,3.72,3.9,5.5,6.83l11.31,18.38-16.96,8.17-15.24-24.66c-2.93-4.82-7.91-7.22-14.92-7.22-10.79,0-20.13-2.3-28.04-6.91-7.91-4.61-14.01-11.2-18.3-19.79-4.29-8.58-6.44-18.64-6.44-30.16s2.14-21.54,6.44-30.08c4.29-8.53,10.39-15.1,18.3-19.71,7.9-4.61,17.25-6.91,28.04-6.91s19.97,2.3,27.88,6.91c7.9,4.61,14,11.18,18.3,19.71,4.29,8.54,6.44,18.56,6.44,30.08,0,12.56-2.49,23.32-7.46,32.28-4.97,8.95-12.12,15.47-21.44,19.55,2.51,.73,4.71,1.91,6.6,3.53Zm-6.52-25.21c5.71-7.01,8.56-17.07,8.56-30.16s-2.85-23.11-8.56-30.08c-5.71-6.96-13.64-10.44-23.79-10.44s-18.25,3.48-23.95,10.44c-5.71,6.96-8.56,16.99-8.56,30.08s2.85,23.14,8.56,30.16c5.71,7.02,13.69,10.52,23.95,10.52s18.09-3.51,23.79-10.52Z" style="fill: #ededed;"/>
    <path d="M537.15,59.02v76.8h-19.16v-11.78c-2.41,4.19-5.65,7.41-9.74,9.66-4.08,2.25-8.69,3.38-13.82,3.38-18.85,0-28.27-10.57-28.27-31.73V59.02h19.63v46.49c0,5.45,1.1,9.48,3.3,12.09,2.2,2.62,5.65,3.93,10.37,3.93,5.44,0,9.82-1.81,13.11-5.42,3.3-3.61,4.95-8.4,4.95-14.37V59.02h19.63Z" style="fill: #ededed;"/>
    <path d="M556.47,23.37h21.67v19.32h-21.67V23.37Zm1.1,112.46V59.02h19.63v76.8h-19.63Z" style="fill: #ededed;"/>
    <path d="M617.88,121.06h43.66v14.76h-66.91v-13.66l41.78-48.37h-40.99v-14.76h64.55v13.35l-42.09,48.69Z" style="fill: #ededed;"/>
  </g>
  <path id="Pfad_34" data-name="Pfad 34" d="M687.74,115.91c5.52,0,10,4.48,10,10s-4.48,10-10,10-10-4.48-10-10,4.48-10,10-10Z" style="fill: #42c3a7;"/>
  <rect x="12.26" y="151.56" width="143.22" height="20" transform="translate(167.74 323.12) rotate(180)" style="fill: #42c3a7;"/>
</svg>