<?xml version="1.0" encoding="UTF-8"?>
<svg id="Ebene_1" data-name="Ebene 1" xmlns="http://www.w3.org/2000/svg" viewBox="0 0 100 100">
  <path d="M77.88,12.19h-8.12v3.28c0,4.28-3.5,7.77-7.77,7.77h-23.97c-4.28,0-7.77-3.5-7.77-7.77v-3.28h-8.12c-4.28,0-7.77,3.5-7.77,7.77V92.23c0,4.28,3.5,7.77,7.77,7.77h55.76c4.28,0,7.77-3.5,7.77-7.77V19.97c0-4.28-3.5-7.77-7.77-7.77ZM23.73,41.21c.75-.69,1.69-1.03,2.63-1.03,1.05,0,2.1,.42,2.86,1.25l4.27,4.64,10.3-9.48c1.58-1.46,4.05-1.36,5.5,.23,.69,.75,1.03,1.69,1.03,2.64,0,1.05-.42,2.09-1.25,2.86l-13.15,12.09c-1.16,1.07-2.78,1.29-4.14,.72-.15-.06-.3-.13-.45-.22-.21-.12-.42-.26-.61-.43-.13-.09-.25-.21-.36-.33l-6.86-7.45c-1.45-1.58-1.35-4.04,.23-5.49Zm25.45,31.9l-13.15,12.09c-1.16,1.07-2.78,1.29-4.14,.72-.15-.06-.3-.13-.45-.22-.21-.12-.42-.26-.61-.43-.13-.09-.25-.21-.36-.33l-6.86-7.45c-1.45-1.58-1.35-4.04,.23-5.49,.75-.69,1.69-1.03,2.63-1.03,1.05,0,2.1,.42,2.86,1.25l4.27,4.64,10.3-9.48c1.58-1.46,4.05-1.36,5.5,.23,.69,.75,1.03,1.69,1.03,2.64,0,1.05-.42,2.09-1.25,2.86Zm6.5-29.07h17.63c2.21,0,4.01,1.79,4.01,4.01s-1.79,4.01-4.01,4.01h-17.63c-2.21,0-4.01-1.79-4.01-4.01s1.79-4.01,4.01-4.01Zm17.74,38.81h-17.63c-2.21,0-4.01-1.79-4.01-4.01s1.79-4.01,4.01-4.01h17.63c2.21,0,4.01,1.79,4.01,4.01s-1.79,4.01-4.01,4.01Z" style="fill: #373737;"/>
  <path d="M64.27,4.41h-5.75C58.26,1.95,54.55,0,50,0s-8.26,1.95-8.52,4.41h-5.75c-1.95,0-3.52,1.58-3.52,3.52v7.05c0,3.35,2.72,6.07,6.07,6.07h23.45c3.35,0,6.07-2.72,6.07-6.07V7.93c0-1.95-1.58-3.52-3.52-3.52Z" style="fill: #373737;"/>
</svg>