<?xml version="1.0" encoding="UTF-8"?>
<svg id="Ebene_1" data-name="Ebene 1" xmlns="http://www.w3.org/2000/svg" viewBox="0 0 100 100">
  <g id="Gruppe_424" data-name="Gruppe 424">
    <path id="Linie_5" data-name="Linie 5" d="M92,26H8C3.58,26,0,22.42,0,18S3.58,10,8,10H92c4.42,0,8,3.58,8,8s-3.58,8-8,8Z" style="fill: #373737;"/>
    <path id="Linie_6" data-name="Linie 6" d="M26,90H8c-4.42,0-8-3.58-8-8s3.58-8,8-8H26c4.42,0,8,3.58,8,8s-3.58,8-8,8Z" style="fill: #373737;"/>
    <path id="Linie_7" data-name="Linie 7" d="M56,58H8c-4.42,0-8-3.58-8-8s3.58-8,8-8H56c4.42,0,8,3.58,8,8s-3.58,8-8,8Z" style="fill: #373737;"/>
  </g>
</svg>