<?xml version="1.0" encoding="UTF-8"?>
<svg id="Ebene_1" data-name="Ebene 1" xmlns="http://www.w3.org/2000/svg" viewBox="0 0 100 100">
  <path d="M50,0C22.39,0,0,22.39,0,50s22.39,50,50,50,50-22.39,50-50S77.61,0,50,0Zm30.77,44.84l-13.94,13.58,3.29,19.18c.13,.75-.18,1.51-.8,1.96-.35,.25-.76,.38-1.18,.38-.32,0-.64-.08-.93-.23l-17.23-9.06-17.23,9.06c-.67,.36-1.49,.3-2.11-.15-.62-.45-.92-1.21-.8-1.96l3.29-19.18-13.94-13.58c-.54-.53-.74-1.33-.51-2.05s.86-1.25,1.61-1.36l19.26-2.8,8.61-17.45c.34-.68,1.03-1.11,1.79-1.11s1.46,.43,1.79,1.11l8.61,17.45,19.26,2.8c.75,.11,1.38,.64,1.61,1.36s.04,1.52-.51,2.05Z" style="fill: #373737;"/>
</svg>