<?xml version="1.0" encoding="UTF-8"?>
<svg id="Ebene_1" data-name="Ebene 1" xmlns="http://www.w3.org/2000/svg" viewBox="0 0 100 100">
  <path d="M49.99,0C22.37,0,0,22.39,0,50s22.37,50,49.99,50h50V50C99.99,22.39,77.6,0,49.99,0Zm-.9,83.54c-3.8,0-6.59-2.7-6.59-6.59s2.79-6.59,6.59-6.59,6.68,2.7,6.68,6.59-2.79,6.59-6.68,6.59Zm11.49-28.48c-4.65,4.23-6.17,6.34-6.51,10.65h-10.06c.34-6,1.94-9.04,6.08-13.61,5.16-5.75,7.02-8.71,7.02-12.59,0-4.99-2.7-7.94-7.69-7.94s-8.03,3.3-8.37,9.97h-11.83c.34-11.58,8.45-18.68,20.96-18.68s19.27,6.25,19.27,15.89c0,6.42-2.87,10.9-8.87,16.31Z" style="fill: #373737;"/>
</svg>