<?xml version="1.0" encoding="UTF-8"?>
<svg id="Ebene_1" data-name="Ebene 1" xmlns="http://www.w3.org/2000/svg" viewBox="0 0 1125 2436">
  <g>
    <path d="M606.19,2117.84l-147.44,230.47h316.9l-147.44-230.47c-4.89-7.65-17.13-7.65-22.02,0h0Z" style="fill: #fff; fill-rule: evenodd; stroke: #e1e4e5; stroke-width: 4px;"/>
    <path d="M576.32,2164.6l33.82-52.87c3.14-4.91,10.99-4.91,14.13,0l41.55,64.95c1.35,2.12,1.75,4.62,1.11,7l-.05,.16c-1.44,5.35-8.91,7.1-13.05,3.05l-13.32-13.01c-3.56-3.48-9.76-3.15-12.84,.69l-.1,.13c-2.22,2.77-6.66,3.09-9.34,.67l-.1-.09c-2.65-2.39-7.04-2.03-9.17,.75l-7.02,9.17c-2.87,3.75-9.31,2.62-10.42-1.82l-3.5-14c-.64-2.58-4.12-3.57-6.29-1.8l-.64,.52c-2.63,2.14-6.54-.72-4.77-3.48h0Zm-110.52-54.15l150.53,235.76H292.79l150.53-235.76c5-7.83,17.49-7.83,22.49,0Z" style="fill: #fff; fill-rule: evenodd; stroke: #e1e4e5; stroke-width: 4px;"/>
    <path d="M552.13,2159.34l109.24,170.49h-234.81l109.24-170.49c3.63-5.66,12.69-5.66,16.32,0h0Zm-55.04-1.17l-35.38-55.2c-3.28-5.12-11.5-5.12-14.78,0l-43.46,67.81c-1.42,2.21-1.83,4.82-1.16,7.3l.05,.17c1.51,5.59,9.32,7.41,13.65,3.19l13.94-13.58c3.73-3.63,10.21-3.28,13.43,.72l.11,.13c2.32,2.89,6.96,3.22,9.77,.7l.11-.1c2.77-2.49,7.37-2.12,9.59,.78l7.34,9.58c3,3.91,9.74,2.74,10.9-1.9l3.66-14.62c.67-2.69,4.31-3.73,6.58-1.89l.67,.54c2.75,2.23,6.84-.75,4.99-3.64Z" style="fill: #fff; fill-rule: evenodd; stroke: #e1e4e5; stroke-width: 4px;"/>
    <path d="M573.69,2192.36l-24.26-37.4c-2.25-3.47-7.88-3.47-10.13,0l-29.8,45.94c-.97,1.5-1.26,3.27-.8,4.95l.03,.12c1.04,3.78,6.39,5.02,9.36,2.16l9.56-9.2c2.56-2.46,7-2.23,9.21,.49l.07,.09c1.59,1.96,4.78,2.18,6.7,.47l.07-.07c1.9-1.69,5.05-1.43,6.58,.53l5.03,6.49c2.06,2.65,6.68,1.85,7.47-1.29l2.51-9.9c.46-1.82,2.96-2.53,4.51-1.28l.46,.37c1.89,1.51,4.69-.51,3.42-2.46h0Zm74.18-58.59l-139.51,218.08h299.87l-139.51-218.08c-4.63-7.24-16.21-7.24-20.84,0h0Z" style="fill: #fff; fill-rule: evenodd; stroke: #e1e4e5; stroke-width: 4px;"/>
    <path d="M428.39,2213.28l88.28,143.85h-189.76l88.28-143.85c2.93-4.78,10.26-4.78,13.19,0Z" style="fill: #fff; fill-rule: evenodd; stroke: #e1e4e5; stroke-width: 4px;"/>
    <path d="M534.56,2234.59l74.95,122.54h-161.09l74.95-122.54c2.49-4.07,8.71-4.07,11.2,0h0Z" style="fill: #fff; fill-rule: evenodd; stroke: #e1e4e5; stroke-width: 4px;"/>
    <path d="M97.57,2429.24s95.29-93.98,229.18-95.3c134.5-1.33,241.5,92.09,251.35,96.91l-480.53-1.61h0Z" style="fill: #fff; fill-rule: evenodd; stroke: #e1e4e5; stroke-width: 4px;"/>
    <path d="M314.63,2430.09s127.5-124.43,306.65-126.18c179.96-1.76,323.14,121.92,336.33,128.3l-642.98-2.13Z" style="fill: #fff; fill-rule: evenodd; stroke: #e1e4e5; stroke-width: 4px;"/>
    <path d="M604.04,2430.81s84.46-82.07,203.13-83.22c119.21-1.16,214.06,80.41,222.79,84.63l-425.93-1.4h0Z" style="fill: #fff; fill-rule: evenodd; stroke: #e1e4e5; stroke-width: 4px;"/>
    <path d="M619.06,1957.82c0,38.07-30.86,68.94-68.94,68.94s-68.94-30.87-68.94-68.94,30.87-68.94,68.94-68.94,68.94,30.87,68.94,68.94Z" style="fill: #42c3a7; fill-rule: evenodd;"/>
    <path d="M940.04,2080.44c18.52,0,9.85-29.37-13.61-22.35-1.3-40.77-67.76-70.61-95.24-15.61-7.77-6.15-25.22,5.46-21.35,15.61-8.63,.74-15.42,1.73-20.7,3.06-12.2,3.05-9.78,19.16,2.79,19.04l148.11,.25Zm-348.89,0c-17.51,0-9.32-27.77,12.87-21.14,1.23-38.55,64.07-66.77,90.06-14.76,7.35-5.81,23.85,5.17,20.19,14.76,8.16,.7,14.58,1.64,19.58,2.89,11.53,2.89,9.25,18.12-2.64,18.01l-140.06,.24h0Zm-146.1-117.71c13.09,0,6.97-20.76-9.62-15.8-.92-28.83-47.91-49.92-67.34-11.04-5.49-4.35-17.83,3.86-15.1,11.04-6.1,.52-10.9,1.23-14.64,2.16-8.62,2.16-6.92,13.54,1.97,13.47l104.73,.18h0Zm282.08,69.5h78.45c7.01,0,10.04-9.1,4.3-13.14l-.24-.17c-8.17-5.63-18.9-5.12-18.9-5.12,0,0-1.53-30.46-30.39-30.46-26.09,0-36.49,25.66-40.24,39.8-1.22,4.59,2.28,9.08,7.03,9.08h0Zm-510.04-16.42h70.47c6.3,0,9.02-8.22,3.86-11.87l-.22-.15c-7.34-5.08-16.98-4.62-16.98-4.62,0,0-1.37-27.51-27.3-27.51-23.44,0-32.78,23.18-36.15,35.95-1.1,4.15,2.05,8.2,6.31,8.2h0Zm17.15,64.35h-94.54c-7.65,0-10.96-9.69-4.69-13.99,.09-.06,.18-.12,.26-.18,8.92-5.99,20.62-5.45,20.62-5.45,0,0,1.67-32.42,33.17-32.42,15.57,0,28.15,26.02,28.15,26.02,0,0,21.18,0,24.69,16.35,1.06,4.95-2.49,9.67-7.67,9.67h0Zm53.17,3.16h209.59c19.67,0,18.77-16.28,12.35-21.96-6.59-5.82-19.6-3.46-19.6-3.46,0,0-3.87-10.95-16.63-16.28-11.28-4.72-23.1-2.47-23.1-2.47,0,0,0-7.52-7.22-13.74-7.22-6.23-16.85-5.62-16.85-5.62,0,0-6.62-41.45-50.86-41.45s-49.36,39.03-49.36,39.03c0,0-9.93,0-17.16,6.66-7.22,6.66-8.13,14.22-8.13,14.22,0,0-24.16-3.27-31.3,17.68-4.26,12.49,4.49,27.4,18.28,27.4h0Zm522.76-117.71h-154.17c-14.47,0-13.81-11.98-9.08-16.15,4.84-4.28,14.42-2.54,14.42-2.54,0,0,2.85-8.06,12.23-11.98,8.3-3.47,16.99-1.82,16.99-1.82,0,0,0-5.53,5.31-10.11,5.31-4.58,12.4-4.13,12.4-4.13,0,0,4.87-30.49,37.41-30.49s36.31,28.71,36.31,28.71c0,0,7.3,0,12.62,4.9,5.31,4.9,5.98,10.46,5.98,10.46,0,0,17.77-2.41,23.02,13,3.13,9.18-3.3,20.16-13.44,20.16h0Z" style="fill: #fff; fill-rule: evenodd; stroke: #e1e4e5; stroke-width: 4px;"/>
    <path d="M909.83,2367.55c-10.93,21.69-31.99,26.52-53.93,28.56-21.11,1.96-42.12,1.39-63.31,1.15-31.61-.36-61.17,11.05-83.44,34.45" style="fill: #fff; fill-rule: evenodd;"/>
    <path d="M909.83,2367.55c-10.93,21.69-31.99,26.52-53.93,28.56-21.11,1.96-42.12,1.39-63.31,1.15-31.61-.36-61.17,11.05-83.44,34.45" style="fill: none; stroke: #e1e4e5; stroke-width: 4px;"/>
    <path d="M239.55,2426.75v-15.02" style="fill: none; stroke: #e1e4e5; stroke-width: 4px;"/>
    <path d="M537.15,2426.75v-15.02" style="fill: none; stroke: #e1e4e5; stroke-width: 4px;"/>
    <path d="M796.53,2426.75v-15.02" style="fill: none; stroke: #e1e4e5; stroke-width: 4px;"/>
    <path d="M421.11,2426.75v-15.02" style="fill: none; stroke: #e1e4e5; stroke-width: 4px;"/>
    <path d="M255.93,2426.75v-10.92" style="fill: none; stroke: #e1e4e5; stroke-width: 4px;"/>
    <path d="M553.53,2426.75v-10.92" style="fill: none; stroke: #e1e4e5; stroke-width: 4px;"/>
    <path d="M812.91,2426.75v-10.92" style="fill: none; stroke: #e1e4e5; stroke-width: 4px;"/>
    <path d="M404.73,2426.75v-10.92" style="fill: none; stroke: #e1e4e5; stroke-width: 4px;"/>
    <path d="M294.15,2426.75v-6.83" style="fill: none; stroke: #e1e4e5; stroke-width: 4px;"/>
    <path d="M182.21,2426.75v-6.83" style="fill: none; stroke: #e1e4e5; stroke-width: 4px;"/>
    <path d="M591.75,2426.75v-6.83" style="fill: none; stroke: #e1e4e5; stroke-width: 4px;"/>
    <path d="M851.13,2426.75v-6.83" style="fill: none; stroke: #e1e4e5; stroke-width: 4px;"/>
    <path d="M366.51,2426.75v-6.83" style="fill: none; stroke: #e1e4e5; stroke-width: 4px;"/>
    <path d="M223.16,2426.75v-10.92" style="fill: none; stroke: #e1e4e5; stroke-width: 4px;"/>
    <path d="M520.77,2426.75v-10.92" style="fill: none; stroke: #e1e4e5; stroke-width: 4px;"/>
    <path d="M780.14,2426.75v-10.92" style="fill: none; stroke: #e1e4e5; stroke-width: 4px;"/>
    <path d="M437.49,2426.75v-10.92" style="fill: none; stroke: #e1e4e5; stroke-width: 4px;"/>
    <path d="M939.2,2288.05h.05c1.34,0,2.43,1.09,2.43,2.43v109.61h-4.91v-109.61c0-1.34,1.09-2.43,2.43-2.43h0Z" style="fill: #fff; fill-rule: evenodd; stroke: #e1e4e5; stroke-width: 4px;"/>
    <path d="M896.18,2339.37c0,23.88,19.36,43.24,43.24,43.24s43.24-19.36,43.24-43.24-19.36-70.97-43.24-70.97-43.24,47.09-43.24,70.97Z" style="fill: #fff; fill-rule: evenodd;"/>
    <path d="M896.18,2339.37c0,23.88,19.36,43.24,43.24,43.24s43.24-19.36,43.24-43.24-19.36-70.97-43.24-70.97-43.24,47.09-43.24,70.97" style="fill: none; stroke: #e1e4e5; stroke-width: 4px;"/>
    <path d="M271.65,2271.67h.05c1.34,0,2.43,1.09,2.43,2.43v109.61h-4.91v-109.61c0-1.34,1.09-2.43,2.43-2.43Z" style="fill: #fff; fill-rule: evenodd; stroke: #e1e4e5; stroke-width: 4px;"/>
    <path d="M228.63,2322.99c0,23.88,19.36,43.24,43.24,43.24s43.24-19.36,43.24-43.24-19.36-70.97-43.24-70.97-43.24,47.09-43.24,70.97Z" style="fill: #fff; fill-rule: evenodd;"/>
    <path d="M228.63,2322.99c0,23.88,19.36,43.24,43.24,43.24s43.24-19.36,43.24-43.24-19.36-70.97-43.24-70.97-43.24,47.09-43.24,70.97" style="fill: none; stroke: #e1e4e5; stroke-width: 4px;"/>
    <path d="M156.75,2321.18h.04c1,0,1.8,.81,1.8,1.8v81.2h-3.64v-81.2c0-.99,.81-1.8,1.8-1.8h0Z" style="fill: #fff; fill-rule: evenodd; stroke: #e1e4e5; stroke-width: 4px;"/>
    <path d="M124.87,2359.2c0,17.69,14.34,32.03,32.03,32.03s32.03-14.34,32.03-32.03-14.34-52.58-32.03-52.58-32.03,34.89-32.03,52.58Z" style="fill: #fff; fill-rule: evenodd;"/>
    <path d="M124.87,2359.2c0,17.69,14.34,32.03,32.03,32.03s32.03-14.34,32.03-32.03-14.34-52.58-32.03-52.58-32.03,34.89-32.03,52.58" style="fill: none; stroke: #e1e4e5; stroke-width: 4px;"/>
    <path d="M693.25,2269.31h.04c1,0,1.8,.81,1.8,1.8v81.2h-3.64v-81.2c0-.99,.81-1.8,1.8-1.8Z" style="fill: #fff; fill-rule: evenodd; stroke: #e1e4e5; stroke-width: 4px;"/>
    <path d="M661.38,2307.33c0,17.69,14.34,32.03,32.03,32.03s32.03-14.34,32.03-32.03-14.34-52.58-32.03-52.58-32.03,34.89-32.03,52.58Z" style="fill: #fff; fill-rule: evenodd;"/>
    <path d="M661.38,2307.33c0,17.69,14.34,32.03,32.03,32.03s32.03-14.34,32.03-32.03-14.34-52.58-32.03-52.58-32.03,34.89-32.03,52.58" style="fill: none; stroke: #e1e4e5; stroke-width: 4px;"/>
    <path d="M440.92,2319.02h.02c.66,0,1.2,.54,1.2,1.2v53.93h-2.42v-53.93c0-.66,.54-1.2,1.2-1.2h0Z" style="fill: #fff; fill-rule: evenodd; stroke: #e1e4e5; stroke-width: 4px;"/>
    <path d="M419.75,2344.27c0,11.75,9.52,21.27,21.27,21.27s21.27-9.53,21.27-21.27-9.52-34.92-21.27-34.92-21.27,23.17-21.27,34.92Z" style="fill: #fff; fill-rule: evenodd;"/>
    <path d="M419.75,2344.27c0,11.75,9.52,21.27,21.27,21.27s21.27-9.53,21.27-21.27-9.52-34.92-21.27-34.92-21.27,23.17-21.27,34.92" style="fill: none; stroke: #e1e4e5; stroke-width: 4px;"/>
    <path d="M829.98,2320.39h.02c.66,0,1.2,.54,1.2,1.2v53.93h-2.42v-53.93c0-.66,.54-1.2,1.2-1.2h0Z" style="fill: #fff; fill-rule: evenodd; stroke: #e1e4e5; stroke-width: 4px;"/>
    <path d="M808.81,2345.64c0,11.75,9.52,21.27,21.27,21.27s21.27-9.53,21.27-21.27-9.52-34.92-21.27-34.92-21.27,23.17-21.27,34.92Z" style="fill: #fff; fill-rule: evenodd;"/>
    <path d="M808.81,2345.64c0,11.75,9.52,21.27,21.27,21.27s21.27-9.53,21.27-21.27-9.52-34.92-21.27-34.92-21.27,23.17-21.27,34.92" style="fill: none; stroke: #e1e4e5; stroke-width: 4px;"/>
    <path d="M607.46,2272.61h.02c.66,0,1.2,.54,1.2,1.2v53.93h-2.42v-53.93c0-.66,.54-1.2,1.2-1.2h0Z" style="fill: #fff; fill-rule: evenodd; stroke: #e1e4e5; stroke-width: 4px;"/>
    <path d="M586.29,2297.86c0,11.75,9.52,21.27,21.27,21.27s21.27-9.53,21.27-21.27-9.52-34.92-21.27-34.92-21.27,23.17-21.27,34.92Z" style="fill: #fff; fill-rule: evenodd;"/>
    <path d="M586.29,2297.86c0,11.75,9.52,21.27,21.27,21.27s21.27-9.53,21.27-21.27-9.52-34.92-21.27-34.92-21.27,23.17-21.27,34.92" style="fill: none; stroke: #e1e4e5; stroke-width: 4px;"/>
    <path d="M537.84,2336.77h.02c.66,0,1.2,.54,1.2,1.2v53.93h-2.42v-53.93c0-.66,.54-1.2,1.2-1.2h0Z" style="fill: #fff; fill-rule: evenodd; stroke: #e1e4e5; stroke-width: 4px;"/>
    <path d="M516.67,2362.02c0,11.75,9.52,21.27,21.27,21.27s21.27-9.53,21.27-21.27-9.52-34.92-21.27-34.92-21.27,23.17-21.27,34.92Z" style="fill: #fff; fill-rule: evenodd;"/>
    <path d="M516.67,2362.02c0,11.75,9.52,21.27,21.27,21.27s21.27-9.53,21.27-21.27-9.52-34.92-21.27-34.92-21.27,23.17-21.27,34.92" style="fill: none; stroke: #e1e4e5; stroke-width: 4px;"/>
    <path d="M68.22,2428.98h988.37c1.88,0,3.41,1.53,3.41,3.41h0c0,1.88-1.53,3.41-3.41,3.41H68.22c-1.88,0-3.41-1.53-3.41-3.41h0c0-1.88,1.53-3.41,3.41-3.41Z" style="fill: #e1e4e5;"/>
  </g>
  <circle id="Ellipse_83" data-name="Ellipse 83" cx="1055.42" cy="419.23" r="128.23" style="fill: #ededed;"/>
  <path id="Polygon_7" data-name="Polygon 7" d="M26.97,523.47l171.42,13.5,42.98,168.37-144.87,90.54-132.51-112.42,62.98-160Z" style="fill: #ededed;"/>
  <path id="Polygon_5" data-name="Polygon 5" d="M1035.33,955.6l-63.47,234.74-171.27-171.27,234.74-63.47Z" style="fill: #ededed;"/>
  <rect id="Rechteck_266" data-name="Rechteck 266" x="-3.21" y="1596.22" width="202.32" height="202.32" transform="translate(-1572.7 1381.79) rotate(-76)" style="fill: #ededed;"/>
</svg>