<?xml version="1.0" encoding="UTF-8"?>
<svg id="Ebene_1" data-name="Ebene 1" xmlns="http://www.w3.org/2000/svg" xmlns:xlink="http://www.w3.org/1999/xlink" viewBox="0 0 2436 1125">
  <defs>
    <linearGradient id="Unbenannter_Verlauf_4" data-name="Unbenannter Verlauf 4" x1="1017.29" y1="-1468.24" x2="635.85" y2="252.7" gradientTransform="translate(0 -55.49) scale(1 -1)" gradientUnits="userSpaceOnUse">
      <stop offset="0" stop-color="#fff"/>
      <stop offset="1" stop-color="#eee"/>
    </linearGradient>
    <linearGradient id="Unbenannter_Verlauf_4-2" data-name="Unbenannter Verlauf 4" x1="1068.1" y1="-591.75" x2="918.71" y2="79.56" xlink:href="#Unbenannter_Verlauf_4"/>
    <linearGradient id="Unbenannter_Verlauf_4-3" data-name="Unbenannter Verlauf 4" x1="127.94" y1="-756.03" x2="235.89" y2="-705.03" xlink:href="#Unbenannter_Verlauf_4"/>
    <linearGradient id="Unbenannter_Verlauf_4-4" data-name="Unbenannter Verlauf 4" x1="1217.39" y1="-337.1" x2="1391.11" y2="-64.78" xlink:href="#Unbenannter_Verlauf_4"/>
  </defs>
  <path d="M1264.23,786.83c5.66,104.3-198.26,316.39-449.6,237.89-116.9-36.51-107-97.12-195.88-176.99-52.98-47.6-129.11-83.6-150.28-152.8-18.29-59.73-7.07-123.92,24.64-165.68,71.32-93.91,215.29-158.21,357.15-10.25,141.86,147.96,399.36-1.18,413.98,267.82Z" style="fill: url(#Unbenannter_Verlauf_4);"/>
  <path d="M1181.39,342.31c-16.76,29.91-53.47,34.02-112.28,28.34-44.23-4.28-84.56-7.6-128.79-31.71-30.96-16.87-55.47-39.69-73.35-61.85-19.38-24.01-46.43-51.42-33.17-78.64,18.22-37.4,123.62-68.9,225.97-17.39,112.43,56.6,138.02,132.02,121.63,161.25Z" style="fill: url(#Unbenannter_Verlauf_4-2);"/>
  <path d="M1084.23,147.74c-1.09-.39-2.19-.75-3.31-1.06-.37-.11-.73-.22-1.1-.31-.79-.2-1.59-.39-2.38-.57-.38-.08-.76-.16-1.15-.23-.8-.15-1.6-.28-2.4-.4-.47-.07-.94-.13-1.41-.18-.88-.1-1.77-.18-2.66-.24-.29-.02-.57-.04-.86-.05-.84-.04-1.68-.06-2.52-.06h-387.42c-2.66,0-5.32,.19-7.95,.6-.86,.13-1.72,.29-2.57,.46-22.11,4.53-39.13,23.06-41.45,45.94-.18,1.76-.27,3.55-.27,5.36V990.74c0,22.67,14.36,41.96,34.47,49.25,.09,.03,.18,.06,.27,.09,1,.35,2.01,.68,3.03,.97,.37,.11,.73,.22,1.11,.31,.39,.1,.78,.2,1.18,.29,.4,.09,.8,.19,1.2,.28,.38,.08,.76,.16,1.15,.23,.8,.15,1.6,.28,2.4,.4,.47,.07,.94,.12,1.41,.18,.88,.1,1.77,.18,2.65,.24,.29,.02,.57,.05,.86,.06,.83,.04,1.67,.06,2.52,.06h387.43c1.8,0,3.59-.09,5.34-.27,24.59-2.5,44.14-22.1,46.63-46.74,.18-1.76,.27-3.55,.27-5.36V196.99c-.01-22.67-14.37-41.96-34.47-49.25h0Z" style="fill: #42c3a7;"/>
  <path d="M872.74,1000.44c16.63,0,30.12-13.48,30.12-30.12s-13.48-30.12-30.12-30.12-30.12,13.48-30.12,30.12,13.48,30.12,30.12,30.12h0Z" style="fill: #fff;"/>
  <path d="M827.56,184.77h92.86c2.77,0,5.02,2.25,5.02,5.02h0c0,2.77-2.25,5.02-5.02,5.02h-92.86c-2.77,0-5.02-2.25-5.02-5.02h0c0-2.77,2.25-5.02,5.02-5.02Z" style="fill: #fff;"/>
  <circle cx="841.51" cy="403.55" r="12.3" style="fill: #fff;"/>
  <path d="M966.01,426.11c-4.23-.65-8.5-1-12.78-1.04-25.8-.19-50.38,11.12-67.24,30.94-16.86,19.82-24.32,46.15-20.39,72.03" style="fill: none; stroke: #fff; stroke-linecap: round; stroke-linejoin: round; stroke-width: 10.4px;"/>
  <path d="M970.62,431.98h0c0,54.75-44.39,99.13-99.14,99.13h0c-54.75,0-99.13-44.38-99.14-99.13h0c0-54.75,44.38-99.14,99.14-99.14h0c54.75,0,99.14,44.38,99.14,99.14h0Z" style="fill: none; stroke: #fff; stroke-linecap: round; stroke-linejoin: round; stroke-width: 10.4px;"/>
  <rect x="739.72" y="726.88" width="278.58" height="20.08" rx="10.04" ry="10.04" style="fill: #fff;"/>
  <rect x="759.8" y="666.64" width="258.5" height="20.08" rx="10.04" ry="10.04" style="fill: #fff;"/>
  <rect x="727.17" y="606.41" width="291.13" height="20.08" rx="10.04" ry="10.04" style="fill: #fff;"/>
  <circle cx="1178.68" cy="191.23" r="15.92" style="fill: #e1e4e5;"/>
  <path d="M406.79,285.53c-1.25,4.99,.41,10.18,3.14,14.54,1.93,3.08,4.63-.32,8.57-.87,6.09-.85,9.94-7.3,11.26-22.99,.61-11.47,.32-17.19-.32-18.19-2.27-3.58-8.12-4.78-12.74-4.44" style="fill: #30524b;"/>
  <path d="M417.85,967.87s-.37,23.58,14.18,31.95c14.55,8.38,37.1,23.94,37.1,23.94l-85.76,2.89,2.45-58.99,32.04,.21h0Z" style="fill: #f8ae9d; fill-rule: evenodd;"/>
  <path d="M380.37,993.85l-1.4,38.24h19.92l1.37-4.93s7.5-.31,11.83,1.82c4.58,2.25,5.2,3.34,5.2,3.34l63.19,.13s3.12-12.36-16.14-21.3c-19.26-8.94-33.28-21.64-35.95-22.93-2.68-1.31-8.1-2.05-11.91,1.03-3.81,3.07-6.83,11.16-15.47,11.41-11.12,.33-17.51-13.28-20.64-6.81h0Zm-24.63-410.75s23.41,198.61,24.13,212.42c.73,13.81-7.52,37.63-7.36,63.46,.16,25.83,3.01,116.85,3.01,116.85l51.63,.84s21.7-164.48,21.93-189.15c.23-24.67,2.22-202.05,2.22-202.05l-95.58-2.37h0Z" style="fill: #30524b; fill-rule: evenodd;"/>
  <path d="M292.59,963.72l-10.06,61.11,37.1-.19,1.17-61.88-28.21,.96h0Z" style="fill: #f8ae9d; fill-rule: evenodd;"/>
  <path d="M286.6,990.59c-2.45,.53-4.23,2.67-4.32,5.18l-.37,11.15c-5.31,5.91-7.79,23.11-8,24.62-.01,.08-.02,.15-.01,.23,.52,8.38,55.57,8.23,59.91,.27,.13-.25,.16-.53,.1-.8-.47-2.91-3.49-20.22-9.41-24.86l-.04-11.02c-.01-2.47-1.67-4.63-4.06-5.27l-7.52-2.02c-5.42-7.93-12.81-7.65-19.15,.99l-7.15,1.55h0Zm24.2-405.62s-16.53,135.51-16.31,161.46c.22,25.95,5.09,37.35-1.83,55.96-6.92,18.62-12.82,167.21-12.82,167.21l51.18,4.26s32.7-159,36.25-181.04c3.56-22.04,47.5-209.72,47.5-209.72l-103.97,1.87h0Z" style="fill: #30524b; fill-rule: evenodd;"/>
  <path d="M566.02,341.32s-4.27-23.82-2.74-28.64c1.31-4.17,13.72-10.18,13.72-10.18,0,0,21.58-34.09,26.3-30.61,3.84,2.81-11.24,27.94-11.24,27.94,0,0,13.75,14.43,13.56,20.87-.19,6.45-22.44,26.63-22.44,26.63l-17.16-6.02h0Zm-221.76,5.6s14.21-3.34,14.7-26.62c.49-23.28,.15-31.23,.15-31.23l33.69-.56s.34,25.95,.35,35.33c.01,20.43,15.19,25.96,15.19,25.96,0,0-1.26,22.34-29.62,23.94-22.14,1.25-34.45-26.81-34.45-26.81h0Z" style="fill: #f8ae9d; fill-rule: evenodd;"/>
  <path d="M356.02,277.3c-13.96-.54-11.69,19.9,2.82,19.87,0,0,15.59,31.34,40.06,31.42,11.79,.04,15.64-10.46,19.17-17.83,3.53-7.37,6.13-18.4,6.34-25.15,.23-7.2,.26-30.85,.26-30.85l-69.2-.03,.54,22.56h0Z" style="fill: #f8ae9d; fill-rule: evenodd;"/>
  <path d="M408.87,348.41s36.29,11.33,45.04,24.86c28.17,24.75,63.41,58.74,63.41,58.74,0,0,33.56-84.23,44.53-93.83,7.51-6.57,22.46,1.55,25.25,9.9,3.58,10.72-19.4,73.63-30.26,103.34h0c-2.1,5.76-3.75,10.27-4.66,12.91-6.62,19.21-22.73,30.22-42.32,18.01-7.9-4.92-31.41-21.04-51.47-35.66-.31,15.35-.84,31.53-1.34,46.9h0c-1.22,37.34-2.28,69.87,.27,74.1,12.65,20.95-4.17,35.34-59.86,40.62-55.69,5.29-105.1,.96-96.13-27,1.87-5.83,1.85-18.37,.91-34.66-5.46-.29-10.91-.65-16.36-1.08-23.24-1.83-40.43-11.82-42.83-37.76-1.68-18.16,32.92-103.43,45.9-131.47,3.04-6.56,7.73-10.65,13.05-12.68,1.24-1.38,2.63-2.35,4.2-2.87,9.53-3.14,43.7-17.5,43.7-17.5l40.65,26.6,18.33-21.47h0Zm-110.41,150.1c-.03,.08-.06,.16-.09,.24h.11s-.02-.24-.02-.24Z" style="fill: #42c3a7; fill-rule: evenodd;"/>
  <path d="M388.66,521.01s12.4-2.49,17.47-6.48c5.07-3.98,20.44-6.8,20.44-6.8l-4.92,10.35s37.66-3.54,38.56,.18c.89,3.72-10,7.75-10,7.75,0,0-5.37,10.04-10.57,15.85-4.92,5.5-29.37,4.85-37.94,1.41-7.41-2.97-15.46-1.48-15.46-1.48l2.42-20.8h0Z" style="fill: #f8ae9d; fill-rule: evenodd;"/>
  <path d="M359.82,255.7c2.04,2.67,5.64,3.26,8.6,3.79,3.98,.71,5.95,2.19,8.02,6.16,1.31,2.54,2.62,5.31,4.96,6.68,1.91,1.12,1.85-1.72,2.13-3.92,.03-.21,.07-.41,.12-.61,.46-1.76,2.32-1.46,2.86,.27,.5,1.57,1.56,2.9,2.91,3.64,.22,.12,.46,.23,.69,.18,.32-.05,.56-.35,.77-.62,.43-.56,.86-1.28,1.3-2.04,1.46-2.51,4.24-1.63,5.87,.77,1.02,1.49,2.23,3.03,3.9,3.38,.54,.12,1.21,.03,1.46-.5,.32-.65-.18-1.3-.1-1.96,.07-.62,.33-.89,.62-1.42,1.13-2.04,3.74-2.11,5.34-.41,1.11,1.18,2.27,2.32,3.47,3.4,.51,.45,1.25,.91,1.76,.45,.28-.24,.35-.65,.4-1.04,.29-1.92,.56-3.83,.85-5.75,.17-1.07,.73-2.48,1.69-2.2,.47,.14,.74,.63,1.01,1.09,.32,.57,5.98,7.11,6.09,6.61,.88-3.71,2.69-7.09,3.57-10.8,5.71-23.89-19.61-43.09-38.95-43.2-4.3-.03-8.23,.04-12.4,1.05-4.45,1.09-9.15,2.81-13.19,5.24-5.66,3.4-9.95,9.57-8.85,16.93" style="fill: #30524b;"/>
  <path d="M375.55,247.98c2.73,3.12,3.45,7.51,3.7,11.65,.37,6.25-.13,12.74-2.99,18.29-.82,1.58-1.42,9.4-2.67,8.97-.4-.14-.33-6.2-1.39-9.47-1.63-5.06-9.14-6.99-12.53-3.79-5.4,5.09-2.23,11.27-.44,15.12,1.07,2.32,2.77,4.93,3.06,7.39,.36,3.15,.47,14.61-1.56,17.28-1.7,2.24-3.5-8.59-5.04-10.72-11.38-15.89-22.28-56.36-2.86-65.13,2.95-1.34,12.07-2.02,14.84-.32" style="fill: #30524b;"/>
  <path d="M174.21,692.93c-12.33,2.92-25.37-7.54-25.37-7.54,0,0,6.96-15.19,19.3-18.1,12.33-2.92,25.37,7.53,25.37,7.53,0,0-6.96,15.19-19.29,18.11h0Z" style="fill: url(#Unbenannter_Verlauf_4-3);"/>
  <path d="M1312.4,197.52c-24.03,24.46-68.96,19.3-68.96,19.3,0,0-5.95-44.81,18.11-69.25,24.03-24.46,68.94-19.32,68.94-19.32,0,0,5.95,44.81-18.08,69.27Z" style="fill: url(#Unbenannter_Verlauf_4-4);"/>
  <circle cx="1387.98" cy="877.46" r="20.65" style="fill: #42c3a7;"/>
  <ellipse cx="523.34" cy="910.04" rx="22.86" ry="21.72" style="fill: #42c3a7;"/>
  <circle cx="1345.21" cy="375.12" r="29.59" style="fill: #42c3a7;"/>
  <ellipse cx="521.05" cy="778.01" rx="20.57" ry="19.43" style="fill: #e1e4e5;"/>
  <circle cx="203.61" cy="797.05" r="16.52" style="fill: #e1e4e5;"/>
  <circle cx="1258.87" cy="972.04" r="9.86" style="fill: #e1e4e5;"/>
  <circle cx="1021.57" cy="96" r="14.09" style="fill: #e1e4e5;"/>
  <circle cx="187.99" cy="967.07" r="13.77" style="fill: #e1e4e5;"/>
  <circle cx="169.48" cy="385.66" r="18.32" style="fill: #e1e4e5;"/>
  <ellipse cx="1395.04" cy="709.97" rx="14.09" ry="11.27" style="fill: #e1e4e5;"/>
  <circle cx="1223.5" cy="780.85" r="28.66" style="fill: #e1e4e5;"/>
  <path d="M1312.31,558.97h.37c2.18,30.93,25.19,31.41,25.19,31.41,0,0-25.37,.5-25.37,36.23,0-35.74-25.37-36.23-25.37-36.23,0,0,22.99-.48,25.18-31.41h0ZM433.45,81.9h.36c2.13,31.47,24.6,31.95,24.6,31.95,0,0-24.77,.5-24.77,36.86,0-36.36-24.78-36.86-24.78-36.86,0,0,22.46-.49,24.59-31.95ZM203.7,243.59h.36c2.13,31.47,24.6,31.95,24.6,31.95,0,0-24.78,.5-24.78,36.86,0-36.36-24.77-36.86-24.77-36.86,0,0,22.46-.49,24.59-31.95Zm1020.2,131.74h.36c2.13,31.47,24.6,31.95,24.6,31.95,0,0-24.77,.5-24.77,36.86,0-36.36-24.78-36.86-24.78-36.86,0,0,22.46-.49,24.59-31.95ZM526.83,183.7h.27c1.59,23.51,18.38,23.88,18.38,23.88,0,0-18.51,.38-18.51,27.54,0-27.17-18.51-27.54-18.51-27.54,0,0,16.78-.36,18.37-23.88h0Z" style="fill: #e1e4e5;"/>
  <g>
    <path d="M1502.18,431.49h36.96c9.04,0,16.08,2.26,21.12,6.78,5.04,4.52,7.56,10.86,7.56,19.02s-2.52,14.52-7.56,19.08c-5.04,4.56-12.08,6.84-21.12,6.84h-21.48v32.88h-15.48v-84.6Zm35.04,39.84c10.64,0,15.96-4.64,15.96-13.92,0-4.72-1.32-8.22-3.96-10.5-2.64-2.28-6.64-3.42-12-3.42h-19.56v27.84h19.56Z" style="fill: #303030;"/>
    <path d="M1580.06,516.09v-84.6h15v84.6h-15Z" style="fill: #303030;"/>
    <path d="M1662.02,489.45h-39.96c.48,5.44,2.12,9.48,4.92,12.12,2.8,2.64,6.8,3.96,12,3.96,6.48,0,12.4-2.08,17.76-6.24l4.32,10.32c-2.72,2.24-6.14,4.04-10.26,5.4-4.12,1.36-8.26,2.04-12.42,2.04-9.6,0-17.18-2.72-22.74-8.16-5.56-5.44-8.34-12.88-8.34-22.32,0-6,1.2-11.32,3.6-15.96,2.4-4.64,5.78-8.24,10.14-10.8,4.36-2.56,9.3-3.84,14.82-3.84,8.08,0,14.46,2.6,19.14,7.8,4.68,5.2,7.02,12.36,7.02,21.48v4.2Zm-35.46-19.08c-2.44,2.56-3.94,6.24-4.5,11.04h27.12c-.16-4.88-1.36-8.58-3.6-11.1-2.24-2.52-5.36-3.78-9.36-3.78s-7.22,1.28-9.66,3.84Z" style="fill: #303030;"/>
    <path d="M1717.82,461.97c4,4,6,10.16,6,18.48v35.64h-14.28v-9c-1.36,3.12-3.5,5.56-6.42,7.32-2.92,1.76-6.3,2.64-10.14,2.64s-7.48-.8-10.68-2.4c-3.2-1.6-5.72-3.8-7.56-6.6-1.84-2.8-2.76-5.92-2.76-9.36,0-4.32,1.1-7.72,3.3-10.2,2.2-2.48,5.78-4.28,10.74-5.4,4.96-1.12,11.8-1.68,20.52-1.68h3v-2.76c0-4-.86-6.88-2.58-8.64-1.72-1.76-4.58-2.64-8.58-2.64-3.12,0-6.38,.54-9.78,1.62-3.4,1.08-6.74,2.58-10.02,4.5l-4.2-10.32c3.28-2.08,7.24-3.8,11.88-5.16,4.64-1.36,9.04-2.04,13.2-2.04,8.24,0,14.36,2,18.36,6Zm-12.06,40.26c2.52-2.68,3.78-6.14,3.78-10.38v-2.52h-2.16c-5.36,0-9.52,.24-12.48,.72-2.96,.48-5.08,1.32-6.36,2.52-1.28,1.2-1.92,2.84-1.92,4.92,0,2.56,.88,4.66,2.64,6.3,1.76,1.64,4,2.46,6.72,2.46,4,0,7.26-1.34,9.78-4.02Z" style="fill: #303030;"/>
    <path d="M1746.32,515.13c-4.36-1.28-8.06-3.12-11.1-5.52l4.2-10.44c6.24,4.56,13.4,6.84,21.48,6.84,3.44,0,6.06-.56,7.86-1.68,1.8-1.12,2.7-2.72,2.7-4.8,0-1.76-.62-3.12-1.86-4.08-1.24-.96-3.46-1.84-6.66-2.64l-9.6-2.16c-5.44-1.2-9.48-3.16-12.12-5.88-2.64-2.72-3.96-6.24-3.96-10.56,0-3.6,1.02-6.78,3.06-9.54s4.88-4.9,8.52-6.42c3.64-1.52,7.86-2.28,12.66-2.28,4.16,0,8.18,.64,12.06,1.92,3.88,1.28,7.3,3.08,10.26,5.4l-4.2,10.2c-6.08-4.4-12.16-6.6-18.24-6.6-3.28,0-5.84,.6-7.68,1.8-1.84,1.2-2.76,2.88-2.76,5.04,0,1.6,.58,2.92,1.74,3.96,1.16,1.04,3.02,1.84,5.58,2.4l9.96,2.28c5.84,1.28,10.12,3.3,12.84,6.06,2.72,2.76,4.08,6.38,4.08,10.86,0,5.44-2.2,9.76-6.6,12.96-4.4,3.2-10.36,4.8-17.88,4.8-5.2,0-9.98-.64-14.34-1.92Z" style="fill: #303030;"/>
    <path d="M1848.74,489.45h-39.96c.48,5.44,2.12,9.48,4.92,12.12,2.8,2.64,6.8,3.96,12,3.96,6.48,0,12.4-2.08,17.76-6.24l4.32,10.32c-2.72,2.24-6.14,4.04-10.26,5.4-4.12,1.36-8.26,2.04-12.42,2.04-9.6,0-17.18-2.72-22.74-8.16-5.56-5.44-8.34-12.88-8.34-22.32,0-6,1.2-11.32,3.6-15.96,2.4-4.64,5.78-8.24,10.14-10.8,4.36-2.56,9.3-3.84,14.82-3.84,8.08,0,14.46,2.6,19.14,7.8,4.68,5.2,7.02,12.36,7.02,21.48v4.2Zm-35.46-19.08c-2.44,2.56-3.94,6.24-4.5,11.04h27.12c-.16-4.88-1.36-8.58-3.6-11.1-2.24-2.52-5.36-3.78-9.36-3.78s-7.22,1.28-9.66,3.84Z" style="fill: #303030;"/>
    <path d="M1947.38,457.41v58.68h-14.64v-9c-1.84,3.2-4.32,5.66-7.44,7.38-3.12,1.72-6.64,2.58-10.56,2.58-14.4,0-21.6-8.08-21.6-24.24v-35.4h15v35.52c0,4.16,.84,7.24,2.52,9.24,1.68,2,4.32,3,7.92,3,4.16,0,7.5-1.38,10.02-4.14,2.52-2.76,3.78-6.42,3.78-10.98v-32.64h15Z" style="fill: #303030;"/>
    <path d="M1970.23,515.13c-4.36-1.28-8.06-3.12-11.1-5.52l4.2-10.44c6.24,4.56,13.4,6.84,21.48,6.84,3.44,0,6.06-.56,7.86-1.68,1.8-1.12,2.7-2.72,2.7-4.8,0-1.76-.62-3.12-1.86-4.08-1.24-.96-3.46-1.84-6.66-2.64l-9.6-2.16c-5.44-1.2-9.48-3.16-12.12-5.88-2.64-2.72-3.96-6.24-3.96-10.56,0-3.6,1.02-6.78,3.06-9.54,2.04-2.76,4.88-4.9,8.52-6.42,3.64-1.52,7.86-2.28,12.66-2.28,4.16,0,8.18,.64,12.06,1.92,3.88,1.28,7.3,3.08,10.26,5.4l-4.2,10.2c-6.08-4.4-12.16-6.6-18.24-6.6-3.28,0-5.84,.6-7.68,1.8-1.84,1.2-2.76,2.88-2.76,5.04,0,1.6,.58,2.92,1.74,3.96,1.16,1.04,3.02,1.84,5.58,2.4l9.96,2.28c5.84,1.28,10.12,3.3,12.84,6.06,2.72,2.76,4.08,6.38,4.08,10.86,0,5.44-2.2,9.76-6.6,12.96-4.4,3.2-10.36,4.8-17.88,4.8-5.2,0-9.98-.64-14.34-1.92Z" style="fill: #303030;"/>
    <path d="M2072.65,489.45h-39.96c.48,5.44,2.12,9.48,4.92,12.12,2.8,2.64,6.8,3.96,12,3.96,6.48,0,12.4-2.08,17.76-6.24l4.32,10.32c-2.72,2.24-6.14,4.04-10.26,5.4-4.12,1.36-8.26,2.04-12.42,2.04-9.6,0-17.18-2.72-22.74-8.16-5.56-5.44-8.34-12.88-8.34-22.32,0-6,1.2-11.32,3.6-15.96,2.4-4.64,5.78-8.24,10.14-10.8,4.36-2.56,9.3-3.84,14.82-3.84,8.08,0,14.46,2.6,19.14,7.8,4.68,5.2,7.02,12.36,7.02,21.48v4.2Zm-35.46-19.08c-2.44,2.56-3.94,6.24-4.5,11.04h27.12c-.16-4.88-1.36-8.58-3.6-11.1-2.24-2.52-5.36-3.78-9.36-3.78s-7.22,1.28-9.66,3.84Z" style="fill: #303030;"/>
    <path d="M1548.08,603.81c3.96,2.56,7.04,6.18,9.24,10.86,2.2,4.68,3.3,10.06,3.3,16.14s-1.1,11.4-3.3,15.96c-2.2,4.56-5.26,8.08-9.18,10.56-3.92,2.48-8.44,3.72-13.56,3.72-4.16,0-7.88-.88-11.16-2.64-3.28-1.76-5.8-4.2-7.56-7.32v30.6h-15v-80.28h14.76v8.88c1.76-3.28,4.3-5.82,7.62-7.62,3.32-1.8,7.1-2.7,11.34-2.7,5.04,0,9.54,1.28,13.5,3.84Zm-6.42,40.74c2.64-3.24,3.96-7.82,3.96-13.74s-1.32-10.8-3.96-14.16c-2.64-3.36-6.32-5.04-11.04-5.04s-8.5,1.64-11.1,4.92c-2.6,3.28-3.9,7.96-3.9,14.04s1.3,10.64,3.9,13.92c2.6,3.28,6.3,4.92,11.1,4.92s8.4-1.62,11.04-4.86Z" style="fill: #303030;"/>
    <path d="M1583.96,657.33c-4.52-2.48-8.02-6.04-10.5-10.68-2.48-4.64-3.72-10.04-3.72-16.2s1.24-11.54,3.72-16.14c2.48-4.6,5.98-8.14,10.5-10.62,4.52-2.48,9.78-3.72,15.78-3.72s11.26,1.24,15.78,3.72c4.52,2.48,8,6.02,10.44,10.62,2.44,4.6,3.66,9.98,3.66,16.14s-1.22,11.56-3.66,16.2c-2.44,4.64-5.92,8.2-10.44,10.68-4.52,2.48-9.78,3.72-15.78,3.72s-11.26-1.24-15.78-3.72Zm26.82-12.72c2.56-3.2,3.84-7.92,3.84-14.16s-1.28-10.86-3.84-14.1c-2.56-3.24-6.24-4.86-11.04-4.86s-8.5,1.62-11.1,4.86c-2.6,3.24-3.9,7.94-3.9,14.1s1.28,10.96,3.84,14.16c2.56,3.2,6.24,4.8,11.04,4.8s8.6-1.6,11.16-4.8Z" style="fill: #303030;"/>
    <path d="M1680.62,612.45l-8.76,.84c-9.92,1.04-14.88,6.08-14.88,15.12v31.68h-15v-58.68h14.28v10.32c3.04-7.04,9.32-10.88,18.84-11.52l4.56-.36,.96,12.6Z" style="fill: #303030;"/>
    <path d="M1728.86,649.41l-.72,11.16c-2.4,.24-4.6,.36-6.6,.36-8.24,0-14.32-1.9-18.24-5.7-3.92-3.8-5.88-9.46-5.88-16.98v-25.56h-11.28v-11.28h11.28v-17.52h15v17.52h15.48v11.28h-15.48v25.32c0,7.84,3.64,11.76,10.92,11.76,1.76,0,3.6-.12,5.52-.36Z" style="fill: #303030;"/>
    <path d="M1776.26,612.45l-8.76,.84c-9.92,1.04-14.88,6.08-14.88,15.12v31.68h-15v-58.68h14.28v10.32c3.04-7.04,9.32-10.88,18.84-11.52l4.56-.36,.96,12.6Z" style="fill: #303030;"/>
    <path d="M1826.9,605.97c4,4,6,10.16,6,18.48v35.64h-14.28v-9c-1.36,3.12-3.5,5.56-6.42,7.32-2.92,1.76-6.3,2.64-10.14,2.64s-7.48-.8-10.68-2.4c-3.2-1.6-5.72-3.8-7.56-6.6-1.84-2.8-2.76-5.92-2.76-9.36,0-4.32,1.1-7.72,3.3-10.2,2.2-2.48,5.78-4.28,10.74-5.4,4.96-1.12,11.8-1.68,20.52-1.68h3v-2.76c0-4-.86-6.88-2.58-8.64-1.72-1.76-4.58-2.64-8.58-2.64-3.12,0-6.38,.54-9.78,1.62-3.4,1.08-6.74,2.58-10.02,4.5l-4.2-10.32c3.28-2.08,7.24-3.8,11.88-5.16,4.64-1.36,9.04-2.04,13.2-2.04,8.24,0,14.36,2,18.36,6Zm-12.06,40.26c2.52-2.68,3.78-6.14,3.78-10.38v-2.52h-2.16c-5.36,0-9.52,.24-12.48,.72-2.96,.48-5.08,1.32-6.36,2.52-1.28,1.2-1.92,2.84-1.92,4.92,0,2.56,.88,4.66,2.64,6.3,1.76,1.64,4,2.46,6.72,2.46,4,0,7.26-1.34,9.78-4.02Z" style="fill: #303030;"/>
    <path d="M1847.3,574.17h16.56v14.76h-16.56v-14.76Zm.84,85.92v-58.68h15v58.68h-15Z" style="fill: #303030;"/>
    <path d="M1914.14,649.41l-.72,11.16c-2.4,.24-4.6,.36-6.6,.36-8.24,0-14.32-1.9-18.24-5.7-3.92-3.8-5.88-9.46-5.88-16.98v-25.56h-11.28v-11.28h11.28v-17.52h15v17.52h15.48v11.28h-15.48v25.32c0,7.84,3.64,11.76,10.92,11.76,1.76,0,3.6-.12,5.52-.36Z" style="fill: #303030;"/>
    <path d="M2040.02,605.91c3.28,3.96,4.92,10.02,4.92,18.18v36h-15v-35.4c0-4.48-.76-7.74-2.28-9.78s-3.96-3.06-7.32-3.06c-4,0-7.12,1.36-9.36,4.08-2.24,2.72-3.36,6.52-3.36,11.4v32.76h-15v-35.4c0-4.48-.74-7.74-2.22-9.78s-3.94-3.06-7.38-3.06c-3.92,0-7,1.36-9.24,4.08-2.24,2.72-3.36,6.52-3.36,11.4v32.76h-15v-58.68h14.64v8.28c1.76-3.2,4.2-5.62,7.32-7.26,3.12-1.64,6.68-2.46,10.68-2.46,8.88,0,14.76,3.68,17.64,11.04,1.84-3.44,4.48-6.14,7.92-8.1,3.44-1.96,7.28-2.94,11.52-2.94,6.64,0,11.6,1.98,14.88,5.94Z" style="fill: #303030;"/>
    <path d="M2071.16,657.33c-4.52-2.48-8.02-6.04-10.5-10.68-2.48-4.64-3.72-10.04-3.72-16.2s1.24-11.54,3.72-16.14c2.48-4.6,5.98-8.14,10.5-10.62,4.52-2.48,9.78-3.72,15.78-3.72s11.26,1.24,15.78,3.72c4.52,2.48,8,6.02,10.44,10.62,2.44,4.6,3.66,9.98,3.66,16.14s-1.22,11.56-3.66,16.2c-2.44,4.64-5.92,8.2-10.44,10.68-4.52,2.48-9.78,3.72-15.78,3.72s-11.26-1.24-15.78-3.72Zm26.82-12.72c2.56-3.2,3.84-7.92,3.84-14.16s-1.28-10.86-3.84-14.1-6.24-4.86-11.04-4.86-8.5,1.62-11.1,4.86c-2.6,3.24-3.9,7.94-3.9,14.1s1.28,10.96,3.84,14.16c2.56,3.2,6.24,4.8,11.04,4.8s8.6-1.6,11.16-4.8Z" style="fill: #303030;"/>
    <path d="M2185.81,575.49v84.6h-14.88v-9.48c-1.76,3.28-4.3,5.84-7.62,7.68-3.32,1.84-7.1,2.76-11.34,2.76-5.04,0-9.54-1.28-13.5-3.84-3.96-2.56-7.04-6.18-9.24-10.86-2.2-4.68-3.3-10.06-3.3-16.14s1.1-11.4,3.3-15.96c2.2-4.56,5.26-8.08,9.18-10.56,3.92-2.48,8.44-3.72,13.56-3.72,4.24,0,8,.88,11.28,2.64,3.28,1.76,5.8,4.24,7.56,7.44v-34.56h15Zm-18.78,69c2.6-3.28,3.9-7.96,3.9-14.04s-1.3-10.74-3.9-13.98c-2.6-3.24-6.26-4.86-10.98-4.86s-8.52,1.6-11.16,4.8c-2.64,3.2-3.96,7.8-3.96,13.8s1.32,10.8,3.96,14.16c2.64,3.36,6.32,5.04,11.04,5.04s8.5-1.64,11.1-4.92Z" style="fill: #303030;"/>
    <path d="M2252.78,633.45h-39.96c.48,5.44,2.12,9.48,4.92,12.12,2.8,2.64,6.8,3.96,12,3.96,6.48,0,12.4-2.08,17.76-6.24l4.32,10.32c-2.72,2.24-6.14,4.04-10.26,5.4-4.12,1.36-8.26,2.04-12.42,2.04-9.6,0-17.18-2.72-22.74-8.16-5.56-5.44-8.34-12.88-8.34-22.32,0-6,1.2-11.32,3.6-15.96,2.4-4.64,5.78-8.24,10.14-10.8,4.36-2.56,9.3-3.84,14.82-3.84,8.08,0,14.46,2.6,19.14,7.8,4.68,5.2,7.02,12.36,7.02,21.48v4.2Zm-35.46-19.08c-2.44,2.56-3.94,6.24-4.5,11.04h27.12c-.16-4.88-1.36-8.58-3.6-11.1-2.24-2.52-5.36-3.78-9.36-3.78s-7.22,1.28-9.66,3.84Z" style="fill: #303030;"/>
    <path id="Pfad_34" data-name="Pfad 34" d="M2277.16,642.59c5.52,0,10,4.48,10,10s-4.48,10-10,10-10-4.48-10-10,4.48-10,10-10Z" style="fill: #42c3a7;"/>
    <rect x="1500.86" y="537.17" width="143.22" height="20" transform="translate(3144.94 1094.33) rotate(180)" style="fill: #42c3a7;"/>
  </g>
</svg>