<?xml version="1.0" encoding="UTF-8"?>
<svg id="Ebene_1" data-name="Ebene 1" xmlns="http://www.w3.org/2000/svg" xmlns:xlink="http://www.w3.org/1999/xlink" viewBox="0 0 1125 2436">
  <defs>
    <linearGradient id="Unbenannter_Verlauf_6" data-name="Unbenannter Verlauf 6" x1="677.7" y1="-5299.83" x2="366.15" y2="-3894.23" gradientTransform="translate(0 -2600) scale(1 -1)" gradientUnits="userSpaceOnUse">
      <stop offset="0" stop-color="#fff"/>
      <stop offset="1" stop-color="#eee"/>
    </linearGradient>
    <linearGradient id="Unbenannter_Verlauf_6-2" data-name="Unbenannter Verlauf 6" x1="725.1" y1="-4778.67" x2="586.08" y2="-4153.96" xlink:href="#Unbenannter_Verlauf_6"/>
    <linearGradient id="Unbenannter_Verlauf_6-3" data-name="Unbenannter Verlauf 6" x1="368.22" y1="-5151.63" x2="235.02" y2="-4535.66" xlink:href="#Unbenannter_Verlauf_6"/>
    <linearGradient id="Unbenannter_Verlauf_6-4" data-name="Unbenannter Verlauf 6" x1="859.28" y1="-4545.06" x2="973.75" y2="-4679.51" xlink:href="#Unbenannter_Verlauf_6"/>
    <linearGradient id="Unbenannter_Verlauf_6-5" data-name="Unbenannter Verlauf 6" x1="494.85" y1="-4517.47" x2="343.7" y2="-4358.09" xlink:href="#Unbenannter_Verlauf_6"/>
    <linearGradient id="Unbenannter_Verlauf_6-6" data-name="Unbenannter Verlauf 6" x1="802.38" y1="-4610.74" x2="651.89" y2="-4374.84" xlink:href="#Unbenannter_Verlauf_6"/>
  </defs>
  <path id="Polygon_7" data-name="Polygon 7" d="M-3.64,787.35l172.71,13.6,43.31,169.64-145.96,91.22-133.51-113.26L-3.64,787.35Z" style="fill: #373737;"/>
  <path id="Polygon_5" data-name="Polygon 5" d="M969.74,949.35l-63.95,236.51-172.56-172.56,236.51-63.95Z" style="fill: #373737;"/>
  <rect id="Rechteck_266" data-name="Rechteck 266" x="129.6" y="1407.02" width="203.84" height="203.84" transform="translate(-1288.62 1368.54) rotate(-76)" style="fill: #373737;"/>
  <circle id="Ellipse_83" data-name="Ellipse 83" cx="1055.4" cy="1676.8" r="129.2" style="fill: #373737;"/>
  <g>
    <path d="M879.39,2188.6c4.62,85.19-161.93,258.42-367.22,194.3-95.48-29.82-87.39-79.32-159.99-144.56-43.27-38.88-105.45-68.28-122.75-124.8-14.94-48.78-5.78-101.22,20.12-135.32,58.25-76.7,175.84-129.22,291.71-8.37,115.87,120.85,326.18-.96,338.13,218.75Z" style="fill: url(#Unbenannter_Verlauf_6);"/>
    <path d="M830.53,1998.19c-15.6,27.84-49.76,31.66-104.49,26.37-41.16-3.99-78.69-7.07-119.85-29.51-28.81-15.7-51.62-36.93-68.26-57.56-18.04-22.34-43.21-47.85-30.87-73.18,16.96-34.8,115.04-64.12,210.29-16.18,104.62,52.67,128.44,122.86,113.18,150.06Z" style="fill: url(#Unbenannter_Verlauf_6-2);"/>
    <path d="M417.03,2364.43c-40.6-56.8-82.17-117.16-136.61-146.89-56.15-30.68-66.5-11.77-70.39,18.29-3.89,30.06,13.44,101.3,90.06,141.82,76.64,40.54,154.92,39.93,116.94-13.22Z" style="fill: url(#Unbenannter_Verlauf_6-3);"/>
    <path d="M887.99,2008.2c-8.93-16.48,.97-39.14,.97-39.14,0,0,24.37,4.08,33.29,20.56,8.93,16.48-.96,39.13-.96,39.13,0,0-24.37-4.08-33.3-20.56h0Z" style="fill: url(#Unbenannter_Verlauf_6-4);"/>
    <path d="M420.56,1873.6c19.2,13.23,48.54,3.98,48.54,3.98,0,0-1.82-30.69-21.03-43.9-19.2-13.23-48.52-3.99-48.52-3.99,0,0,1.82,30.68,21.02,43.91Z" style="fill: url(#Unbenannter_Verlauf_6-5);"/>
    <path d="M720.07,1937.89c20.82,21.19,59.74,16.72,59.74,16.72,0,0,5.15-38.82-15.69-59.99-20.82-21.19-59.72-16.73-59.72-16.73,0,0-5.15,38.82,15.66,60.01h0Z" style="fill: url(#Unbenannter_Verlauf_6-6);"/>
    <ellipse cx="809.64" cy="2226.34" rx="15.47" ry="14.8" style="fill: #42c3a7;"/>
    <circle cx="576.46" cy="2338.78" r="16.41" style="fill: #42c3a7;"/>
    <ellipse cx="308.42" cy="2306.66" rx="20.85" ry="20.18" style="fill: #42c3a7;"/>
    <circle cx="254.06" cy="2053.48" r="7.4" style="fill: #42c3a7;"/>
    <circle cx="620.66" cy="1893.54" r="14.13" style="fill: #42c3a7;"/>
    <ellipse cx="792.15" cy="2355.48" rx="14.13" ry="13.45" style="fill: #e1e4e5;"/>
    <ellipse cx="182.48" cy="2178.61" rx="14.8" ry="13.45" style="fill: #e1e4e5;"/>
    <circle cx="361.49" cy="2359.71" r="9.9" style="fill: #e1e4e5;"/>
    <circle cx="706.73" cy="1892.73" r="6.73" style="fill: #e1e4e5;"/>
    <circle cx="277.28" cy="2129.45" r="6.57" style="fill: #e1e4e5;"/>
    <circle cx="285" cy="1980.84" r="8.74" style="fill: #e1e4e5;"/>
    <ellipse cx="819.72" cy="2136.21" rx="6.73" ry="5.38" style="fill: #e1e4e5;"/>
    <circle cx="535.68" cy="1838.63" r="12.46" style="fill: #e1e4e5;"/>
    <path d="M916.49,2133.52h.17c1.04,14.76,12.02,14.99,12.02,14.99,0,0-12.11,.24-12.11,17.29,0-17.06-12.11-17.29-12.11-17.29,0,0,10.97-.23,12.02-14.99Zm-12.01,78.12h.14c.82,11.64,9.48,11.82,9.48,11.82,0,0-9.54,.19-9.54,13.63,0-13.45-9.54-13.63-9.54-13.63,0,0,8.65-.18,9.47-11.82h0ZM197.05,1920.44h.23c1.36,19.58,15.69,19.89,15.69,19.89,0,0-15.81,.31-15.81,22.94,0-22.63-15.81-22.94-15.81-22.94,0,0,14.33-.3,15.69-19.89Z" style="fill: #e1e4e5;"/>
    <path d="M957.9,2434.98h-186.45l-15.47-41.61c-5.48-14.74-16.69-26.59-31.03-33.07-13.5-6.1-31.68-17.19-49.29-36.94-34.28-38.45-52.47-79.69-52.47-79.69l115.55-.57s-10.4-64.58,47.03-150.35c6.14-9.19,8.95-20.2,7.99-31.2l-5.44-62.56s-39.03-43.58-15.08-97.64c0,0,22.89-31.67,31.98-20.08,0,0,69.16,164.56,75.46,189.03,6.3,24.47,14.69,39.85,6.3,116.75-2.22,20.36-3.02,37.33-3,51.3,.06,26.8,6.04,53.26,17.51,77.48l56.42,119.16Z" style="fill: #f8ae9d;"/>
    <path d="M220.75,2223.46v-247.15c0-18.4,14.91-33.33,33.3-33.33h504.69c18.54,0,33.3,15.08,33.3,33.33v247.15c0,18.4-14.9,33.33-33.3,33.33H254.05c-18.56,0-33.3-15.1-33.3-33.33Z" style="fill: #42c3a7;"/>
    <path d="M397.13,2139.52v6.41c0,3.54-2.84,6.42-6.33,6.42h-75.97c-3.49,0-6.33-2.87-6.33-6.42v-6.52c0-19.41,21.89-32.02,44.31-32.02s44.32,12.62,44.32,32.02m-28.42-88.38c8.78,8.78,8.78,23.01,0,31.79-8.78,8.78-23.01,8.78-31.79,0-8.78-8.78-8.78-23.01,0-31.79,8.78-8.78,23.01-8.78,31.79,0h0Z" style="fill: #fff; fill-rule: evenodd;"/>
    <rect x="433.83" y="2044.16" width="303.88" height="18.37" rx="9.18" ry="9.18" style="fill: #fff;"/>
    <path d="M443.02,2089.24h285.51c5.07,0,9.18,4.11,9.18,9.18h0c0,5.07-4.11,9.18-9.18,9.18H443.02c-5.07,0-9.18-4.11-9.18-9.18h0c0-5.07,4.11-9.18,9.18-9.18Z" style="fill: #fff;"/>
    <path d="M443.02,2134.32h285.51c5.07,0,9.18,4.11,9.18,9.18h0c0,5.07-4.11,9.18-9.18,9.18H443.02c-5.07,0-9.18-4.11-9.18-9.18h0c0-5.07,4.11-9.18,9.18-9.18Z" style="fill: #fff;"/>
    <path d="M797.17,2036.74s-1.49,5.53-4.86,8.26l-4-46.01s-28.71-32.06-21.77-75.29c2.38-14.8,9.74-28.42,21.01-38.32,6.43-5.65,13.5-9.42,17.66-4.11,0,0,32.52,77.38,54.99,133.91l-63.03,21.55h0Z" style="fill: #f8ae9d;"/>
  </g>
</svg>