<?xml version="1.0" encoding="UTF-8"?>
<svg id="Ebene_1" data-name="Ebene 1" xmlns="http://www.w3.org/2000/svg" xmlns:xlink="http://www.w3.org/1999/xlink" viewBox="0 0 900 600">
  <defs>
    <linearGradient id="Unbenannter_Verlauf" data-name="Unbenannter Verlauf" x1="564.7" y1="403.6" x2="698.58" y2="509.51" gradientTransform="translate(0 598.63) scale(1 -1)" gradientUnits="userSpaceOnUse">
      <stop offset="0" stop-color="#fff"/>
      <stop offset="1" stop-color="#eee"/>
    </linearGradient>
    <linearGradient id="Unbenannter_Verlauf_2" data-name="Unbenannter Verlauf 2" x1="194.01" y1="104.7" x2="67.63" y2="222.12" gradientTransform="translate(0 598.63) scale(1 -1)" gradientUnits="userSpaceOnUse">
      <stop offset="0" stop-color="#fff"/>
      <stop offset="1" stop-color="#eee"/>
    </linearGradient>
  </defs>
  <path d="M355.73,275.01c0,79.37-64.33,143.7-143.7,143.7s-143.7-64.33-143.7-143.7,64.33-143.7,143.7-143.7,143.7,64.33,143.7,143.7Z" style="fill: #42c3a7; fill-rule: evenodd; stroke: #fff; stroke-linecap: round; stroke-linejoin: round; stroke-width: 6.09px;"/>
  <path d="M313.65,376.62l-96.93-96.93c-3-2.99-4.68-7.05-4.68-11.29V131.31" style="fill: none; stroke: #fff; stroke-linecap: round; stroke-linejoin: round; stroke-width: 11px;"/>
  <path d="M336.48,203.16l-118.72,68.54c-3.67,2.12-6.35,5.6-7.44,9.69l-35.48,132.42" style="fill: none; stroke: #fff; stroke-linecap: round; stroke-linejoin: round; stroke-width: 11px;"/>
  <path d="M212.95,275.92l100.63,100.69" style="fill: none; stroke: #fff; stroke-linecap: round; stroke-linejoin: round; stroke-width: 6.09px;"/>
  <path d="M421.29,347.58h102.63m128.33,.08h116.01m-116.01,75.49h116.01m-346.98-42.58h170.45m60.48,0h169.87m-169.87,75.5h169.87m-400.79-31.51h102.63m-102.63,32.99h170.45" style="fill: none; stroke: #e1e4e5; stroke-linecap: round; stroke-linejoin: round; stroke-width: 11px;"/>
  <rect x="501.93" y="131.31" width="60.48" height="179.61" rx="15.21" ry="15.21" style="fill: #42c3a7;"/>
  <rect x="681.54" y="131.31" width="60.48" height="179.61" rx="15.21" ry="15.21" style="fill: #42c3a7;"/>
  <rect x="412.13" y="204.62" width="60.48" height="106.3" rx="15.21" ry="15.21" style="fill: #e1e4e5;"/>
  <rect x="591.74" y="204.62" width="60.48" height="106.3" rx="15.21" ry="15.21" style="fill: #e1e4e5;"/>
  <rect x="771.35" y="204.62" width="60.48" height="106.3" rx="15.21" ry="15.21" style="fill: #e1e4e5;"/>
  <path d="M626.7,169.49c-16.23,8.05-37.78-2.3-37.78-2.3,0,0,4.79-23.4,21.03-31.45,16.23-8.05,37.77,2.29,37.77,2.29,0,0-4.79,23.4-21.02,31.46Z" style="fill: url(#Unbenannter_Verlauf);"/>
  <path d="M133.61,463.23c15.71,9.41,38.24,.71,38.24,.71,0,0-2.95-23.96-18.66-33.36-15.71-9.41-38.23-.72-38.23-.72,0,0,2.95,23.96,18.65,33.37h0Z" style="fill: url(#Unbenannter_Verlauf_2);"/>
  <circle cx="617.74" cy="404.2" r="11.05" style="fill: #e1e4e5;"/>
  <circle cx="315.33" cy="443.5" r="15.97" style="fill: #e1e4e5;"/>
  <circle cx="814.1" cy="415.28" r="12.15" style="fill: #e1e4e5;"/>
  <circle cx="766.65" cy="131.51" r="13.51" style="fill: #e1e4e5;"/>
  <circle cx="441.81" cy="143.95" r="12.13" style="fill: #e1e4e5;"/>
  <circle cx="368.77" cy="157.44" r="5.05" style="fill: #e1e4e5;"/>
  <ellipse cx="368.37" cy="343.17" rx="12.41" ry="9.93" style="fill: #e1e4e5;"/>
</svg>