<?xml version="1.0" encoding="UTF-8"?>
<svg id="Ebene_1" data-name="Ebene 1" xmlns="http://www.w3.org/2000/svg" xmlns:xlink="http://www.w3.org/1999/xlink" viewBox="0 0 900 600">
  <defs>
    <linearGradient id="Unbenannter_Verlauf" data-name="Unbenannter Verlauf" x1="605.85" y1="510.4" x2="791.39" y2="214.4" gradientTransform="translate(0 598.63) scale(1 -1)" gradientUnits="userSpaceOnUse">
      <stop offset="0" stop-color="#fff"/>
      <stop offset="1" stop-color="#eee"/>
    </linearGradient>
    <linearGradient id="Unbenannter_Verlauf_2" data-name="Unbenannter Verlauf 2" x1="567.17" y1="531.39" x2="681.7" y2="348.67" gradientTransform="translate(0 598.63) scale(1 -1)" gradientUnits="userSpaceOnUse">
      <stop offset="0" stop-color="#fff"/>
      <stop offset="1" stop-color="#eee"/>
    </linearGradient>
    <linearGradient id="Unbenannter_Verlauf_3" data-name="Unbenannter Verlauf 3" x1="149.23" y1="437.34" x2="302.1" y2="193.45" gradientTransform="translate(0 598.63) scale(1 -1)" gradientUnits="userSpaceOnUse">
      <stop offset="0" stop-color="#fff"/>
      <stop offset="1" stop-color="#eee"/>
    </linearGradient>
    <linearGradient id="Unbenannter_Verlauf_4" data-name="Unbenannter Verlauf 4" x1="453.13" y1="584.32" x2="584.85" y2="260.76" gradientTransform="translate(0 598.63) scale(1 -1)" gradientUnits="userSpaceOnUse">
      <stop offset="0" stop-color="#fff"/>
      <stop offset="1" stop-color="#eee"/>
    </linearGradient>
    <linearGradient id="Unbenannter_Verlauf_5" data-name="Unbenannter Verlauf 5" x1="693.02" y1="254.21" x2="789.15" y2="381.17" gradientTransform="translate(0 598.63) scale(1 -1)" gradientUnits="userSpaceOnUse">
      <stop offset="0" stop-color="#fff"/>
      <stop offset="1" stop-color="#eee"/>
    </linearGradient>
    <linearGradient id="Unbenannter_Verlauf_6" data-name="Unbenannter Verlauf 6" x1="187.06" y1="233.58" x2="122.21" y2="295.92" gradientTransform="translate(0 598.63) scale(1 -1)" gradientUnits="userSpaceOnUse">
      <stop offset="0" stop-color="#fff"/>
      <stop offset="1" stop-color="#eee"/>
    </linearGradient>
  </defs>
  <path d="M614.33,196.98l.24,12.17v.29c.04,1.48,1.18,2.69,2.65,2.82l10.13,.89c.17,.01,.33,.04,.48,.08,1.09,.3,1.93,1.21,2.09,2.34,.99,6.68,3.3,13.09,6.8,18.86,.14,.24,.25,.5,.32,.75,.26,1-.03,2.06-.75,2.8l-6.02,5.99c-.77,.79-1.04,1.94-.7,2.99,.11,.31,.27,.62,.49,.9l7.78,9.69c.97,1.2,2.69,1.46,3.97,.6l9.38-6.3c.92-.62,2.12-.65,3.07-.08,1.39,.81,2.82,1.57,4.28,2.25,2.71,1.27,5.54,2.29,8.43,3.06h.01c1.18,.31,2.05,1.32,2.17,2.53l1.21,11.39,.07,.57c.15,1.48,1.42,2.6,2.9,2.57l12.45-.25c1.51-.04,2.77-1.2,2.91-2.71l1.01-11.27c.11-1.25,1-2.29,2.22-2.57,5.11-1.25,10-3.29,14.49-6.04,1.15-.69,2.62-.51,3.57,.44l7.11,7.11c1.07,1.07,2.78,1.16,3.96,.21l9.75-7.81c1.15-.92,1.4-2.57,.58-3.79l-7.38-11.02c-.63-.94-.67-2.15-.11-3.12,2-3.49,3.58-7.2,4.71-11.05,.31-1.13,1.28-1.94,2.44-2.06l13.71-1.45c1.5-.16,2.63-1.44,2.61-2.95l-.23-12.49c-.04-1.31-.95-2.44-2.22-2.76-.13-.03-.27-.06-.41-.07l-12.51-1.11c-1.16-.09-2.15-.86-2.52-1.97-.03-.1-.07-.19-.09-.29-.07-.3-.12-.58-.22-.88-.85-3.52-2.07-6.94-3.64-10.2-.54-1.08-.31-2.4,.57-3.26l7.52-7.52c1.07-1.07,1.15-2.77,.21-3.95l-1.73-2.16-6.04-7.51c-.94-1.19-2.64-1.44-3.91-.6l-9.24,6.21c-.98,.67-2.27,.63-3.23-.06-4.53-3.25-9.55-5.73-14.88-7.36l-.25-2.39-1.04-9.81c-.12-1.2-.98-2.19-2.15-2.47-.24-.06-.49-.09-.74-.08l-12.53,.23c-1.48,.05-2.69,1.18-2.83,2.65l-.68,7.7c-.12,1.31-1.11,2.38-2.41,2.6-5.33,.85-10.5,2.55-15.3,5.01-1.13,.58-2.49,.38-3.34-.51l-8.98-8.98c-1.01-1-2.62-1.09-3.73-.2l-9.85,7.91c-1.17,.93-1.42,2.6-.59,3.81l7.68,11.46c.67,.98,.66,2.26-.01,3.26-1.45,2.16-2.74,4.43-3.83,6.79-.6,1.28-1.15,2.59-1.64,3.91-.39,1.03-1.32,1.76-2.41,1.88l-13.14,1.39c-1.52,.16-2.67,1.45-2.65,2.98h0Zm51.32,34.46c-2.87-1.75-5.56-4.09-7.97-7.06-.52-.62-1.02-1.38-1.51-2.2-2.07-3.56-3.61-8.46-3.66-12.05-.37-27.46,31.51-39.36,49.18-18.86,.29,.34,.57,.68,.85,1.04,2.63,3.28,4.85,9.45,4.95,13.65,.05,2.11-.1,4.22-.44,6.3-3.4,19.93-25.03,29.16-41.4,19.18h0Z" style="fill: url(#Unbenannter_Verlauf);"/>
  <path d="M572.4,134.37l.15,7.51v.18c.02,.91,.73,1.66,1.63,1.74l6.25,.55c.1,0,.2,.03,.3,.05,.67,.18,1.19,.74,1.29,1.45,.61,4.12,2.03,8.08,4.2,11.64,.09,.15,.15,.31,.2,.46,.16,.62-.02,1.27-.47,1.73l-3.72,3.7c-.48,.49-.64,1.2-.43,1.84,.07,.19,.16,.38,.3,.55l4.8,5.98c.6,.74,1.66,.9,2.45,.37l5.79-3.89c.57-.38,1.31-.4,1.9-.05,2.45,1.44,5.09,2.55,7.84,3.28h0c.73,.19,1.26,.81,1.34,1.56l.74,7.03,.04,.35c.09,.9,.87,1.6,1.79,1.58l7.68-.15c.94-.02,1.71-.74,1.8-1.68l.62-6.96c.07-.77,.62-1.41,1.37-1.59,3.16-.77,6.17-2.03,8.95-3.73,.71-.43,1.62-.31,2.2,.27l4.39,4.39c.66,.66,1.72,.72,2.45,.13l6.02-4.82c.71-.57,.86-1.58,.36-2.34l-4.55-6.8c-.39-.58-.41-1.32-.07-1.93,1.23-2.15,2.21-4.44,2.91-6.82,.19-.69,.79-1.2,1.51-1.27l8.46-.89c.93-.1,1.63-.89,1.61-1.82l-.14-7.71c-.02-.81-.59-1.51-1.37-1.7-.08-.02-.17-.04-.26-.04l-7.72-.69c-.72-.05-1.33-.53-1.55-1.21-.02-.06-.04-.12-.05-.18-.04-.19-.08-.36-.14-.54-.52-2.17-1.28-4.28-2.25-6.29-.33-.68-.19-1.49,.35-2.01l4.64-4.64c.66-.66,.71-1.71,.13-2.44l-1.07-1.33-3.73-4.64c-.59-.73-1.63-.89-2.41-.37l-5.7,3.83c-.61,.41-1.41,.39-2-.04-2.79-2-5.9-3.54-9.19-4.54l-.15-1.48-.64-6.06c-.09-.91-.87-1.6-1.79-1.57l-7.74,.14c-.91,.03-1.66,.73-1.75,1.64l-.42,4.75c-.08,.81-.69,1.47-1.49,1.6-3.29,.53-6.48,1.57-9.45,3.1-.7,.36-1.53,.24-2.06-.31l-5.55-5.54c-.63-.62-1.61-.67-2.3-.12l-6.08,4.88c-.72,.57-.88,1.59-.36,2.35l4.74,7.07c.41,.61,.41,1.41,0,2.01-.9,1.33-1.69,2.73-2.36,4.19-.37,.79-.71,1.6-1.01,2.41-.24,.64-.81,1.08-1.49,1.16l-8.11,.86c-.94,.1-1.65,.89-1.64,1.84h0Zm31.68,21.27c-1.77-1.08-3.43-2.53-4.92-4.36-.35-.43-.66-.88-.93-1.36-1.28-2.2-2.23-5.22-2.26-7.44-.23-16.95,19.45-24.3,30.36-11.64,.18,.21,.35,.42,.53,.64,1.62,2.03,2.99,5.84,3.06,8.43,.03,1.36-.07,2.66-.27,3.89-2.1,12.3-15.45,18-25.55,11.84h0Z" style="fill: url(#Unbenannter_Verlauf_2);"/>
  <path d="M156.22,250.9l.2,10.03v.24c.03,1.22,.97,2.22,2.18,2.33l8.35,.74c.14,.01,.27,.04,.4,.07,.89,.25,1.59,.99,1.72,1.93,.81,5.5,2.72,10.79,5.6,15.54,.12,.2,.2,.41,.26,.62,.21,.82-.02,1.7-.62,2.31l-4.96,4.93c-.63,.65-.86,1.6-.57,2.46,.09,.25,.22,.51,.4,.74l6.41,7.99c.8,.99,2.22,1.2,3.27,.49l7.73-5.19c.76-.51,1.75-.53,2.53-.06,3.27,1.93,6.8,3.4,10.47,4.38h0c.97,.26,1.69,1.09,1.79,2.09l.99,9.39,.05,.47c.12,1.22,1.17,2.14,2.39,2.11l10.26-.21c1.25-.03,2.28-.99,2.4-2.24l.83-9.29c.09-1.03,.83-1.89,1.83-2.12,4.21-1.03,8.24-2.71,11.94-4.98,.95-.57,2.16-.42,2.94,.36l5.86,5.86c.88,.88,2.29,.96,3.26,.17l8.04-6.44c.94-.76,1.15-2.11,.48-3.12l-6.08-9.08c-.52-.77-.55-1.77-.09-2.58,1.64-2.87,2.95-5.93,3.88-9.11,.26-.93,1.06-1.6,2.01-1.7l11.29-1.19c1.24-.13,2.17-1.19,2.15-2.43l-.19-10.29c-.03-1.08-.78-2.01-1.83-2.27-.11-.02-.22-.05-.34-.05l-10.31-.92c-.96-.07-1.77-.71-2.07-1.62-.03-.08-.06-.16-.07-.24-.05-.25-.1-.48-.18-.73-.7-2.9-1.7-5.72-3-8.4-.45-.89-.25-1.98,.47-2.69l6.19-6.19c.88-.87,.95-2.28,.17-3.25l-1.42-1.78-4.98-6.19c-.77-.98-2.17-1.18-3.22-.49l-7.61,5.11c-.81,.55-1.87,.52-2.66-.05-3.73-2.68-7.87-4.73-12.26-6.07l-.21-1.97-.86-8.08c-.1-.99-.81-1.81-1.77-2.03-.2-.05-.41-.07-.61-.06l-10.33,.19c-1.22,.04-2.22,.97-2.34,2.19l-.56,6.35c-.1,1.08-.92,1.96-1.99,2.14-4.39,.7-8.65,2.1-12.61,4.13-.93,.48-2.05,.32-2.75-.42l-7.4-7.4c-.83-.83-2.15-.89-3.07-.16l-8.11,6.52c-.96,.76-1.17,2.13-.49,3.14l6.33,9.44c.55,.81,.54,1.88-.01,2.68-1.2,1.78-2.25,3.65-3.16,5.59-.49,1.06-.95,2.13-1.35,3.22-.32,.85-1.08,1.45-1.99,1.55l-10.83,1.15c-1.25,.13-2.2,1.19-2.18,2.45h0Zm42.28,28.39c-2.37-1.45-4.58-3.37-6.57-5.82-.43-.52-.84-1.14-1.25-1.82-1.71-2.93-2.98-6.97-3.02-9.93-.3-22.62,25.96-32.43,40.52-15.54,.24,.28,.47,.56,.7,.85,2.17,2.7,4,7.79,4.08,11.25,.04,1.74-.08,3.48-.36,5.19-2.8,16.42-20.62,24.02-34.1,15.8Z" style="fill: url(#Unbenannter_Verlauf_3);"/>
  <path d="M442.73,122.89l-1.87,12.03-.04,.29c-.22,1.46,.69,2.85,2.11,3.24l9.82,2.63c.16,.04,.32,.1,.46,.17,1.02,.48,1.7,1.52,1.65,2.67-.18,6.75,.99,13.46,3.44,19.75,.1,.26,.16,.53,.18,.8,.08,1.03-.38,2.03-1.22,2.63l-6.96,4.86c-.9,.64-1.36,1.73-1.2,2.82,.06,.32,.16,.65,.33,.97l5.99,10.89c.75,1.35,2.4,1.9,3.81,1.27l10.32-4.59c1.02-.45,2.2-.27,3.04,.46,3.51,2.99,7.41,5.49,11.6,7.42h.01c1.11,.51,1.79,1.65,1.71,2.87l-.78,11.43-.03,.58c-.11,1.49,.95,2.8,2.42,3.03l12.31,1.9c1.5,.22,2.94-.71,3.34-2.17l2.94-10.93c.32-1.21,1.38-2.08,2.63-2.15,5.25-.35,10.42-1.52,15.32-3.45,1.25-.48,2.67-.05,3.44,1.05l5.78,8.23c.87,1.24,2.54,1.62,3.86,.89l10.95-6.01c1.29-.71,1.82-2.29,1.22-3.63l-5.37-12.13c-.46-1.03-.29-2.23,.43-3.1,2.57-3.09,4.77-6.47,6.55-10.07,.5-1.05,1.6-1.69,2.76-1.6l13.75,.94c1.51,.1,2.84-.97,3.08-2.46l1.92-12.34c.19-1.3-.51-2.57-1.72-3.1-.12-.05-.26-.11-.4-.14l-12.13-3.25c-1.13-.29-1.97-1.22-2.14-2.37-.02-.1-.04-.2-.03-.3-.01-.31-.02-.6-.07-.91-.23-3.61-.84-7.19-1.83-10.67-.35-1.16,.11-2.42,1.13-3.12l8.7-6.11c1.23-.87,1.62-2.53,.88-3.85l-1.33-2.42-4.66-8.44c-.72-1.33-2.35-1.87-3.74-1.26l-10.17,4.52c-1.08,.49-2.34,.23-3.17-.62-2.23-2.27-4.66-4.33-7.27-6.15-1.95-1.36-4-2.59-6.12-3.67l.17-2.4,.67-9.84c.09-1.2-.59-2.33-1.7-2.8-.23-.1-.47-.17-.72-.2l-12.39-1.94c-1.46-.21-2.86,.7-3.25,2.13l-2,7.47c-.35,1.27-1.5,2.15-2.82,2.14-5.4-.08-10.78,.7-15.94,2.3-1.22,.38-2.52-.05-3.2-1.08l-7.3-10.4c-.82-1.16-2.39-1.52-3.64-.84l-11.06,6.1c-1.31,.72-1.85,2.31-1.24,3.65l5.59,12.61c.49,1.08,.26,2.36-.57,3.21-1.81,1.87-3.46,3.89-4.94,6.03-.81,1.16-1.58,2.35-2.29,3.57-.56,.95-1.6,1.5-2.7,1.44l-13.18-.9c-1.52-.11-2.88,.97-3.12,2.47h0Zm44.61,42.79c-2.53-2.22-4.77-4.99-6.64-8.33-.4-.71-.77-1.54-1.11-2.43-1.43-3.87-2.1-8.96-1.53-12.5,4.37-27.11,37.82-33.33,51.7-10.09,.22,.38,.45,.77,.66,1.17,2.03,3.69,3.15,10.15,2.52,14.3-.31,2.09-.82,4.14-1.52,6.13-6.78,19.04-29.68,24.41-44.08,11.76h0Z" style="fill: url(#Unbenannter_Verlauf_4);"/>
  <rect x="214.58" y="166" width="470.42" height="315.22" rx="28" ry="28" style="fill: #fff; stroke: #e1e4e5; stroke-width: 4px;"/>
  <circle cx="251.07" cy="191.13" r="6.94" style="fill: #e1e4e5;"/>
  <circle cx="275.04" cy="191.13" r="6.94" style="fill: #e1e4e5;"/>
  <circle cx="299.01" cy="191.13" r="6.94" style="fill: #e1e4e5;"/>
  <path d="M190.94,346.98c3.05,17.12,20.83,32.19,20.83,32.19,0,0,14.57-20.83,11.52-37.96-3.06-17.13-12.77-29.72-21.71-28.12-8.93,1.59-13.69,16.77-10.64,33.89h0Zm39.13,29.75c-11.91,12.67-13.38,35.92-13.38,35.92,0,0,25.41-.73,37.32-13.42,11.92-12.68,16.22-27.99,9.6-34.2-6.61-6.21-21.62-.97-33.54,11.7h0Zm-14.24,87.74c-.54,2.97-.75,5.05-.8,5.58,0,.06-.02,.11-.01,.13h0s.01,.01,.01,0h.08c.28,0,1.1-.03,2.34-.1,6.65-.43,25.26-2.5,35.13-12.61,12.15-12.45,16.73-27.69,10.24-34.01-6.49-6.34-21.6-1.39-33.75,11.06-5.44,5.58-8.83,13.3-10.9,20.15-.98,3.22-1.76,6.49-2.34,9.8h0Zm-37.22-56.31c15.14,8.57,38.07,4.5,38.07,4.5,0,0-6.74-24.52-21.88-33.09-15.14-8.57-31.02-9.12-35.5-1.23-4.48,7.9,4.17,21.25,19.31,29.82h0Z" style="fill: #e1e4e5;"/>
  <path d="M180.31,461.66c14.16,10.1,37.39,8.44,37.39,8.44,0,0-4.16-25.09-18.32-35.19s-29.91-12.3-35.18-4.91,1.94,21.56,16.11,31.66Z" style="fill: #e1e4e5;"/>
  <path d="M208.77,372.14c.08,.24,6.79,23.91,4.48,84.1-.18,4.61-.4,9.21-.66,13.82l.29,.02,2.15,.12h0s.01,0,.01,0h.08c.28,0,1.1-.03,2.34-.1,.31-5.39,.54-10.52,.72-15.41,2.18-59.81-4.44-82.9-4.74-83.93l-4.68,1.4h0Zm500.27-25.15c-3.05,17.12-20.83,32.19-20.83,32.19,0,0-14.57-20.83-11.52-37.96,3.06-17.13,12.77-29.72,21.71-28.12,8.93,1.59,13.69,16.77,10.64,33.89h0Zm-39.13,29.75c11.91,12.67,13.38,35.92,13.38,35.92,0,0-25.41-.73-37.32-13.42-11.92-12.68-16.22-27.99-9.6-34.2,6.61-6.21,21.62-.97,33.54,11.7Zm14.24,87.74c.54,2.97,.75,5.05,.8,5.58,0,.06,.02,.11,.01,.13h0s-.01,.01-.02,0h-.08c-.28,0-1.1-.03-2.34-.1-6.66-.43-25.26-2.5-35.13-12.61-12.15-12.45-16.73-27.69-10.24-34.01,6.49-6.34,21.6-1.39,33.75,11.06,5.44,5.58,8.83,13.3,10.9,20.15,.98,3.22,1.76,6.49,2.34,9.8h0Zm37.22-56.31c-15.14,8.57-38.07,4.5-38.07,4.5,0,0,6.75-24.52,21.88-33.09,15.14-8.57,31.03-9.12,35.5-1.23,4.48,7.9-4.17,21.25-19.31,29.82Z" style="fill: #e1e4e5;"/>
  <path d="M719.66,461.66c-14.16,10.1-37.39,8.44-37.39,8.44,0,0,4.16-25.09,18.32-35.19,14.16-10.1,29.91-12.3,35.18-4.91s-1.94,21.56-16.11,31.66Z" style="fill: #e1e4e5;"/>
  <path d="M691.21,372.14c-.08,.24-6.78,23.91-4.48,84.1,.17,4.41,.39,9.02,.66,13.82l-.29,.02-2.14,.12h0s-.01,0-.01,0h-.08c-.28,0-1.1-.03-2.34-.1-.3-5.13-.53-10.27-.72-15.41-2.18-59.81,4.44-82.9,4.73-83.93l4.68,1.4h0Zm-76.85,26.94c-1.79,10.06-12.23,18.91-12.23,18.91,0,0-8.56-12.24-6.77-22.3,1.8-10.06,7.5-17.46,12.75-16.52,5.25,.93,8.04,9.85,6.25,19.91Zm-22.99,17.48c7,7.44,7.86,21.1,7.86,21.1,0,0-14.93-.43-21.93-7.88-7-7.45-9.53-16.44-5.64-20.09,3.88-3.65,12.7-.57,19.7,6.87Zm8.36,51.55c.32,1.75,.44,2.97,.47,3.28,0,.04,0,.06,0,.08h0s0,0,0,0h-.05c-.16,0-.65-.02-1.38-.06-3.91-.25-14.84-1.47-20.64-7.41-7.14-7.31-9.83-16.27-6.02-19.98,3.81-3.72,12.69-.82,19.83,6.5,3.2,3.28,5.19,7.81,6.41,11.84,.57,1.89,1.03,3.81,1.38,5.76h0Zm21.87-33.08c-8.89,5.03-22.37,2.64-22.37,2.64,0,0,3.96-14.41,12.86-19.44s18.23-5.36,20.86-.72c2.63,4.64-2.45,12.48-11.34,17.52h0Z" style="fill: #e1e4e5;"/>
  <path d="M620.6,466.45c-8.32,5.93-21.97,4.96-21.97,4.96,0,0,2.44-14.74,10.76-20.67,8.32-5.93,17.57-7.23,20.67-2.89,3.09,4.34-1.14,12.67-9.46,18.6Z" style="fill: #e1e4e5;"/>
  <path d="M603.88,413.86c-.05,.14-3.99,14.05-2.63,49.41,.1,2.59,.23,5.3,.39,8.12h-.17s-1.26,.08-1.26,.08h0s0,0,0,0h-.05c-.16,0-.65-.02-1.38-.06-.18-3.17-.32-6.18-.42-9.05-1.28-35.14,2.61-48.71,2.78-49.31l2.75,.83h0Zm-276.52-25.78c-1.79,10.06-12.23,18.91-12.23,18.91,0,0-8.56-12.24-6.77-22.3,1.8-10.06,7.5-17.46,12.75-16.52,5.25,.93,8.04,9.85,6.25,19.91h0Zm-22.99,17.48c7,7.44,7.86,21.1,7.86,21.1,0,0-14.93-.43-21.93-7.88-7-7.45-9.53-16.44-5.64-20.09,3.88-3.65,12.7-.57,19.7,6.87Zm8.36,51.55c.32,1.75,.44,2.97,.47,3.28,0,.04,0,.06,0,.08h0s0,0,0,0h-.05c-.16,0-.64-.02-1.38-.06-3.91-.25-14.84-1.47-20.64-7.41-7.14-7.31-9.83-16.27-6.02-19.98,3.81-3.72,12.69-.82,19.83,6.5,3.2,3.28,5.19,7.81,6.4,11.84,.57,1.89,1.03,3.81,1.38,5.76h0Zm21.87-33.08c-8.89,5.03-22.37,2.64-22.37,2.64,0,0,3.96-14.41,12.86-19.44,8.89-5.03,18.23-5.36,20.86-.72,2.63,4.64-2.45,12.48-11.35,17.52h0Z" style="fill: #e1e4e5;"/>
  <path d="M333.6,455.45c-8.32,5.93-21.97,4.96-21.97,4.96,0,0,2.44-14.74,10.76-20.67,8.32-5.93,17.57-7.23,20.67-2.89,3.1,4.34-1.14,12.67-9.46,18.6h0Z" style="fill: #e1e4e5;"/>
  <path d="M316.88,402.86c-.05,.14-3.99,14.05-2.63,49.41,.1,2.59,.23,5.3,.39,8.12h-.17s-1.26,.08-1.26,.08h0s0,0,0,0h-.05c-.16,0-.64-.02-1.38-.06-.18-3.17-.32-6.18-.42-9.05-1.28-35.14,2.61-48.71,2.78-49.31l2.75,.83h0Z" style="fill: #e1e4e5;"/>
  <path d="M546.45,255h97.04m-396.5,0h227.36m-227.36,50.12h65.45m59.32,.88h271.72m-97.04,50h97.04m-396.5,0h227.36m-227.36,49.12h65.45m59.32,.88h271.72" style="fill: none; isolation: isolate; opacity: .2; stroke: #e1e4e5; stroke-linecap: round; stroke-linejoin: round; stroke-width: 26.89px;"/>
  <path d="M522.97,304.31c0-40.08-32.6-72.58-72.79-72.58s-72.96,32.75-72.79,72.83c.08,19.92,8.17,37.94,21.21,51.02,10.15,10.2,17.66,22.71,21.38,36.62l5.86,21.64h47.7l5.53-20.49c3.88-14.15,11.55-26.99,22.04-37.28,13.53-13.25,21.87-31.52,21.87-51.76h0Z" style="fill: #373737;"/>
  <path d="M449.85,439c-12.6,0-22.84-10.22-22.84-22.77v-3.76h45.68v3.76c0,12.63-10.24,22.77-22.84,22.77h0Z" style="fill: #fff; stroke: #e1e4e5; stroke-width: 4px;"/>
  <path d="M474.85,421.99h-50.1c-1.07,0-1.9-.82-1.9-1.89s.83-1.89,1.9-1.89h50.1c1.07,0,1.9,.82,1.9,1.89,0,.99-.91,1.89-1.9,1.89Zm.33,8.07h-50.1c-1.07,0-1.9-.82-1.9-1.89s.83-1.89,1.9-1.89h50.1c1.07,0,1.9,.82,1.9,1.89,0,.99-.83,1.89-1.9,1.89Z" style="fill: #e1e4e5;"/>
  <path d="M361.78,301.1h-19.07c-2.04,.01-3.7-1.63-3.71-3.67,0-.01,0-.02,0-.03,0-2.04,1.64-3.7,3.68-3.7,.01,0,.02,0,.03,0h19.07c2.04-.01,3.7,1.63,3.71,3.67,0,.01,0,.02,0,.03,0,2.04-1.64,3.7-3.68,3.7-.01,0-.02,0-.03,0Zm5.86-34.15l-16.92-8.81c-1.82-.9-2.48-3.13-1.57-4.94,.91-1.81,3.14-2.47,4.95-1.56l16.92,8.8c1.82,.91,2.48,3.13,1.57,4.94-.91,1.81-3.14,2.55-4.95,1.56h0Zm20.63-28.23l-13.54-13.5c-1.4-1.4-1.4-3.79,0-5.18s3.8-1.4,5.2,0l13.54,13.5c1.4,1.4,1.4,3.79,0,5.18-1.49,1.4-3.8,1.4-5.2,0Zm23.36-17.94l-6.6-17.86c-.66-1.89,.25-4.03,2.15-4.69,1.9-.66,4.04,.25,4.7,2.14l6.6,17.86c.74,1.98-.25,4.03-2.14,4.77-1.9,.66-4.04-.33-4.7-2.22h0Zm127.59,77.85h19.07c2.04,.01,3.7-1.63,3.71-3.67,0-.01,0-.02,0-.03,0-2.04-1.64-3.7-3.68-3.7-.01,0-.02,0-.03,0h-19.07c-2.04-.01-3.7,1.63-3.71,3.67,0,.01,0,.02,0,.03,.08,2.06,1.73,3.7,3.71,3.7Zm-5.85-34.07l16.92-8.81c1.82-.9,2.48-3.13,1.57-4.94-.91-1.81-3.14-2.47-4.95-1.56l-16.92,8.8c-1.82,.91-2.48,3.13-1.57,4.94,.99,1.81,3.14,2.47,4.95,1.56h0Zm-20.63-28.31l13.53-13.5c1.4-1.4,1.4-3.79,0-5.18s-3.8-1.4-5.2,0l-13.54,13.5c-1.4,1.4-1.4,3.79,0,5.18,1.48,1.48,3.8,1.48,5.2,0Zm-23.36-17.86l6.6-17.86c.66-1.89-.25-4.03-2.14-4.69-1.9-.66-4.04,.25-4.7,2.14l-6.6,17.86c-.66,1.89,.25,4.03,2.15,4.69,1.9,.74,4.04-.25,4.7-2.14h0Zm-42.92-5.68v-19.01c0-2.04,1.64-3.7,3.68-3.7,.01,0,.02,0,.03,0,2.04-.01,3.7,1.63,3.71,3.67,0,.01,0,.02,0,.03v19.01c0,2.04-1.64,3.7-3.68,3.7-.01,0-.02,0-.03,0-2.04,.01-3.7-1.63-3.71-3.67,0-.01,0-.02,0-.03Z" style="fill: #373737;"/>
  <path d="M440.24,352.11c-1.14-10.91-3.01-20.66-6-26.47-2.63-5.12-6.79-8.82-11.02-10.04-.91-.26-1.85-.39-2.8-.4-1.42,0-2.72,.34-3.88,1.02-1.48,.88-2.73,2.64-3.51,4.96-.77,2.31-1.04,5.08-.62,7.82l27.83,23.09h0Zm0,0c-18.34-3.03-26.36-13.46-27.83-23.09l27.83,23.09Zm17.76,56.43l.05,.95h3.49l-.04-1.04v-.04c-.05-1.31-1.19-29.08,.94-52.99,20.28-3.06,29.62-14.7,31.32-25.92,.5-3.33,.18-6.66-.8-9.49-.97-2.82-2.63-5.21-4.88-6.54-2.68-1.6-5.88-1.89-9.2-.94-5.2,1.48-10.02,5.88-13,11.66h0c-3.35,6.5-5.31,17.06-6.46,28.4-2.64,.28-5.28,.42-7.93,.42-2.82,0-5.46-.14-7.93-.42-1.15-11.35-3.11-21.9-6.46-28.39h0c-2.98-5.78-7.8-10.18-13-11.66-3.32-.95-6.52-.66-9.2,.94-2.25,1.33-3.91,3.73-4.88,6.55-.98,2.83-1.29,6.16-.79,9.49,1.69,11.21,11.04,22.85,31.32,25.92,2.13,23.9,1,51.68,.95,52.99v.04s-.04,1.04-.04,1.04h3.49l.05-.95c.08-1.71,.98-28.85-1.11-52.73,2.4,.23,4.95,.36,7.63,.36s5.23-.12,7.63-.36c-2.09,23.88-1.23,51.02-1.14,52.72h0Zm4.77-56.42c1.14-10.91,3.01-20.67,6-26.46,2.65-5.13,6.8-8.84,11.02-10.04h0c.91-.27,1.85-.41,2.79-.41,1.42,0,2.72,.34,3.87,1.03h0c1.48,.88,2.73,2.64,3.51,4.97,.77,2.31,1.04,5.08,.62,7.82-1.46,9.62-9.49,20.06-27.83,23.09h0Z" style="fill: #fff; stroke: #fff; stroke-width: 2px;"/>
  <path d="M507.53,301c-1.92,0-3.47-1.57-3.47-3.51,0-21.73-14.54-40.62-35.34-45.96-1.86-.49-2.98-2.39-2.5-4.25,.47-1.88,2.36-3.02,4.21-2.53,23.89,6.11,40.58,27.8,40.58,52.74,0,1.94-1.55,3.51-3.47,3.51Zm-48.06-50.99c1.92,0,3.47-1.57,3.47-3.51s-1.55-3.51-3.47-3.51-3.47,1.57-3.47,3.51,1.55,3.51,3.47,3.51Z" style="fill: #fff;"/>
  <path d="M743.04,306.85c-12.78,11.07-34.65,6.76-34.65,6.76,0,0-1.15-22.26,11.63-33.32,12.78-11.07,34.64-6.77,34.64-6.77,0,0,1.15,22.26-11.62,33.32Z" style="fill: url(#Unbenannter_Verlauf_5);"/>
  <path d="M169.29,334.51c5.36,7.9,1.49,19.89,1.49,19.89,0,0-12.56-.83-17.92-8.73-5.36-7.9-1.5-19.88-1.5-19.88,0,0,12.56,.83,17.92,8.73h0Z" style="fill: url(#Unbenannter_Verlauf_6);"/>
  <path d="M422.79,492.98l-311.74-.71c1.81-1.05,3.64-2.08,5.48-3.09,7.46-4.07,18.36-9.51,32.1-14.96,27.49-10.92,66.31-21.91,111.64-22.21,45.54-.3,86.47,10.31,116.87,21.31,15.2,5.49,27.75,11.08,36.93,15.43,3.37,1.6,6.29,3.03,8.72,4.23h0Zm358.24-5l-243.77-.54c.87-.48,1.82-1.01,2.86-1.56,5.91-3.16,14.54-7.38,25.43-11.62,21.78-8.48,52.54-17.01,88.45-17.25,36.08-.24,68.51,8.01,92.61,16.55,9.94,3.53,19.71,7.53,29.27,11.99,1.9,.88,3.62,1.7,5.15,2.44h0Z" style="fill: #fff; stroke: #e1e4e5; stroke-width: 4px;"/>
</svg>