<?xml version="1.0" encoding="UTF-8"?>
<svg id="Ebene_1" data-name="Ebene 1" xmlns="http://www.w3.org/2000/svg" xmlns:xlink="http://www.w3.org/1999/xlink" viewBox="0 0 900 600">
  <defs>
    <linearGradient id="Unbenannter_Verlauf" data-name="Unbenannter Verlauf" x1="352.26" y1="-164.59" x2="601.39" y2="959.39" gradientTransform="translate(0 598.63) scale(1 -1)" gradientUnits="userSpaceOnUse">
      <stop offset="0" stop-color="#fff"/>
      <stop offset="1" stop-color="#eee"/>
    </linearGradient>
    <linearGradient id="Unbenannter_Verlauf_2" data-name="Unbenannter Verlauf 2" x1="315.05" y1="244.47" x2="430.51" y2="763.33" gradientTransform="translate(0 598.63) scale(1 -1)" gradientUnits="userSpaceOnUse">
      <stop offset="0" stop-color="#fff"/>
      <stop offset="1" stop-color="#eee"/>
    </linearGradient>
    <linearGradient id="Unbenannter_Verlauf_3" data-name="Unbenannter Verlauf 3" x1="593.5" y1="-27.54" x2="692.52" y2="430.36" gradientTransform="translate(0 598.63) scale(1 -1)" gradientUnits="userSpaceOnUse">
      <stop offset="0" stop-color="#fff"/>
      <stop offset="1" stop-color="#eee"/>
    </linearGradient>
    <linearGradient id="Unbenannter_Verlauf_4" data-name="Unbenannter Verlauf 4" x1="247.93" y1="341.68" x2="129.24" y2="397.76" gradientTransform="translate(0 598.63) scale(1 -1)" gradientUnits="userSpaceOnUse">
      <stop offset="0" stop-color="#fff"/>
      <stop offset="1" stop-color="#eee"/>
    </linearGradient>
    <linearGradient id="Unbenannter_Verlauf_5" data-name="Unbenannter Verlauf 5" x1="509.07" y1="458.84" x2="621.43" y2="577.32" gradientTransform="translate(0 598.63) scale(1 -1)" gradientUnits="userSpaceOnUse">
      <stop offset="0" stop-color="#fff"/>
      <stop offset="1" stop-color="#eee"/>
    </linearGradient>
    <linearGradient id="Unbenannter_Verlauf_6" data-name="Unbenannter Verlauf 6" x1="259.9" y1="380.9" x2="371.77" y2="556.27" gradientTransform="translate(0 598.63) scale(1 -1)" gradientUnits="userSpaceOnUse">
      <stop offset="0" stop-color="#fff"/>
      <stop offset="1" stop-color="#eee"/>
    </linearGradient>
  </defs>
  <path d="M190.98,354.42c-3.7,68.12,129.49,206.64,293.64,155.37,76.35-23.85,69.88-63.43,127.94-115.59,34.6-31.09,84.32-54.6,98.15-99.79,11.95-39.01,4.62-80.94-16.09-108.21-46.58-61.33-140.61-103.33-233.26-6.7-92.65,96.63-260.83-.77-270.38,174.92h0Z" style="fill: url(#Unbenannter_Verlauf);"/>
  <path d="M227.49,204.26c12.95,23.12,41.33,26.3,86.78,21.9,34.18-3.31,65.36-5.87,99.54-24.51,23.93-13.04,42.87-30.68,56.69-47.81,14.98-18.56,35.89-39.74,25.64-60.78-14.09-28.91-95.55-53.25-174.65-13.44-86.89,43.75-106.68,102.04-94,124.63h0Z" style="fill: url(#Unbenannter_Verlauf_2);"/>
  <path d="M557.22,487.01c30.18-42.22,61.09-87.09,101.55-109.2,41.74-22.81,49.44-8.75,52.33,13.6,2.89,22.35-9.99,75.3-66.95,105.43-56.97,30.14-115.17,29.68-86.93-9.83h0Z" style="fill: url(#Unbenannter_Verlauf_3);"/>
  <path d="M626.87,304.6c0-97.99-79.44-177.42-177.42-177.42s-177.42,79.44-177.42,177.42,79.44,177.42,177.42,177.42,177.42-79.44,177.42-177.42h0Z" style="fill: #42c3a7;"/>
  <path d="M449.45,457.48c84.43,0,152.88-68.45,152.88-152.88s-68.45-152.88-152.88-152.88-152.88,68.45-152.88,152.88,68.45,152.88,152.88,152.88h0Z" style="fill: #fff;"/>
  <path d="M445,189.08c0,.6,.39,.98,.65,1.17,.28,.2,.61,.34,.94,.44,.66,.2,1.52,.32,2.42,.32s1.75-.11,2.41-.32c.33-.1,.66-.24,.94-.44,.25-.18,.65-.57,.65-1.17v-24.15c0-.6-.39-.98-.65-1.17-.28-.2-.61-.34-.94-.44-.66-.2-1.52-.32-2.42-.32s-1.76,.11-2.42,.32c-.33,.1-.66,.24-.94,.44-.26,.19-.65,.57-.65,1.17v24.15h0Zm0,252.05c0,.62,.42,.99,.67,1.16,.27,.19,.61,.32,.93,.42,.66,.19,1.51,.3,2.4,.3s1.74-.11,2.4-.3c.33-.09,.64-.23,.93-.42,.24-.17,.67-.55,.67-1.17v-24.24c0-.62-.42-.99-.67-1.16-.29-.19-.6-.33-.93-.42-.66-.19-1.51-.3-2.4-.3s-1.75,.11-2.4,.3c-.33,.09-.64,.23-.93,.42-.25,.17-.67,.55-.67,1.16v24.24Zm-134.21-137.06h26.78c1.15,0,1.93-1,1.93-2.02s-.77-2.02-1.93-2.02h-26.78c-1.16,0-1.93,1-1.93,2.02s.77,2.02,1.93,2.02Z" style="fill: #e1e4e5; stroke: #e1e4e5; stroke-width: 2px;"/>
  <path d="M310.94,306h27.12c.59,0,.98-.38,1.17-.64,.2-.28,.35-.61,.45-.94,.21-.66,.32-1.52,.32-2.42s-.11-1.76-.32-2.42c-.1-.33-.24-.66-.45-.94-.19-.26-.58-.64-1.17-.64h-27.12c-.59,0-.98,.38-1.17,.64-.2,.28-.35,.61-.45,.94-.21,.66-.32,1.52-.32,2.42s.11,1.76,.32,2.42c.1,.33,.24,.66,.45,.94,.19,.26,.58,.64,1.17,.64Zm252.99,0h23.13c.6,0,.98-.39,1.17-.64,.2-.28,.34-.61,.45-.94,.21-.66,.32-1.52,.32-2.42s-.11-1.76-.32-2.42c-.1-.33-.24-.66-.45-.94-.19-.26-.57-.64-1.17-.64h-23.13c-.6,0-.98,.39-1.17,.64-.2,.28-.34,.61-.45,.94-.21,.66-.32,1.52-.32,2.42s.11,1.76,.32,2.42c.1,.33,.24,.66,.45,.94,.19,.26,.57,.64,1.17,.64Zm-46.94,117.73h0s-11.55-21.64-11.55-21.64h0c-.47-.89-.22-2.05,.67-2.61,.94-.59,2.11-.2,2.6,.72l8.27,23.52h0Zm0,0c.33,.61,.95,1,1.64,1,.33,0,.66-.09,.96-.27h0c.89-.56,1.15-1.73,.67-2.62h0s-11.55-21.63-11.55-21.63l8.27,23.52h0Zm-138.33-239.46h0l12.48,21.68c.53,.92,1.7,1.24,2.61,.71,0,0,0,0,0,0h0c.92-.53,1.23-1.71,.7-2.62h0s-12.48-21.68-12.48-21.68h0c-.53-.92-1.7-1.23-2.61-.71,0,0,0,0,0,0-.92,.53-1.23,1.7-.7,2.62h0Zm172.35,172.23c-.93-.51-2.1-.17-2.61,.76,0,0,0,.01-.01,.02-.51,.94-.16,2.11,.77,2.62l20.64,11.41h0c.29,.17,.61,.25,.93,.25,.69,0,1.35-.38,1.69-1.01h0c.5-.94,.16-2.11-.77-2.62h0s-20.65-11.42-20.65-11.42h0Zm-221.93-121.69c-.93-.51-2.09-.17-2.6,.76,0,0,0,0,0,0-.5,.93-.16,2.09,.76,2.6l22.71,12.47c.92,.51,2.09,.17,2.59-.75,0,0,0-.01,0-.02,.5-.93,.16-2.09-.76-2.6l-22.72-12.48h0Zm241.27-2.33c-.52-.92-1.69-1.24-2.61-.72,0,0-.01,0-.02,.01h0l-19.64,11.44c-.91,.53-1.23,1.71-.7,2.62,.52,.92,1.69,1.24,2.61,.72,0,0,.01,0,.02-.01h0s19.64-11.44,19.64-11.44l-.5-.86,.5,.86c.91-.53,1.23-1.71,.7-2.63h0Zm0,0l-.87,.5,.87-.5Zm-219.38,125.05h0l-22.73,12.58h0c-.91,.5-1.26,1.66-.7,2.58,.35,.57,.97,.92,1.64,.92,.32,0,.64-.08,.93-.24h.01s22.73-12.59,22.73-12.59h0c.91-.5,1.26-1.66,.7-2.58-.54-.89-1.69-1.17-2.58-.68Zm29.7,66.38h0c-.48,.92-.17,2.1,.76,2.62,.29,.17,.61,.25,.93,.25,.7,0,1.35-.39,1.69-1.03h0s12.49-23.67,12.49-23.67h0c.48-.92,.17-2.1-.76-2.62-.92-.51-2.07-.19-2.59,.73-.01,.02-.02,.04-.03,.05h0s-12.49,23.67-12.49,23.67h0Zm121.7-222.93h0c-.51,.93-.18,2.1,.76,2.62,0,0,.01,0,.02,.01,.94,.51,2.11,.17,2.63-.76h0s11.41-20.64,11.41-20.64h0c.51-.93,.17-2.1-.76-2.62,0,0-.02,0-.02-.01-.94-.5-2.11-.16-2.63,.77l-11.41,20.63h0Z" style="fill: #e1e4e5; stroke: #e1e4e5; stroke-width: 2px;"/>
  <path d="M451.5,297h94c3.04,0,5.5,2.46,5.5,5.5h0c0,3.04-2.46,5.5-5.5,5.5h-94c-3.04,0-5.5-2.46-5.5-5.5h0c0-3.04,2.46-5.5,5.5-5.5Z" style="fill: #42c3a7;"/>
  <path d="M454.36,313.24l-24.89,43.11c-2.11,3.66-6.79,4.91-10.45,2.8h0c-3.66-2.11-4.91-6.79-2.8-10.45l24.89-43.11c2.11-3.66,6.79-4.91,10.45-2.8h0c3.66,2.11,4.91,6.79,2.8,10.45Z" style="fill: #42c3a7;"/>
  <path d="M464.27,317.4c7.91-7.91,7.91-20.74,0-28.65-7.91-7.91-20.74-7.91-28.65,0-7.91,7.91-7.91,20.74,0,28.65,7.91,7.91,20.74,7.91,28.65,0Z" style="fill: #fff;"/>
  <path d="M459.97,313.11c5.54-5.54,5.54-14.52,0-20.06s-14.52-5.54-20.06,0c-5.54,5.54-5.54,14.52,0,20.06,5.54,5.54,14.52,5.54,20.06,0Z" style="fill: #30524b;"/>
  <path d="M197.05,248.58c13.56,3.21,27.9-8.29,27.9-8.29,0,0-7.65-16.7-21.21-19.9-13.56-3.21-27.89,8.28-27.89,8.28,0,0,7.65,16.7,21.21,19.91Z" style="fill: url(#Unbenannter_Verlauf_4);"/>
  <path d="M564.3,107.17c-14.27,9.83-36.08,2.96-36.08,2.96,0,0,1.35-22.81,15.63-32.63,14.27-9.83,36.07-2.97,36.07-2.97,0,0-1.35,22.81-15.62,32.64h0Z" style="fill: url(#Unbenannter_Verlauf_5);"/>
  <path d="M321.08,163.58c-15.47,15.75-44.41,12.43-44.41,12.43,0,0-3.83-28.86,11.66-44.6,15.47-15.75,44.4-12.44,44.4-12.44,0,0,3.83,28.86-11.64,44.61Z" style="fill: url(#Unbenannter_Verlauf_6);"/>
  <ellipse cx="254.5" cy="378" rx="11.5" ry="11" style="fill: #42c3a7;"/>
  <ellipse cx="371" cy="506.5" rx="13" ry="13.5" style="fill: #42c3a7;"/>
  <ellipse cx="646.5" cy="433" rx="15.5" ry="15" style="fill: #42c3a7;"/>
  <circle cx="667.5" cy="249.5" r="5.5" style="fill: #42c3a7;"/>
  <circle cx="269.5" cy="183.5" r="10.5" style="fill: #42c3a7;"/>
  <ellipse cx="267.5" cy="474" rx="10.5" ry="10" style="fill: #e1e4e5;"/>
  <ellipse cx="710" cy="343" rx="11" ry="10" style="fill: #e1e4e5;"/>
  <circle cx="598.5" cy="483.5" r="3.5" style="fill: #e1e4e5;"/>
  <circle cx="331" cy="130" r="5" style="fill: #e1e4e5;"/>
  <circle cx="650.24" cy="305.98" r="4.89" style="fill: #e1e4e5;"/>
  <circle cx="644.5" cy="195.5" r="6.5" style="fill: #e1e4e5;"/>
  <ellipse cx="247" cy="311" rx="5" ry="4" style="fill: #e1e4e5;"/>
  <circle cx="457.3" cy="94.63" r="10.17" style="fill: #e1e4e5;"/>
  <path d="M175.07,309h-.13c-.77,10.98-8.94,11.14-8.94,11.14,0,0,9,.18,9,12.86,0-12.68,9-12.86,9-12.86,0,0-8.16-.17-8.93-11.14Zm429.55-173h-.23c-1.33,19.21-15.39,19.5-15.39,19.5,0,0,15.5,.31,15.5,22.5,0-22.19,15.5-22.5,15.5-22.5,0,0-14.05-.3-15.38-19.5Z" style="fill: #e1e4e5;"/>
</svg>