<?xml version="1.0" encoding="UTF-8"?>
<svg id="Ebene_1" data-name="Ebene 1" xmlns="http://www.w3.org/2000/svg" xmlns:xlink="http://www.w3.org/1999/xlink" viewBox="0 0 300 300">
  <defs>
    <linearGradient id="Unbenannter_Verlauf_3" data-name="Unbenannter Verlauf 3" x1="-2665.97" y1="2453.36" x2="-2665.97" y2="2452.29" gradientTransform="translate(799940.5 103176.5) scale(300 -42)" gradientUnits="userSpaceOnUse">
      <stop offset="0" stop-color="#68c0a8" stop-opacity=".52"/>
      <stop offset="1" stop-color="#fff"/>
    </linearGradient>
  </defs>
  <g>
    <rect id="p" x="20" y="20" width="8.97" height="8.97" style="fill: #373737;"/>
    <rect id="p-2" data-name="p" x="20" y="28.97" width="8.97" height="8.97" style="fill: #373737;"/>
    <rect id="p-3" data-name="p" x="20" y="37.93" width="8.97" height="8.97" style="fill: #373737;"/>
    <rect id="p-4" data-name="p" x="20" y="46.9" width="8.97" height="8.97" style="fill: #373737;"/>
    <rect id="p-5" data-name="p" x="20" y="55.86" width="8.97" height="8.97" style="fill: #373737;"/>
    <rect id="p-6" data-name="p" x="20" y="64.83" width="8.97" height="8.97" style="fill: #373737;"/>
    <rect id="p-7" data-name="p" x="20" y="73.79" width="8.97" height="8.97" style="fill: #373737;"/>
    <rect id="p-8" data-name="p" x="20" y="91.72" width="8.97" height="8.97" style="fill: #373737;"/>
    <rect id="p-9" data-name="p" x="20" y="100.69" width="8.97" height="8.97" style="fill: #373737;"/>
    <rect id="p-10" data-name="p" x="20" y="118.62" width="8.97" height="8.97" style="fill: #373737;"/>
    <rect id="p-11" data-name="p" x="20" y="127.59" width="8.97" height="8.97" style="fill: #373737;"/>
    <rect id="p-12" data-name="p" x="20" y="145.52" width="8.97" height="8.97" style="fill: #373737;"/>
    <rect id="p-13" data-name="p" x="20" y="172.41" width="8.97" height="8.97" style="fill: #373737;"/>
    <rect id="p-14" data-name="p" x="20" y="190.34" width="8.97" height="8.97" style="fill: #373737;"/>
    <rect id="p-15" data-name="p" x="20" y="199.31" width="8.97" height="8.97" style="fill: #373737;"/>
    <rect id="p-16" data-name="p" x="20" y="217.24" width="8.97" height="8.97" style="fill: #373737;"/>
    <rect id="p-17" data-name="p" x="20" y="226.21" width="8.97" height="8.97" style="fill: #373737;"/>
    <rect id="p-18" data-name="p" x="20" y="235.17" width="8.97" height="8.97" style="fill: #373737;"/>
    <rect id="p-19" data-name="p" x="20" y="244.14" width="8.97" height="8.97" style="fill: #373737;"/>
    <rect id="p-20" data-name="p" x="20" y="253.1" width="8.97" height="8.97" style="fill: #373737;"/>
    <rect id="p-21" data-name="p" x="20" y="262.07" width="8.97" height="8.97" style="fill: #373737;"/>
    <rect id="p-22" data-name="p" x="20" y="271.03" width="8.97" height="8.97" style="fill: #373737;"/>
    <rect id="p-23" data-name="p" x="28.97" y="20" width="8.97" height="8.97" style="fill: #373737;"/>
    <rect id="p-24" data-name="p" x="28.97" y="73.79" width="8.97" height="8.97" style="fill: #373737;"/>
    <rect id="p-25" data-name="p" x="28.97" y="100.69" width="8.97" height="8.97" style="fill: #373737;"/>
    <rect id="p-26" data-name="p" x="28.97" y="109.66" width="8.97" height="8.97" style="fill: #373737;"/>
    <rect id="p-27" data-name="p" x="28.97" y="118.62" width="8.97" height="8.97" style="fill: #373737;"/>
    <rect id="p-28" data-name="p" x="28.97" y="127.59" width="8.97" height="8.97" style="fill: #373737;"/>
    <rect id="p-29" data-name="p" x="28.97" y="136.55" width="8.97" height="8.97" style="fill: #373737;"/>
    <rect id="p-30" data-name="p" x="28.97" y="145.52" width="8.97" height="8.97" style="fill: #373737;"/>
    <rect id="p-31" data-name="p" x="28.97" y="154.48" width="8.97" height="8.97" style="fill: #373737;"/>
    <rect id="p-32" data-name="p" x="28.97" y="163.45" width="8.97" height="8.97" style="fill: #373737;"/>
    <rect id="p-33" data-name="p" x="28.97" y="181.38" width="8.97" height="8.97" style="fill: #373737;"/>
    <rect id="p-34" data-name="p" x="28.97" y="190.34" width="8.97" height="8.97" style="fill: #373737;"/>
    <rect id="p-35" data-name="p" x="28.97" y="217.24" width="8.97" height="8.97" style="fill: #373737;"/>
    <rect id="p-36" data-name="p" x="28.97" y="271.03" width="8.97" height="8.97" style="fill: #373737;"/>
    <rect id="p-37" data-name="p" x="37.93" y="20" width="8.97" height="8.97" style="fill: #373737;"/>
    <rect id="p-38" data-name="p" x="37.93" y="37.93" width="8.97" height="8.97" style="fill: #373737;"/>
    <rect id="p-39" data-name="p" x="37.93" y="46.9" width="8.97" height="8.97" style="fill: #373737;"/>
    <rect id="p-40" data-name="p" x="37.93" y="55.86" width="8.97" height="8.97" style="fill: #373737;"/>
    <rect id="p-41" data-name="p" x="37.93" y="73.79" width="8.97" height="8.97" style="fill: #373737;"/>
    <rect id="p-42" data-name="p" x="37.93" y="91.72" width="8.97" height="8.97" style="fill: #373737;"/>
    <rect id="p-43" data-name="p" x="37.93" y="100.69" width="8.97" height="8.97" style="fill: #373737;"/>
    <rect id="p-44" data-name="p" x="37.93" y="109.66" width="8.97" height="8.97" style="fill: #373737;"/>
    <rect id="p-45" data-name="p" x="37.93" y="118.62" width="8.97" height="8.97" style="fill: #373737;"/>
    <rect id="p-46" data-name="p" x="37.93" y="127.59" width="8.97" height="8.97" style="fill: #373737;"/>
    <rect id="p-47" data-name="p" x="37.93" y="172.41" width="8.97" height="8.97" style="fill: #373737;"/>
    <rect id="p-48" data-name="p" x="37.93" y="181.38" width="8.97" height="8.97" style="fill: #373737;"/>
    <rect id="p-49" data-name="p" x="37.93" y="199.31" width="8.97" height="8.97" style="fill: #373737;"/>
    <rect id="p-50" data-name="p" x="37.93" y="217.24" width="8.97" height="8.97" style="fill: #373737;"/>
    <rect id="p-51" data-name="p" x="37.93" y="235.17" width="8.97" height="8.97" style="fill: #373737;"/>
    <rect id="p-52" data-name="p" x="37.93" y="244.14" width="8.97" height="8.97" style="fill: #373737;"/>
    <rect id="p-53" data-name="p" x="37.93" y="253.1" width="8.97" height="8.97" style="fill: #373737;"/>
    <rect id="p-54" data-name="p" x="37.93" y="271.03" width="8.97" height="8.97" style="fill: #373737;"/>
    <rect id="p-55" data-name="p" x="46.9" y="20" width="8.97" height="8.97" style="fill: #373737;"/>
    <rect id="p-56" data-name="p" x="46.9" y="37.93" width="8.97" height="8.97" style="fill: #373737;"/>
    <rect id="p-57" data-name="p" x="46.9" y="46.9" width="8.97" height="8.97" style="fill: #373737;"/>
    <rect id="p-58" data-name="p" x="46.9" y="55.86" width="8.97" height="8.97" style="fill: #373737;"/>
    <rect id="p-59" data-name="p" x="46.9" y="73.79" width="8.97" height="8.97" style="fill: #373737;"/>
    <rect id="p-60" data-name="p" x="46.9" y="91.72" width="8.97" height="8.97" style="fill: #373737;"/>
    <rect id="p-61" data-name="p" x="46.9" y="127.59" width="8.97" height="8.97" style="fill: #373737;"/>
    <rect id="p-62" data-name="p" x="46.9" y="136.55" width="8.97" height="8.97" style="fill: #373737;"/>
    <rect id="p-63" data-name="p" x="46.9" y="154.48" width="8.97" height="8.97" style="fill: #373737;"/>
    <rect id="p-64" data-name="p" x="46.9" y="172.41" width="8.97" height="8.97" style="fill: #373737;"/>
    <rect id="p-65" data-name="p" x="46.9" y="190.34" width="8.97" height="8.97" style="fill: #373737;"/>
    <rect id="p-66" data-name="p" x="46.9" y="217.24" width="8.97" height="8.97" style="fill: #373737;"/>
    <rect id="p-67" data-name="p" x="46.9" y="235.17" width="8.97" height="8.97" style="fill: #373737;"/>
    <rect id="p-68" data-name="p" x="46.9" y="244.14" width="8.97" height="8.97" style="fill: #373737;"/>
    <rect id="p-69" data-name="p" x="46.9" y="253.1" width="8.97" height="8.97" style="fill: #373737;"/>
    <rect id="p-70" data-name="p" x="46.9" y="271.03" width="8.97" height="8.97" style="fill: #373737;"/>
    <rect id="p-71" data-name="p" x="55.86" y="20" width="8.97" height="8.97" style="fill: #373737;"/>
    <rect id="p-72" data-name="p" x="55.86" y="37.93" width="8.97" height="8.97" style="fill: #373737;"/>
    <rect id="p-73" data-name="p" x="55.86" y="46.9" width="8.97" height="8.97" style="fill: #373737;"/>
    <rect id="p-74" data-name="p" x="55.86" y="55.86" width="8.97" height="8.97" style="fill: #373737;"/>
    <rect id="p-75" data-name="p" x="55.86" y="73.79" width="8.97" height="8.97" style="fill: #373737;"/>
    <rect id="p-76" data-name="p" x="55.86" y="100.69" width="8.97" height="8.97" style="fill: #373737;"/>
    <rect id="p-77" data-name="p" x="55.86" y="127.59" width="8.97" height="8.97" style="fill: #373737;"/>
    <rect id="p-78" data-name="p" x="55.86" y="217.24" width="8.97" height="8.97" style="fill: #373737;"/>
    <rect id="p-79" data-name="p" x="55.86" y="235.17" width="8.97" height="8.97" style="fill: #373737;"/>
    <rect id="p-80" data-name="p" x="55.86" y="244.14" width="8.97" height="8.97" style="fill: #373737;"/>
    <rect id="p-81" data-name="p" x="55.86" y="253.1" width="8.97" height="8.97" style="fill: #373737;"/>
    <rect id="p-82" data-name="p" x="55.86" y="271.03" width="8.97" height="8.97" style="fill: #373737;"/>
    <rect id="p-83" data-name="p" x="64.83" y="20" width="8.97" height="8.97" style="fill: #373737;"/>
    <rect id="p-84" data-name="p" x="64.83" y="73.79" width="8.97" height="8.97" style="fill: #373737;"/>
    <rect id="p-85" data-name="p" x="64.83" y="91.72" width="8.97" height="8.97" style="fill: #373737;"/>
    <rect id="p-86" data-name="p" x="64.83" y="100.69" width="8.97" height="8.97" style="fill: #373737;"/>
    <rect id="p-87" data-name="p" x="64.83" y="109.66" width="8.97" height="8.97" style="fill: #373737;"/>
    <rect id="p-88" data-name="p" x="64.83" y="118.62" width="8.97" height="8.97" style="fill: #373737;"/>
    <rect id="p-89" data-name="p" x="64.83" y="136.55" width="8.97" height="8.97" style="fill: #373737;"/>
    <rect id="p-90" data-name="p" x="64.83" y="190.34" width="8.97" height="8.97" style="fill: #373737;"/>
    <rect id="p-91" data-name="p" x="64.83" y="199.31" width="8.97" height="8.97" style="fill: #373737;"/>
    <rect id="p-92" data-name="p" x="64.83" y="217.24" width="8.97" height="8.97" style="fill: #373737;"/>
    <rect id="p-93" data-name="p" x="64.83" y="271.03" width="8.97" height="8.97" style="fill: #373737;"/>
    <rect id="p-94" data-name="p" x="73.79" y="20" width="8.97" height="8.97" style="fill: #373737;"/>
    <rect id="p-95" data-name="p" x="73.79" y="28.97" width="8.97" height="8.97" style="fill: #373737;"/>
    <rect id="p-96" data-name="p" x="73.79" y="37.93" width="8.97" height="8.97" style="fill: #373737;"/>
    <rect id="p-97" data-name="p" x="73.79" y="46.9" width="8.97" height="8.97" style="fill: #373737;"/>
    <rect id="p-98" data-name="p" x="73.79" y="55.86" width="8.97" height="8.97" style="fill: #373737;"/>
    <rect id="p-99" data-name="p" x="73.79" y="64.83" width="8.97" height="8.97" style="fill: #373737;"/>
    <rect id="p-100" data-name="p" x="73.79" y="73.79" width="8.97" height="8.97" style="fill: #373737;"/>
    <rect id="p-101" data-name="p" x="73.79" y="91.72" width="8.97" height="8.97" style="fill: #373737;"/>
    <rect id="p-102" data-name="p" x="73.79" y="109.66" width="8.97" height="8.97" style="fill: #373737;"/>
    <rect id="p-103" data-name="p" x="73.79" y="127.59" width="8.97" height="8.97" style="fill: #373737;"/>
    <rect id="p-104" data-name="p" x="73.79" y="145.52" width="8.97" height="8.97" style="fill: #373737;"/>
    <rect id="p-105" data-name="p" x="73.79" y="163.45" width="8.97" height="8.97" style="fill: #373737;"/>
    <rect id="p-106" data-name="p" x="73.79" y="181.38" width="8.97" height="8.97" style="fill: #373737;"/>
    <rect id="p-107" data-name="p" x="73.79" y="199.31" width="8.97" height="8.97" style="fill: #373737;"/>
    <rect id="p-108" data-name="p" x="73.79" y="217.24" width="8.97" height="8.97" style="fill: #373737;"/>
    <rect id="p-109" data-name="p" x="73.79" y="226.21" width="8.97" height="8.97" style="fill: #373737;"/>
    <rect id="p-110" data-name="p" x="73.79" y="235.17" width="8.97" height="8.97" style="fill: #373737;"/>
    <rect id="p-111" data-name="p" x="73.79" y="244.14" width="8.97" height="8.97" style="fill: #373737;"/>
    <rect id="p-112" data-name="p" x="73.79" y="253.1" width="8.97" height="8.97" style="fill: #373737;"/>
    <rect id="p-113" data-name="p" x="73.79" y="262.07" width="8.97" height="8.97" style="fill: #373737;"/>
    <rect id="p-114" data-name="p" x="73.79" y="271.03" width="8.97" height="8.97" style="fill: #373737;"/>
    <rect id="p-115" data-name="p" x="82.76" y="91.72" width="8.97" height="8.97" style="fill: #373737;"/>
    <rect id="p-116" data-name="p" x="82.76" y="100.69" width="8.97" height="8.97" style="fill: #373737;"/>
    <rect id="p-117" data-name="p" x="82.76" y="109.66" width="8.97" height="8.97" style="fill: #373737;"/>
    <rect id="p-118" data-name="p" x="82.76" y="118.62" width="8.97" height="8.97" style="fill: #373737;"/>
    <rect id="p-119" data-name="p" x="82.76" y="127.59" width="8.97" height="8.97" style="fill: #373737;"/>
    <rect id="p-120" data-name="p" x="82.76" y="136.55" width="8.97" height="8.97" style="fill: #373737;"/>
    <rect id="p-121" data-name="p" x="82.76" y="154.48" width="8.97" height="8.97" style="fill: #373737;"/>
    <rect id="p-122" data-name="p" x="82.76" y="172.41" width="8.97" height="8.97" style="fill: #373737;"/>
    <rect id="p-123" data-name="p" x="82.76" y="190.34" width="8.97" height="8.97" style="fill: #373737;"/>
    <rect id="p-124" data-name="p" x="91.72" y="20" width="8.97" height="8.97" style="fill: #373737;"/>
    <rect id="p-125" data-name="p" x="91.72" y="28.97" width="8.97" height="8.97" style="fill: #373737;"/>
    <rect id="p-126" data-name="p" x="91.72" y="46.9" width="8.97" height="8.97" style="fill: #373737;"/>
    <rect id="p-127" data-name="p" x="91.72" y="73.79" width="8.97" height="8.97" style="fill: #373737;"/>
    <rect id="p-128" data-name="p" x="91.72" y="82.76" width="8.97" height="8.97" style="fill: #373737;"/>
    <rect id="p-129" data-name="p" x="91.72" y="109.66" width="8.97" height="8.97" style="fill: #373737;"/>
    <rect id="p-130" data-name="p" x="91.72" y="127.59" width="8.97" height="8.97" style="fill: #373737;"/>
    <rect id="p-131" data-name="p" x="91.72" y="163.45" width="8.97" height="8.97" style="fill: #373737;"/>
    <rect id="p-132" data-name="p" x="91.72" y="172.41" width="8.97" height="8.97" style="fill: #373737;"/>
    <rect id="p-133" data-name="p" x="91.72" y="199.31" width="8.97" height="8.97" style="fill: #373737;"/>
    <rect id="p-134" data-name="p" x="91.72" y="208.28" width="8.97" height="8.97" style="fill: #373737;"/>
    <rect id="p-135" data-name="p" x="91.72" y="217.24" width="8.97" height="8.97" style="fill: #373737;"/>
    <rect id="p-136" data-name="p" x="91.72" y="226.21" width="8.97" height="8.97" style="fill: #373737;"/>
    <rect id="p-137" data-name="p" x="91.72" y="244.14" width="8.97" height="8.97" style="fill: #373737;"/>
    <rect id="p-138" data-name="p" x="91.72" y="253.1" width="8.97" height="8.97" style="fill: #373737;"/>
    <rect id="p-139" data-name="p" x="91.72" y="271.03" width="8.97" height="8.97" style="fill: #373737;"/>
    <rect id="p-140" data-name="p" x="100.69" y="64.83" width="8.97" height="8.97" style="fill: #373737;"/>
    <rect id="p-141" data-name="p" x="100.69" y="82.76" width="8.97" height="8.97" style="fill: #373737;"/>
    <rect id="p-142" data-name="p" x="100.69" y="100.69" width="8.97" height="8.97" style="fill: #373737;"/>
    <rect id="p-143" data-name="p" x="100.69" y="118.62" width="8.97" height="8.97" style="fill: #373737;"/>
    <rect id="p-144" data-name="p" x="100.69" y="127.59" width="8.97" height="8.97" style="fill: #373737;"/>
    <rect id="p-145" data-name="p" x="100.69" y="154.48" width="8.97" height="8.97" style="fill: #373737;"/>
    <rect id="p-146" data-name="p" x="100.69" y="163.45" width="8.97" height="8.97" style="fill: #373737;"/>
    <rect id="p-147" data-name="p" x="100.69" y="181.38" width="8.97" height="8.97" style="fill: #373737;"/>
    <rect id="p-148" data-name="p" x="100.69" y="190.34" width="8.97" height="8.97" style="fill: #373737;"/>
    <rect id="p-149" data-name="p" x="100.69" y="208.28" width="8.97" height="8.97" style="fill: #373737;"/>
    <rect id="p-150" data-name="p" x="100.69" y="235.17" width="8.97" height="8.97" style="fill: #373737;"/>
    <rect id="p-151" data-name="p" x="100.69" y="244.14" width="8.97" height="8.97" style="fill: #373737;"/>
    <rect id="p-152" data-name="p" x="100.69" y="262.07" width="8.97" height="8.97" style="fill: #373737;"/>
    <rect id="p-153" data-name="p" x="100.69" y="271.03" width="8.97" height="8.97" style="fill: #373737;"/>
    <rect id="p-154" data-name="p" x="109.66" y="20" width="8.97" height="8.97" style="fill: #373737;"/>
    <rect id="p-155" data-name="p" x="109.66" y="73.79" width="8.97" height="8.97" style="fill: #373737;"/>
    <rect id="p-156" data-name="p" x="109.66" y="82.76" width="8.97" height="8.97" style="fill: #373737;"/>
    <rect id="p-157" data-name="p" x="109.66" y="91.72" width="8.97" height="8.97" style="fill: #373737;"/>
    <rect id="p-158" data-name="p" x="109.66" y="109.66" width="8.97" height="8.97" style="fill: #373737;"/>
    <rect id="p-159" data-name="p" x="109.66" y="136.55" width="8.97" height="8.97" style="fill: #373737;"/>
    <rect id="p-160" data-name="p" x="109.66" y="145.52" width="8.97" height="8.97" style="fill: #373737;"/>
    <rect id="p-161" data-name="p" x="109.66" y="163.45" width="8.97" height="8.97" style="fill: #373737;"/>
    <rect id="p-162" data-name="p" x="109.66" y="172.41" width="8.97" height="8.97" style="fill: #373737;"/>
    <rect id="p-163" data-name="p" x="109.66" y="181.38" width="8.97" height="8.97" style="fill: #373737;"/>
    <rect id="p-164" data-name="p" x="109.66" y="208.28" width="8.97" height="8.97" style="fill: #373737;"/>
    <rect id="p-165" data-name="p" x="109.66" y="262.07" width="8.97" height="8.97" style="fill: #373737;"/>
    <rect id="p-166" data-name="p" x="118.62" y="37.93" width="8.97" height="8.97" style="fill: #373737;"/>
    <rect id="p-167" data-name="p" x="118.62" y="64.83" width="8.97" height="8.97" style="fill: #373737;"/>
    <rect id="p-168" data-name="p" x="118.62" y="82.76" width="8.97" height="8.97" style="fill: #373737;"/>
    <rect id="p-169" data-name="p" x="118.62" y="91.72" width="8.97" height="8.97" style="fill: #373737;"/>
    <rect id="p-170" data-name="p" x="118.62" y="100.69" width="8.97" height="8.97" style="fill: #373737;"/>
    <rect id="p-171" data-name="p" x="118.62" y="163.45" width="8.97" height="8.97" style="fill: #373737;"/>
    <rect id="p-172" data-name="p" x="118.62" y="181.38" width="8.97" height="8.97" style="fill: #373737;"/>
    <rect id="p-173" data-name="p" x="118.62" y="199.31" width="8.97" height="8.97" style="fill: #373737;"/>
    <rect id="p-174" data-name="p" x="118.62" y="208.28" width="8.97" height="8.97" style="fill: #373737;"/>
    <rect id="p-175" data-name="p" x="118.62" y="217.24" width="8.97" height="8.97" style="fill: #373737;"/>
    <rect id="p-176" data-name="p" x="118.62" y="226.21" width="8.97" height="8.97" style="fill: #373737;"/>
    <rect id="p-177" data-name="p" x="118.62" y="244.14" width="8.97" height="8.97" style="fill: #373737;"/>
    <rect id="p-178" data-name="p" x="118.62" y="262.07" width="8.97" height="8.97" style="fill: #373737;"/>
    <rect id="p-179" data-name="p" x="118.62" y="271.03" width="8.97" height="8.97" style="fill: #373737;"/>
    <rect id="p-180" data-name="p" x="127.59" y="20" width="8.97" height="8.97" style="fill: #373737;"/>
    <rect id="p-181" data-name="p" x="127.59" y="46.9" width="8.97" height="8.97" style="fill: #373737;"/>
    <rect id="p-182" data-name="p" x="127.59" y="55.86" width="8.97" height="8.97" style="fill: #373737;"/>
    <rect id="p-183" data-name="p" x="127.59" y="73.79" width="8.97" height="8.97" style="fill: #373737;"/>
    <rect id="p-184" data-name="p" x="127.59" y="82.76" width="8.97" height="8.97" style="fill: #373737;"/>
    <rect id="p-185" data-name="p" x="127.59" y="100.69" width="8.97" height="8.97" style="fill: #373737;"/>
    <rect id="p-186" data-name="p" x="127.59" y="109.66" width="8.97" height="8.97" style="fill: #373737;"/>
    <rect id="p-187" data-name="p" x="127.59" y="154.48" width="8.97" height="8.97" style="fill: #373737;"/>
    <rect id="p-188" data-name="p" x="127.59" y="163.45" width="8.97" height="8.97" style="fill: #373737;"/>
    <rect id="p-189" data-name="p" x="127.59" y="190.34" width="8.97" height="8.97" style="fill: #373737;"/>
    <rect id="p-190" data-name="p" x="127.59" y="199.31" width="8.97" height="8.97" style="fill: #373737;"/>
    <rect id="p-191" data-name="p" x="127.59" y="208.28" width="8.97" height="8.97" style="fill: #373737;"/>
    <rect id="p-192" data-name="p" x="127.59" y="226.21" width="8.97" height="8.97" style="fill: #373737;"/>
    <rect id="p-193" data-name="p" x="127.59" y="235.17" width="8.97" height="8.97" style="fill: #373737;"/>
    <rect id="p-194" data-name="p" x="127.59" y="244.14" width="8.97" height="8.97" style="fill: #373737;"/>
    <rect id="p-195" data-name="p" x="127.59" y="253.1" width="8.97" height="8.97" style="fill: #373737;"/>
    <rect id="p-196" data-name="p" x="127.59" y="262.07" width="8.97" height="8.97" style="fill: #373737;"/>
    <rect id="p-197" data-name="p" x="136.55" y="37.93" width="8.97" height="8.97" style="fill: #373737;"/>
    <rect id="p-198" data-name="p" x="136.55" y="55.86" width="8.97" height="8.97" style="fill: #373737;"/>
    <rect id="p-199" data-name="p" x="136.55" y="82.76" width="8.97" height="8.97" style="fill: #373737;"/>
    <rect id="p-200" data-name="p" x="136.55" y="91.72" width="8.97" height="8.97" style="fill: #373737;"/>
    <rect id="p-201" data-name="p" x="136.55" y="118.62" width="8.97" height="8.97" style="fill: #373737;"/>
    <rect id="p-202" data-name="p" x="136.55" y="136.55" width="8.97" height="8.97" style="fill: #373737;"/>
    <rect id="p-203" data-name="p" x="136.55" y="154.48" width="8.97" height="8.97" style="fill: #373737;"/>
    <rect id="p-204" data-name="p" x="136.55" y="172.41" width="8.97" height="8.97" style="fill: #373737;"/>
    <rect id="p-205" data-name="p" x="136.55" y="199.31" width="8.97" height="8.97" style="fill: #373737;"/>
    <rect id="p-206" data-name="p" x="136.55" y="208.28" width="8.97" height="8.97" style="fill: #373737;"/>
    <rect id="p-207" data-name="p" x="136.55" y="217.24" width="8.97" height="8.97" style="fill: #373737;"/>
    <rect id="p-208" data-name="p" x="136.55" y="244.14" width="8.97" height="8.97" style="fill: #373737;"/>
    <rect id="p-209" data-name="p" x="136.55" y="253.1" width="8.97" height="8.97" style="fill: #373737;"/>
    <rect id="p-210" data-name="p" x="136.55" y="271.03" width="8.97" height="8.97" style="fill: #373737;"/>
    <rect id="p-211" data-name="p" x="145.52" y="28.97" width="8.97" height="8.97" style="fill: #373737;"/>
    <rect id="p-212" data-name="p" x="145.52" y="37.93" width="8.97" height="8.97" style="fill: #373737;"/>
    <rect id="p-213" data-name="p" x="145.52" y="64.83" width="8.97" height="8.97" style="fill: #373737;"/>
    <rect id="p-214" data-name="p" x="145.52" y="73.79" width="8.97" height="8.97" style="fill: #373737;"/>
    <rect id="p-215" data-name="p" x="145.52" y="82.76" width="8.97" height="8.97" style="fill: #373737;"/>
    <rect id="p-216" data-name="p" x="145.52" y="91.72" width="8.97" height="8.97" style="fill: #373737;"/>
    <rect id="p-217" data-name="p" x="145.52" y="109.66" width="8.97" height="8.97" style="fill: #373737;"/>
    <rect id="p-218" data-name="p" x="145.52" y="118.62" width="8.97" height="8.97" style="fill: #373737;"/>
    <rect id="p-219" data-name="p" x="145.52" y="145.52" width="8.97" height="8.97" style="fill: #373737;"/>
    <rect id="p-220" data-name="p" x="145.52" y="208.28" width="8.97" height="8.97" style="fill: #373737;"/>
    <rect id="p-221" data-name="p" x="145.52" y="235.17" width="8.97" height="8.97" style="fill: #373737;"/>
    <rect id="p-222" data-name="p" x="145.52" y="244.14" width="8.97" height="8.97" style="fill: #373737;"/>
    <rect id="p-223" data-name="p" x="145.52" y="253.1" width="8.97" height="8.97" style="fill: #373737;"/>
    <rect id="p-224" data-name="p" x="145.52" y="262.07" width="8.97" height="8.97" style="fill: #373737;"/>
    <rect id="p-225" data-name="p" x="145.52" y="271.03" width="8.97" height="8.97" style="fill: #373737;"/>
    <rect id="p-226" data-name="p" x="154.48" y="20" width="8.97" height="8.97" style="fill: #373737;"/>
    <rect id="p-227" data-name="p" x="154.48" y="28.97" width="8.97" height="8.97" style="fill: #373737;"/>
    <rect id="p-228" data-name="p" x="154.48" y="37.93" width="8.97" height="8.97" style="fill: #373737;"/>
    <rect id="p-229" data-name="p" x="154.48" y="100.69" width="8.97" height="8.97" style="fill: #373737;"/>
    <rect id="p-230" data-name="p" x="154.48" y="109.66" width="8.97" height="8.97" style="fill: #373737;"/>
    <rect id="p-231" data-name="p" x="154.48" y="118.62" width="8.97" height="8.97" style="fill: #373737;"/>
    <rect id="p-232" data-name="p" x="154.48" y="154.48" width="8.97" height="8.97" style="fill: #373737;"/>
    <rect id="p-233" data-name="p" x="154.48" y="190.34" width="8.97" height="8.97" style="fill: #373737;"/>
    <rect id="p-234" data-name="p" x="154.48" y="199.31" width="8.97" height="8.97" style="fill: #373737;"/>
    <rect id="p-235" data-name="p" x="154.48" y="208.28" width="8.97" height="8.97" style="fill: #373737;"/>
    <rect id="p-236" data-name="p" x="154.48" y="235.17" width="8.97" height="8.97" style="fill: #373737;"/>
    <rect id="p-237" data-name="p" x="154.48" y="253.1" width="8.97" height="8.97" style="fill: #373737;"/>
    <rect id="p-238" data-name="p" x="154.48" y="271.03" width="8.97" height="8.97" style="fill: #373737;"/>
    <rect id="p-239" data-name="p" x="163.45" y="20" width="8.97" height="8.97" style="fill: #373737;"/>
    <rect id="p-240" data-name="p" x="163.45" y="46.9" width="8.97" height="8.97" style="fill: #373737;"/>
    <rect id="p-241" data-name="p" x="163.45" y="73.79" width="8.97" height="8.97" style="fill: #373737;"/>
    <rect id="p-242" data-name="p" x="163.45" y="91.72" width="8.97" height="8.97" style="fill: #373737;"/>
    <rect id="p-243" data-name="p" x="163.45" y="100.69" width="8.97" height="8.97" style="fill: #373737;"/>
    <rect id="p-244" data-name="p" x="163.45" y="127.59" width="8.97" height="8.97" style="fill: #373737;"/>
    <rect id="p-245" data-name="p" x="163.45" y="190.34" width="8.97" height="8.97" style="fill: #373737;"/>
    <rect id="p-246" data-name="p" x="163.45" y="217.24" width="8.97" height="8.97" style="fill: #373737;"/>
    <rect id="p-247" data-name="p" x="163.45" y="226.21" width="8.97" height="8.97" style="fill: #373737;"/>
    <rect id="p-248" data-name="p" x="163.45" y="244.14" width="8.97" height="8.97" style="fill: #373737;"/>
    <rect id="p-249" data-name="p" x="163.45" y="253.1" width="8.97" height="8.97" style="fill: #373737;"/>
    <rect id="p-250" data-name="p" x="163.45" y="262.07" width="8.97" height="8.97" style="fill: #373737;"/>
    <rect id="p-251" data-name="p" x="172.41" y="28.97" width="8.97" height="8.97" style="fill: #373737;"/>
    <rect id="p-252" data-name="p" x="172.41" y="46.9" width="8.97" height="8.97" style="fill: #373737;"/>
    <rect id="p-253" data-name="p" x="172.41" y="64.83" width="8.97" height="8.97" style="fill: #373737;"/>
    <rect id="p-254" data-name="p" x="172.41" y="82.76" width="8.97" height="8.97" style="fill: #373737;"/>
    <rect id="p-255" data-name="p" x="172.41" y="91.72" width="8.97" height="8.97" style="fill: #373737;"/>
    <rect id="p-256" data-name="p" x="172.41" y="100.69" width="8.97" height="8.97" style="fill: #373737;"/>
    <rect id="p-257" data-name="p" x="172.41" y="127.59" width="8.97" height="8.97" style="fill: #373737;"/>
    <rect id="p-258" data-name="p" x="172.41" y="145.52" width="8.97" height="8.97" style="fill: #373737;"/>
    <rect id="p-259" data-name="p" x="172.41" y="190.34" width="8.97" height="8.97" style="fill: #373737;"/>
    <rect id="p-260" data-name="p" x="172.41" y="199.31" width="8.97" height="8.97" style="fill: #373737;"/>
    <rect id="p-261" data-name="p" x="172.41" y="217.24" width="8.97" height="8.97" style="fill: #373737;"/>
    <rect id="p-262" data-name="p" x="172.41" y="235.17" width="8.97" height="8.97" style="fill: #373737;"/>
    <rect id="p-263" data-name="p" x="172.41" y="253.1" width="8.97" height="8.97" style="fill: #373737;"/>
    <rect id="p-264" data-name="p" x="172.41" y="271.03" width="8.97" height="8.97" style="fill: #373737;"/>
    <rect id="p-265" data-name="p" x="181.38" y="20" width="8.97" height="8.97" style="fill: #373737;"/>
    <rect id="p-266" data-name="p" x="181.38" y="37.93" width="8.97" height="8.97" style="fill: #373737;"/>
    <rect id="p-267" data-name="p" x="181.38" y="64.83" width="8.97" height="8.97" style="fill: #373737;"/>
    <rect id="p-268" data-name="p" x="181.38" y="73.79" width="8.97" height="8.97" style="fill: #373737;"/>
    <rect id="p-269" data-name="p" x="181.38" y="91.72" width="8.97" height="8.97" style="fill: #373737;"/>
    <rect id="p-270" data-name="p" x="181.38" y="127.59" width="8.97" height="8.97" style="fill: #373737;"/>
    <rect id="p-271" data-name="p" x="181.38" y="145.52" width="8.97" height="8.97" style="fill: #373737;"/>
    <rect id="p-272" data-name="p" x="181.38" y="154.48" width="8.97" height="8.97" style="fill: #373737;"/>
    <rect id="p-273" data-name="p" x="181.38" y="163.45" width="8.97" height="8.97" style="fill: #373737;"/>
    <rect id="p-274" data-name="p" x="181.38" y="199.31" width="8.97" height="8.97" style="fill: #373737;"/>
    <rect id="p-275" data-name="p" x="181.38" y="208.28" width="8.97" height="8.97" style="fill: #373737;"/>
    <rect id="p-276" data-name="p" x="181.38" y="217.24" width="8.97" height="8.97" style="fill: #373737;"/>
    <rect id="p-277" data-name="p" x="181.38" y="226.21" width="8.97" height="8.97" style="fill: #373737;"/>
    <rect id="p-278" data-name="p" x="181.38" y="235.17" width="8.97" height="8.97" style="fill: #373737;"/>
    <rect id="p-279" data-name="p" x="181.38" y="253.1" width="8.97" height="8.97" style="fill: #373737;"/>
    <rect id="p-280" data-name="p" x="190.34" y="20" width="8.97" height="8.97" style="fill: #373737;"/>
    <rect id="p-281" data-name="p" x="190.34" y="37.93" width="8.97" height="8.97" style="fill: #373737;"/>
    <rect id="p-282" data-name="p" x="190.34" y="55.86" width="8.97" height="8.97" style="fill: #373737;"/>
    <rect id="p-283" data-name="p" x="190.34" y="64.83" width="8.97" height="8.97" style="fill: #373737;"/>
    <rect id="p-284" data-name="p" x="190.34" y="82.76" width="8.97" height="8.97" style="fill: #373737;"/>
    <rect id="p-285" data-name="p" x="190.34" y="91.72" width="8.97" height="8.97" style="fill: #373737;"/>
    <rect id="p-286" data-name="p" x="190.34" y="100.69" width="8.97" height="8.97" style="fill: #373737;"/>
    <rect id="p-287" data-name="p" x="190.34" y="127.59" width="8.97" height="8.97" style="fill: #373737;"/>
    <rect id="p-288" data-name="p" x="190.34" y="136.55" width="8.97" height="8.97" style="fill: #373737;"/>
    <rect id="p-289" data-name="p" x="190.34" y="145.52" width="8.97" height="8.97" style="fill: #373737;"/>
    <rect id="p-290" data-name="p" x="190.34" y="154.48" width="8.97" height="8.97" style="fill: #373737;"/>
    <rect id="p-291" data-name="p" x="190.34" y="163.45" width="8.97" height="8.97" style="fill: #373737;"/>
    <rect id="p-292" data-name="p" x="190.34" y="190.34" width="8.97" height="8.97" style="fill: #373737;"/>
    <rect id="p-293" data-name="p" x="190.34" y="217.24" width="8.97" height="8.97" style="fill: #373737;"/>
    <rect id="p-294" data-name="p" x="190.34" y="244.14" width="8.97" height="8.97" style="fill: #373737;"/>
    <rect id="p-295" data-name="p" x="199.31" y="20" width="8.97" height="8.97" style="fill: #373737;"/>
    <rect id="p-296" data-name="p" x="199.31" y="28.97" width="8.97" height="8.97" style="fill: #373737;"/>
    <rect id="p-297" data-name="p" x="199.31" y="37.93" width="8.97" height="8.97" style="fill: #373737;"/>
    <rect id="p-298" data-name="p" x="199.31" y="46.9" width="8.97" height="8.97" style="fill: #373737;"/>
    <rect id="p-299" data-name="p" x="199.31" y="64.83" width="8.97" height="8.97" style="fill: #373737;"/>
    <rect id="p-300" data-name="p" x="199.31" y="73.79" width="8.97" height="8.97" style="fill: #373737;"/>
    <rect id="p-301" data-name="p" x="199.31" y="82.76" width="8.97" height="8.97" style="fill: #373737;"/>
    <rect id="p-302" data-name="p" x="199.31" y="91.72" width="8.97" height="8.97" style="fill: #373737;"/>
    <rect id="p-303" data-name="p" x="199.31" y="100.69" width="8.97" height="8.97" style="fill: #373737;"/>
    <rect id="p-304" data-name="p" x="199.31" y="109.66" width="8.97" height="8.97" style="fill: #373737;"/>
    <rect id="p-305" data-name="p" x="199.31" y="118.62" width="8.97" height="8.97" style="fill: #373737;"/>
    <rect id="p-306" data-name="p" x="199.31" y="145.52" width="8.97" height="8.97" style="fill: #373737;"/>
    <rect id="p-307" data-name="p" x="199.31" y="154.48" width="8.97" height="8.97" style="fill: #373737;"/>
    <rect id="p-308" data-name="p" x="199.31" y="163.45" width="8.97" height="8.97" style="fill: #373737;"/>
    <rect id="p-309" data-name="p" x="199.31" y="172.41" width="8.97" height="8.97" style="fill: #373737;"/>
    <rect id="p-310" data-name="p" x="199.31" y="181.38" width="8.97" height="8.97" style="fill: #373737;"/>
    <rect id="p-311" data-name="p" x="199.31" y="190.34" width="8.97" height="8.97" style="fill: #373737;"/>
    <rect id="p-312" data-name="p" x="199.31" y="199.31" width="8.97" height="8.97" style="fill: #373737;"/>
    <rect id="p-313" data-name="p" x="199.31" y="208.28" width="8.97" height="8.97" style="fill: #373737;"/>
    <rect id="p-314" data-name="p" x="199.31" y="217.24" width="8.97" height="8.97" style="fill: #373737;"/>
    <rect id="p-315" data-name="p" x="199.31" y="226.21" width="8.97" height="8.97" style="fill: #373737;"/>
    <rect id="p-316" data-name="p" x="199.31" y="235.17" width="8.97" height="8.97" style="fill: #373737;"/>
    <rect id="p-317" data-name="p" x="199.31" y="244.14" width="8.97" height="8.97" style="fill: #373737;"/>
    <rect id="p-318" data-name="p" x="199.31" y="253.1" width="8.97" height="8.97" style="fill: #373737;"/>
    <rect id="p-319" data-name="p" x="199.31" y="262.07" width="8.97" height="8.97" style="fill: #373737;"/>
    <rect id="p-320" data-name="p" x="199.31" y="271.03" width="8.97" height="8.97" style="fill: #373737;"/>
    <rect id="p-321" data-name="p" x="208.28" y="100.69" width="8.97" height="8.97" style="fill: #373737;"/>
    <rect id="p-322" data-name="p" x="208.28" y="136.55" width="8.97" height="8.97" style="fill: #373737;"/>
    <rect id="p-323" data-name="p" x="208.28" y="145.52" width="8.97" height="8.97" style="fill: #373737;"/>
    <rect id="p-324" data-name="p" x="208.28" y="154.48" width="8.97" height="8.97" style="fill: #373737;"/>
    <rect id="p-325" data-name="p" x="208.28" y="163.45" width="8.97" height="8.97" style="fill: #373737;"/>
    <rect id="p-326" data-name="p" x="208.28" y="172.41" width="8.97" height="8.97" style="fill: #373737;"/>
    <rect id="p-327" data-name="p" x="208.28" y="190.34" width="8.97" height="8.97" style="fill: #373737;"/>
    <rect id="p-328" data-name="p" x="208.28" y="199.31" width="8.97" height="8.97" style="fill: #373737;"/>
    <rect id="p-329" data-name="p" x="208.28" y="235.17" width="8.97" height="8.97" style="fill: #373737;"/>
    <rect id="p-330" data-name="p" x="208.28" y="244.14" width="8.97" height="8.97" style="fill: #373737;"/>
    <rect id="p-331" data-name="p" x="208.28" y="271.03" width="8.97" height="8.97" style="fill: #373737;"/>
    <rect id="p-332" data-name="p" x="217.24" y="20" width="8.97" height="8.97" style="fill: #373737;"/>
    <rect id="p-333" data-name="p" x="217.24" y="28.97" width="8.97" height="8.97" style="fill: #373737;"/>
    <rect id="p-334" data-name="p" x="217.24" y="37.93" width="8.97" height="8.97" style="fill: #373737;"/>
    <rect id="p-335" data-name="p" x="217.24" y="46.9" width="8.97" height="8.97" style="fill: #373737;"/>
    <rect id="p-336" data-name="p" x="217.24" y="55.86" width="8.97" height="8.97" style="fill: #373737;"/>
    <rect id="p-337" data-name="p" x="217.24" y="64.83" width="8.97" height="8.97" style="fill: #373737;"/>
    <rect id="p-338" data-name="p" x="217.24" y="73.79" width="8.97" height="8.97" style="fill: #373737;"/>
    <rect id="p-339" data-name="p" x="217.24" y="91.72" width="8.97" height="8.97" style="fill: #373737;"/>
    <rect id="p-340" data-name="p" x="217.24" y="100.69" width="8.97" height="8.97" style="fill: #373737;"/>
    <rect id="p-341" data-name="p" x="217.24" y="109.66" width="8.97" height="8.97" style="fill: #373737;"/>
    <rect id="p-342" data-name="p" x="217.24" y="118.62" width="8.97" height="8.97" style="fill: #373737;"/>
    <rect id="p-343" data-name="p" x="217.24" y="136.55" width="8.97" height="8.97" style="fill: #373737;"/>
    <rect id="p-344" data-name="p" x="217.24" y="145.52" width="8.97" height="8.97" style="fill: #373737;"/>
    <rect id="p-345" data-name="p" x="217.24" y="190.34" width="8.97" height="8.97" style="fill: #373737;"/>
    <rect id="p-346" data-name="p" x="217.24" y="199.31" width="8.97" height="8.97" style="fill: #373737;"/>
    <rect id="p-347" data-name="p" x="217.24" y="217.24" width="8.97" height="8.97" style="fill: #373737;"/>
    <rect id="p-348" data-name="p" x="217.24" y="235.17" width="8.97" height="8.97" style="fill: #373737;"/>
    <rect id="p-349" data-name="p" x="217.24" y="271.03" width="8.97" height="8.97" style="fill: #373737;"/>
    <rect id="p-350" data-name="p" x="226.21" y="20" width="8.97" height="8.97" style="fill: #373737;"/>
    <rect id="p-351" data-name="p" x="226.21" y="73.79" width="8.97" height="8.97" style="fill: #373737;"/>
    <rect id="p-352" data-name="p" x="226.21" y="100.69" width="8.97" height="8.97" style="fill: #373737;"/>
    <rect id="p-353" data-name="p" x="226.21" y="109.66" width="8.97" height="8.97" style="fill: #373737;"/>
    <rect id="p-354" data-name="p" x="226.21" y="118.62" width="8.97" height="8.97" style="fill: #373737;"/>
    <rect id="p-355" data-name="p" x="226.21" y="136.55" width="8.97" height="8.97" style="fill: #373737;"/>
    <rect id="p-356" data-name="p" x="226.21" y="145.52" width="8.97" height="8.97" style="fill: #373737;"/>
    <rect id="p-357" data-name="p" x="226.21" y="154.48" width="8.97" height="8.97" style="fill: #373737;"/>
    <rect id="p-358" data-name="p" x="226.21" y="172.41" width="8.97" height="8.97" style="fill: #373737;"/>
    <rect id="p-359" data-name="p" x="226.21" y="181.38" width="8.97" height="8.97" style="fill: #373737;"/>
    <rect id="p-360" data-name="p" x="226.21" y="199.31" width="8.97" height="8.97" style="fill: #373737;"/>
    <rect id="p-361" data-name="p" x="226.21" y="235.17" width="8.97" height="8.97" style="fill: #373737;"/>
    <rect id="p-362" data-name="p" x="226.21" y="253.1" width="8.97" height="8.97" style="fill: #373737;"/>
    <rect id="p-363" data-name="p" x="226.21" y="262.07" width="8.97" height="8.97" style="fill: #373737;"/>
    <rect id="p-364" data-name="p" x="235.17" y="20" width="8.97" height="8.97" style="fill: #373737;"/>
    <rect id="p-365" data-name="p" x="235.17" y="37.93" width="8.97" height="8.97" style="fill: #373737;"/>
    <rect id="p-366" data-name="p" x="235.17" y="46.9" width="8.97" height="8.97" style="fill: #373737;"/>
    <rect id="p-367" data-name="p" x="235.17" y="55.86" width="8.97" height="8.97" style="fill: #373737;"/>
    <rect id="p-368" data-name="p" x="235.17" y="73.79" width="8.97" height="8.97" style="fill: #373737;"/>
    <rect id="p-369" data-name="p" x="235.17" y="100.69" width="8.97" height="8.97" style="fill: #373737;"/>
    <rect id="p-370" data-name="p" x="235.17" y="109.66" width="8.97" height="8.97" style="fill: #373737;"/>
    <rect id="p-371" data-name="p" x="235.17" y="118.62" width="8.97" height="8.97" style="fill: #373737;"/>
    <rect id="p-372" data-name="p" x="235.17" y="145.52" width="8.97" height="8.97" style="fill: #373737;"/>
    <rect id="p-373" data-name="p" x="235.17" y="154.48" width="8.97" height="8.97" style="fill: #373737;"/>
    <rect id="p-374" data-name="p" x="235.17" y="163.45" width="8.97" height="8.97" style="fill: #373737;"/>
    <rect id="p-375" data-name="p" x="235.17" y="199.31" width="8.97" height="8.97" style="fill: #373737;"/>
    <rect id="p-376" data-name="p" x="235.17" y="208.28" width="8.97" height="8.97" style="fill: #373737;"/>
    <rect id="p-377" data-name="p" x="235.17" y="217.24" width="8.97" height="8.97" style="fill: #373737;"/>
    <rect id="p-378" data-name="p" x="235.17" y="226.21" width="8.97" height="8.97" style="fill: #373737;"/>
    <rect id="p-379" data-name="p" x="235.17" y="235.17" width="8.97" height="8.97" style="fill: #373737;"/>
    <rect id="p-380" data-name="p" x="235.17" y="244.14" width="8.97" height="8.97" style="fill: #373737;"/>
    <rect id="p-381" data-name="p" x="244.14" y="20" width="8.97" height="8.97" style="fill: #373737;"/>
    <rect id="p-382" data-name="p" x="244.14" y="37.93" width="8.97" height="8.97" style="fill: #373737;"/>
    <rect id="p-383" data-name="p" x="244.14" y="46.9" width="8.97" height="8.97" style="fill: #373737;"/>
    <rect id="p-384" data-name="p" x="244.14" y="55.86" width="8.97" height="8.97" style="fill: #373737;"/>
    <rect id="p-385" data-name="p" x="244.14" y="73.79" width="8.97" height="8.97" style="fill: #373737;"/>
    <rect id="p-386" data-name="p" x="244.14" y="91.72" width="8.97" height="8.97" style="fill: #373737;"/>
    <rect id="p-387" data-name="p" x="244.14" y="127.59" width="8.97" height="8.97" style="fill: #373737;"/>
    <rect id="p-388" data-name="p" x="244.14" y="163.45" width="8.97" height="8.97" style="fill: #373737;"/>
    <rect id="p-389" data-name="p" x="244.14" y="172.41" width="8.97" height="8.97" style="fill: #373737;"/>
    <rect id="p-390" data-name="p" x="244.14" y="199.31" width="8.97" height="8.97" style="fill: #373737;"/>
    <rect id="p-391" data-name="p" x="244.14" y="208.28" width="8.97" height="8.97" style="fill: #373737;"/>
    <rect id="p-392" data-name="p" x="244.14" y="217.24" width="8.97" height="8.97" style="fill: #373737;"/>
    <rect id="p-393" data-name="p" x="244.14" y="226.21" width="8.97" height="8.97" style="fill: #373737;"/>
    <rect id="p-394" data-name="p" x="244.14" y="244.14" width="8.97" height="8.97" style="fill: #373737;"/>
    <rect id="p-395" data-name="p" x="244.14" y="262.07" width="8.97" height="8.97" style="fill: #373737;"/>
    <rect id="p-396" data-name="p" x="244.14" y="271.03" width="8.97" height="8.97" style="fill: #373737;"/>
    <rect id="p-397" data-name="p" x="253.1" y="20" width="8.97" height="8.97" style="fill: #373737;"/>
    <rect id="p-398" data-name="p" x="253.1" y="37.93" width="8.97" height="8.97" style="fill: #373737;"/>
    <rect id="p-399" data-name="p" x="253.1" y="46.9" width="8.97" height="8.97" style="fill: #373737;"/>
    <rect id="p-400" data-name="p" x="253.1" y="55.86" width="8.97" height="8.97" style="fill: #373737;"/>
    <rect id="p-401" data-name="p" x="253.1" y="73.79" width="8.97" height="8.97" style="fill: #373737;"/>
    <rect id="p-402" data-name="p" x="253.1" y="109.66" width="8.97" height="8.97" style="fill: #373737;"/>
    <rect id="p-403" data-name="p" x="253.1" y="127.59" width="8.97" height="8.97" style="fill: #373737;"/>
    <rect id="p-404" data-name="p" x="253.1" y="136.55" width="8.97" height="8.97" style="fill: #373737;"/>
    <rect id="p-405" data-name="p" x="253.1" y="145.52" width="8.97" height="8.97" style="fill: #373737;"/>
    <rect id="p-406" data-name="p" x="253.1" y="172.41" width="8.97" height="8.97" style="fill: #373737;"/>
    <rect id="p-407" data-name="p" x="253.1" y="181.38" width="8.97" height="8.97" style="fill: #373737;"/>
    <rect id="p-408" data-name="p" x="253.1" y="190.34" width="8.97" height="8.97" style="fill: #373737;"/>
    <rect id="p-409" data-name="p" x="253.1" y="199.31" width="8.97" height="8.97" style="fill: #373737;"/>
    <rect id="p-410" data-name="p" x="253.1" y="208.28" width="8.97" height="8.97" style="fill: #373737;"/>
    <rect id="p-411" data-name="p" x="253.1" y="235.17" width="8.97" height="8.97" style="fill: #373737;"/>
    <rect id="p-412" data-name="p" x="253.1" y="253.1" width="8.97" height="8.97" style="fill: #373737;"/>
    <rect id="p-413" data-name="p" x="262.07" y="20" width="8.97" height="8.97" style="fill: #373737;"/>
    <rect id="p-414" data-name="p" x="262.07" y="73.79" width="8.97" height="8.97" style="fill: #373737;"/>
    <rect id="p-415" data-name="p" x="262.07" y="91.72" width="8.97" height="8.97" style="fill: #373737;"/>
    <rect id="p-416" data-name="p" x="262.07" y="109.66" width="8.97" height="8.97" style="fill: #373737;"/>
    <rect id="p-417" data-name="p" x="262.07" y="136.55" width="8.97" height="8.97" style="fill: #373737;"/>
    <rect id="p-418" data-name="p" x="262.07" y="145.52" width="8.97" height="8.97" style="fill: #373737;"/>
    <rect id="p-419" data-name="p" x="262.07" y="154.48" width="8.97" height="8.97" style="fill: #373737;"/>
    <rect id="p-420" data-name="p" x="262.07" y="163.45" width="8.97" height="8.97" style="fill: #373737;"/>
    <rect id="p-421" data-name="p" x="262.07" y="172.41" width="8.97" height="8.97" style="fill: #373737;"/>
    <rect id="p-422" data-name="p" x="262.07" y="208.28" width="8.97" height="8.97" style="fill: #373737;"/>
    <rect id="p-423" data-name="p" x="262.07" y="217.24" width="8.97" height="8.97" style="fill: #373737;"/>
    <rect id="p-424" data-name="p" x="262.07" y="226.21" width="8.97" height="8.97" style="fill: #373737;"/>
    <rect id="p-425" data-name="p" x="262.07" y="244.14" width="8.97" height="8.97" style="fill: #373737;"/>
    <rect id="p-426" data-name="p" x="262.07" y="262.07" width="8.97" height="8.97" style="fill: #373737;"/>
    <rect id="p-427" data-name="p" x="262.07" y="271.03" width="8.97" height="8.97" style="fill: #373737;"/>
    <rect id="p-428" data-name="p" x="271.03" y="20" width="8.97" height="8.97" style="fill: #373737;"/>
    <rect id="p-429" data-name="p" x="271.03" y="28.97" width="8.97" height="8.97" style="fill: #373737;"/>
    <rect id="p-430" data-name="p" x="271.03" y="37.93" width="8.97" height="8.97" style="fill: #373737;"/>
    <rect id="p-431" data-name="p" x="271.03" y="46.9" width="8.97" height="8.97" style="fill: #373737;"/>
    <rect id="p-432" data-name="p" x="271.03" y="55.86" width="8.97" height="8.97" style="fill: #373737;"/>
    <rect id="p-433" data-name="p" x="271.03" y="64.83" width="8.97" height="8.97" style="fill: #373737;"/>
    <rect id="p-434" data-name="p" x="271.03" y="73.79" width="8.97" height="8.97" style="fill: #373737;"/>
    <rect id="p-435" data-name="p" x="271.03" y="91.72" width="8.97" height="8.97" style="fill: #373737;"/>
    <rect id="p-436" data-name="p" x="271.03" y="100.69" width="8.97" height="8.97" style="fill: #373737;"/>
    <rect id="p-437" data-name="p" x="271.03" y="118.62" width="8.97" height="8.97" style="fill: #373737;"/>
    <rect id="p-438" data-name="p" x="271.03" y="136.55" width="8.97" height="8.97" style="fill: #373737;"/>
    <rect id="p-439" data-name="p" x="271.03" y="145.52" width="8.97" height="8.97" style="fill: #373737;"/>
    <rect id="p-440" data-name="p" x="271.03" y="208.28" width="8.97" height="8.97" style="fill: #373737;"/>
    <rect id="p-441" data-name="p" x="271.03" y="226.21" width="8.97" height="8.97" style="fill: #373737;"/>
    <rect id="p-442" data-name="p" x="271.03" y="235.17" width="8.97" height="8.97" style="fill: #373737;"/>
    <rect id="p-443" data-name="p" x="271.03" y="253.1" width="8.97" height="8.97" style="fill: #373737;"/>
  </g>
  <g>
    <rect id="Rechteck_36" data-name="Rechteck 36" y="130.5" width="300" height="42" style="fill: url(#Unbenannter_Verlauf_3);"/>
    <path id="Linie_2" data-name="Linie 2" d="M300,130.5H0v-3H300v3Z" style="fill: #68c0a8;"/>
  </g>
</svg>