<?xml version="1.0" encoding="UTF-8"?>
<svg id="Ebene_1" data-name="Ebene 1" xmlns="http://www.w3.org/2000/svg" viewBox="0 0 900 600">
  <path d="M0,0H900V600H0V0Z" style="fill: none;"/>
  <path d="M644.8,362.29s-17.67,11.57-32.62,10.38c-14.94-1.18-24.26-16.03-29.27-21.42-5-5.39-17.6-18.41-13.82-23.87,3.78-5.46,7.14,.42,8.4,4.2,1.26,3.78,.02-3.76,1.9-3.35,1.88,.41,1.13,4.98,2.97,6.48,1.84,1.49,29.15,15.77,35.03,14.93s8.46-2.45,10.11-4.17c1.65-1.72,19.47,13.08,17.28,16.82h0Z" style="fill: #f8ae9d;"/>
  <path d="M587.02,502.96l-.05,7.92-18.09,9.75v4.26h36.19v-7.31l1.9-14.62h-19.94Z" style="fill: #e1e4e5;"/>
  <path d="M677.78,406.36s-49.95-17.07-73.02-14.3c-22.72,4.62-22.9,32.03-22.81,48.15,.08,16.12,2.76,62.75,2.76,62.75h25.4s9.09-41.94,12.12-61.72c0,0,1.25-8.86,7.93-5.49,27.36,13.76,44.55,7.56,47.68-5.46,3.12-13.02-.05-23.93-.05-23.93h0Z" style="fill: #30524b;"/>
  <path d="M657.13,333.28s-16.35,8.05-29.64,10.06c-13.86,2.1,5.46,20.16,20.58,20.16s9.05-30.22,9.05-30.22h0Z" style="fill: #42c3a7;"/>
  <path d="M724.58,512.69l9.7,.05,9.04,12.18h4.52v-34.12h-7.75l-15.51,3.09v18.8h0Z" style="fill: #e1e4e5;"/>
  <path d="M724.61,513.47v-21c-20.5-2.1-28.51-2.35-50.04-2.45-15.46-.07-7.44-4.27-7.44-4.27,16.93-11.76,34.31-40.33,34.31-40.33,10.25-15.96,4.46-40.75,4.46-40.75,0,0-18.72,5.46-34.75,4.62,0,0-17.38,21.42-47.68,68.48-12.11,18.8-10.72,39.42,12.02,40.5,0,0,54.81,.66,89.12-4.8h0Z" style="fill: #30524b;"/>
  <path d="M662.95,331.02s-14.45,2.65-16.22,21.36c-1.32,13.96-.23,32.9-.23,38.99s-3.1,5.58,1.16,7.41c4.26,1.83,26.89,20.17,57.94,6,0,0,4.85-28.07,3.39-45.07-.92-10.69-3.78-28.15-22.28-29.65l-23.76,.95h0Z" style="fill: #42c3a7;"/>
  <path d="M667.28,301.89l-7.94-.18s-6.56,28.73,9.69,25.47l-.31,3.03s-4.97,.73-6.85,1.15c0,0,5.64,4.85,12.43,4.31s11.52-4.97,11.52-4.97l-3.34-.34-1.23-12.07s3.88-2.06,4.12-4.48c.24-2.42-.3-3.09-2.06-3.88-1.76-.79-4.49,2-4.49,2,0,0-2.48-5.76-2.72-9.46l-8.82-.58h0Z" style="fill: #f8ae9d;"/>
  <path d="M590.94,317.29l120.47,99.08c4.01,3.29,4.63,9.2,1.39,13.25-3.27,4.08-9.23,4.75-13.32,1.49l-122.41-97.86,13.86-15.96Z" style="fill: #30524b;"/>
  <path d="M546.41,227.18c33.53,0,60.7,27.18,60.7,60.7s-27.18,60.7-60.7,60.7-60.7-27.18-60.7-60.7,27.18-60.7,60.7-60.7Zm0,103.62c23.7,0,42.92-19.21,42.92-42.92s-19.22-42.92-42.92-42.92-42.92,19.22-42.92,42.92,19.21,42.92,42.92,42.92Z" style="fill: #e1e4e5;"/>
  <path d="M692.27,397.16s-17.67,11.57-32.62,10.38c-14.94-1.18-24.26-16.03-29.27-21.42-5-5.39-17.6-18.41-13.82-23.87s7.14,.42,8.4,4.2c1.26,3.78,.02-3.76,1.9-3.35,1.88,.41,1.13,4.98,2.97,6.48,1.84,1.49,29.15,15.77,35.03,14.93,5.88-.84,8.46-2.45,10.11-4.17,1.65-1.72,19.47,13.08,17.28,16.82h0Z" style="fill: #f8ae9d;"/>
  <path d="M707.71,350.74s.86,27.05-5.44,38.39c-6.3,11.34-6.75,11.71-12.62,5.65-5.86-6.07-16.37-12.2-14.9-17.11,1.47-4.92,4.49-13.4,5.67-20.88,1.26-7.98,4.2-24.36,10.5-26.46,0,0,15.09,5.57,16.79,20.42h0Z" style="fill: #42c3a7;"/>
  <path d="M684.89,318.12c-1.3,2.07-4.41,2.06-3.86-.32,.62-2.71,1.01-6.3-1.3-5.87s-2.62,2.2-3.42,1.06-.34-5.54-6.97-6.57c-6.63-1.03-9.58,.99-12.53-.71-1.77-1.02-2.35-3.1-2.54-4.62-.05-.43,.32-.98,.56-.62,.23,.34,.9,.39,.75,.01-.93-2.35-2.16-7.38,2.71-10.51,6.51-4.18,12.26-.36,15.7,.23,7.58,1.29,12.45,2.28,14.4,7.55,1.61,4.37,.14,14.58-3.49,20.38Z" style="fill: #30524b;"/>
  <rect x="159.61" y="328.27" width="95.46" height="95.46" rx="47.73" ry="47.73" style="fill: #42c3a7;"/>
  <path d="M229.03,396.02v3.19c0,1.76-1.41,3.19-3.15,3.19h-37.79c-1.74,0-3.15-1.43-3.15-3.19v-3.24c0-9.66,10.89-15.93,22.05-15.93s22.05,6.28,22.05,15.93m-14.14-43.97c4.37,4.37,4.37,11.45,0,15.82-4.37,4.37-11.45,4.37-15.82,0s-4.37-11.45,0-15.82,11.45-4.37,15.82,0Z" style="fill: #fff; fill-rule: evenodd;"/>
  <rect x="387.88" y="351.1" width="95.46" height="95.46" rx="47.73" ry="47.73" style="fill: #42c3a7;"/>
  <path d="M457.3,418.85v3.19c0,1.76-1.41,3.19-3.15,3.19h-37.79c-1.74,0-3.15-1.43-3.15-3.19v-3.24c0-9.66,10.89-15.93,22.05-15.93s22.05,6.28,22.05,15.93m-14.14-43.97c4.37,4.37,4.37,11.45,0,15.82s-11.45,4.37-15.82,0-4.37-11.45,0-15.82,11.45-4.37,15.82,0Z" style="fill: #fff; fill-rule: evenodd;"/>
  <rect x="292.22" y="232.62" width="95.46" height="95.46" rx="47.73" ry="47.73" style="fill: #42c3a7;"/>
  <path d="M361.64,300.37v3.19c0,1.76-1.41,3.19-3.15,3.19h-37.79c-1.74,0-3.15-1.43-3.15-3.19v-3.24c0-9.66,10.89-15.93,22.05-15.93s22.05,6.28,22.05,15.93m-14.14-43.97c4.37,4.37,4.37,11.45,0,15.82s-11.45,4.37-15.82,0-4.37-11.45,0-15.82,11.45-4.37,15.82,0Z" style="fill: #fff; fill-rule: evenodd;"/>
  <rect x="152" y="170.66" width="95.46" height="95.46" rx="47.73" ry="47.73" style="fill: #42c3a7;"/>
  <path d="M221.42,238.41v3.19c0,1.76-1.41,3.19-3.15,3.19h-37.79c-1.74,0-3.15-1.43-3.15-3.19v-3.24c0-9.66,10.89-15.93,22.05-15.93s22.05,6.28,22.05,15.93m-14.14-43.97c4.37,4.37,4.37,11.45,0,15.82-4.37,4.37-11.45,4.37-15.82,0-4.37-4.37-4.37-11.45,0-15.82,4.37-4.37,11.45-4.37,15.82,0Z" style="fill: #fff; fill-rule: evenodd;"/>
  <rect x="281.35" y="75" width="95.46" height="95.46" rx="47.73" ry="47.73" style="fill: #42c3a7;"/>
  <path d="M350.77,142.75v3.19c0,1.76-1.41,3.19-3.15,3.19h-37.79c-1.74,0-3.15-1.43-3.15-3.19v-3.24c0-9.66,10.89-15.93,22.05-15.93s22.05,6.28,22.05,15.93m-14.14-43.97c4.37,4.37,4.37,11.45,0,15.82-4.37,4.37-11.45,4.37-15.82,0-4.37-4.37-4.37-11.45,0-15.82,4.37-4.37,11.45-4.37,15.82,0Z" style="fill: #fff; fill-rule: evenodd;"/>
  <rect x="408.53" y="128.26" width="95.46" height="95.46" rx="47.73" ry="47.73" style="fill: #42c3a7;"/>
  <path d="M477.95,196.01v3.19c0,1.76-1.41,3.19-3.15,3.19h-37.79c-1.74,0-3.15-1.43-3.15-3.19v-3.24c0-9.66,10.89-15.93,22.05-15.93s22.05,6.28,22.05,15.93m-14.14-43.97c4.37,4.37,4.37,11.45,0,15.82-4.37,4.37-11.45,4.37-15.82,0-4.37-4.37-4.37-11.45,0-15.82,4.37-4.37,11.45-4.37,15.82,0Z" style="fill: #fff; fill-rule: evenodd;"/>
  <rect x="574.85" y="122.83" width="95.46" height="95.46" rx="47.73" ry="47.73" style="fill: #42c3a7;"/>
  <path d="M644.27,190.58v3.19c0,1.76-1.41,3.19-3.15,3.19h-37.79c-1.74,0-3.15-1.43-3.15-3.19v-3.24c0-9.66,10.89-15.93,22.05-15.93s22.05,6.28,22.05,15.93m-14.14-43.97c4.37,4.37,4.37,11.45,0,15.82-4.37,4.37-11.45,4.37-15.82,0-4.37-4.37-4.37-11.45,0-15.82,4.37-4.37,11.45-4.37,15.82,0Z" style="fill: #fff; fill-rule: evenodd;"/>
</svg>