<?xml version="1.0" encoding="UTF-8"?>
<svg id="Ebene_1" data-name="Ebene 1" xmlns="http://www.w3.org/2000/svg" viewBox="0 0 900 600">
  <path d="M743.5,242.3h-217.2c-9.6,0-17.3-7.7-17.3-17.3h0c0-9.6,7.7-17.3,17.3-17.3h217.2c9.6,0,17.3,7.7,17.3,17.3h0c0,9.5-7.7,17.3-17.3,17.3Z" style="fill: #fff; stroke: #e1e4e5; stroke-width: 11px;"/>
  <path d="M781,276.9H489.1c-8.8,0-16-7.2-16-16V85.5c0-8.8,7.2-16,16-16h291.9c8.8,0,16,7.2,16,16v175.5c0,8.8-7.2,15.9-16,15.9Z" style="fill: none; stroke: #e1e4e5; stroke-width: 11px;"/>
  <path d="M743.5,190.4h-44.2c-9.6,0-17.3-7.7-17.3-17.3h0c0-9.6,7.7-17.3,17.3-17.3h44.2c9.6,0,17.3,7.7,17.3,17.3h0c0,9.5-7.7,17.3-17.3,17.3Z" style="fill: #fff; stroke: #e1e4e5; stroke-width: 11px;"/>
  <path d="M647.4,190.4h-121.1c-9.6,0-17.3-7.7-17.3-17.3h0c0-9.6,7.7-17.3,17.3-17.3h121.1c9.6,0,17.3,7.7,17.3,17.3h0c0,9.5-7.7,17.3-17.3,17.3Z" style="fill: #fff; stroke: #e1e4e5; stroke-width: 11px;"/>
  <path d="M526.6,138.4h0c-9.5,0-17.2-7.7-17.2-17.2h0c0-9.5,7.7-17.2,17.2-17.2h0c9.5,0,17.2,7.7,17.2,17.2h0c0,9.5-7.7,17.2-17.2,17.2Z" style="fill: #fff; stroke: #e1e4e5; stroke-width: 11px;"/>
  <path d="M409.9,276.9H118c-8.8,0-16-7.2-16-16V85.5c0-8.8,7.2-16,16-16H409.9c8.8,0,16,7.2,16,16v175.5c0,8.8-7.2,15.9-16,15.9Z" style="fill: #42c3a7; stroke: #42c3a7; stroke-width: 11px;"/>
  <path d="M225.3,180.9l21.4,21.2,57-56.5" style="fill: none; stroke: #fff; stroke-linecap: round; stroke-linejoin: round; stroke-width: 24px;"/>
  <path d="M743.4,495.8h-217.2c-9.6,0-17.3-7.7-17.3-17.3h0c0-9.6,7.7-17.3,17.3-17.3h217.2c9.6,0,17.3,7.7,17.3,17.3h0c0,9.6-7.8,17.3-17.3,17.3Z" style="fill: #fff; stroke: #e1e4e5; stroke-width: 11px;"/>
  <path d="M780.9,530.5H489c-8.8,0-16-7.2-16-16v-175.5c0-8.8,7.2-16,16-16h291.9c8.8,0,16,7.2,16,16v175.5c0,8.8-7.2,16-16,16Z" style="fill: none; stroke: #e1e4e5; stroke-width: 11px;"/>
  <path d="M743.4,443.9h-44.2c-9.6,0-17.3-7.7-17.3-17.3h0c0-9.6,7.7-17.3,17.3-17.3h44.2c9.6,0,17.3,7.7,17.3,17.3h0c0,9.6-7.8,17.3-17.3,17.3Z" style="fill: #fff; stroke: #e1e4e5; stroke-width: 11px;"/>
  <path d="M647.3,443.9h-121.1c-9.6,0-17.3-7.7-17.3-17.3h0c0-9.6,7.7-17.3,17.3-17.3h121.1c9.6,0,17.3,7.7,17.3,17.3h0c0,9.6-7.8,17.3-17.3,17.3Z" style="fill: #fff; stroke: #e1e4e5; stroke-width: 11px;"/>
  <path d="M526.5,391.9h0c-9.5,0-17.2-7.7-17.2-17.2h0c0-9.5,7.7-17.2,17.2-17.2h0c9.5,0,17.2,7.7,17.2,17.2h0c0,9.5-7.7,17.2-17.2,17.2Z" style="fill: #fff; stroke: #e1e4e5; stroke-width: 11px;"/>
  <path d="M373.5,495.9H156.3c-9.6,0-17.3-7.7-17.3-17.3h0c0-9.6,7.7-17.3,17.3-17.3h217.2c9.6,0,17.3,7.7,17.3,17.3h0c0,9.5-7.7,17.3-17.3,17.3Z" style="fill: #fff; stroke: #e1e4e5; stroke-width: 11px;"/>
  <path d="M411,530.5H119.2c-8.8,0-16-7.2-16-16v-175.4c0-8.8,7.2-16,16-16H411c8.8,0,16,7.2,16,16v175.5c0,8.8-7.1,15.9-16,15.9Z" style="fill: none; stroke: #e1e4e5; stroke-width: 11px;"/>
  <path d="M373.5,444h-44.2c-9.6,0-17.3-7.7-17.3-17.3h0c0-9.6,7.7-17.3,17.3-17.3h44.2c9.6,0,17.3,7.7,17.3,17.3h0c0,9.5-7.7,17.3-17.3,17.3Z" style="fill: #fff; stroke: #e1e4e5; stroke-width: 11px;"/>
  <path d="M277.4,444h-121.1c-9.6,0-17.3-7.7-17.3-17.3h0c0-9.6,7.7-17.3,17.3-17.3h121.1c9.6,0,17.3,7.7,17.3,17.3h0c0,9.5-7.7,17.3-17.3,17.3Z" style="fill: #fff; stroke: #e1e4e5; stroke-width: 11px;"/>
  <path d="M156.6,392h0c-9.5,0-17.2-7.7-17.2-17.2h0c0-9.5,7.7-17.2,17.2-17.2h0c9.5,0,17.2,7.7,17.2,17.2h0c0,9.5-7.7,17.2-17.2,17.2Z" style="fill: #fff; stroke: #e1e4e5; stroke-width: 11px;"/>
</svg>