<?xml version="1.0" encoding="UTF-8"?>
<svg id="Ebene_1" data-name="Ebene 1" xmlns="http://www.w3.org/2000/svg" xmlns:xlink="http://www.w3.org/1999/xlink" viewBox="0 0 763 527">
  <defs>
    <linearGradient id="Unbenannter_Verlauf" data-name="Unbenannter Verlauf" x1="370.28" y1="120.1" x2="380.55" y2="1122.1" gradientTransform="translate(0 844.63) scale(1 -1)" gradientUnits="userSpaceOnUse">
      <stop offset="0" stop-color="#fff"/>
      <stop offset="1" stop-color="#eee"/>
    </linearGradient>
    <linearGradient id="Unbenannter_Verlauf_2" data-name="Unbenannter Verlauf 2" x1="554.2" y1="466" x2="423.96" y2="1051.21" gradientTransform="translate(0 844.63) scale(1 -1)" gradientUnits="userSpaceOnUse">
      <stop offset="0" stop-color="#fff"/>
      <stop offset="1" stop-color="#eee"/>
    </linearGradient>
    <linearGradient id="Unbenannter_Verlauf_3" data-name="Unbenannter Verlauf 3" x1="609.36" y1="512.72" x2="836.4" y2="692.31" gradientTransform="translate(0 844.63) scale(1 -1)" gradientUnits="userSpaceOnUse">
      <stop offset="0" stop-color="#fff"/>
      <stop offset="1" stop-color="#eee"/>
    </linearGradient>
    <linearGradient id="Unbenannter_Verlauf_4" data-name="Unbenannter Verlauf 4" x1="160.57" y1="471.25" x2="-75.57" y2="690.65" gradientTransform="translate(0 844.63) scale(1 -1)" gradientUnits="userSpaceOnUse">
      <stop offset="0" stop-color="#fff"/>
      <stop offset="1" stop-color="#eee"/>
    </linearGradient>
  </defs>
  <path d="M587.6,409.7c-10.3,58.5-150.5,149.7-279.6,73.9-60-35.3-46.8-67.5-85.7-123.2-23.2-33.2-60.7-62.9-63.6-103.9-2.4-35.4,12-69.5,35-88.6,51.6-42.8,139.6-59.9,199.1,40.3,59.6,100.1,221.4,50.7,194.8,201.5h0Z" style="fill: url(#Unbenannter_Verlauf);"/>
  <path d="M653,209.5c-14.6,26.1-46.6,29.7-97.9,24.7-38.6-3.7-73.7-6.6-112.3-27.6-27-14.7-48.4-34.6-64-53.9-16.9-20.9-40.5-44.8-28.9-68.6,16-32.6,107.9-60.1,197.1-15.2,98,49.4,120.3,115.1,106,140.6h0Z" style="fill: url(#Unbenannter_Verlauf_2);"/>
  <path d="M714.5,288.6c-27.5,13.6-64.1-3.9-64.1-3.9,0,0,8.1-39.7,35.7-53.3,27.5-13.6,64,3.9,64,3.9,0,0-8.1,39.6-35.6,53.3h0Z" style="fill: url(#Unbenannter_Verlauf_3);"/>
  <path d="M47.7,316c29.4,17.6,71.4,1.3,71.4,1.3,0,0-5.5-44.8-34.9-62.3-29.4-17.6-71.4-1.4-71.4-1.4,0,0,5.6,44.8,34.9,62.4h0Z" style="fill: url(#Unbenannter_Verlauf_4);"/>
  <circle cx="733.6" cy="158.9" r="15" style="fill: #42c3a7;"/>
  <circle cx="274.1" cy="203.8" r="12.4" style="fill: #42c3a7;"/>
  <circle cx="156.6" cy="278.4" r="14.1" style="fill: #42c3a7;"/>
  <circle cx="630.3" cy="275.1" r="6.6" style="fill: #42c3a7;"/>
  <circle cx="623.5" cy="478" r="8.5" style="fill: #e1e4e5;"/>
  <circle cx="95.2" cy="391.2" r="12.2" style="fill: #e1e4e5;"/>
  <circle cx="666.5" cy="394.4" r="9.3" style="fill: #e1e4e5;"/>
  <circle cx="644.2" cy="113.2" r="10.3" style="fill: #e1e4e5;"/>
  <circle cx="123.2" cy="198.2" r="9.3" style="fill: #e1e4e5;"/>
  <circle cx="319.5" cy="48.9" r="12.3" style="fill: #e1e4e5;"/>
  <ellipse cx="632.7" cy="343" rx="9.5" ry="7.6" style="fill: #e1e4e5;"/>
  <circle cx="529.9" cy="33" r="19.3" style="fill: #e1e4e5;"/>
  <path d="M165.5,134.2h.1c.8,11.4,9.2,11.5,9.2,11.5,0,0-9.3,.2-9.3,13.3,0-13.1-9.3-13.3-9.3-13.3,0,0,8.4-.1,9.3-11.5h0Zm-14.2,297.1h.1c.8,11.3,8.9,11.5,8.9,11.5,0,0-8.9,.2-8.9,13.3,0-13.1-8.9-13.3-8.9-13.3,0,0,8-.2,8.8-11.5h0Z" style="fill: #e1e4e5;"/>
  <path d="M327.1,115.3h140c49.4,0,89.5,40.1,89.5,89.5v140c0,49.4-40.1,89.5-89.5,89.5h-140c-49.4,0-89.5-40.1-89.5-89.5V204.8c0-49.5,40.1-89.5,89.5-89.5Z" style="fill: #42c3a7; stroke: #fff; stroke-linecap: round; stroke-linejoin: round; stroke-width: 44.76px;"/>
  <path d="M345.8,211c3.5,3.4,3.5,9.1,.1,12.5s-9.1,3.5-12.5,.1c-.9-.8-1.5-1.8-2-2.9-1.4-3.3-.6-7.1,2-9.7,3.4-3.4,9-3.4,12.4,0m210.9,30.3c-49-7.5-98.9,6.9-136.4,39.3-37.5,32.5-58.9,79.7-58.6,129.3,0,8.2,.7,16.3,2,24.4" style="fill: none; stroke: #fff; stroke-linecap: round; stroke-linejoin: round; stroke-width: 40px;"/>
  <circle cx="395.1" cy="435" r="78.3" style="fill: #30524b;"/>
  <path d="M395.1,402h0c3.5,0,6.4,2.9,6.4,6.4v53.2c0,3.5-2.9,6.4-6.4,6.4h0c-3.5,0-6.4-2.9-6.4-6.4v-53.2c0-3.6,2.9-6.4,6.4-6.4Z" style="fill: #fff;"/>
  <path d="M368.5,428.6h53.2c3.5,0,6.4,2.9,6.4,6.4h0c0,3.5-2.9,6.4-6.4,6.4h-53.2c-3.5,0-6.4-2.9-6.4-6.4h0c0-3.6,2.9-6.4,6.4-6.4Z" style="fill: #fff;"/>
</svg>