<?xml version="1.0" encoding="UTF-8"?>
<svg id="Ebene_1" data-name="Ebene 1" xmlns="http://www.w3.org/2000/svg" xmlns:xlink="http://www.w3.org/1999/xlink" viewBox="0 0 900 600">
  <defs>
    <linearGradient id="Unbenannter_Verlauf" data-name="Unbenannter Verlauf" x1="534.05" y1="-123.14" x2="306.17" y2="904.99" gradientTransform="translate(0 598.63) scale(1 -1)" gradientUnits="userSpaceOnUse">
      <stop offset="0" stop-color="#fff"/>
      <stop offset="1" stop-color="#eee"/>
    </linearGradient>
    <linearGradient id="Unbenannter_Verlauf_2" data-name="Unbenannter Verlauf 2" x1="568.72" y1="258.06" x2="467.03" y2="715.01" gradientTransform="translate(0 598.63) scale(1 -1)" gradientUnits="userSpaceOnUse">
      <stop offset="0" stop-color="#fff"/>
      <stop offset="1" stop-color="#eee"/>
    </linearGradient>
    <linearGradient id="Unbenannter_Verlauf_3" data-name="Unbenannter Verlauf 3" x1="307.68" y1="-14.74" x2="210.26" y2="435.81" gradientTransform="translate(0 598.63) scale(1 -1)" gradientUnits="userSpaceOnUse">
      <stop offset="0" stop-color="#fff"/>
      <stop offset="1" stop-color="#eee"/>
    </linearGradient>
    <linearGradient id="Unbenannter_Verlauf_4" data-name="Unbenannter Verlauf 4" x1="666.86" y1="428.94" x2="750.6" y2="330.59" gradientTransform="translate(0 598.63) scale(1 -1)" gradientUnits="userSpaceOnUse">
      <stop offset="0" stop-color="#fff"/>
      <stop offset="1" stop-color="#eee"/>
    </linearGradient>
    <linearGradient id="Unbenannter_Verlauf_5" data-name="Unbenannter Verlauf 5" x1="400.31" y1="449.11" x2="289.75" y2="565.69" gradientTransform="translate(0 598.63) scale(1 -1)" gradientUnits="userSpaceOnUse">
      <stop offset="0" stop-color="#fff"/>
      <stop offset="1" stop-color="#eee"/>
    </linearGradient>
    <linearGradient id="Unbenannter_Verlauf_6" data-name="Unbenannter Verlauf 6" x1="625.24" y1="380.89" x2="515.17" y2="553.45" gradientTransform="translate(0 598.63) scale(1 -1)" gradientUnits="userSpaceOnUse">
      <stop offset="0" stop-color="#fff"/>
      <stop offset="1" stop-color="#eee"/>
    </linearGradient>
  </defs>
  <path d="M681.58,347.83c3.38,62.31-118.45,189.02-268.6,142.12-69.84-21.81-63.92-58.02-117.03-105.74-31.65-28.44-77.13-49.95-89.78-91.28-10.93-35.68-4.23-74.03,14.72-98.98,42.61-56.1,128.62-94.52,213.37-6.12,84.75,88.39,238.58-.71,247.32,160Z" style="fill: url(#Unbenannter_Verlauf);"/>
  <path d="M645.84,208.55c-11.41,20.36-36.4,23.16-76.43,19.29-30.1-2.92-57.56-5.17-87.67-21.59-21.07-11.48-37.76-27.01-49.93-42.1-13.19-16.34-31.61-35-22.58-53.53,12.41-25.46,84.15-46.9,153.82-11.84,76.53,38.53,93.95,89.86,82.79,109.76Z" style="fill: url(#Unbenannter_Verlauf_2);"/>
  <path d="M343.38,476.45c-29.7-41.54-60.11-85.7-99.92-107.45-41.07-22.44-48.64-8.61-51.49,13.38s9.83,74.09,65.88,103.74c56.06,29.65,113.32,29.21,85.53-9.67Z" style="fill: url(#Unbenannter_Verlauf_3);"/>
  <path d="M687.87,215.88c-6.53-12.05,.71-28.63,.71-28.63,0,0,17.83,2.98,24.35,15.04,6.53,12.05-.7,28.62-.7,28.62,0,0-17.83-2.98-24.36-15.04h0Z" style="fill: url(#Unbenannter_Verlauf_4);"/>
  <path d="M345.96,117.42c14.05,9.67,35.5,2.91,35.5,2.91,0,0-1.33-22.44-15.38-32.11-14.05-9.67-35.49-2.92-35.49-2.92,0,0,1.33,22.44,15.37,32.12Z" style="fill: url(#Unbenannter_Verlauf_5);"/>
  <path d="M565.04,164.45c15.23,15.5,43.7,12.23,43.7,12.23,0,0,3.77-28.39-11.47-43.88-15.23-15.5-43.68-12.24-43.68-12.24,0,0-3.77,28.39,11.46,43.89h0Z" style="fill: url(#Unbenannter_Verlauf_6);"/>
  <ellipse cx="630.55" cy="375.43" rx="11.32" ry="10.82" style="fill: #42c3a7;"/>
  <circle cx="460" cy="457.68" r="12" style="fill: #42c3a7;"/>
  <ellipse cx="263.94" cy="434.19" rx="15.25" ry="14.76" style="fill: #42c3a7;"/>
  <circle cx="224.18" cy="249" r="5.41" style="fill: #42c3a7;"/>
  <circle cx="492.33" cy="132.01" r="10.33" style="fill: #42c3a7;"/>
  <ellipse cx="617.76" cy="469.89" rx="10.33" ry="9.84" style="fill: #e1e4e5;"/>
  <ellipse cx="171.82" cy="340.52" rx="10.82" ry="9.84" style="fill: #e1e4e5;"/>
  <circle cx="302.76" cy="472.99" r="7.24" style="fill: #e1e4e5;"/>
  <circle cx="555.28" cy="131.41" r="4.92" style="fill: #e1e4e5;"/>
  <circle cx="241.16" cy="304.57" r="4.81" style="fill: #e1e4e5;"/>
  <circle cx="246.81" cy="195.86" r="6.4" style="fill: #e1e4e5;"/>
  <ellipse cx="637.93" cy="309.51" rx="4.92" ry="3.94" style="fill: #e1e4e5;"/>
  <circle cx="430.17" cy="91.85" r="9.12" style="fill: #e1e4e5;"/>
  <path d="M708.71,307.54h.13c.76,10.8,8.79,10.96,8.79,10.96,0,0-8.85,.17-8.85,12.65,0-12.48-8.86-12.65-8.86-12.65,0,0,8.03-.17,8.79-10.96Zm-8.78,57.14h.1c.6,8.51,6.93,8.64,6.93,8.64,0,0-6.98,.14-6.98,9.97,0-9.84-6.98-9.97-6.98-9.97,0,0,6.33-.13,6.93-8.64h0ZM182.48,151.68h.17c.99,14.32,11.48,14.54,11.48,14.54,0,0-11.56,.23-11.56,16.78,0-16.55-11.56-16.78-11.56-16.78,0,0,10.48-.22,11.48-14.54Z" style="fill: #e1e4e5;"/>
  <path d="M739,528.05h-136.38l-11.31-30.43c-4.01-10.78-12.21-19.45-22.69-24.19-9.88-4.46-23.17-12.57-36.05-27.02-25.08-28.12-38.38-58.29-38.38-58.29l84.52-.42s-7.61-47.24,34.4-109.98c4.49-6.72,6.55-14.77,5.84-22.82l-3.98-45.76s-28.55-31.88-11.03-71.42c0,0,16.75-23.17,23.39-14.69,0,0,50.59,120.37,55.19,138.26,4.6,17.9,10.75,29.15,4.6,85.4-1.62,14.89-2.21,27.31-2.19,37.52,.04,19.6,4.42,38.95,12.81,56.67l41.27,87.16Z" style="fill: #f8ae9d;"/>
  <path d="M199.82,373.33V192.55c0-13.46,10.9-24.38,24.36-24.38h369.16c13.56,0,24.36,11.03,24.36,24.38v180.77c0,13.46-10.9,24.38-24.36,24.38H224.17c-13.57,0-24.35-11.05-24.35-24.38Z" style="fill: #42c3a7;"/>
  <path d="M328.82,311.93v4.69c0,2.59-2.08,4.69-4.63,4.69h-55.57c-2.56,0-4.63-2.1-4.63-4.69v-4.77c0-14.2,16.01-23.42,32.41-23.42s32.42,9.23,32.42,23.42m-20.79-64.65c6.42,6.42,6.42,16.83,0,23.25-6.42,6.42-16.83,6.42-23.25,0-6.42-6.42-6.42-16.83,0-23.25s16.83-6.42,23.25,0h0Z" style="fill: #fff; fill-rule: evenodd;"/>
  <rect x="355.67" y="242.18" width="222.27" height="13.43" rx="6.72" ry="6.72" style="fill: #fff;"/>
  <path d="M362.39,275.15h208.84c3.71,0,6.72,3.01,6.72,6.72h0c0,3.71-3.01,6.72-6.72,6.72h-208.84c-3.71,0-6.72-3.01-6.72-6.72h0c0-3.71,3.01-6.72,6.72-6.72Z" style="fill: #fff;"/>
  <path d="M362.39,308.13h208.84c3.71,0,6.72,3.01,6.72,6.72h0c0,3.71-3.01,6.72-6.72,6.72h-208.84c-3.71,0-6.72-3.01-6.72-6.72h0c0-3.71,3.01-6.72,6.72-6.72Z" style="fill: #fff;"/>
  <path d="M621.44,236.75s-1.09,4.05-3.55,6.04l-2.93-33.65s-21-23.45-15.93-55.07c1.74-10.83,7.13-20.79,15.37-28.03,4.71-4.13,9.87-6.89,12.92-3,0,0,23.79,56.6,40.22,97.95l-46.1,15.76h0Z" style="fill: #f8ae9d;"/>
</svg>