<?xml version="1.0" encoding="UTF-8"?>
<svg id="Ebene_1" data-name="Ebene 1" xmlns="http://www.w3.org/2000/svg" xmlns:xlink="http://www.w3.org/1999/xlink" viewBox="0 0 746 405.4">
  <defs>
    <linearGradient id="Unbenannter_Verlauf" data-name="Unbenannter Verlauf" x1="387.33" y1="272.25" x2="380.64" y2="-694.53" gradientTransform="translate(0 318)" gradientUnits="userSpaceOnUse">
      <stop offset="0" stop-color="#fff"/>
      <stop offset="1" stop-color="#eee"/>
    </linearGradient>
    <linearGradient id="Unbenannter_Verlauf_2" data-name="Unbenannter Verlauf 2" x1="402.01" y1="96.83" x2="401.98" y2="33.26" gradientTransform="translate(0 318)" gradientUnits="userSpaceOnUse">
      <stop offset="0" stop-color="#fff"/>
      <stop offset="1" stop-color="#eee"/>
    </linearGradient>
    <linearGradient id="Unbenannter_Verlauf_3" data-name="Unbenannter Verlauf 3" x1="79.9" y1="-158.48" x2="193.85" y2="-310.28" gradientTransform="translate(0 318)" gradientUnits="userSpaceOnUse">
      <stop offset="0" stop-color="#fff"/>
      <stop offset="1" stop-color="#eee"/>
    </linearGradient>
    <linearGradient id="Unbenannter_Verlauf_4" data-name="Unbenannter Verlauf 4" x1="299" y1="61.97" x2="299.48" y2="20.06" gradientTransform="translate(0 318)" gradientUnits="userSpaceOnUse">
      <stop offset="0" stop-color="#fff"/>
      <stop offset="1" stop-color="#eee"/>
    </linearGradient>
    <linearGradient id="Unbenannter_Verlauf_5" data-name="Unbenannter Verlauf 5" x1="332.27" y1="62.04" x2="332.75" y2="20.13" gradientTransform="translate(0 318)" gradientUnits="userSpaceOnUse">
      <stop offset="0" stop-color="#fff"/>
      <stop offset="1" stop-color="#eee"/>
    </linearGradient>
  </defs>
  <path d="M259.97,21.2c95.36-5.4,195.33,22.72,180.64,63.48-14.7,40.76,78.57-14.48,115.79,.22,26.5,10.46,15.91,42.31,28.72,55.15,29.39,29.42,59.45-7.63,96.86,14.6s-39.18,229.73-78.26,230.89l-445.73-2.64-31.99-2.8s-88.48-47.2-25.19-90.74c42.8-29.44,12-50.82,7.35-64.3-5.34-15.48-17.81-42.5,36.52-62.34,54.33-19.83,40.3-62.99,38.97-71.93-1.33-8.94-19.03-64.19,76.32-69.58h0Z" style="fill: url(#Unbenannter_Verlauf);"/>
  <path d="M402,401.37c185.57,0,336-5.37,336-12s-150.43-12-336-12-336,5.37-336,12,150.43,12,336,12Z" style="fill: url(#Unbenannter_Verlauf_2);"/>
  <path d="M101.21,309.29s18.57-34.32,67.18-67.8c34.32-23.64,50.98-84.65,50.98-84.65,0,0-68.44,7.89-95.33,51.81-26.88,43.92-22.84,100.65-22.84,100.65h0Z" style="fill: #42c3a7;"/>
  <path d="M101.04,310.18c.46-.03,.85-.37,.93-.82,7.08-37.14,26.31-65.07,41.21-81.99,16.15-18.3,30.77-27.93,30.92-28.02,.47-.32,.61-.95,.29-1.42-.31-.47-.95-.6-1.42-.29h0c-.15,.09-15.02,9.86-31.34,28.38-15.07,17.08-34.54,45.35-41.69,82.93-.11,.54,.24,1.07,.78,1.18h.03c.13,.02,.21,.04,.29,.03h0v.02Z" style="fill: #30524b;"/>
  <path d="M110.16,307.9s5.11-12.38,32.19-11.3c27.08,1.05,43.07,14.93,88.93-15.34,0,0-37.95-27.31-76.32-18.55-38.4,8.73-40.32,23.86-44.8,45.2h0Z" style="fill: #42c3a7;"/>
  <path d="M110.1,308.91c.34-.02,.66-.23,.84-.55,.12-.19,10.77-19.94,29.85-24.83,33.35-8.55,57.09,.6,57.33,.71,.53,.2,1.12-.06,1.33-.59,.2-.52-.05-1.11-.56-1.33-.24-.09-24.6-9.51-58.61-.78-19.98,5.11-30.7,25.02-31.15,25.85-.27,.51-.08,1.12,.44,1.4,.14,.09,.35,.13,.53,.12h0Z" style="fill: #30524b;"/>
  <path d="M98.21,305.85s1.41-13.3-22.9-25.3c-24.31-11.99-44.97-7.43-70.81-55.92,0,0,46.38-5.88,75.94,20.14,29.56,25.96,24.01,40.18,17.77,61.07h0Z" style="fill: #42c3a7;"/>
  <path d="M98.42,306.92c.52-.04,.95-.48,.94-1,0-.96,.06-23.56-15.03-37.58-25.73-23.9-51.62-27.24-51.86-27.28-.55-.06-1.06,.33-1.13,.89-.06,.55,.33,1.06,.89,1.13,.26,.03,25.5,3.32,50.73,26.76,14.45,13.42,14.38,35.84,14.38,36.07,0,.56,.43,1.03,1,1.04h0s.02-.03,.07-.03h0Z" style="fill: #30524b;"/>
  <path d="M109.8,397.41c35.3,0,57.76-5.61,54.16-30.48-2.29-15.79-14.59-31.24-23.28-40.43-1.12-1.18-2.26-2.34-3.41-3.48-3.23-3.17-5.39-5.02-5.39-5.02l-.1-.58-.61-3.48-.72-4.01-1.62-9.18-.56-3.21-18.45-.8-19.25,.8-.44,3.21-.68,5.05-1.13,8.16-.48,3.48-.07,.58s-2.17,1.83-5.39,5.02c-1.15,1.14-2.29,2.31-3.41,3.48-8.69,9.18-20.99,24.65-23.28,40.43-3.62,24.85,18.84,30.47,54.14,30.47h-.03Z" style="fill: #30524b;"/>
  <path d="M83.37,303.35h53.37c2.86,0,5.2-2.34,5.2-5.2v-3.25c0-2.86-2.34-5.2-5.2-5.2h-53.37c-2.86,0-5.2,2.34-5.2,5.2v3.25c0,2.86,2.34,5.2,5.2,5.2Z" style="fill: #30524b;"/>
  <path d="M75,175.54c0,5.53-4.7,10-10.51,10s-10.49-4.5-10.49-10,4.7-10,10.51-10,10.49,4.47,10.49,10Z" style="fill: none; stroke: #e1e4e5; stroke-miterlimit: 10; stroke-width: 5.22px;"/>
  <path d="M139.33,114.49c-15.17,13.26-41.27,8.23-41.27,8.23,0,0-1.48-26.52,13.7-39.77,15.17-13.26,41.26-8.24,41.26-8.24,0,0,1.48,26.52-13.69,39.78h0Z" style="fill: url(#Unbenannter_Verlauf_3);"/>
  <circle cx="202.44" cy="36.05" r="5.45" style="fill: #e1e4e5;"/>
  <circle cx="222.25" cy="105.07" r="5.45" style="fill: #e1e4e5;"/>
  <circle cx="330.65" cy="54" r="5.45" style="fill: #e1e4e5;"/>
  <circle cx="525.36" cy="173.66" r="3.58" style="fill: #e1e4e5;"/>
  <circle cx="528.68" cy="261.05" r="5.45" style="fill: #e1e4e5;"/>
  <circle cx="571.68" cy="229.05" r="5.45" style="fill: #e1e4e5;"/>
  <path d="M490,112v19.44l-17.55,20.91h73.71c22.28,0,40.35-18.07,40.35-40.35s-18.07-40.35-40.35-40.35h-15.81c-22.29,0-40.35,18.07-40.35,40.35h0Z" style="fill: #e1e4e5;"/>
  <path d="M521.1,111.93c0,3.96-3.21,7.17-7.17,7.17s-7.17-3.21-7.17-7.17,3.21-7.17,7.17-7.17,7.17,3.21,7.17,7.17Zm24.38,0c0,3.96-3.21,7.17-7.17,7.17s-7.17-3.21-7.17-7.17,3.21-7.17,7.17-7.17,7.17,3.21,7.17,7.17Zm24.38,0c0,3.96-3.21,7.17-7.17,7.17s-7.17-3.21-7.17-7.17,3.21-7.17,7.17-7.17,7.17,3.21,7.17,7.17Z" style="fill: #fff;"/>
  <path d="M550.66,326.24l-14.07,5.5,.89-15.08,14.07-5.5-.89,15.08h0Z" style="fill: none; stroke: #e1e4e5; stroke-linecap: round; stroke-linejoin: round; stroke-width: 4.27px;"/>
  <path d="M241,51.85V13.55c0-3.97,3.21-7.18,7.17-7.18h42.99c3.96,0,7.17,3.21,7.17,7.18V51.85c0,2.61-1.41,5.01-3.69,6.28l-21.5,11.97c-2.16,1.21-4.8,1.21-6.96,0l-21.5-11.97c-2.27-1.27-3.68-3.67-3.68-6.28h0Z" style="fill: #e1e4e5; fill-rule: evenodd;"/>
  <path d="M257.75,38.04h23.83m-23.83-11.16h23.83m-23.83,22.01h23.83" style="fill: none; stroke: #fff; stroke-linecap: round; stroke-linejoin: round; stroke-width: 3.68px;"/>
  <path d="M566.04,183.47l18.21-18.21c.66-.66,1.74-.66,2.4,0h0c.66,.66,.66,1.74,0,2.4l-18.21,18.21c-.66,.66-1.74,.66-2.4,0h0c-.66-.66-.66-1.74,0-2.4Z" style="fill: #e1e4e5;"/>
  <path d="M577.22,183.54l5.25-5.25c.66-.66,1.74-.66,2.4,0h0c.66,.66,.66,1.74,0,2.4l-5.25,5.25c-.66,.66-1.74,.66-2.4,0h0c-.66-.66-.66-1.74,0-2.4Z" style="fill: #e1e4e5;"/>
  <path d="M670.85,110.45s-15.36-4.12-20.66,31.09c-5.29,35.21-5.33,54.5-5.33,54.5,0,0-1.94,7.66-7.65,4.98s-15.54-12.39-22.2-7.83c-6.91,4.73-6.58,14.09-.95,26.13s16.99,38.85,18.02,41.29c1.01,2.38,.8,6.46-3.38,5.26-4.18-1.21-31.01-16.46-37.48-3.31-6.49,13.16,14.72,44.12,16.97,47.54s2.06,5.28,.59,6.81-10.01-4.45-17.82-8.49c-7.8-4.03-17.57-7.33-20.67,.58-3.1,7.9,3.8,34.14,42.14,67.68l18.78,14.38,22.09-8.75c46.13-21.61,60.04-44.9,59.24-53.36s-11.08-7.99-19.7-6.28-18.48,5.09-19.47,3.21-.67-3.71,2.44-6.38,32.06-26.54,29.47-40.99c-2.58-14.44-32.59-7.21-36.94-7.22-4.35,0-3.41-3.97-1.79-5.98,1.66-2.05,20.02-24.67,28.76-34.68,8.74-10,11.65-18.91,6.33-25.37-5.13-6.23-17.27,.39-23.5,1.38s-5.97-6.91-5.97-6.91c0,0,5.32-18.54,9.98-53.85,4.66-35.3-11.63-35.51-11.63-35.51" style="fill: #e1e4e5;"/>
  <path d="M630.81,386.11c3.51-25.91,8.68-61.67,14.53-101.15,5.84-39.46,11.09-75.2,14.76-101.09,1.82-12.92,3.29-23.39,4.31-30.66,.51-3.6,.9-6.4,1.18-8.34,.14-.92,.25-1.64,.32-2.17,.09-.48,.14-.74,.14-.74,0,0-.01,.25-.06,.75-.06,.52-.14,1.25-.24,2.18-.24,1.95-.59,4.75-1.04,8.36-.9,7.26-2.29,17.75-4.05,30.7-3.51,25.91-8.68,61.66-14.52,101.13-5.84,39.48-11.1,75.21-14.76,101.11" style="fill: #fff;"/>
  <path d="M628.21,207.32s.42,.44,1.09,1.33c.66,.88,1.58,2.18,2.69,3.8,2.22,3.25,5.17,7.8,8.33,12.91,3.08,5.02,5.87,9.57,8.02,13.09,.97,1.55,1.78,2.86,2.45,3.95,.59,.93,.88,1.46,.83,1.49s-.44-.43-1.1-1.31c-.65-.88-1.57-2.18-2.66-3.82-2.19-3.27-5.08-7.87-8.22-12.97l-8.11-13.02c-.97-1.55-1.79-2.86-2.47-3.95-.59-.95-.89-1.48-.85-1.5h0Zm25.6,36.27c-.12-.18,9-6.68,20.4-14.5,11.39-7.83,20.74-14.02,20.87-13.84s-9.01,6.67-20.4,14.5c-11.41,7.83-20.74,14.02-20.87,13.84Zm-11.7,60.22c-.02-.06,.57-.27,1.62-.65,1.22-.4,2.73-.9,4.5-1.5,3.8-1.26,9.05-3.04,14.76-5.2,5.72-2.14,10.83-4.27,14.53-5.82,1.72-.72,3.18-1.34,4.37-1.85,1.03-.43,1.62-.63,1.65-.59,.03,.05-.52,.35-1.51,.88-1.41,.72-2.84,1.42-4.28,2.08-4.75,2.2-9.57,4.22-14.47,6.05-4.9,1.84-9.86,3.5-14.88,4.98-1.93,.56-3.5,.98-4.58,1.26-1.09,.28-1.7,.41-1.71,.35h0Zm-30.37-27.71s.49,.3,1.31,.95c.8,.66,1.95,1.62,3.36,2.82,3.66,3.14,7.29,6.32,10.9,9.53,3.61,3.2,7.19,6.44,10.75,9.71,1.08,.99,2.15,2,3.2,3.02,.74,.72,1.14,1.15,1.1,1.19-.03,.04-.49-.3-1.31-.95-.8-.66-1.95-1.62-3.36-2.82-3.66-3.14-7.29-6.32-10.9-9.53-4.22-3.75-8.02-7.19-10.73-9.71-1.08-.99-2.15-2-3.2-3.02-.76-.72-1.16-1.14-1.11-1.19h-.01Zm-17.08,51.84s.63,.4,1.66,1.24c1.14,.95,2.6,2.15,4.32,3.61,3.62,3.07,8.6,7.34,14.06,12.11s10.37,9.12,13.9,12.29c1.66,1.51,3.06,2.79,4.16,3.8,.96,.91,1.49,1.44,1.45,1.48-.03,.04-.63-.4-1.66-1.24-1.14-.95-2.6-2.15-4.32-3.6-4.71-4-9.4-8.04-14.06-12.11-4.66-4.07-9.3-8.16-13.9-12.29-1.66-1.51-3.06-2.79-4.16-3.8-.98-.9-1.49-1.44-1.45-1.48h0Zm38.83,33.42c-.02-.06,.72-.36,2.03-.87,1.48-.55,3.37-1.26,5.64-2.09,4.76-1.78,11.34-4.25,18.52-7.18,6.13-2.5,12.23-5.1,18.27-7.8,1.84-.81,3.67-1.62,5.5-2.44,1.3-.56,2.03-.87,2.06-.81,.03,.05-.66,.44-1.93,1.1-1.26,.66-3.11,1.58-5.41,2.67-5.99,2.85-12.05,5.53-18.2,8.03-6.14,2.5-12.36,4.83-18.64,6.97-1.9,.65-3.81,1.27-5.73,1.86-1.34,.41-2.1,.61-2.13,.57h.02Z" style="fill: #fff;"/>
  <path d="M623.93,141.37h.13c.77,10.52,8.94,10.68,8.94,10.68,0,0-9,.17-9,12.32,0-12.15-9-12.32-9-12.32,0,0,8.16-.16,8.93-10.68h0Z" style="fill: #e1e4e5;"/>
  <path d="M368.7,140.86l-15.13,55.3,5.4-6.21c-2,1.06-4.31,1.88-6.87,2.46s-5.35,.91-8.27,1.06c-2.92,.15-5.95,.13-9.07,0-3.11-.13-6.28-.37-9.51-.64h-.01c-4.76-.4-8.94,3.12-9.35,7.88-.39,4.54,2.83,8.55,7.25,9.27,3.33,.53,6.71,1.03,10.18,1.43s7.03,.7,10.71,.78,7.5-.06,11.44-.63c3.93-.57,8.02-1.59,12.01-3.32,2.46-1.06,4.34-3.11,5.2-5.64l.19-.58,18.15-54.39c2.04-6.12-1.26-12.72-7.38-14.76s-12.72,1.26-14.76,7.38c-.06,.2-.13,.43-.18,.61h0Z" style="fill: #f8ae9d;"/>
  <path d="M447.12,208.18s.58,8.19-5.28,10.35l-61.02,2.35s-4.1-3.98-3.29-13.52c0-.02,25.93-26.48,69.6,.81h0Z" style="fill: #42c3a7;"/>
  <path d="M402.32,216.82c.2,1.56,.89,2.75,1.54,2.66,.64-.08,1-1.42,.8-2.96-.2-1.56-.89-2.75-1.54-2.66-.65,.08-1,1.42-.8,2.96h0Z" style="fill: #b55e63;"/>
  <path d="M376.37,197.39v.08c.02,.23,.04,.47,.05,.72,.06,.96,.11,2.11,.14,3.42,.04,1.06,.05,2.21,.06,3.44,0,.92,.01,1.88,.01,2.88,17.35-7.5,52.84-2.17,67.12,.43-.14-.72-.28-1.43-.41-2.12-.1-.52-.18-1.02-.28-1.52-.95-5.48-1.45-10.42-1.62-14.82l-.04-1.18c-.14-6.54,.56-15.84,2-25.42,.1-.66,.2-1.32,.3-1.97l.22-1.3c.52-3.18,1.13-6.35,1.83-9.49,.24-1.06,.44-2.12,.61-3.18,.19-1.18,.34-2.35,.44-3.52,.26-2.95,.24-5.83-.14-8.51-.68-4.76-2.54-8.87-5.98-11.51-1.94-1.49-4.4-2.52-7.44-2.93-.99-.13-1.98-.26-2.92-.37-2.98-.36-5.73-.61-7.96-.79-.73-.06-1.41-.11-2.02-.16-1.56-.11-2.71-.18-3.27-.2-.14,0-.27,0-.41-.02l-26.64,7.38-2.54,.7c-1.08,.34-2.1,.66-3.04,.97-2.35,.78-4.35,1.52-6.08,2.26-2.13,.91-3.83,1.8-5.18,2.74-5.87,4.07-5.03,8.76-5.01,18v.64c0,.7-.01,1.39-.04,2.09-.02,.88-.07,1.74-.14,2.6-.12,1.74,.91,3.44,.7,5.14,2.79,11.99,3.49,15.99,4.49,23.49,.87,6.5,.7,10.2,2.52,11.54,.41,.31,.66,.48,.66,.48h.01Z" style="fill: #42c3a7;"/>
  <path d="M416.1,120.68s-2.35,8.89-11.23,11.36c-11.29,3.13-12.99-.66-12.99-.66,.28-1.61,.38-3.24,.31-4.88-.03-.65-.08-1.3-.15-1.95-.2-1.82-.58-3.8-1.11-6.07-.12-.53-.26-1.09-.4-1.65v-.07c7.71-2.9,13.77-7.26,17.48-13.71l1.1-.86,.74-.59,.21,.45,.04,1.5c.15,7.05,1.35,11.22,6.01,17.13h-.01Z" style="fill: #f8ae9d;"/>
  <path d="M362.88,341.35c.23,0,.45-.04,.67-.12l79.23-28.56c1.03-.41,1.54-1.57,1.13-2.6-.39-.99-1.48-1.5-2.49-1.17l-79.23,28.56c-1.04,.38-1.58,1.52-1.2,2.56,.29,.8,1.04,1.32,1.89,1.32h0Z" style="fill: #42c3a7;"/>
  <path d="M445.39,341.35c1.11,0,2-.9,2-2.01,0-.84-.53-1.59-1.32-1.88l-80.18-29.04c-1.05-.35-2.19,.22-2.53,1.27-.33,1.01,.18,2.1,1.16,2.5l80.18,29.04c.25,.08,.47,.12,.7,.12h-.01Z" style="fill: #42c3a7;"/>
  <path d="M355.83,392.4c1.71,0,3.16-1.27,3.39-2.96l14.31-106.85h59.88l14.09,106.85c.24,1.87,1.95,3.19,3.82,2.94h.02c1.87-.24,3.19-1.96,2.94-3.82h0s-14.48-109.84-14.48-109.84c-.22-1.7-1.67-2.97-3.39-2.98h-65.88c-1.71,0-3.16,1.27-3.39,2.96l-14.71,109.83c-.25,1.87,1.07,3.6,2.94,3.85,.15,.02,.31,.02,.46,.02h0Z" style="fill: #42c3a7;"/>
  <path d="M389.61,279.16h42.78c13.56,0,28.07-7.42,30.15-20.82,2.62-16.92,3.52-34.07,2.69-51.18-.87-18.01-9.47-34.75-23.63-45.91,0,0-8.55,37.24,2.2,88.66-4.09,19.54-54.19,29.25-54.19,29.25h0Z" style="fill: #42c3a7;"/>
  <path d="M290.62,346.62h19.11s4.43-21.21,5.9-33.11c1.49-11.89,2.26-40.09,2.26-40.09,0,0,15.23,4.95,47.11,3.08,70.64-4.12,43.86-56.02,43.86-56.02-2.39,3.29-17,1.02-26.99,2.59-30.67,2.94-57.27,14.98-73.22,21.87-3.85,1.65-7.26,3.41-10.25,5.25-3.85,2.37-6.26,9.57-7.71,19.04-4.37,28.45-.06,77.39-.06,77.39h-.01Z" style="fill: #30524b;"/>
  <path d="M291.15,371.1h13.48l2.6-15.82,1.42-8.66h-16.76l-.26,8.66-.48,15.82h0Z" style="fill: #f8ae9d;"/>
  <path d="M291.15,371.09h13.48l1.94-11.78,.66-4.04h-15.6l-.13,4.19-.35,11.63Z" style="fill: url(#Unbenannter_Verlauf_4);"/>
  <path d="M257.87,392.4h51.02c.38-.68,.59-1.67,.67-2.83,.32-4.32-1.05-11.21-1.74-15.55-.08-.51-.15-.98-.21-1.4-.1-.73-.15-1.33-.15-1.77,0-3.54-3.14-2.94-3.14-2.94-5.16,5.07-11.01-2.53-14.42-.04,0,0-.14,.11-.45,.34-.28,.23-.72,.58-1.32,1.09-.87,.73-2.09,1.78-3.74,3.27-4.05,3.65-10.93,6.05-16.8,8.5-.74,.31-1.44,.62-2.09,.93-.48,.24-.95,.47-1.38,.71-4.79,2.59-6.32,5.07-6.66,6.86-.34,1.73,.41,2.83,.41,2.83h0Z" style="fill: #30524b;"/>
  <path d="M257.87,392.4h51.02c.38-.68,.59-1.67,.67-2.83h-52.11c-.34,1.74,.41,2.83,.41,2.83h0Z" style="fill: #30524b;"/>
  <path d="M419.24,134.74l-16.96,62.54,6.05-7.02c-2.24,1.2-4.83,2.12-7.7,2.78-2.87,.65-6,1.03-9.26,1.19-3.27,.17-6.68,.14-10.17,0-3.49-.15-7.05-.4-10.66-.72h-.02c-5.34-.46-10.03,3.53-10.49,8.91-.44,5.13,3.18,9.67,8.14,10.48,3.73,.6,7.53,1.17,11.42,1.62,3.89,.45,7.88,.8,12.02,.89,4.13,.09,8.41-.07,12.83-.72,4.42-.65,9-1.8,13.47-3.75,2.87-1.25,4.9-3.62,5.83-6.38l.22-.65,20.34-61.52c2.28-6.92-1.41-14.38-8.27-16.7-6.85-2.3-14.26,1.42-16.56,8.34-.07,.22-.15,.49-.21,.7h-.02Z" style="fill: #f8ae9d;"/>
  <path d="M323.9,346.68h19.11s4.43-21.21,5.9-33.11c1.49-11.89,2.26-40.09,2.26-40.09,0,0,15.23,4.95,47.11,3.08,70.64-4.12,43.86-56.02,43.86-56.02-2.39,3.29-20.29,7.84-30.28,9.41-30.67,2.94-53.99,8.15-69.94,15.04-3.85,1.65-7.26,3.41-10.25,5.25-3.85,2.37-6.26,9.57-7.71,19.04-4.38,28.45-.06,77.39-.06,77.39h0Z" style="fill: #30524b;"/>
  <path d="M324.42,371.16h13.5l2.6-15.82,1.42-8.67h-16.76l-.27,8.67-.48,15.82h-.01Z" style="fill: #f8ae9d;"/>
  <path d="M324.42,371.17h13.5l1.92-11.79,.67-4.04h-15.61l-.13,4.19-.35,11.63h0Z" style="fill: url(#Unbenannter_Verlauf_5);"/>
  <path d="M291.13,392.47h51.02c.38-.68,.59-1.67,.67-2.83,.32-4.32-1.05-11.21-1.74-15.55-.08-.51-.15-.98-.21-1.4-.1-.73-.15-1.33-.15-1.77,0-3.54-3.14-2.94-3.14-2.94-5.16,5.07-11.01-2.53-14.42-.04,0,0-.14,.11-.45,.34-.28,.23-.72,.58-1.32,1.09-.87,.73-2.09,1.78-3.74,3.27-4.05,3.65-10.93,6.05-16.8,8.5-.74,.31-1.44,.63-2.09,.93-.48,.24-.95,.47-1.38,.71-4.79,2.59-6.32,5.07-6.66,6.86-.33,1.72,.41,2.83,.41,2.83h0Z" style="fill: #30524b;"/>
  <path d="M291.13,392.47h51.02c.38-.68,.59-1.67,.67-2.83h-52.11c-.33,1.72,.41,2.83,.41,2.83h0Z" style="fill: #30524b;"/>
  <path d="M219.47,219.87v5.3c0,3.05,1.88,5.52,4.2,5.52h292.24c2.32,0,4.21-2.46,4.21-5.52v-5.3c0-3.04-1.88-5.52-4.21-5.52H223.68c-2.32,.02-4.2,2.48-4.2,5.52h0Z" style="fill: #e1e4e5;"/>
  <path d="M234.42,238.22H497.47c1.18,0,2.14-.78,2.14-1.75v-9.2H232.29v9.2c0,.97,.96,1.75,2.12,1.75h.01Zm277.27,155.58l-37.27-154.49h13.09l37.26,154.49h-13.08Zm-255.27,0l37.27-154.49h-13.08l-37.27,154.49h13.08Z" style="fill: #e1e4e5;"/>
  <path d="M254.83,133.43l13.7,57.93,.37,1.52,.92,3.9c.4,1.69,1.9,2.88,3.64,2.88h92.28c2.41,0,4.2-2.26,3.65-4.61l-14.98-63.35c-.4-1.69-1.9-2.88-3.64-2.88h-92.28c-2.42,0-4.2,2.27-3.65,4.6h-.01Z" style="fill: #42c3a7;"/>
  <path d="M299.67,166.73c.44,3.99,4.03,7.21,8.02,7.21s6.86-3.23,6.42-7.21c-.44-3.99-4.03-7.21-8.02-7.21s-6.86,3.22-6.42,7.21Z" style="fill: #fff;"/>
  <path d="M347.09,128.84l15.95,70.84h2.69c2.41,0,4.19-2.26,3.64-4.61l-14.98-63.35c-.4-1.69-1.9-2.88-3.64-2.88h-3.66Zm-26.67,70.26l2.53,14.16h-8.36l-2.53-14.16h8.36Z" style="fill: #30524b;"/>
  <path d="M334.58,211.98l-1.89-2.66c-.68-.95-1.77-1.51-2.94-1.51h-25.35c-1.34,0-2.57,.74-3.19,1.94l-1.28,2.45c-.6,1.14,.24,2.5,1.52,2.5h31.72c1.39,0,2.21-1.58,1.4-2.72h.01Z" style="fill: #30524b;"/>
  <path d="M386.51,118.88s25.55-2.49,23.76-18.38c-1.8-15.89,.29-26.91-16.1-26-16.39,.92-18.88,7.34-19.56,12.79-.69,5.45,5.21,31.83,11.9,31.59h0Z" style="fill: #f8ae9d;"/>
  <path d="M365,73.32s2.64,14.75,7.66,15.29,3.22-5.66,3.22-5.66l-1.35-6.99-9.52-2.63h-.01Z" style="fill: #002c54;"/>
  <path d="M408.43,68.58c-.67-5.59-6.54-7.16-6.54-7.16-5.89-2.1-17.51,.15-29.36,3.99-2.79,.9-6.51-.5-8.35,1.06-2.23,1.89,.86,9.25,.86,9.25,6,13.69,22.74,7.48,27.74,5.24,1.58,3.52,1.89,8.59,5.19,10.92,1.89,1.32,4.91,1.08,7.96,.27,.44,.68,1.93,1.19,2.31,2.15,1.29,3.22,1.63,8.4,1.98,12.38l1.39-.85c.08-1.11,11.78-38.2-3.18-37.26h0Z" style="fill: #002c54;"/>
  <rect x="125" y="71.37" width="71.03" height="53.71" rx="20" ry="20" style="fill: #42c3a7;"/>
  <rect x="152.72" y="114.91" width="15.01" height="15.02" rx="7" ry="7" transform="translate(-39.63 149.15) rotate(-45)" style="fill: #42c3a7;"/>
  <path d="M167.75,82.92c6.21,0,10.38,5.81,10.38,11.22,0,10.98-17.3,19.97-17.61,19.97s-17.61-8.99-17.61-19.97c0-5.41,4.17-11.22,10.38-11.22,3.55,0,5.88,1.76,7.23,3.34,1.35-1.57,3.68-3.34,7.23-3.34Z" style="fill: #fff; fill-rule: evenodd;"/>
</svg>