<?xml version="1.0" encoding="UTF-8"?><svg id="a" xmlns="http://www.w3.org/2000/svg" width="419mm" height="419mm" viewBox="0 0 1187.72 1187.72"><circle cx="593.86" cy="593.86" r="593.86" style="fill:#009b91; stroke-width:0px;"/><path d="M520.04,1034.36c-12.27-.25-24.53-.32-36.73-1.99-9.06-1.24-17.98-2.96-26.66-5.97-8.21-2.86-14.48-8.13-19.77-14.79-3.04-3.82-4.27-8.05-4.26-13.04.02-18.35,2.43-36.43,5.69-54.42,4.83-26.69,9.49-53.41,13.07-80.31,1-7.49,1.62-15.05,2.04-22.6,3.01-52.93,2.75-105.93,3.1-158.91.25-37.45,4.45-74.44,11.94-111.1,3.18-15.58,6.22-31.2,9.12-46.84,1-5.38,1.51-10.85,2-16.31.3-3.37-.07-6.75-.51-10.14-.7-5.39-2.93-9.88-6.48-13.94-9.99-11.45-21.09-21.71-32.99-31.13-11.26-8.92-23.05-17.11-35.14-24.87-19.12-12.27-37.57-25.51-55.88-38.93-1.68-1.23-3.28-2.59-4.77-4.04-19.49-18.99-37.37-39.38-53.11-61.6-5.43-7.67-10.42-15.63-14.9-23.91-4.73-8.76-8.55-17.86-11.27-27.45-8.4-29.61-16.23-59.36-21.85-89.65-1.67-8.99-2.7-18.06-3.37-27.17-.39-5.25.19-10.44,1.04-15.59,1.04-6.28,4.34-11.06,9.77-14.42,5.44-3.36,11.45-5.07,17.68-5.93,5.43-.75,10.93-.83,16.42-.42,10.73.8,18.75,5.83,23.91,15.31,3.76,6.91,6.36,14.3,8.79,21.73,5.43,16.61,10.92,33.19,17.45,49.41,5.75,14.29,12.04,28.32,19.78,41.68,14.79,25.54,34.87,46.09,59.11,62.71,13.67,9.37,28.97,14.27,45.3,15.87,10.12.99,20.27,1.83,30.48,1.69,6.55-.09,13.01-.93,19.51-1.45,6.14-.49,10.1-3.66,12.05-9.48,1.83-5.48,3.04-11.08,3.24-16.85.36-10.18.1-20.31-.95-30.48-1.98-18.97-2.51-38.01-1.24-57.08.76-11.46,1.42-22.92,3.74-34.2.58-2.81,1.21-5.61,1.93-8.38,3.08-11.83,10.3-20.28,21.06-25.9,5.59-2.92,11.47-5.07,17.55-6.56,7.34-1.8,14.72-3.47,22.26-4.29,16.43-1.8,32.27.43,47.46,6.92,3.1,1.32,6.07,3.03,8.94,4.82,11.86,7.39,18.12,18.34,20.26,31.97,1.89,12.02.73,23.94-.83,35.86-1.66,12.7-5.13,25.03-7.59,37.56-3.5,17.84-4.12,35.73-1.02,53.69,1.25,7.22,3.43,14.17,6.2,20.96,5.16,12.69,14.58,20.65,27.27,25.2,8.81,3.16,17.93,3.82,27.04,2.68,17.64-2.2,34.93-6.05,51.36-13.15,22.57-9.75,41.08-24.6,55.72-44.3,10.3-13.87,18.89-28.79,26.81-44.1,11.16-21.57,20.92-43.77,29.74-66.38.66-1.7,1.34-3.4,1.99-5.1,2.29-6.02,6.98-9.04,13.06-9.79,7.92-.98,15.65.29,22.99,3.35,5.85,2.44,9.54,7.15,12.07,12.79,4.88,10.87,7.31,22.22,6.75,34.21-.9,19.24-6.01,37.54-12.24,55.58-8.4,24.31-20.71,46.67-33.92,68.62-18.26,30.33-41.59,56.16-69.1,78.24-7.31,5.87-15.26,10.96-23.05,16.21-14.94,10.06-29.85,20.16-43.94,31.41-12.68,10.12-24.71,20.92-34.82,33.69-2.11,2.66-4.1,5.41-6.04,8.18-12.27,17.53-15.68,36.6-10.19,57.33,2.88,10.87,6.66,21.4,11.15,31.7,8.55,19.66,18.81,38.43,29.78,56.81,10.84,18.14,21.77,36.24,33.13,54.06,17.58,27.58,32.88,56.28,45.32,86.55,12,29.2,23.73,58.48,32.57,88.84,3.81,13.1,5.78,26.46,7.23,39.97,2.48,23.11,3.74,46.3,4.11,69.53.19,12-.47,23.97-2.27,35.89-1.24,8.19-5.7,13.04-13.25,15.79-5.43,1.98-11.01,3.36-16.67,4.14-7.23.99-14.48,1.83-21.82,1.99-20.14.46-40.2-.3-60.1-3.45-7.71-1.22-15.32-3.13-22.95-4.84-2.02-.45-3.92-1.43-5.92-2.02-8.76-2.59-12.39-8.84-12.88-17.54-.5-8.67.65-17.22,1.92-25.72,2.43-16.25,5.44-32.41,7.76-48.67,2.44-17.05,4.24-34.17,4.44-51.43.09-7.61-.34-15.13-2.15-22.53-3.1-12.66-6.19-25.33-9.33-37.98-2.88-11.59-8.46-21.88-15.63-31.3-8.38-11-17.07-21.77-25.49-32.75-13.37-17.42-31.36-25.25-52.92-25.81-4.7-.12-9.4-.19-14.09-.08-2.59.06-5.23.3-7.75.88-9.84,2.26-14.3,7.12-15.51,17.12-.95,7.78-1.35,15.59-.95,23.44,1.52,29.45,2.89,58.91,4.44,88.35,1.15,21.89,2.74,43.76,3.7,65.66.91,20.86,1.95,41.72,1.79,62.61-.02,2.86-.31,5.73-.56,8.58-.4,4.57-2.94,7.69-6.86,9.81-3.95,2.13-8.2,3.35-12.6,4.05-13.94,2.2-27.97,3.34-42.08,3.6-2.87.05-5.74,0-8.61,0l-.02.04h0Z" style="fill:#f28e1c; stroke-width:0px;"/><path d="M364.26,824.16c0,2.96-2.41,5.35-5.37,5.35s-5.37-2.39-5.37-5.35,2.41-5.37,5.37-5.37,5.37,2.39,5.37,5.37ZM817.98,824.16c0,2.96-2.39,5.35-5.34,5.35s-5.37-2.39-5.37-5.35,2.39-5.37,5.37-5.37,5.34,2.39,5.34,5.37ZM817.98,370.42c0,2.96-2.39,5.35-5.34,5.35s-5.37-2.39-5.37-5.35,2.39-5.37,5.37-5.37,5.34,2.42,5.34,5.37ZM541.4,321.77h31.45v110.65c0,3.65,1.59,7.11,4.37,9.48,6.01,5.35,15.07,5.35,21.08,0,2.78-2.37,4.37-5.83,4.37-9.48v-110.65h30.68c3.9.06,7.68-1.33,10.62-3.87,2.81-2.37,4.44-5.87,4.44-9.55s-1.63-7.18-4.44-9.54c-2.94-2.59-6.7-4-10.62-4h-91.94c-2.03-.02-4.02.41-5.85,1.26-3.39,1.59-6.15,4.26-7.87,7.62-.72,1.41-1.11,3-1.11,4.61,0,3.59,1.54,7,4.24,9.35,2.92,2.61,6.7,3.98,10.59,3.87M666.79,524.98c-1.65-1.02-3.48-1.79-5.37-2.24-1.83-.5-3.72-.74-5.61-.74-6.44-.11-12.07,4.33-13.48,10.59l-13.36,53.28c-1.52,5.74-2.69,11.57-3.48,17.46-.76,5.74-1.74,11.59-2.87,17.47-1.09-5.83-2-11.64-2.74-17.47-.71-5.9-1.85-11.72-3.37-17.46l-12.48-49.04c-.83-4.11-2.61-7.96-5.24-11.22-3.04-3.07-7.28-4.63-11.59-4.24-4.59-.67-9.22.85-12.48,4.11-2.48,3.4-4.22,7.27-5.11,11.36l-12.48,49.04c-1.39,5.7-2.44,11.51-3.11,17.33-.67,6.01-1.59,11.77-2.74,17.36-1.09-5.83-2-11.66-2.76-17.49-.7-5.81-1.83-11.55-3.37-17.2l-13.83-53.89c-.67-3.11-2.5-5.82-5.11-7.61-2.57-1.59-5.5-2.39-8.5-2.37-1.89.02-3.79.31-5.61.87-1.78.52-3.48,1.37-4.98,2.5-1.48,1.09-2.74,2.43-3.74,3.98-1,1.57-1.53,3.39-1.5,5.24.07.41.07.83,0,1.24.26.91.46,1.83.64,2.76l30.92,120.76c1.22,3.5,3.37,6.61,6.24,8.99,3.09,2.72,7.12,4.2,11.22,4.11,4.56.56,9.15-.94,12.48-4.11,2.28-2.54,4.02-5.51,5.11-8.75l12.48-51.65c1.39-5.46,2.44-11.01,3.11-16.59.76-5.61,1.5-11.22,2.5-16.83,1,5.61,1.87,11.22,2.5,16.83.67,5.58,1.72,11.13,3.11,16.59l12.48,51.15c1.52,3.44,3.89,6.44,6.85,8.75,3.2,2.89,7.43,4.37,11.74,4.11,4.18.2,8.26-1.28,11.35-4.11,2.63-2.57,4.61-5.74,5.72-9.24l31.58-121.76c.09-.52.09-1.09,0-1.61v-.5c.04-2.05-.52-4.02-1.63-5.75-1.04-1.59-2.39-2.96-3.98-4M633.34,813.55c-3.65-2.52-8.02-3.79-12.46-3.61h-22.83c-3.48-.06-6.83,1.33-9.25,3.85-2.63,2.37-4.15,5.76-4.15,9.3s1.53,6.92,4.15,9.29c2.42,2.53,5.77,3.94,9.25,3.87h10.98v32.69c-2.48,1.28-5.07,2.33-7.74,3.11-3.18.9-6.44,1.31-9.74,1.26-7.48.81-14.9-2.19-19.7-7.98-4.02-6.37-5.99-13.83-5.61-21.33v-41.3c-.42-7.57,1.54-15.07,5.61-21.46,4.85-5.74,12.24-8.68,19.7-7.85,3.13-.02,6.26.43,9.24,1.37,2.87.91,5.63,2.13,8.24,3.61l2.48,1.76,3.74,2.24c1.65.74,3.46,1.09,5.25,1,3.7.13,7.28-1.22,9.98-3.74,2.43-2.33,3.83-5.52,3.87-8.87-.04-3.28-1.39-6.41-3.74-8.72-2.81-2.98-6.15-5.39-9.85-7.12-4.46-2.17-9.16-3.8-13.99-4.87-5.3-1.19-10.77-1.78-16.2-1.74-8.2-.19-16.38,1.11-24.09,3.87-6.35,2.33-12.09,6.13-16.7,11.09-4.48,4.83-7.85,10.57-9.85,16.86-2.17,7.26-3.24,14.85-3.13,22.44v41.43c-.11,7.59.96,15.16,3.13,22.45,1.74,6.44,4.89,12.41,9.22,17.46,4.63,4.96,10.35,8.77,16.72,11.11,7.72,2.74,15.88,4.05,24.08,3.87,5.57-.04,11.11-.59,16.59-1.63,5.33-.94,10.48-2.61,15.33-4.98,4.37-2.09,8.24-5.07,11.35-8.74,2.89-3.5,4.44-7.94,4.37-12.48v-46.39c.39-4.33-1.5-8.53-4.98-11.11M396.32,294.81c-3.85-.04-7.54,1.39-10.35,4-2.74,2.34-4.33,5.76-4.37,9.35v48.67h-44.54v-48.67c-.11-3.63-1.79-7.04-4.61-9.35-2.81-2.61-6.52-4.05-10.36-4-3.72.04-7.28,1.48-9.98,4-2.74,2.34-4.33,5.76-4.37,9.35v124.14c0,3.65,1.59,7.12,4.37,9.48,2.78,2.72,6.57,4.2,10.48,4.11,3.89.08,7.66-1.39,10.46-4.11,2.63-2.43,4.09-5.89,4-9.48v-48.65h44.54v48.65c0,3.65,1.59,7.12,4.37,9.48,5.83,5.42,14.85,5.42,20.7,0,2.76-2.37,4.37-5.83,4.37-9.48v-124.14c-.04-3.59-1.63-7-4.37-9.35-2.81-2.61-6.52-4.05-10.36-4Z" style="fill:#fff; stroke-width:0px;"/></svg>