<?xml version="1.0" encoding="UTF-8"?>
<svg id="Ebene_1" data-name="Ebene 1" xmlns="http://www.w3.org/2000/svg" viewBox="0 0 1999.97 3528.12">
  <defs>
    <style>
      .cls-1 {
        fill: #664b36;
      }

      .cls-1, .cls-2, .cls-3 {
        stroke-width: 0px;
      }

      .cls-2 {
        fill: #674c37;
      }

      .cls-3 {
        fill: beige;
      }
    </style>
  </defs>
  <path class="cls-3" d="m1069.44,1739.76v181.8c0,24.8-16.8,48.1-40.1,55.9-20.5,6.9-41.7,10.2-63.3,11.8-22.8,1.6-45.5,3.8-68.2,5.8-2.7.2-5.3.1-8,.1h-68.9c-31.5.1-62.8-2.4-93.9-7.8-16-2.8-31.9-5.6-47.9-8.3-25.9-4.4-44.5-34.6-43.5-55.1.8-16.6,1.8-14.1-15-14.9-24.1-1.2-48.5-2.8-71.2-11.9-35.9-14.3-58.2-40.4-61.2-79.8-2-26.8-2.8-53.8-1.9-80.7.9-26.2,10.4-51,29.3-69,14.9-14.2,33.5-25.5,54.5-29.8,18.4-3.8,37.1-6.1,55.8-8.2,6.1-.7,7.9-2.5,7.9-8.4-.2-21,.6-42-.4-62.9-.6-12.4,29.99-50.6,226.8-50.6,182.22,0,209.1,38,209.1,45.2,0,62.2.1,124.5.1,186.8h0Zm-177.6-210.6c-.8,0-1.5-.1-2.3-.1h-3.7c-2.9-.5-5.8-1.5-8.6-1.5-15.6-.2-31.3-.2-46.9,0-2.9,0-5.62-.2-8.42.3-1.2,0-2.78-.15-3.98-.15-.8,0-1.5.07-2.3.07-16.2.8-32.2,2.98-48.4,3.68-1.3.1-2.7.1-4,.2-17.9,1.9-36,3.1-53.8,6-13.5,2.2-41.79,15.03-42.69,17.93-.5,1.6-.71,4.67,1.89,6.27,13.2,8.1,28.4,8.8,43.1,11.3,12.9,2.2,26,2.9,39.1,4.2,14.4,1.4,28.7,3.6,43.1,3.8,39.2.5,78.5.3,117.7.1,11.8-.1,23.7-.9,35.5-2.1,15-1.5,30-3.4,44.9-5.9,13.6-2.3,27.2-5.1,40.5-8.7,4.9-1.3-63.2-29.7-94.4-33-15.3-1.6-30.8-1.6-46.3-2.4h0Zm-259.8,240.4v-69.9c0-10.17-.22-10.2-10.6-10.2-11.2.3-45.23-.12-67.5,13.2-21.48,13.61-18.12,44.93-18.12,64.83,0,22.24-.59,57.66,16.52,74.27,17.14,10.9,56,7.5,67.6,7.5,8.22,0,12.2-3.72,12.2-11.8-.1-22.6-.1-45.2-.1-67.9h0Z"/>
  <path class="cls-2" d="m907.44,1343.86c-3.42,21.29-7.52,34.75-14.1,51.4-4.15,11.45-10.9,20.5-13.6,31.4-2.4,9.6-1.4,20.2-1.3,30.3,0,8.9,1.4,17.8,1,26.7-.4,8.8-7.4,11.9-15.4,7.7-28.1-14.9-41.1-39.4-39.7-70.1.7-14.6,1.53-25.48,12-43.2,11.68-17.4,28.07-38.47,19-95.5-.7-8.8,3.1-13.1,11.6-10.8,4.6,1.2,9.2,4.1,12.7,7.4,18.4,17.5,30.5,37.9,27.8,64.7h0Z"/>
  <path class="cls-2" d="m940.54,1333.46c-.9-6.4-1.7-12.9-2.8-19.2-1-5.8,2.6-10,8.4-8.7,3.1.7,6.2,2.3,8.7,4.4,15.9,13.1,25.7,37.6,18.9,58.8-2.7,8.4-6,16.6-10,24.5-8,15.6-7.5,55.2-7.9,58.1-1,7.7-5.6,9.8-12.4,6-21-12-30.6-35-23.9-60.6,2.6-10,6.4-19.3,11.6-28.1,6.3-11,10.6-22.2,9.4-35.2h0Z"/>
  <path class="cls-2" d="m800.64,1401.16c-3.2,6-5.1,11.8-5,18.5.2,11,.2,22,.1,33-.1,5.6-5.3,8.6-10.1,5.7-18.7-11.4-27.5-30.19-27.5-50,0,1.08-1.44-14.33,8.4-28.8,12.01-19.49,18.11-41.1,13.4-67.1.1-6,3.1-8.4,9-6.7,2.2.6,4.3,1.8,6,3.3,12.9,11.4,20.9,25.99,20.9,43,0,21.19-7.8,34.9-15.2,49.1Z"/>
  <path class="cls-1" d="m1044.44,1560.76c0,47.31-379.16,53.16-382.5.3.07-47.17,382.43-47.07,382.5-.3Z"/>
</svg>