<?xml version="1.0" encoding="UTF-8"?>
<svg version="1.1" xmlns="http://www.w3.org/2000/svg" width="302" height="532">
<path d="M0 0 C1.79824219 -0.04930664 1.79824219 -0.04930664 3.6328125 -0.09960938 C14.86225723 -0.1665963 24.39652949 2.73641593 32.62890625 10.609375 C40.43719595 19.41486797 39.94345291 30.25869358 39.49853516 41.40625 C38.87487622 49.01268352 37.09737333 56.45493769 35.44140625 63.890625 C31.76374856 80.48558282 33.03410605 95.17619478 37.25 111.4375 C37.94206543 111.56116943 38.63413086 111.68483887 39.34716797 111.81225586 C44.48926839 112.91981845 49.43207893 114.67086875 54.41308594 116.34594727 C55.70762584 116.77751427 57.00482263 117.20120219 58.3046875 117.61645508 C79.35851019 124.34884455 92.5479582 138.59538779 102.49755859 157.85205078 C103.85620462 160.53583922 105.18466244 163.23223518 106.5 165.9375 C106.91258057 166.77917725 107.32516113 167.62085449 107.75024414 168.48803711 C112.84904327 179.26826656 115.70969271 190.2064213 117.25 202 C117.49580811 203.77056763 117.49580811 203.77056763 117.74658203 205.5769043 C118.68572726 212.52541294 119.48065494 219.47716342 120.1796875 226.453125 C121.9065117 243.60737734 124.01032024 259.92899401 129.25 276.4375 C129.62415039 277.62504883 129.99830078 278.81259766 130.38378906 280.03613281 C132.66873488 287.26434256 135.0073518 294.47294909 137.40551758 301.66455078 C139.15797676 307.41893974 140.52014982 313.29948279 138.1875 319.0625 C134.94824853 323.03319535 131.11308965 325.81647012 126.25 327.4375 C118.55270757 328.07981852 111.55151893 328.3355626 105.25 323.4375 C85.86101456 306.33474414 77.84093545 275.62721654 75.50195312 251.06298828 C73.18768082 221.27352055 73.18768082 221.27352055 61.25 194.4375 C60.56052559 193.1158165 59.88633792 191.78557132 59.25 190.4375 C58.26 190.4375 57.27 190.4375 56.25 190.4375 C56.33564209 191.04110352 56.42128418 191.64470703 56.50952148 192.26660156 C60.37893166 219.6790604 60.37893166 219.6790604 60.1640625 229.0390625 C59.33356577 267.20148955 82.52464057 299.67949468 102.14086914 330.82324219 C128.11900974 372.07934148 150.03836127 419.40349605 154.25 468.4375 C154.3634375 469.68660156 154.476875 470.93570312 154.59375 472.22265625 C155.27253375 481.03741741 155.38093256 489.84970272 155.4375 498.6875 C155.45707764 500.44598267 155.45707764 500.44598267 155.47705078 502.23999023 C155.49636455 521.8089797 155.49636455 521.8089797 151.30688477 526.71118164 C149.15702838 528.51552995 147.54476168 529.31470391 144.875 530.125 C144.14539063 530.35574219 143.41578125 530.58648438 142.6640625 530.82421875 C134.59026941 532.875328 126.45467821 532.67996514 118.1875 532.6875 C117.42766815 532.68850708 116.6678363 532.68951416 115.88497925 532.69055176 C80.45568423 532.65879127 80.45568423 532.65879127 68.25 525.4375 C63.67454983 520.4128618 63.95060371 514.89496712 64.25 508.4375 C64.55153906 505.52300742 65.00634593 502.64669971 65.4921875 499.7578125 C65.75632615 498.10277625 66.01997931 496.44766246 66.28320312 494.79248047 C66.42121338 493.93829529 66.55922363 493.08411011 66.70141602 492.20404053 C72.68474486 459.82033482 72.68474486 459.82033482 70.25 427.4375 C70.05873535 426.5820459 69.8674707 425.7265918 69.67041016 424.84521484 C65.90362583 408.08542653 61.07937181 395.30865019 49.66015625 382.21875 C47.54320618 379.77585138 45.60551161 377.28638348 43.6875 374.6875 C37.0311426 366.15807458 30.1559983 360.27454449 19.25 358.4375 C6.34773415 357.10193932 6.34773415 357.10193932 -5.75 360.4375 C-12.20917467 373.13311917 -8.59554486 391.66166029 -7.82402039 405.52828407 C-7.65122259 408.64135339 -7.48481457 411.754711 -7.31994629 414.86820984 C-6.85074089 423.70892023 -6.37084612 432.54903793 -5.88623047 441.38891602 C-3.53005052 484.48333859 -3.53005052 484.48333859 -3.46875 501.29296875 C-3.45781311 502.96012688 -3.45781311 502.96012688 -3.44665527 504.66096497 C-3.453302 505.65351791 -3.45994873 506.64607086 -3.46679688 507.66870117 C-3.47495422 508.9224781 -3.47495422 508.9224781 -3.48327637 510.20158386 C-3.78342644 512.71771031 -4.38904674 514.3053801 -5.75 516.4375 C-16.04437302 522.74825844 -29.95826245 521.78567185 -41.68041992 521.75317383 C-44.04978687 521.75001694 -46.41789564 521.77356894 -48.78710938 521.79882812 C-62.8574563 521.85677953 -79.54223072 521.73329492 -90.5625 511.9375 C-91.6453125 510.7 -91.6453125 510.7 -92.75 509.4375 C-93.28109375 508.87289063 -93.8121875 508.30828125 -94.359375 507.7265625 C-100.74784327 497.21071304 -93.98881012 475.75254008 -92.09228516 464.48321533 C-91.04193477 458.20564867 -90.02851129 451.92207386 -89.02081299 445.63754272 C-88.6396885 443.27842035 -88.24881528 440.92107601 -87.85693359 438.5637207 C-84.83575514 420.0807891 -83.49052071 401.63522533 -83.22927856 382.91812134 C-83.18599666 379.83024652 -83.13202731 376.74269651 -83.07592773 373.6550293 C-82.89070216 363.25057313 -82.74082433 352.84562505 -82.59294128 342.44058228 C-82.52192595 337.56073708 -82.44443704 332.68100434 -82.36624146 327.80126953 C-82.31368804 324.32850618 -82.27169229 320.8557232 -82.23022461 317.3828125 C-82.07524866 306.57890338 -81.78028731 296.08256572 -79.75 285.4375 C-80.30647217 285.43339111 -80.86294434 285.42928223 -81.4362793 285.42504883 C-92.28383433 285.28641838 -102.67918843 284.62429179 -113.25 282.0625 C-114.11455811 281.85343018 -114.97911621 281.64436035 -115.86987305 281.42895508 C-125.17907436 279.0210387 -131.23059514 275.44669628 -136.75 267.4375 C-145.04212827 251.05821743 -146.98446535 233.44143228 -147 215.3125 C-147.00067474 214.60596283 -147.00134949 213.89942566 -147.00204468 213.17147827 C-146.9577343 183.847536 -141.62843701 160.59958632 -120.41015625 139.0625 C-103.42175265 123.20298546 -85.17045568 115.51221936 -62.27172852 112.56396484 C-57.57695733 111.91706125 -53.85472682 110.97733853 -49.75 108.4375 C-43.57547174 100.20479565 -43.52159095 91.03733669 -44.28515625 81.10400391 C-47.98800836 29.73795134 -47.98800836 29.73795134 -36.75 11.125 C-27.36237747 1.09797284 -12.75676684 0.06093997 0 0 Z M-92.75 187.4375 C-95.48345131 192.60502461 -96.26035034 196.95970018 -96.4375 202.75 C-96.46948486 203.52327637 -96.50146973 204.29655273 -96.53442383 205.09326172 C-96.6261037 207.54118854 -96.69193382 209.98855866 -96.75 212.4375 C-96.77191406 213.24912598 -96.79382813 214.06075195 -96.81640625 214.89697266 C-96.87388194 217.28556644 -96.9106841 219.67337877 -96.9375 222.0625 C-96.95063232 222.78348877 -96.96376465 223.50447754 -96.97729492 224.24731445 C-96.98623748 230.17622805 -96.7397228 236.3940009 -92.4375 240.8125 C-87.96411094 243.5173399 -84.15123039 244.68560383 -78.9375 245.0625 C-77.96167969 245.13726562 -76.98585938 245.21203125 -75.98046875 245.2890625 C-75.24441406 245.33804688 -74.50835937 245.38703125 -73.75 245.4375 C-71.48378195 233.79902378 -69.35687977 222.2664014 -69.375 210.375 C-69.37371094 209.57416992 -69.37242188 208.77333984 -69.37109375 207.94824219 C-69.49779812 201.17819717 -70.39577905 195.27757915 -75.125 190.125 C-75.71023437 189.46886719 -76.29546875 188.81273437 -76.8984375 188.13671875 C-82.09343099 183.36916144 -86.90321475 183.58110973 -92.75 187.4375 Z " fill="#FE8E00" transform="translate(146.75,-0.4375)"/>
<path d="M0 0 C0.495 0.99 0.495 0.99 1 2 C-0.85295256 7.08719703 -3.99269038 10.41563319 -8.6875 13 C-15.17064617 15.85142833 -21.29715936 16.03630055 -28.0625 14 C-33.13097475 11.85444934 -37.31084768 8.0222008 -41 4 C-41 3.34 -41 2.68 -41 2 C-35 4 -35 4 -32.984375 4.80078125 C-24.36438202 8.07203758 -17.07791111 8.12238716 -8.5 4.625 C-5.44047357 3.24821311 -2.79679666 1.8645311 0 0 Z " fill="#C06B00" transform="translate(166,67)"/>
</svg>
