<?xml version="1.0" encoding="utf-8"?>
<!-- Generator: Adobe Illustrator 28.0.0, SVG Export Plug-In . SVG Version: 6.00 Build 0)  -->
<svg version="1.1" id="Ebene_1" xmlns="http://www.w3.org/2000/svg" xmlns:xlink="http://www.w3.org/1999/xlink" x="0px" y="0px"
	 viewBox="0 0 110 135" style="enable-background:new 0 0 110 135;" xml:space="preserve">
<style type="text/css">
	.st0{stroke:#000000;stroke-width:4;stroke-miterlimit:10;}
</style>
<path class="st0" d="M77.4,109c-0.4,0.3-1,0.2-1.3-0.2c-0.3-0.4-0.2-1,0.2-1.3l25.6-19.1c0.4-0.3,0.7-0.7,0.9-1.1
	c0.2-0.4,0.3-0.9,0.3-1.4c0-0.5-0.1-1-0.3-1.4c-0.2-0.4-0.5-0.8-0.9-1.1L76.3,64.4c-0.4-0.3-0.5-0.9-0.2-1.3
	c0.3-0.4,0.9-0.5,1.3-0.2L103,81.9c0.6,0.5,1.2,1.1,1.5,1.8c0.3,0.7,0.5,1.4,0.5,2.2c0,0.8-0.2,1.6-0.5,2.3
	c-0.3,0.7-0.8,1.3-1.5,1.8L77.4,109z M7.3,86.9c-0.5,0-1-0.4-1-1c0-0.5,0.4-1,1-1h83.1c0.5,0,1,0.4,1,1c0,0.5-0.4,1-1,1H7.3z
	 M32.6,11c0.4-0.3,1-0.2,1.3,0.2c0.3,0.4,0.2,1-0.2,1.3L8.2,31.6c-0.4,0.3-0.7,0.7-0.9,1.1c-0.2,0.4-0.3,0.9-0.3,1.4
	c0,0.5,0.1,1,0.3,1.4c0.2,0.4,0.5,0.8,0.9,1.1l25.6,19.1c0.4,0.3,0.5,0.9,0.2,1.3c-0.3,0.4-0.9,0.5-1.3,0.2L7,38.1
	c-0.6-0.5-1.2-1.1-1.5-1.8C5.2,35.6,5,34.9,5,34.1c0-0.8,0.2-1.6,0.5-2.2c0.3-0.7,0.8-1.3,1.5-1.8L32.6,11z M19.6,35
	c-0.5,0-1-0.4-1-1c0-0.5,0.4-1,1-1h82.1c0.5,0,1,0.4,1,1c0,0.5-0.4,1-1,1H19.6z"/>
</svg>
