<?xml version="1.0" encoding="utf-8"?>
<!-- Generator: Adobe Illustrator 28.0.0, SVG Export Plug-In . SVG Version: 6.00 Build 0)  -->
<svg version="1.1" id="Ebene_1" xmlns="http://www.w3.org/2000/svg" xmlns:xlink="http://www.w3.org/1999/xlink" x="0px" y="0px"
	 viewBox="0 0 64 64" style="enable-background:new 0 0 64 64;" xml:space="preserve">
<g>
	<polygon style="fill:#FFD600;" points="33.8,13.3 49.4,13.5 49.7,18.2 51.7,16.5 53.6,19.4 51.7,23.7 55.7,28.2 55.4,32.3 
		58.2,30.4 58.2,36 55.6,39.6 55.6,43.7 51.9,44.4 51.3,48.4 47.6,49 47.2,52.4 44.3,52.1 42.1,50 39.4,49.8 39.9,40.8 37.9,42 
		34.7,39.4 37.3,37.2 42,32.6 38.3,34.3 38.6,29.2 36,26.3 38.5,22.8 32.7,17.6 37.3,17 	"/>
	<polygon style="fill:#C91517;" points="28.9,18.8 30.9,22.1 32.2,29 32.6,35.3 30.8,39.2 28.9,45.5 10.4,44.8 6.9,41.9 6.5,36.8 
		4.9,31.5 6.5,26.6 7.4,20.9 11.5,19.3 	"/>
	<polygon style="fill:#8A3413;" points="26.9,10.8 29.7,14.6 26.7,31.1 29.2,47.9 28.7,52.5 23.1,52.3 21.6,50.6 18.1,52.5 14,51.3 
		10.7,34 12.9,17.2 15.8,10.8 20.9,12.8 	"/>
	<polygon style="fill:#C91517;" points="20.2,21 24.8,25.1 26.9,27.1 27,37.7 22.4,41.1 19.9,42.6 15,41.3 11.3,37 11,26.4 
		17.8,20.9 	"/>
	<path d="M32,0C14.3,0,0,14.3,0,32s14.3,32,32,32s32-14.3,32-32C64,14.3,49.7,0,32,0z M32,62C15.4,62,2,48.6,2,32S15.4,2,32,2
		s30,13.4,30,30C62,48.6,48.6,62,32,62z"/>
	<path d="M32.8,27.6c-0.7-1.1-1-2.4-0.8-3.7c0.1-0.8,0.1-1.5-0.1-2.3c-0.3-1.3-1.1-2.5-2.1-3.3c0.2-0.7,0.4-1.4,0.6-2.2
		c0.4-1.5,0.2-3-0.8-4.3C28,9.8,25,9.4,22.9,11c-0.4,0.3-0.8,0.8-1.1,1.2c-0.1-0.1-0.1-0.2-0.2-0.3c-0.9-1.2-2.3-1.9-3.8-1.9
		c-2.1,0-4,1.4-4.6,3.4c-0.5,1.6-0.9,3.1-1.3,4.6c-0.2,0-0.4,0-0.6,0C9,18.3,7,20,6.3,22.2C6,22.9,6,23.7,6,24.5
		c0.1,1.1-0.2,2.1-0.7,3c-1.7,2.7-1.7,6.2,0,9c0.6,0.9,0.8,1.9,0.7,3c-0.1,0.8,0,1.6,0.3,2.3C7,44,9,45.7,11.3,46c0.1,0,0.2,0,0.3,0
		c0.4,1.6,0.9,3.3,1.5,4.9c0.7,1.9,2.5,3.2,4.5,3.2h0.1c1.6,0,3.1-0.8,3.9-2.1c0.9,1.3,2.4,2.1,3.9,2.1h0.1c1.5,0,2.9-0.7,3.8-1.9
		c0.9-1.2,1.2-2.8,0.8-4.3c-0.2-0.7-0.4-1.5-0.6-2.2c1.7-1.3,2.5-3.5,2.2-5.6c-0.2-1.3,0.1-2.6,0.8-3.7
		C34.4,33.7,34.4,30.3,32.8,27.6L32.8,27.6z M12.3,27.4c0.3-0.3,0.7-0.5,1-0.8c0.9-0.6,1.7-1.5,2.1-2.5c0.7-1.3,2-2.1,3.4-2.1
		c-0.6,3.3-0.9,6.6-0.9,10c0,0,0,0.1,0,0.1c-0.1,3.3,0.2,6.6,0.7,9.8c-1.4-0.1-2.6-0.9-3.3-2.1c-0.5-1-1.2-1.8-2.1-2.5
		c-0.4-0.3-0.8-0.6-1.2-0.9C11.9,33.5,12,30.4,12.3,27.4z M21,22.5c0.7,0.4,1.2,0.9,1.6,1.6c0.5,1,1.2,1.8,2.1,2.5
		c0.5,0.4,1,0.8,1.5,1.2c-0.2,2.8-0.2,5.6,0,8.4c-0.4,0.5-0.9,0.9-1.5,1.2c-0.9,0.6-1.7,1.5-2.1,2.5c-0.4,0.7-1,1.3-1.8,1.7
		C19.7,35.3,19.8,28.8,21,22.5L21,22.5z M25.7,12c0.9,0,1.7,0.4,2.2,1.1c0.5,0.7,0.7,1.6,0.4,2.5c-0.9,3.2-1.6,6.5-2,9.8
		c-0.2-0.2-0.4-0.3-0.7-0.5c-0.6-0.4-1.1-1-1.5-1.7c-0.6-1.2-1.7-2.1-2.9-2.7c0.5-2.2,1-4.3,1.7-6.5C23.4,12.8,24.5,12,25.7,12z
		 M15.1,14c0.4-1.2,1.4-2,2.7-2c0.9,0,1.7,0.4,2.2,1.1c0.5,0.7,0.7,1.6,0.4,2.5c-0.4,1.5-0.8,2.9-1.1,4.4c-0.1,0-0.2,0-0.3,0
		c-2.2,0-4.2,1.2-5.3,3.2c-0.3,0.5-0.6,1-1.1,1.4C13.2,21,14,17.4,15.1,14z M8.2,41.2C8,40.7,8,40.2,8,39.7c0.1-1.5-0.2-3-1-4.2
		c-1.3-2.1-1.3-4.8,0-6.9c0.8-1.3,1.1-2.7,1-4.2c0-0.5,0-1,0.2-1.5c0.5-1.4,1.7-2.5,3.2-2.7c-1.8,7.8-1.9,16-0.3,23.8
		C9.8,43.6,8.6,42.6,8.2,41.2z M17.7,52h-0.1c-1.2,0-2.2-0.7-2.6-1.8c-1.3-3.5-2.1-7.2-2.6-10.9c0.6,0.4,1,1,1.3,1.6
		c1,2,3.1,3.2,5.3,3.2c0,0,0.1,0,0.2,0c0.4,1.7,0.8,3.4,1.4,5.1c0,0.8-0.3,1.5-0.8,2C19.2,51.7,18.5,52,17.7,52z M28,50.9
		c-0.5,0.7-1.3,1.1-2.2,1.1h-0.1c-1.2,0-2.2-0.7-2.6-1.8c-0.8-2.1-1.4-4.3-1.9-6.6c1.4-0.5,2.5-1.5,3.2-2.8c0.3-0.7,0.8-1.3,1.5-1.7
		c0.2-0.1,0.4-0.3,0.7-0.5c0.4,3.3,1.1,6.6,2,9.8C28.7,49.3,28.5,50.2,28,50.9z M31,35.4c-0.9,1.5-1.3,3.3-1.1,5
		c0.1,0.5,0.1,1-0.1,1.5c-0.1,0.5-0.4,1-0.7,1.5c-1.6-7.5-1.6-15.3,0-22.8c0.3,0.4,0.6,0.9,0.7,1.5c0.1,0.5,0.1,1,0.1,1.5
		c-0.2,1.7,0.1,3.5,1.1,5C32.3,30.7,32.3,33.3,31,35.4L31,35.4z"/>
	<path d="M59.4,28.1c-0.4-0.2-0.8-0.1-1.1,0.2L57,29.6V28c0-0.3-0.1-0.5-0.3-0.7L53,23.6v-1.2l2.7-2.7c0.4-0.4,0.4-1,0-1.4l-3-3
		c-0.4-0.4-1-0.4-1.4,0L51,15.6V12c0-0.6-0.4-1-1-1c-0.3,0-0.5,0.1-0.7,0.3L48.6,12H33c-0.6,0-1,0.4-1,1c0,0.3,0.1,0.5,0.3,0.7
		l2.3,2.3H33c-0.6,0-1,0.4-1,1c0,0.3,0.1,0.5,0.3,0.7l4,4l1.3,1.3l-2.3,2.3c-0.4,0.4-0.4,1,0,1.4l2.3,2.3l-0.3,0.3
		C37.1,29.5,37,29.7,37,30v5.6l-2.7,2.7c-0.4,0.4-0.4,1,0,1.4l3,3c0.4,0.4,1,0.4,1.4,0l0.3-0.3V50c0,0.6,0.4,1,1,1h3v1
		c0,0.6,0.4,1,1,1h4c0.6,0,1-0.4,1-1v-3h3c0.6,0,1-0.4,1-1v-3h3c0.6,0,1-0.4,1-1v-5.6l2.7-2.7c0.2-0.2,0.3-0.4,0.3-0.7v-6
		C60,28.6,59.8,28.2,59.4,28.1z M45,36.4l2-2v5.2l-2,2V36.4z M49,34.4l1.6,1.6L49,37.6V34.4z M39.4,22h3.2l11,11L52,34.6L39.4,22z
		 M51,27.6L49.4,26l1.6-1.6V27.6z M55,31.6l-2-2v-3.2l2,2V31.6z M52,17.4l1.6,1.6L48,24.6L46.4,23l4.3-4.3l0,0L52,17.4z M45,21.6
		l-1.3-1.3c-0.1-0.1-0.2-0.2-0.4-0.2l5.7-5.7v3.2L45,21.6z M35.4,14h11.2l-2,2h-7.2L35.4,14z M42.6,18l-2,2h-3.2l-2-2H42.6z
		 M39,24.4l1.6,1.6L39,27.6L37.4,26L39,24.4z M39,30.4l0.7-0.7l2.3-2.3l1.6,1.6L39,33.6V30.4z M38,40.6L36.4,39l2.3-2.3l0,0l6.3-6.3
		l1.6,1.6L38,40.6z M41,49v-8.6l2-2V49H41z M47,51h-2v-6.6l2,2V51z M49,47v-0.6l2-2V47H49z M55,43h-2v-0.6l2-2V43z M58,34.6l-10,10
		L46.4,43L58,31.4V34.6z"/>
	<circle style="fill:#DE9702;" cx="14.1" cy="27.4" r="0.4"/>
	<circle style="fill:#DE9702;" cx="14.1" cy="30.7" r="0.4"/>
	<circle style="fill:#DE9702;" cx="17.1" cy="27.7" r="0.4"/>
	<circle style="fill:#DE9702;" cx="16.4" cy="29.2" r="0.4"/>
	<circle style="fill:#DE9702;" cx="13.4" cy="28.8" r="0.4"/>
	<circle style="fill:#DE9702;" cx="16.3" cy="31.1" r="0.4"/>
</g>
<circle style="fill:#DE9702;" cx="23" cy="27" r="0.4"/>
<circle style="fill:#DE9702;" cx="20.9" cy="29.6" r="0.4"/>
<circle style="fill:#DE9702;" cx="25.1" cy="29.1" r="0.4"/>
<circle style="fill:#DE9702;" cx="23.6" cy="29.8" r="0.4"/>
<circle style="fill:#DE9702;" cx="21.5" cy="27.7" r="0.4"/>
<circle style="fill:#DE9702;" cx="22.4" cy="31.2" r="0.4"/>
<circle style="fill:#DE9702;" cx="14.9" cy="32.9" r="0.4"/>
<circle style="fill:#DE9702;" cx="16.4" cy="35.9" r="0.4"/>
<circle style="fill:#DE9702;" cx="17.7" cy="31.9" r="0.4"/>
<circle style="fill:#DE9702;" cx="17.7" cy="33.6" r="0.4"/>
<circle style="fill:#DE9702;" cx="14.9" cy="34.6" r="0.4"/>
<circle style="fill:#DE9702;" cx="18.5" cy="35.3" r="0.4"/>
<circle style="fill:#DE9702;" cx="24.1" cy="33.5" r="0.4"/>
<circle style="fill:#DE9702;" cx="21" cy="34.5" r="0.4"/>
<circle style="fill:#DE9702;" cx="24.7" cy="36.4" r="0.4"/>
<circle style="fill:#DE9702;" cx="23" cy="36.2" r="0.4"/>
<circle style="fill:#DE9702;" cx="22.5" cy="33.2" r="0.4"/>
<circle style="fill:#DE9702;" cx="21.3" cy="36.7" r="0.4"/>
<circle style="fill:#DE9702;" cx="18.4" cy="26.5" r="0.3"/>
<circle style="fill:#DE9702;" cx="19.1" cy="29.7" r="0.3"/>
<circle style="fill:#DE9702;" cx="22.4" cy="33.9" r="0.3"/>
<circle style="fill:#DE9702;" cx="20.5" cy="31.5" r="0.3"/>
<circle style="fill:#DE9702;" cx="20.1" cy="35.3" r="0.3"/>
<circle style="fill:#DE9702;" cx="19.8" cy="33.8" r="0.3"/>
<circle style="fill:#DE9702;" cx="22.1" cy="32.4" r="0.3"/>
<circle style="fill:#DE9702;" cx="18.8" cy="32.5" r="0.3"/>
</svg>
