<?xml version="1.0" encoding="utf-8"?>
<!-- Generator: Adobe Illustrator 28.0.0, SVG Export Plug-In . SVG Version: 6.00 Build 0)  -->
<svg version="1.1" id="Ebene_1" xmlns="http://www.w3.org/2000/svg" xmlns:xlink="http://www.w3.org/1999/xlink" x="0px" y="0px"
	 viewBox="0 0 81.5 88.3" style="enable-background:new 0 0 81.5 88.3;" xml:space="preserve">
<g>
	<polygon style="fill:#F8C7C9;" points="4.9,33.8 12.3,26.1 29.8,18.6 46,17.7 58.6,21.2 65.8,25.1 74.3,31.4 78.4,36.3 73.4,71.5 
		61.8,82.8 44.8,87.2 26.4,84.8 16.7,80.3 8.7,71.3 3.2,34.7 	"/>
	<polygon style="fill:#731324;" points="54,35.4 58.7,38 61.3,43.3 58.9,48.7 50.8,53.5 39.9,54.8 27.7,52.7 21.1,48.3 19.8,41.8 
		25.8,36.4 29.6,35.6 	"/>
	<polygon style="fill:#E52320;" points="37.7,23 44.4,23.5 52.3,28.4 54.3,33.9 48.3,39.4 37.6,42.8 30.7,37 29.7,26.7 	"/>
	<path d="M81.5,25.1C81.5,11.3,63.2,0,40.7,0S0,11.3,0,25.1c0,1,0.1,1.9,0.3,2.9c-0.1,0.2-0.1,0.4,0,0.6l6.9,41.8
		c0,0.1,0.1,0.3,0.1,0.4c0.3,0.7,8.6,17.5,34.9,17.5c0.3,0,0.6,0,0.9,0C67.5,88,74.7,70.8,75,70.1c0-0.1,0.1-0.2,0.1-0.3l6.3-42.3
		c0-0.1,0-0.3,0-0.4C81.4,26.4,81.5,25.8,81.5,25.1L81.5,25.1z M40.7,47.2c-7.1,0-13.7-1.2-19.4-3.2c0-0.3,0.1-0.6,0.2-0.9
		c1.4-4.2,5.7-5.4,7.4-5.7c0.1,0.2,0.1,0.3,0.2,0.5c-1.4,0.7-3.5,2-4.5,4.7c-0.3,0.8,0.1,1.6,0.8,1.9c0.2,0.1,0.4,0.1,0.6,0.1
		c0.6,0,1.2-0.4,1.4-0.9c0.8-1.9,2.3-2.8,3.2-3.2c0.2,0.3,0.4,0.5,0.6,0.7c-0.6,0.6-1.3,1.6-1.7,3.1c-0.2,0.8,0.2,1.6,1,1.9
		c0.2,0,0.3,0.1,0.5,0.1c0.6,0,1.2-0.4,1.4-1c0.4-1.1,0.9-1.8,1.2-2.1c1.4,0.8,3.1,1.3,4.8,1.3v0.7c0,0.8,0.7,1.5,1.5,1.5
		s1.5-0.7,1.5-1.5V44c1.3-0.3,2.8-0.7,4.4-1.3c0.5,0.5,1.2,1.3,1.7,2.4c0.2,0.6,0.8,0.9,1.4,0.9c0.2,0,0.4,0,0.6-0.1
		c0.8-0.3,1.1-1.2,0.8-2c-0.4-1-1-1.8-1.6-2.4c0.5-0.3,1.1-0.6,1.6-0.9c0.3,0,2.1,0.4,3.1,3.1c0.2,0.6,0.8,1,1.4,1
		c0.2,0,0.4,0,0.5-0.1c0.8-0.3,1.2-1.2,0.9-1.9c-0.9-2.2-2.1-3.5-3.3-4.2c0.3-0.3,0.6-0.6,0.9-1c1.4-0.1,3.1,0.8,4.4,2.3
		c1.2,1.4,1.9,3.1,1.8,4.6C54.3,46.1,47.7,47.2,40.7,47.2L40.7,47.2z M57.7,47.9c-3.2,2.9-9.7,5.6-18.4,5.4
		c-7.4-0.1-14.1-2.5-16.8-5.8c5.5,1.7,11.7,2.7,18.2,2.7C46.8,50.2,52.5,49.4,57.7,47.9L57.7,47.9z M52.6,33.6
		c-1.6,3.9-7.8,6.9-12.9,7.7c-3.7,0.6-5.9-1.4-7-3.1c-1-1.5-1.5-3.4-1.7-5.2c0.8,0.1,1.2,0.2,1.3,0.2c0.8,0.2,1.6-0.3,1.8-1.1
		c0.2-0.8-0.3-1.6-1.1-1.8c-0.1,0-0.8-0.2-1.8-0.3c0.2-1,0.5-1.9,1-2.6c1.5-2.4,4.1-3.3,6.9-3.3c1.8,0,3.6,0.4,5.1,0.9
		c2.6,0.9,7,3.3,8.2,6C52.9,31.9,52.9,32.7,52.6,33.6L52.6,33.6z M62.9,43c-0.2-1.9-1.1-3.8-2.5-5.4c-1.4-1.6-3.2-2.7-5-3.1
		c0.6-1.6,0.5-3.2-0.2-4.8c-1.8-3.9-7.1-6.6-9.9-7.6c-6.6-2.3-12.7-0.9-15.5,3.6c-0.8,1.2-1.3,2.6-1.6,4.1
		c-3.6,0.1-8.7,1.1-13.2,5.1c-0.6,0.5-0.7,1.5-0.1,2.1c0.3,0.3,0.7,0.5,1.1,0.5c0.3,0,0.7-0.1,1-0.4c3.8-3.3,8-4.2,11.1-4.3
		c0,0.6,0.1,1.2,0.2,1.7c-2.4,0.5-7.6,2.1-9.5,7.7c-0.1,0.2-0.1,0.5-0.2,0.8c-5.1-2.2-9.3-5.2-12-8.6c1.6-2.7,9.4-13.6,31.4-14.4
		c12.9-0.5,22.4,3.7,28,7.2c4.9,3.1,7.9,6.4,8.9,7.5C72,38,67.9,40.9,62.9,43L62.9,43z M40.7,3c20.8,0,37.7,9.9,37.7,22.1
		c0,2.5-0.7,4.9-2,7.1c-3.5-4-16.1-16.1-38.7-15.2c-21,0.8-30.1,10.4-33.1,14.7C3.6,29.6,3,27.4,3,25.1C3,12.9,19.9,3,40.7,3L40.7,3
		z M43,85.3c-13.1,0.2-21.3-4.1-26-7.7c-4.4-3.5-6.5-7.1-6.9-7.9L8,57.1c4.7,4.2,14.9,11,33,11.3c0.4,0,0.8,0,1.2,0
		c17.6,0,27.4-7,31.8-11.3l-1.8,12.1C71.4,70.9,64.5,85,43,85.3L43,85.3z M74.8,51.6c-0.2,0.1-0.3,0.3-0.4,0.4c0,0-2.3,3.5-7.4,6.9
		C62.1,62,53.7,65.6,41,65.4C16.9,65,7.5,52.2,7.4,52c-0.1-0.1-0.1-0.2-0.2-0.2L4.6,36.7c3.2,3.8,8,7.1,13.9,9.4
		c0.2,1,0.7,1.9,1.3,2.8c3.1,4.4,10.6,7.3,19.4,7.4c0.3,0,0.5,0,0.8,0c12,0,20.6-4.9,22.5-10.1c6.1-2.4,11.2-5.8,14.5-9.8L74.8,51.6
		z"/>
	<path d="M37,28.5c0.6,0,1.1-0.4,1.1-0.9c0-0.5-0.5-0.9-1.1-0.9s-1.1,0.4-1.1,0.9S36.4,28.5,37,28.5z"/>
	<path d="M44.6,29c-0.6,0-1.1,0.4-1.1,0.9c0,0.5,0.5,0.9,1.1,0.9s1.1-0.4,1.1-0.9S45.3,29,44.6,29z"/>
	<path d="M36.9,37.4c-0.6,0-1.1,0.4-1.1,0.9c0,0.5,0.5,0.9,1.1,0.9s1.1-0.4,1.1-0.9S37.5,37.4,36.9,37.4z"/>
	<path d="M43.7,35.6c-0.6,0-1.1,0.4-1.1,0.9c0,0.5,0.5,0.9,1.1,0.9s1.1-0.4,1.1-0.9S44.3,35.6,43.7,35.6z"/>
	<path d="M50.3,32c-0.6,0-1.1,0.4-1.1,0.9c0,0.5,0.5,0.9,1.1,0.9s1.1-0.4,1.1-0.9S51,32,50.3,32z"/>
	<path d="M39.5,32.9c0,1.1-2.3,1.1-2.3,0C37.3,31.7,39.5,31.7,39.5,32.9"/>
</g>
</svg>
