<?xml version="1.0" encoding="utf-8"?>
<!-- Generator: Adobe Illustrator 28.0.0, SVG Export Plug-In . SVG Version: 6.00 Build 0)  -->
<svg version="1.1" id="Ebene_1" xmlns="http://www.w3.org/2000/svg" xmlns:xlink="http://www.w3.org/1999/xlink" x="0px" y="0px"
	 viewBox="0 0 480 480" style="enable-background:new 0 0 480 480;" xml:space="preserve">
<polygon style="fill:#F28A1E;" points="4.1,37.7 230.1,40 230.7,101.5 3.5,105 "/>
<polygon style="fill:#616160;" points="468.9,429.3 469.5,472 310.3,472.6 305.6,424.6 471.2,423.4 "/>
<polygon style="fill:#FFED8A;" points="279.8,9.6 279.8,11.9 280.4,135.4 473.6,135.4 471.8,6.1 "/>
<polygon style="fill:#FFED8A;" points="311.4,311 471.2,314 473.6,424 315.5,424 "/>
<polygon style="fill:#575756;" points="374.7,52.3 405.7,65.2 426.8,101.5 331.3,105.6 331.9,79.2 "/>
<polygon style="fill:#F9E927;" points="10.6,360.2 64.4,362.6 70.3,392.4 10,393 "/>
<polygon style="fill:#E41D19;" points="86.1,184 204.9,181.1 228.3,211 55,216.2 "/>
<polygon style="fill:#E41D19;" points="39.2,296.4 245.3,294.1 277.5,360.2 227.1,359.6 210.8,371.9 77.3,374.3 51,358.5 12.9,359 
	"/>
<polygon style="fill:#E41D19;" points="10,264.8 45.7,263 36.3,296.4 9.4,292.3 "/>
<polygon style="fill:#941914;" points="10,393 11.1,417.6 28.1,422.9 111.2,427 111.2,379.5 67.9,380.7 64.4,391.2 8.8,388.3 "/>
<polygon style="fill:#941914;" points="178,377.8 179.7,427 268.7,426.4 281.6,394.2 220.1,391.8 210.8,376 "/>
<polygon style="fill:#1D1D1B;" points="200.2,429.3 200.2,460.9 217.8,473.8 251.1,472.6 264,462.7 260.5,424.6 "/>
<polygon style="fill:#1D1D1B;" points="89.6,428.7 89.5,431 87.8,464.4 65.6,475.5 25.8,467.3 24,424 89.6,422.9 "/>
<polygon style="fill:#16162F;" points="111.2,379.5 111.2,381.9 111.2,427 176.2,427.5 175.6,377.8 "/>
<polygon style="fill:#693A0E;" points="412.7,218 412.7,237.3 400.4,249 369.4,249 369.4,221.5 "/>
<polygon style="fill:#F7B9AB;" points="375.2,249 378.2,273.6 387,281.8 406.3,273 409.2,249 "/>
<polygon style="fill:#F28A1E;" points="282.8,134.9 267,166.5 471.8,167.6 471.8,132.5 "/>
<polygon style="fill:#E41D19;" points="240.6,264.2 253.5,296.4 278.1,290 276.9,267.1 "/>
<polygon style="fill:#F28A1E;" points="366.5,271.8 357.7,292.3 361.2,308.1 427.3,311 422.7,281.8 411,271.8 397.5,278.3 
	383.4,274.2 "/>
<polygon style="fill:#B7DAF4;" points="57.4,218.6 229.5,215 245.3,294.1 43.9,296.4 "/>
<polygon style="fill:#F9E927;" points="277.5,360.2 227.1,359.6 218.4,376 220.1,391.8 271.6,391.8 "/>
<path d="M472,0H280c-4.4,0-8,3.6-8,8v40h-32v-8c0-4.4-3.6-8-8-8H8c-4.4,0-8,3.6-8,8v64c0,4.4,3.6,8,8,8h224c4.4,0,8-3.6,8-8v-8h32
	v38.1l-15.2,30.3c-2,4-0.4,8.8,3.6,10.7c1.1,0.6,2.3,0.8,3.6,0.8h40v296c0,4.4,3.6,8,8,8h160c4.4,0,8-3.6,8-8V8
	C480,3.6,476.4,0,472,0z M224,96H16V48h208V96z M272,80h-32V64h32V80z M464,464H320v-32h144V464z M464,416H320v-96h144V416z
	 M376,240v-8c0-4.4,3.6-8,8-8h24v8c0,4.4-3.6,8-8,8H376z M400,256v8c0,4.4-3.6,8-8,8s-8-3.6-8-8v-8H400z M392,288
	c6.7,0,13.2-2.8,17.7-7.8c3.7,0.8,6.3,4.1,6.3,7.8v16h-48v-16c0-3.8,2.6-7,6.3-7.8C378.8,285.2,385.3,288,392,288z M464,304h-32v-16
	c0-10.2-6.4-19.3-16-22.6c0-0.5,0-0.9,0-1.4v-14.1c5.1-4.5,8-11,8-17.9v-16c0-4.4-3.6-8-8-8h-32c-13.2,0-24,10.8-24,24v16
	c0,4.4,3.6,8,8,8v8c0,0.5,0,0.9,0,1.4c-9.6,3.4-16,12.5-16,22.6v16h-32V176h144V304z M464,160H276.9l8-16H464V160z M464,128H288V16
	h176V128z"/>
<path d="M312,112h128c4.4,0,8-3.6,8-8s-3.6-8-8-8h-8.6c-3.6-24.6-22.9-43.8-47.4-47.4V40c0-4.4-3.6-8-8-8s-8,3.6-8,8v8.6
	c-24.6,3.6-43.8,22.9-47.4,47.4H312c-4.4,0-8,3.6-8,8S307.6,112,312,112z M376,64c19,0,35.4,13.4,39.2,32h-78.4
	C340.6,77.4,357,64,376,64z"/>
<path d="M281,297c9.4-9.4,9.3-24.6,0-34c-4.5-4.5-10.6-7-16.9-7h-15.8l-8.3-41.6c-0.2-1.2-0.7-2.3-1.4-3.2L224,192
	c-7.6-10-19.4-16-32-16H96c-12.6,0-24.4,6-32,16l-14.4,19.2c-0.7,1-1.2,2.1-1.4,3.2L39.8,256H24c-13.3,0-24,10.7-24,24
	s10.7,24,24,24h3.1L0.8,356.4C0.3,357.5,0,358.8,0,360v48c0,10.2,6.4,19.2,16,22.6V456c0,13.2,10.8,24,24,24h32
	c13.2,0,24-10.8,24-24v-24h96v24c0,13.2,10.8,24,24,24h32c13.2,0,24-10.8,24-24v-25.4c9.6-3.4,16-12.5,16-22.6v-48
	c0-1.2-0.3-2.5-0.8-3.6L260.9,304h3.1C270.4,304,276.5,301.5,281,297z M76.8,201.6c4.5-6,11.7-9.6,19.2-9.6h96
	c7.5,0,14.7,3.6,19.2,9.6l4.8,6.4H72L76.8,201.6z M62.6,224h162.9l12.8,64H49.8L62.6,224z M24,288c-4.4,0-8-3.6-8-8s3.6-8,8-8h12.6
	l-3.2,16H24z M16,368h40c4.4,0,8,3.6,8,8v8H16V368z M80,456c0,4.4-3.6,8-8,8H40c-4.4,0-8-3.6-8-8v-24h48V456z M104,416H24
	c-4.4,0-8-3.6-8-8v-8h56c4.4,0,8-3.6,8-8v-8h24V416z M168,416h-48v-32h48V416z M256,456c0,4.4-3.6,8-8,8h-32c-4.4,0-8-3.6-8-8v-24
	h48V456z M272,408c0,4.4-3.6,8-8,8h-80v-32h24v8c0,4.4,3.6,8,8,8h56V408z M272,384h-48v-8c0-4.4,3.6-8,8-8h40V384z M267.1,352H232
	c-10.2,0-19.2,6.4-22.6,16H78.6c-3.4-9.6-12.5-16-22.6-16H20.9l24-48h198.1L267.1,352z M254.6,288l-3.2-16H264c4.4,0,8,3.6,8,8
	s-3.6,8-8,8H254.6z"/>
</svg>
