<?xml version="1.0" encoding="utf-8"?>
<!-- Generator: Adobe Illustrator 28.0.0, SVG Export Plug-In . SVG Version: 6.00 Build 0)  -->
<svg version="1.1" id="Ebene_1" xmlns="http://www.w3.org/2000/svg" xmlns:xlink="http://www.w3.org/1999/xlink" x="0px" y="0px"
	 viewBox="0 0 76.9 76.9" style="enable-background:new 0 0 76.9 76.9;" xml:space="preserve">
<circle style="fill:#E6DECC;stroke:#000000;stroke-width:2;stroke-miterlimit:10;" cx="38.5" cy="38.5" r="37.5"/>
<polygon style="fill:#84C178;" points="10.5,38.7 21.3,38.6 22,39.6 20,43.3 20.3,46.5 22.1,48.5 25.8,49 28,46.7 28.4,41.5 
	26.6,39.9 27.4,38.3 36,38.3 38,38.7 38.1,49.3 39.9,49.5 43.3,48 47.5,48.7 48.7,51.8 47.4,55.8 44.1,57.2 40.3,55.2 37.6,55.2 
	37.9,66 30.5,65.2 24.2,62.9 17,56.7 12.9,49.9 10.8,44.4 "/>
<polygon style="fill:#7782BF;" points="38.4,66.1 38.3,55.3 39.2,54.6 42.9,56.5 46.1,56.3 48.2,54.5 48.7,50.8 46.4,48.6 
	41.1,48.2 39.5,50 37.9,49.2 38,40.5 38.3,38.6 48.9,38.5 49.1,36.7 47.7,33.3 48.4,29.1 51.4,27.9 55.4,29.2 56.8,32.4 54.9,36.3 
	54.9,39 65.7,38.7 64.8,46 62.6,52.3 56.4,59.6 49.5,63.7 44,65.8 "/>
<polygon style="fill:#F2E968;" points="37.7,10.9 37.8,21.7 36.9,22.4 33.2,20.5 30,20.7 27.9,22.5 27.4,26.2 29.7,28.4 35,28.8 
	36.6,27 38.2,27.8 38.1,36.5 37.8,38.4 27.2,38.5 27,40.3 28.4,43.7 27.7,47.9 24.7,49.1 20.7,47.8 19.3,44.6 21.2,40.7 21.2,38 
	10.4,38.3 11.3,31 13.5,24.7 19.7,17.4 26.6,13.3 32.1,11.2 "/>
<polygon style="fill:#EC6063;" points="65.7,38.2 54.9,38.3 54.2,37.3 56.1,33.7 55.9,30.4 54.1,28.4 50.4,27.9 48.2,30.2 
	47.8,35.4 49.6,37 48.8,38.6 40.1,38.6 38.2,38.2 38.1,27.7 36.3,27.4 32.9,28.9 28.7,28.2 27.5,25.1 28.8,21.2 32,19.8 35.9,21.7 
	38.6,21.7 38.3,10.9 45.6,11.8 51.9,14 59.2,20.2 63.2,27.1 65.4,32.5 "/>
<path d="M38.2,9.6h-0.1C22.1,9.7,9.2,22.6,9.1,38.6v0.1c0.1,15.9,13,28.9,28.9,28.9h0.1c16,0,28.9-13,28.9-28.9l0,0v-0.1l0,0
	C67.1,22.6,54.2,9.7,38.2,9.6z M65.1,40.5c0,0.2,0,0.5-0.1,0.7c-0.1,0.2,0,0.4-0.1,0.6s0,0.5-0.1,0.7l-0.1,0.6
	c0,0.2-0.1,0.5-0.1,0.7l-0.1,0.6c0,0.2-0.1,0.5-0.2,0.7l-0.2,0.6c-0.1,0.2-0.1,0.5-0.2,0.7s-0.1,0.4-0.2,0.6s-0.2,0.5-0.2,0.7
	l-0.2,0.5l-0.3,0.7l-0.2,0.5c-0.1,0.2-0.2,0.5-0.3,0.7s-0.2,0.3-0.2,0.5s-0.2,0.5-0.3,0.7s-0.2,0.3-0.2,0.5s-0.3,0.4-0.4,0.7
	s-0.2,0.3-0.3,0.4l-0.4,0.7l-0.3,0.4c-0.2,0.2-0.3,0.5-0.5,0.7s-0.2,0.2-0.3,0.3s-0.4,0.5-0.6,0.7s-0.1,0.2-0.2,0.3
	c-0.2,0.3-0.5,0.5-0.7,0.8l-0.1,0.1c-0.6,0.6-1.2,1.2-1.8,1.8l-0.1,0.1c-0.3,0.2-0.6,0.5-0.8,0.7l-0.3,0.2l-0.7,0.6L54,60.5
	c-0.2,0.2-0.5,0.3-0.7,0.5l-0.4,0.2l-0.7,0.4l-0.4,0.2l-0.7,0.4l-0.5,0.2L50,62.9l-0.5,0.2l-0.7,0.3l-0.5,0.2l-0.7,0.3l-0.5,0.2
	l-0.7,0.2l-0.5,0.2l-0.7,0.2l-0.5,0.1L43.9,65l-0.6,0.1l-0.7,0.1L42,65.3l-0.7,0.1l-0.6,0.1L40,65.6h-0.6h-0.2v-9.6
	c0.2-0.1,0.4-0.1,0.6,0.1c1.2,1.2,2.9,1.9,4.6,1.9c2.9,0,5.3-2.3,5.4-5.3s-2.3-5.3-5.3-5.4c-0.1,0-0.2,0-0.4,0
	c-0.4,0-0.8,0.1-1.1,0.2c-1.2,0.3-2.2,0.9-3.1,1.7c-0.1,0.1-0.1,0.1-0.2,0.1c-0.2,0.1-0.3,0.1-0.5,0v-9.6h10c0.4,0,0.7-0.1,1-0.4
	l0,0l0,0c0.9-1,0.9-2.6,0-3.6c-0.2-0.2-0.4-0.5-0.6-0.7c-0.5-0.7-0.7-1.5-0.7-2.3c-0.1-1,0.3-2,1.1-2.7c0.5-0.4,1-0.7,1.6-0.8
	c1.8-0.3,3.5,0.9,3.8,2.7c0,0.2,0,0.4,0,0.6c0,1.2-0.5,2.3-1.4,3.2c-0.9,1-0.9,2.4,0,3.4l0.1,0.1c0.3,0.3,0.6,0.4,1,0.5h10v0.2
	C65.1,40.1,65.1,40.3,65.1,40.5z M36.9,65.6h-0.6l-0.7-0.1L35,65.5c-0.2,0-0.5,0-0.7-0.1l-0.6-0.1L33,65.2l-0.6-0.1l-0.7-0.2
	l-0.5-0.2l-0.7-0.2l-0.6-0.2l-0.8-0.2l-0.5-0.2L28,63.6l-0.5-0.2l-0.7-0.3l-0.5-0.2l-0.7-0.3c-0.1-0.1-0.3-0.2-0.5-0.2l-0.6-0.4
	L24,61.6l-0.7-0.4L23,60.9c-0.2-0.2-0.5-0.3-0.7-0.5L22,60.2c-0.2-0.2-0.5-0.4-0.7-0.6L21,59.4c-0.3-0.2-0.5-0.5-0.8-0.7L20,58.6
	c-0.6-0.6-1.2-1.2-1.8-1.8l0-0.2c-0.2-0.3-0.5-0.6-0.7-0.8l-0.3-0.2c-0.2-0.2-0.4-0.5-0.6-0.7l-0.2-0.3c-0.2-0.2-0.3-0.5-0.5-0.7
	s-0.2-0.3-0.2-0.4s-0.3-0.5-0.4-0.7l-0.2-0.4l-0.4-0.7l-0.2-0.5c-0.1-0.2-0.2-0.5-0.3-0.7L13.7,50c-0.1-0.2-0.2-0.5-0.3-0.7
	l-0.2-0.5l-0.3-0.7c-0.1-0.2-0.1-0.3-0.2-0.5l-0.2-0.7c-0.1-0.2-0.1-0.4-0.2-0.5l-0.2-0.8c-0.1-0.2-0.1-0.4-0.1-0.5
	s-0.1-0.5-0.2-0.7l-0.1-0.6c0-0.2-0.1-0.5-0.1-0.7l-0.1-0.6c0-0.2-0.1-0.5-0.1-0.7l-0.1-0.6c0-0.2,0-0.5-0.1-0.7
	c-0.1-0.2,0-0.4,0-0.6v-0.2h9.7c0.1,0.2,0.1,0.4-0.1,0.6c-1.2,1.2-1.9,2.9-1.9,4.6c0,1.5,0.7,3,1.9,4c0.2,0.2,0.4,0.3,0.7,0.5
	l0.1,0.1c0.2,0.1,0.5,0.2,0.7,0.3h0.1c0.2,0.1,0.5,0.1,0.7,0.2h0.1c0.3,0,0.5,0.1,0.8,0.1h0.2c0.3,0,0.5,0,0.8-0.1
	c2.7-0.4,4.6-2.8,4.4-5.5l0,0c-0.1-1.6-0.7-3.1-1.9-4.2c-0.2-0.2-0.2-0.4-0.1-0.7h9.7v10.1c0,0.4,0.1,0.7,0.4,1l0,0l0,0
	c1,0.9,2.6,0.9,3.6,0c0.2-0.2,0.5-0.4,0.7-0.6c0.7-0.5,1.5-0.7,2.3-0.7h0.1c1.8-0.1,3.4,1.3,3.4,3.2c0,0.8-0.2,1.7-0.8,2.3
	c-0.6,0.7-1.6,1.2-2.5,1.2c-1.2,0-2.3-0.5-3.2-1.4c-1-0.9-2.4-0.9-3.4,0l-0.1,0.1c-0.3,0.3-0.4,0.6-0.5,1v10H36.9z M11.2,36.8
	c0-0.2,0-0.5,0.1-0.7c0.1-0.2,0-0.4,0.1-0.6c0.1-0.2,0-0.5,0.1-0.7l0.1-0.6c0-0.2,0.1-0.5,0.1-0.7l0.1-0.6c0-0.2,0.1-0.5,0.2-0.7
	l0.1-0.5c0.1-0.2,0.1-0.5,0.2-0.7s0.1-0.4,0.2-0.6c0.1-0.2,0.2-0.5,0.2-0.7l0.2-0.5l0.3-0.7l0.2-0.5c0.1-0.2,0.2-0.5,0.3-0.7
	c0.1-0.2,0.1-0.3,0.2-0.5s0.2-0.5,0.3-0.7c0.1-0.2,0.2-0.3,0.2-0.5s0.2-0.4,0.4-0.6s0.2-0.3,0.3-0.5l0.4-0.7l0.3-0.4
	c0.1-0.2,0.3-0.5,0.5-0.7s0.2-0.2,0.3-0.4s0.4-0.5,0.6-0.7c0.1-0.1,0.1-0.2,0.2-0.3c0.2-0.3,0.5-0.5,0.7-0.8l0.1-0.1
	c0.6-0.6,1.2-1.2,1.8-1.8l0.1,0c0.3-0.2,0.6-0.5,0.9-0.7l0.3-0.2l0.7-0.6l0.3-0.2c0.2-0.2,0.5-0.3,0.7-0.5l0.4-0.2l0.6-0.5l0.4-0.2
	l0.7-0.4l0.5-0.2l0.7-0.4l0.5-0.2l0.7-0.3l0.5-0.2l0.7-0.3l0.5-0.2l0.7-0.2l0.5-0.2l0.7-0.2l0.5-0.1l0.7-0.2l0.6-0.1l0.7-0.1
	l0.6-0.1l0.7-0.1l0.6-0.1l0.7-0.1h0.6h0.3v9.7c-0.2,0.1-0.4,0.1-0.6-0.1c-1.2-1.2-2.9-1.9-4.6-1.9c-2.8,0-5.1,2.2-5.3,5
	c0,0.4,0,0.8,0.1,1.2c0.4,2.7,2.8,4.6,5.5,4.4h0.1c1.6-0.1,3.1-0.7,4.2-1.9c0.2-0.2,0.4-0.2,0.7-0.1v9.7H27.1c-0.4,0-0.7,0.1-1,0.4
	l0,0l0,0c-0.9,1-0.9,2.6,0,3.6c0.2,0.2,0.4,0.5,0.6,0.7c0.5,0.7,0.7,1.5,0.7,2.3c0.1,1-0.3,2-1.1,2.7c-0.5,0.4-1,0.7-1.6,0.8
	c-1.8,0.3-3.5-0.9-3.8-2.7c0-0.2,0-0.4,0-0.6c0-1.2,0.5-2.3,1.4-3.2c0.9-1,0.9-2.4,0-3.4l-0.1-0.2c-0.3-0.3-0.6-0.4-1-0.4h-10v-0.2
	C11.1,37.2,11.2,37,11.2,36.8z M39.4,11.6H40l0.7,0.1l0.6,0.1c0.2,0,0.5,0,0.7,0.1l0.6,0.1l0.7,0.1l0.6,0.1l0.7,0.2l0.6,0.1l0.7,0.2
	c0.2,0.1,0.4,0.1,0.6,0.2l0.7,0.2l0.5,0.2l0.7,0.3l0.5,0.2l0.7,0.3l0.5,0.2l0.7,0.3l0.5,0.2l0.7,0.4c0.2,0.1,0.3,0.2,0.5,0.3
	l0.7,0.4l0.4,0.3l0.7,0.5l0.4,0.3c0.2,0.2,0.5,0.4,0.7,0.5l0.3,0.2l0.8,0.7l0.2,0.1c0.6,0.6,1.2,1.2,1.8,1.8l0.1,0.2l0.7,0.8
	l0.2,0.3c0.2,0.2,0.4,0.5,0.5,0.7c0.2,0.2,0.2,0.2,0.3,0.4s0.3,0.4,0.5,0.6s0.2,0.3,0.3,0.4s0.3,0.4,0.4,0.6s0.2,0.3,0.3,0.5
	l0.4,0.6L62,26l0.3,0.6l0.2,0.5c0.1,0.2,0.2,0.4,0.3,0.6s0.2,0.4,0.2,0.5l0.3,0.7l0.2,0.5l0.2,0.7c0.1,0.2,0.1,0.4,0.2,0.6
	c0.1,0.2,0.1,0.5,0.2,0.7l0.2,0.6c0,0.2,0.1,0.5,0.2,0.7l0.1,0.6c0,0.2,0.1,0.5,0.1,0.7l0.1,0.6c0,0.2,0.1,0.5,0.1,0.7
	c0,0.2,0,0.4,0.1,0.6c0,0.2,0,0.5,0.1,0.7c0.1,0.2,0,0.4,0,0.6v0.3h-9.6c-0.1-0.2-0.1-0.4,0.1-0.6c1.2-1.2,1.9-2.9,1.9-4.6
	c0-2.9-2.4-5.3-5.3-5.3c-0.3,0-0.6,0-0.9,0.1c-0.3,0.1-0.7,0.1-1,0.3c-2.2,0.8-3.6,2.9-3.5,5.3l0,0c0.1,1.6,0.8,3.1,1.8,4.2
	c0.2,0.2,0.2,0.4,0.2,0.7h-9.7v-10c0-0.4-0.1-0.7-0.4-1l0,0l0,0c-1-0.9-2.6-0.9-3.6,0c-0.2,0.2-0.5,0.4-0.7,0.6
	c-0.7,0.5-1.5,0.7-2.3,0.8h-0.1c-1.4,0.1-2.6-0.7-3.2-2c-0.1-0.2-0.2-0.5-0.2-0.7c0-0.2-0.1-0.5,0-0.7c0-0.2,0-0.3,0.1-0.5
	c0-0.1,0-0.2,0-0.3c0-0.2,0.1-0.3,0.2-0.5c0-0.1,0-0.1,0.1-0.2c0.1-0.2,0.3-0.4,0.4-0.6c0.6-0.7,1.6-1.2,2.5-1.2
	c1.2,0,2.4,0.5,3.2,1.4c1,0.9,2.4,0.9,3.4,0l0.1-0.1c0.3-0.3,0.4-0.6,0.5-1v-10H39.4z"/>
</svg>
