<?xml version="1.0" encoding="utf-8"?>
<!-- Generator: Adobe Illustrator 28.0.0, SVG Export Plug-In . SVG Version: 6.00 Build 0)  -->
<svg version="1.1" id="Ebene_1" xmlns="http://www.w3.org/2000/svg" xmlns:xlink="http://www.w3.org/1999/xlink" x="0px" y="0px"
	 viewBox="0 0 99.1 94.6" style="enable-background:new 0 0 99.1 94.6;" xml:space="preserve">
<polygon style="fill:#FFE560;" points="98,1.1 94.4,14 85.2,28.6 3.5,68.2 1.3,68.4 0.5,66.7 4.4,53.9 12.2,42.7 17.2,37.5 
	55.8,18.7 "/>
<path style="stroke:#000000;stroke-miterlimit:10;" d="M45.4,30.1c10.6-5.1,21.3-10,32.1-14.6c2.9-1.2,5.8-2.5,8.7-3.7
	c0.2-0.1,0.1-0.5-0.1-0.4c-10.8,4.4-21.4,9.2-31.9,14.1c-3,1.4-6,2.8-9,4.3C44.9,29.9,45.1,30.2,45.4,30.1z"/>
<path style="stroke:#000000;stroke-miterlimit:10;" d="M25.5,39.8c4.9-2.4,9.8-4.9,14.8-7.2c0.2-0.1,0-0.4-0.2-0.3
	c-4.9,2.4-9.9,4.8-14.8,7.3C25.1,39.6,25.3,39.9,25.5,39.8z"/>
<path style="stroke:#000000;stroke-miterlimit:10;" d="M82.1,27.5c-7.9,3.3-15.8,6.7-23.6,10.3c-8,3.7-16,7.4-23.9,11.3
	c-4.4,2.2-8.9,4.3-13.3,6.5c-0.2,0.1,0,0.4,0.2,0.3c7.8-3.9,15.7-7.7,23.6-11.5c8-3.8,16-7.4,24.1-11c4.3-1.9,8.6-3.7,13-5.5
	C82.4,27.8,82.3,27.4,82.1,27.5z"/>
<path style="stroke:#000000;stroke-miterlimit:10;" d="M89.3,17.4C80.1,21.1,71,25.1,62,29.2c-9.3,4.2-18.5,8.6-27.7,13
	c-5.1,2.5-10.3,5-15.4,7.6c-0.2,0.1,0,0.4,0.2,0.3c9.1-4.5,18.2-9,27.4-13.3c9.2-4.4,18.5-8.6,27.8-12.7c5-2.2,10-4.3,15.1-6.4
	C89.6,17.7,89.5,17.3,89.3,17.4z"/>
<path style="stroke:#000000;stroke-miterlimit:10;" d="M98.6,0.8c0.1-0.3-0.4-0.4-0.5-0.1c-5.1,1.7-10.1,3.8-15,5.9
	c-5.3,2.2-10.6,4.5-15.9,6.9c-10.9,4.9-21.8,10-32.5,15.3c-5.9,2.9-11.8,5.8-17.6,8.8c0,0,0,0,0,0c0,0,0,0,0,0
	C9.9,44.1,4.3,52.7,1.5,62.1c-0.3,1.1-0.7,2.3-0.9,3.5c-0.1,0.8-0.2,1.7,0.3,2.4c0.5,0.7,1.4,0.8,2.2,0.6c0.4-0.1,0.7-0.3,1.1-0.5
	c5-2.4,9.9-4.9,14.9-7.4c5.2-2.6,10.3-5.2,15.5-7.7c10.6-5.2,21.2-10.3,31.9-15.3c5.9-2.8,11.9-5.5,17.9-8.2c0.1,0,0.1,0,0.2,0
	c0.8-0.4,1.3-1.1,1.9-1.7c0.7-0.8,1.3-1.7,1.9-2.5c1.2-1.8,2.4-3.6,3.5-5.5c2.1-3.7,3.8-7.6,5.1-11.7C97.6,5.6,98.2,3.2,98.6,0.8z
	 M2.3,68.3c-1.4-0.1-1.4-1.5-1.2-2.6c0.2-1.1,0.5-2.2,0.8-3.3c1.3-4.4,3.2-8.6,5.7-12.6c2.7-4.4,6.1-8.4,9.9-12
	c0.2-0.1,0.3-0.2,0.5-0.2c-0.9,4.7-2.1,9.2-3.9,13.6c-1.8,4.3-4,8.5-6.7,12.3c-0.7,1-1.5,2-2.3,3C4.4,67.4,3.5,68.4,2.3,68.3z
	 M88.5,23.6c-0.7,1-1.4,1.9-2.1,2.9c-0.7,0.9-1.3,1.8-2.3,2.3C84,28.9,84,29,84,29c-10.6,4.7-21.2,9.6-31.7,14.7
	c-10.6,5.1-21.2,10.3-31.7,15.6c-5.3,2.7-10.6,5.3-15.8,8.2C5,67.2,5.2,67,5.3,66.8c3.2-4,5.8-8.4,7.9-13c2.4-5.2,4.1-10.8,4.9-16.4
	c10.3-5.2,20.6-10.2,31-15.2c10.7-5,21.5-9.9,32.3-14.5C87,5.5,92.5,3.3,98,1.1C96.3,9.1,93.1,16.8,88.5,23.6z"/>
<path style="stroke:#000000;stroke-width:0.5;stroke-miterlimit:10;" d="M8.1,52.4c0.5-0.9,1.1-1.8,1.6-2.7c0,0,3.2-4.6,4.9-6.6
	c0.4,0.7,0.3,1.6,0.1,2.4c-0.2,0.9-0.6,1.7-1,2.5c0,0.1,0.1,0.1,0.1,0.1c0.4-0.9,1-1.9,1.2-2.9c0.1-0.8,0-1.6-0.2-2.4
	c0-0.1-0.2-0.1-0.2-0.1c-2.5,2.9-4.8,6-6.7,9.4c-0.9,1.7-1.7,3.4-2.6,5.2c-0.8,1.7-1.6,3.6-1.9,5.5c0,0.1,0.1,0.2,0.2,0.1
	c0.8-1.7,1.4-3.5,2-5.3C6.3,55.8,7.2,54.1,8.1,52.4z"/>
<path style="stroke:#000000;stroke-width:0.5;stroke-miterlimit:10;" d="M6,63.1c1-1.4,1.9-2.8,2.7-4.2c0.8-1.4,1.6-2.9,2.3-4.3
	c0.8-1.5,1.4-3.2,2.1-4.7c0,0,0,0,0,0c-0.3,0.7-0.6,1.4-0.9,2c-0.4,0.7-0.8,1.3-1.1,1.9c-0.7,1.3-1.4,2.6-2.2,3.9
	c-0.7,1.2-1.5,2.5-2.3,3.7c-0.4,0.6-0.8,1.3-1.3,1.9C5,63.5,4.7,63.8,4.4,64c-0.3,0.2-0.6,0.2-0.9,0.4c-0.1,0-0.1,0.1,0,0.2
	C4.3,65.4,5.5,63.7,6,63.1z"/>
<path style="fill:#018B38;stroke:#000000;stroke-width:2;stroke-miterlimit:10;" d="M65.1,49.7c-13.4,1.6-19.3,1.5-31.7,9.2
	C28,62.4,16,74.3,11.3,84.9c4.3-3.8,8-5.8,12.3-8.2c8.7-4.6,20.2-9.1,32.2-11.3c-12.8,6.4-34,16.8-45,26.5c11,2.8,31,2.2,40.8-1.9
	c18.2-7.8,32.5-23.6,42.8-40.5C94.5,49.7,71.7,49,65.1,49.7L65.1,49.7z"/>
</svg>
