<?xml version="1.0" encoding="utf-8"?>
<!-- Generator: Adobe Illustrator 28.0.0, SVG Export Plug-In . SVG Version: 6.00 Build 0)  -->
<svg version="1.1" id="Ebene_1" xmlns="http://www.w3.org/2000/svg" xmlns:xlink="http://www.w3.org/1999/xlink" x="0px" y="0px"
	 viewBox="0 0 99.1 97.8" style="enable-background:new 0 0 99.1 97.8;" xml:space="preserve">
<polygon style="fill:#FFE560;" points="98.1,1.2 94.5,14.1 85.3,28.7 3.6,68.3 1.4,68.5 0.6,66.8 4.5,54 12.3,42.8 17.2,37.6 
	55.9,18.8 "/>
<path style="stroke:#000000;stroke-miterlimit:10;" d="M45.4,30.1C56,25,66.7,20.1,77.5,15.5c2.9-1.2,5.8-2.5,8.7-3.7
	c0.2-0.1,0.1-0.5-0.1-0.4c-10.8,4.4-21.4,9.2-31.9,14.1c-3,1.4-6,2.8-9,4.3C44.9,29.9,45.1,30.2,45.4,30.1z"/>
<path style="stroke:#000000;stroke-miterlimit:10;" d="M25.5,39.8c4.9-2.4,9.8-4.9,14.8-7.2c0.2-0.1,0-0.4-0.2-0.3
	c-4.9,2.4-9.9,4.8-14.8,7.3C25.1,39.6,25.3,39.9,25.5,39.8z"/>
<path style="stroke:#000000;stroke-miterlimit:10;" d="M82.1,27.5c-7.9,3.3-15.8,6.7-23.6,10.3c-8,3.7-16,7.4-23.9,11.3
	c-4.4,2.2-8.9,4.3-13.3,6.5c-0.2,0.1,0,0.4,0.2,0.3c7.8-3.9,15.7-7.7,23.6-11.5c8-3.8,16-7.4,24.1-11c4.3-1.9,8.6-3.7,13-5.5
	C82.4,27.8,82.3,27.4,82.1,27.5z"/>
<path style="stroke:#000000;stroke-miterlimit:10;" d="M89.3,17.4C80.1,21.1,71,25.1,62,29.2c-9.3,4.2-18.5,8.6-27.7,13
	c-5.1,2.5-10.3,5-15.4,7.6c-0.2,0.1,0,0.4,0.2,0.3c9.1-4.5,18.2-9,27.4-13.3c9.2-4.4,18.5-8.6,27.8-12.7c5-2.2,10-4.3,15.1-6.4
	C89.6,17.7,89.5,17.3,89.3,17.4z"/>
<path style="stroke:#000000;stroke-miterlimit:10;" d="M98.6,0.8c0.1-0.3-0.4-0.4-0.5-0.1C93,2.4,88,4.5,83.1,6.6
	c-5.3,2.2-10.6,4.5-15.9,6.9c-10.9,4.9-21.8,10-32.5,15.3c-5.9,2.9-11.8,5.8-17.6,8.8l0,0l0,0C9.9,44.1,4.3,52.7,1.5,62.1
	c-0.3,1.1-0.7,2.3-0.9,3.5c-0.1,0.8-0.2,1.7,0.3,2.4c0.5,0.7,1.4,0.8,2.2,0.6c0.4-0.1,0.7-0.3,1.1-0.5c5-2.4,9.9-4.9,14.9-7.4
	c5.2-2.6,10.3-5.2,15.5-7.7c10.6-5.2,21.2-10.3,31.9-15.3c5.9-2.8,11.9-5.5,17.9-8.2c0.1,0,0.1,0,0.2,0c0.8-0.4,1.3-1.1,1.9-1.7
	c0.7-0.8,1.3-1.7,1.9-2.5c1.2-1.8,2.4-3.6,3.5-5.5c2.1-3.7,3.8-7.6,5.1-11.7C97.6,5.6,98.2,3.2,98.6,0.8z M2.3,68.3
	c-1.4-0.1-1.4-1.5-1.2-2.6s0.5-2.2,0.8-3.3c1.3-4.4,3.2-8.6,5.7-12.6c2.7-4.4,6.1-8.4,9.9-12c0.2-0.1,0.3-0.2,0.5-0.2
	c-0.9,4.7-2.1,9.2-3.9,13.6c-1.8,4.3-4,8.5-6.7,12.3c-0.7,1-1.5,2-2.3,3C4.4,67.4,3.5,68.4,2.3,68.3z M88.5,23.6
	c-0.7,1-1.4,1.9-2.1,2.9c-0.7,0.9-1.3,1.8-2.3,2.3C84,28.9,84,29,84,29c-10.6,4.7-21.2,9.6-31.7,14.7C41.7,48.8,31.1,54,20.6,59.3
	C15.3,62,10,64.6,4.8,67.5C5,67.2,5.2,67,5.3,66.8c3.2-4,5.8-8.4,7.9-13c2.4-5.2,4.1-10.8,4.9-16.4c10.3-5.2,20.6-10.2,31-15.2
	c10.7-5,21.5-9.9,32.3-14.5C87,5.5,92.5,3.3,98,1.1C96.3,9.1,93.1,16.8,88.5,23.6z"/>
<path style="stroke:#000000;stroke-width:0.5;stroke-miterlimit:10;" d="M8.1,52.4c0.5-0.9,1.1-1.8,1.6-2.7c0,0,3.2-4.6,4.9-6.6
	c0.4,0.7,0.3,1.6,0.1,2.4c-0.2,0.9-0.6,1.7-1,2.5c0,0.1,0.1,0.1,0.1,0.1c0.4-0.9,1-1.9,1.2-2.9c0.1-0.8,0-1.6-0.2-2.4
	c0-0.1-0.2-0.1-0.2-0.1c-2.5,2.9-4.8,6-6.7,9.4c-0.9,1.7-1.7,3.4-2.6,5.2c-0.8,1.7-1.6,3.6-1.9,5.5c0,0.1,0.1,0.2,0.2,0.1
	c0.8-1.7,1.4-3.5,2-5.3C6.3,55.8,7.2,54.1,8.1,52.4z"/>
<path style="stroke:#000000;stroke-width:0.5;stroke-miterlimit:10;" d="M6,63.1c1-1.4,1.9-2.8,2.7-4.2s1.6-2.9,2.3-4.3
	c0.8-1.5,1.4-3.2,2.1-4.7l0,0c-0.3,0.7-0.6,1.4-0.9,2c-0.4,0.7-0.8,1.3-1.1,1.9c-0.7,1.3-1.4,2.6-2.2,3.9c-0.7,1.2-1.5,2.5-2.3,3.7
	c-0.4,0.6-0.8,1.3-1.3,1.9C5,63.5,4.7,63.8,4.4,64c-0.3,0.2-0.6,0.2-0.9,0.4c-0.1,0-0.1,0.1,0,0.2C4.3,65.4,5.5,63.7,6,63.1z"/>
<g>
	<path style="fill:#FFFCED;stroke:#000000;stroke-width:1.5;stroke-miterlimit:10;" d="M79,49.1c-17.9-8.5-40.7,5.2-43.2,6.9
		c-3.5,2.2-10.5,7.6-10.5,11.3c0,1.4,0,13.4,0,13.4c-0.3,4.9,1.9,9.6,6.1,12.6C35,95.7,39.9,97,44.9,97c4.8,0,10-1.1,14.5-3.3
		c3.2-1.6,6.4-2.4,9.6-2.4c11.2-0.5,20.5-5.6,22.6-12.5c0.3-0.9,0.5-1.9,0.5-3V64.9C91.9,58.5,84.7,51.7,79,49.1L79,49.1z
		 M25.4,67.4c0-5.4,11.4-12.1,11.4-12.1c0.7-0.5,15.3-9,29.8-9c4.1,0,10,1.6,13.8,3.4c5.8,2.6,11.7,9.8,11.7,15.1
		c0,6.8-12.9,13-23.1,13.4c-3.5,0.2-7,1-10.3,2.6C50,85.1,39,85,32.7,80.6c-4.3-3-7.3-7.6-7.3-12.4C25.4,68.2,25.4,67.4,25.4,67.4z"
		/>
	<path style="fill:#E94C4F;stroke:#000000;stroke-miterlimit:10;" d="M34.8,77.5c2.4,1.7,6.1,2.6,10.2,2.6s8.3-1,12-2.8
		c3.8-1.9,7.8-2.9,11.9-3C78.5,74,85,69.8,86.2,66c1.1-3.9-4.1-9.1-9.6-11.7c-3-1.4-6.5-2.1-10.4-2.1c-13.2,0-26.7,8.3-27.3,8.7
		c-3.7,2.4-6.9,4.6-7.7,7.8C30.3,71.8,31.8,75.4,34.8,77.5L34.8,77.5z"/>
	<path style="fill:#FFFFFF;stroke:#000000;stroke-width:3;stroke-miterlimit:10;" d="M44.1,74.3c3.3,0,5.9-1.8,5.9-4.1
		s-2.6-4.1-5.9-4.1c-3.3,0-5.9,1.8-5.9,4.1C38.2,72.4,40.8,74.3,44.1,74.3z"/>
</g>
</svg>
