<?xml version="1.0" encoding="utf-8"?>
<!-- Generator: Adobe Illustrator 28.0.0, SVG Export Plug-In . SVG Version: 6.00 Build 0)  -->
<svg version="1.1" id="Ebene_1" xmlns="http://www.w3.org/2000/svg" xmlns:xlink="http://www.w3.org/1999/xlink" x="0px" y="0px"
	 viewBox="0 0 85 58.7" style="enable-background:new 0 0 85 58.7;" xml:space="preserve">
<style type="text/css">
	.st0{fill-rule:evenodd;clip-rule:evenodd;}
	.st1{fill-rule:evenodd;clip-rule:evenodd;fill:#F47D19;}
	.st2{fill:#FFFFFF;stroke:#FFFFFF;stroke-width:0.2;stroke-miterlimit:10;}
</style>
<path class="st0" d="M85,26.1V0c-7.3,0-8,12.1-7.5,26.1c0,0.6,0.2,1.2,0.5,1.7l0.3,0.4c0.6,1,0.5,2.3-0.2,3.2
	c-0.4,0.5-0.6,1.1-0.6,1.7v15.2l-0.6,5.8c-0.3,2.4,1.6,4.5,4.1,4.5c2.2,0,4.1-1.8,4.1-4.1V33.2c0-0.6-0.2-1.2-0.6-1.7
	c-0.7-0.9-0.8-2.2-0.2-3.2l0.2-0.4C84.8,27.3,85,26.7,85,26.1L85,26.1z M1.7,1.2C0.8,1.2,0,1.9,0,2.9V15c0,4.4,1.3,7.7,4.6,10.4
	v30.2c0,1.6,1.3,2.9,2.9,2.9c1.6,0,2.9-1.3,2.9-2.9V25.3c3-2.6,4.6-6.2,4.6-10.4V2.9c0-0.5-0.2-0.9-0.5-1.2
	c-0.3-0.3-0.7-0.5-1.2-0.5c-1,0-1.7,0.8-1.7,1.7v10.9c0,0.6-0.5,1.2-1.2,1.2c-0.6,0-1.1-0.5-1.1-1.2V2.9c0-1-0.8-1.7-1.7-1.7
	c-1,0-1.7,0.8-1.7,1.7v10.9c0,0.6-0.5,1.2-1.1,1.2c-0.6,0-1.2-0.5-1.2-1.2V2.9C3.4,1.9,2.7,1.2,1.7,1.2L1.7,1.2z M69.8,29.3
	c0,14.3-11.6,25.9-25.9,25.9S18,43.6,18,29.3C18,15,29.6,3.5,43.9,3.5S69.8,15,69.8,29.3z M43.9,13c-9,0-16.3,7.3-16.3,16.3
	c0,9,7.3,16.3,16.3,16.3s16.3-7.3,16.3-16.3C60.2,20.3,52.9,13,43.9,13z M22.6,29.3C22.6,18.7,33.2,8,43.9,8
	c10.7,0,21.3,10.7,21.3,21.3c0,10.7-10.7,21.3-21.3,21.3C33.2,50.7,22.6,40,22.6,29.3z"/>
<path class="st1" d="M32.6,15.8c-1,0.8-2.1,1.9-3.1,3.1c-0.1,0.2-0.3,0.2-0.5,0.1l-0.9-0.9c-0.1-0.1-0.1-0.2,0-0.4
	c0.9-1.2,2-2.3,3.3-3.3c0.1-0.1,0.3-0.1,0.4,0l0.9,0.9C32.8,15.4,32.8,15.6,32.6,15.8z"/>
<sodipodi:namedview  bordercolor="#666666" borderopacity="1" gridtolerance="10" guidetolerance="10" id="namedview12" objecttolerance="10" pagecolor="#ffffff" showgrid="false">
	</sodipodi:namedview>
<g id="Ebene_x0020_1">
	<path id="path10" class="st2" d="M52,33c-0.1,0-0.3,0-0.5-0.1c-0.2-0.1-0.2-0.1-0.4-0.2c-0.5-0.1-0.9-0.2-1.3-0.4
		c-0.6-0.2-1.1-0.4-1.7-0.6c-0.3-0.1-0.7-0.3-0.8-0.3C47,31.3,47,31.3,46.9,31c-0.2-0.4-0.3-0.4-0.7-0.5c-0.6-0.1-0.6-0.1-1.4-0.1
		c-0.8-0.2-1.6-0.3-2.4-0.5c-1,0-2.1-0.2-3.1-0.2c-0.3,0-0.5-0.1-0.8-0.1c-0.1-0.1-0.1-0.1-0.3-0.2c-0.3-0.1-0.6,0-0.9,0.1
		c-0.3,0.2-0.3,0.2-0.7,0.4c-0.2,0.1-0.4,0.1-0.6,0.2c-0.5,0.1-1,0.1-1.4,0.1c-0.3,0.1-0.5,0.2-0.7,0.3c-0.6,0.2-1.2,0.3-1.7,0.6
		c-0.4,0.3-0.7,0.6-1,1.1c-0.2,0.1-0.5,0.4-0.7,0.6c-0.3,0.3-0.6,0.6-0.9,0.8c-0.1,0-0.2,0.1-0.3,0.1c-0.2,0-0.8,0.2-0.6-0.2
		c0-0.1,0.6-0.3,0.6-0.3c0.2-0.1,0.5-0.4,0.5-0.4c0.1-0.1,0.3-0.2,0.4-0.4c0.2-0.4,0.6-0.8,0.7-0.9c0.1-0.1,0.2-0.2,0.3-0.3
		c0,0,0-0.1,0-0.1c0-0.2,0.1-0.4,0.3-0.5c0,0,0,0,0.1-0.2c0-0.4,0-0.5-0.4-0.6c-0.5,0-0.9-0.1-1.5-0.2c-0.3,0-0.7-0.1-0.8-0.3
		c-0.1-0.8,1.3-0.7,1.8-0.7c0.1,0,0.5,0.2,0.6,0.1c0,0,0-0.1,0-0.1c-0.2-0.1-0.4-0.1-0.6-0.2c-0.2,0-0.6,0.1-0.7-0.2
		c0.1-0.2,0.4-0.2,0.6-0.1c0.7,0.3,1.4,0.3,2.1,0.2c0.4,0.1,0.4,0.1,0.7,0.1c0.5,0,1-0.1,1.4,0.4l0.6,0.3c0.5,0.3,0.7,0.6,1.3,0.2
		c0.1-0.1,0.1-0.1,0.2-0.2c0.6-0.3,1.2-0.2,1.9-0.4c0.1-0.1,0.1-0.2,0.1-0.3c-0.3-0.3-0.5-0.6-0.9-0.8c-0.2-0.1-0.7-0.4-0.7-0.4
		c0,0-0.6-0.4-0.7-0.6c-0.3-0.3-0.3-0.3-0.4-0.4c-0.3-0.2-0.4-0.2-0.8-0.3c-0.3-0.1-0.6-0.1-1-0.1c-0.2,0-0.2,0-0.6-0.2
		c-0.3,0-0.3,0-0.9-0.1c-0.2,0-0.5-0.1-0.7-0.1c-0.4-0.2-0.9-0.3-1.3-0.5c-0.3-0.1-0.6-0.2-0.9-0.4c0-0.3,0-0.4,0.2-0.5
		c0.2-0.1,0.5-0.2,0.7-0.2c0.7,0.3,0.7,0.3,1.1,0.4c0.5,0.1,1,0.2,1.5,0.3c0.2,0.1,0.5,0.2,0.7,0.3c0.2,0,0.3,0,0.5,0.1
		c0.2,0,0.5-0.1,0.7-0.1c0.3,0,0.8,0.1,1.7,0.3c0,0,0.2,0.1,0.3,0c0.2,0,0.4,0.1,0.6,0.1c0.1,0.1,0.1,0.1,0.1,0.1
		c0.2,0.3,0.2,0.3,0.3,0.5c0.6,0.4,1.3,0.6,2,0.9c0.3,0,0.7,0,1,0.1c0.3,0,0.7,0.1,1,0.1c0.8,0,1.5,0.2,2.1-0.4
		c0.3-0.2,0.5-0.4,0.8-0.6c0.2,0,0.4-0.1,0.6-0.1c0.5,0.1,0.5,0.1,0.8,0.2c0.4,0,0.7-0.1,1.1-0.1c0.1,0,0.1,0,0.6-0.2
		c0.3,0,0.3,0,0.7-0.1c0.5,0.1,1,0.5,1.3,0.9c0.2,0.4,0.5,0.6,0.9,0.8c0.2,0,0.4,0.1,0.5,0.1c0.6,0,1-0.5,1.5-0.3
		c0.2,0.1,0.3,0.2,0.5,0.3c0.4,0,0.8,0,1.2,0c0.2,0,0.2,0,0.3,0.1c0.2,0,1.1-0.3,1.2-0.1c0,0,1.7,0.1,1.7,0.1c0.6,0.2,1.4,0.4,1,1.1
		c-0.3,0.2-0.6,0.3-0.9,0.4c-0.2,0.1-0.4,0.1-0.6,0.3c0,0.1-0.1,0.1-0.1,0.2c0,0.1,0,0.3,0,0.4c-0.2,0.7-1,0.9-1.7,0.7c0,0,0,0,0,0
		c-0.1-0.1-0.2,0-0.4,0c-0.3,0.3-0.6,0.6-1,0.8c-0.4,0.1-0.9,0-1.3,0.2c-0.2,0.3-0.2,0.3-0.5,0.8C52.8,32.8,52.5,33,52,33L52,33z"/>
</g>
</svg>
