<?xml version="1.0" encoding="utf-8"?>
<!-- Generator: Adobe Illustrator 28.0.0, SVG Export Plug-In . SVG Version: 6.00 Build 0)  -->
<svg version="1.1" id="Ebene_1" xmlns="http://www.w3.org/2000/svg" xmlns:xlink="http://www.w3.org/1999/xlink" x="0px" y="0px"
	 viewBox="0 0 100 125" style="enable-background:new 0 0 100 125;" xml:space="preserve">
<polygon style="fill:#B79268;" points="26.2,13.8 30.6,11.9 38.9,13 53,20.3 59.5,28.6 70.1,27.6 81.1,31.4 87,37.1 92,44.9 
	94.4,57.3 90.1,68 85.1,72.8 67.5,79.2 34,87.4 18.8,86.4 11.4,81 5.8,68.5 10.5,56.8 18.9,49.5 14.4,40.9 14.4,26.2 17,19.8 
	22,14.8 "/>
<path d="M25.5,26.9c-2.2,0.8-4.2,2.2-5.5,3.8c-0.5,0.5-0.3,1.2,0.2,1.7c0.2,0.2,0.5,0.3,0.8,0.3c0.3,0,0.6-0.2,0.9-0.5
	c1.2-1.4,2.8-2.5,4.6-3.2c0.6-0.2,0.9-0.9,0.8-1.5C27,26.9,26.1,26.6,25.5,26.9z"/>
<path d="M40.1,33.6c-0.2,0-0.5,0-0.6-0.2c-0.6-0.3-0.8-1.1-0.3-1.5c0.9-1.5,2.3-2.6,3.8-3.4c0.6-0.2,1.2,0,1.5,0.6
	c0.2,0.6,0,1.2-0.6,1.5c-1.2,0.5-2.2,1.4-2.9,2.5C40.9,33.5,40.4,33.6,40.1,33.6z"/>
<path d="M20.1,58.7c0.5,2.5,2.2,4.5,4.3,5.5c0.6,0.2,0.8,0.9,0.5,1.5c-0.2,0.3-0.6,0.6-1.1,0.6c-0.1,0-0.2,0-0.2-0.1
	s-0.2-0.1-0.2-0.1c-2.8-1.2-4.9-4-5.5-7.1c-0.2-0.6,0.3-1.2,0.9-1.4C19.3,57.7,19.9,58.1,20.1,58.7z"/>
<path d="M23.6,77.7c-0.8-0.3-1.5-0.8-2-1.5c-0.3-0.5-1.1-0.6-1.5-0.3c-0.5,0.3-0.6,1.1-0.3,1.5c0.8,1.1,2,2,3.2,2.5h0.3
	c0.5,0,0.9-0.3,1.1-0.8C24.6,78.6,24.3,77.8,23.6,77.7z"/>
<path d="M32.3,54.4c1.4,2.3,3.8,4,6.4,4.7c0.6,0.1,1.2,0.8,0.9,1.3s-0.8,1-1.5,0.8c-0.9-0.3-1.9-0.6-2.7-1c-2.1-1-3.8-2.6-5.1-4.6
	c-0.3-0.5-0.1-1.1,0.4-1.5C31.2,53.7,31.8,53.8,32.3,54.4z"/>
<path d="M51.1,63.8c1.5,0.6,3.1,0.8,4.5,0.8c0.6,0,1.1-0.5,1.1-1.1s-0.5-1.2-1.1-1.2c-1.2,0-2.6-0.2-3.7-0.6
	c-0.8-0.3-1.7-1.2-1.8-2.2c0-0.6-0.6-1.1-1.2-1.1s-1.1,0.6-1.1,1.2C48,61.3,49.2,63,51.1,63.8z"/>
<path d="M80.4,54.7c0.9,0.3,1.8-0.2,2.5-0.9c0.5-0.6,1.1-0.8,1.5-0.2c0.6,0.3,0.6,1.1,0.3,1.5c-0.8,1.2-2.3,2-3.8,2
	c-0.5,0-0.8,0-1.1-0.2c-1.7-0.5-3.2-2-3.5-3.8c-0.2-0.8,0.3-1.2,0.9-1.4c0.8-0.2,1.2,0.3,1.4,0.9C78.7,53.7,79.5,54.6,80.4,54.7z"/>
<path style="fill-rule:evenodd;clip-rule:evenodd;" d="M60.7,27.2C66,25,72.4,25,80.6,30.1c10,6.2,15.7,17.4,14.2,27.9
	c-1.2,9.5-7.8,16.8-17.9,19.7l-4.6,1.4C56.9,83.7,41,88.3,29,88.3c-5.5,0-10.3-0.9-13.9-3.4C2.9,76.6,4.4,66.6,6.2,61.5
	c2-5.1,5.8-9.7,10.5-12.9c0,0-0.1-0.1-0.1-0.1l0,0c-1.3-2.2-9.8-16.1,0.2-29.6c4.2-5.4,10.3-8.2,17.5-7.9
	C44.4,11.5,54.9,17.9,60.7,27.2z M34.3,13.3c-4.6-0.3-10.9,0.8-15.5,6.9c-9.2,12.5-1.1,25.4-0.1,27c0,0.1,0.1,0.1,0.1,0.1
	c4.5-2.6,9.5-4,14.2-3.5c6,0.6,10.8-3.5,15.7-7.9l0.3-0.2l0.2-0.2c2.9-2.6,6-5.4,9.5-7.2C53.2,19.8,43.5,13.8,34.3,13.3z M76.4,75.5
	c9.1-2.6,15.1-9.1,16.2-17.7c1.2-9.7-4-20.2-13.1-25.6C71.8,27.5,66,27.6,61,29.8h-0.2c-3.4,1.6-6.4,4.2-9.5,6.9l-0.8,0.7
	C45.5,42,40,46.7,32.9,46c-9.1-1.1-20.6,6.8-24.2,16.3c-2.9,7.8-0.2,15.2,8,20.8c10.2,7,33.9,0.1,54.7-6l0.4-0.1L76.4,75.5z"/>
<path d="M65.2,36.1c1.6,2.2,4.1,3.8,6.7,4.3c0.6,0.1,1.2,0.7,1,1.3c-0.2,0.6-0.8,1-1.4,0.9c-0.9-0.2-2-0.5-2.8-0.9
	c-2.1-0.9-4-2.4-5.3-4.3c-0.3-0.5-0.2-1.1,0.3-1.5C64.1,35.5,64.7,35.6,65.2,36.1z"/>
<path d="M52.7,71.2c1.8,2,4.5,3.2,7.2,3.4c0.6,0,1.3,0.5,1.1,1.1c-0.2,0.6-0.6,1.1-1.3,1.1c-0.9-0.1-2-0.3-2.9-0.5
	c-2.2-0.6-4.3-1.9-5.8-3.6c-0.4-0.4-0.3-1.1,0.1-1.6C51.5,70.7,52.2,70.7,52.7,71.2z"/>
<path d="M35.3,72.2c1.2,2.4,3.3,4.4,5.9,5.4c0.6,0.2,1.1,0.9,0.7,1.4c-0.3,0.5-0.9,0.9-1.5,0.6c-0.9-0.4-1.8-0.9-2.6-1.4
	c-1.9-1.3-3.5-3.1-4.5-5.2c-0.2-0.5,0-1.1,0.6-1.5C34.4,71.4,35,71.6,35.3,72.2z"/>
<path d="M52.8,45.6c1.4,2.3,3.7,4.1,6.3,4.8c0.6,0.2,1.1,0.8,0.9,1.3s-0.9,0.9-1.5,0.8c-0.9-0.3-1.9-0.7-2.7-1.1
	c-2-1.1-3.8-2.7-4.9-4.8c-0.3-0.5-0.1-1.1,0.5-1.5C51.8,44.9,52.4,45,52.8,45.6z"/>
</svg>
