<?xml version="1.0" encoding="utf-8"?>
<!-- Generator: Adobe Illustrator 28.0.0, SVG Export Plug-In . SVG Version: 6.00 Build 0)  -->
<svg version="1.1" id="Ebene_1" xmlns="http://www.w3.org/2000/svg" xmlns:xlink="http://www.w3.org/1999/xlink" x="0px" y="0px"
	 viewBox="0 0 80.1 85.3" style="enable-background:new 0 0 80.1 85.3;" xml:space="preserve">
<polygon style="fill:#E6DECC;" points="78.4,48.4 79.6,51.3 75.4,62.4 65.8,76.6 61.6,80.3 63.1,81.4 63.2,84.6 17,84.5 16.5,81.5 
	18.6,80.2 10.8,72.6 1.6,54.9 1.1,48.5 "/>
<polygon style="fill-rule:evenodd;clip-rule:evenodd;fill:#69370E;" points="56.9,1 59.7,1.3 51.9,29 53.2,29.4 65,5.1 67.4,6.4 
	54.5,31.1 50,28 "/>
<polygon style="fill-rule:evenodd;clip-rule:evenodd;fill:#FFFBEB;" points="73.2,48.8 6.8,48.8 6.5,43.9 9.7,41.7 11.8,36.9 
	17.4,34.8 19.8,31.5 24.4,31.6 29.4,28 32.9,28.3 39.1,25.3 45.8,28.1 49.6,27.6 55,31.5 59.6,31 62,33.9 67.7,36.8 69.1,40.5 
	73.4,44.1 "/>
<path style="fill-rule:evenodd;clip-rule:evenodd;" d="M56.6,0.1C56.8,0,57,0,57.2,0l2.9,0.7c0.2,0.1,0.4,0.2,0.5,0.3
	c0.1,0.2,0.1,0.4,0.1,0.6l-7.9,27c0,0,0,0,0,0l11.4-24c0.1-0.2,0.2-0.3,0.4-0.4c0.2-0.1,0.4-0.1,0.6,0l2.7,1.3
	c0.2,0.1,0.3,0.2,0.4,0.4c0.1,0.2,0,0.4,0,0.6L55.4,30.8c0.3,0.1,0.5,0.1,0.6,0.1c1.2-0.4,2.4-0.6,3.6-0.3c1.3,0.3,2.3,1.2,3.1,2.9
	c0.6,1.1,1.7,1.4,3.1,1.8c0.7,0.2,1.4,0.4,2.1,0.8c0.7,0.4,1.2,1,1.5,2c0.4,1.5,0.7,2.5,1.2,3.2c0.4,0.7,1,1.1,2,1.5
	c1.4,0.5,1.7,1.8,1.7,2.9c0,0.7-0.1,1.5-0.2,2.2H78c1.4,0,2.5,1.3,2.1,2.7c-2.4,9.7-8.1,22.6-17.3,29.8c0.9,0.3,1.5,1.1,1.5,2.1v0.7
	c0,1.2-1,2.2-2.2,2.2H18c-1.2,0-2.2-1-2.2-2.2v-0.7c0-1,0.6-1.8,1.5-2.1C8.1,73.1,2.5,60.1,0.1,50.5c-0.3-1.4,0.7-2.7,2.1-2.7H6
	c-0.2-0.7-0.3-1.4-0.2-2.2c0-1.1,0.4-2.5,1.7-2.9c1-0.3,1.6-0.8,2-1.5c0.5-0.7,0.8-1.7,1.2-3.2c0.2-1,0.8-1.6,1.5-2
	c0.6-0.4,1.4-0.6,2.1-0.8c1.4-0.4,2.6-0.7,3.1-1.8c0.8-1.6,1.9-2.5,3.1-2.9c1.2-0.3,2.5-0.1,3.6,0.3c0.2,0.1,0.5,0,1.1-0.4
	c0.5-0.3,0.9-0.7,1.5-1.2c0.1-0.1,0.3-0.3,0.5-0.4c0.7-0.6,1.5-1.2,2.3-1.6c0.9-0.4,1.8-0.5,2.8,0c0.6,0.3,1.1,0.3,1.5,0.2
	c0.5-0.1,1-0.4,1.6-0.7c0.1-0.1,0.2-0.1,0.3-0.2c1.1-0.7,2.5-1.6,4.4-1.6c1.9,0,3.3,0.9,4.4,1.6c0.1,0.1,0.2,0.1,0.3,0.2
	c0.6,0.4,1.1,0.6,1.6,0.7c0.4,0.1,0.9,0.1,1.5-0.2c0.6-0.3,1.3-0.4,1.9-0.3l6.6-26.5C56.3,0.4,56.4,0.2,56.6,0.1L56.6,0.1z
	 M51.1,27.5c0.1,0.1,0.2,0.1,0.3,0.2L59,2l-1.5-0.4L51.1,27.5z M53.9,29.7c0.1,0.1,0.2,0.2,0.3,0.3L66.5,6.7L65.1,6L53.9,29.7z
	 M7.5,47.8h65.1c0.2-0.6,0.3-1.4,0.3-2.2c0-1-0.3-1.4-0.7-1.6c-1.2-0.4-2.1-1.1-2.8-2c-0.6-0.9-1-2.2-1.4-3.6
	c-0.1-0.5-0.4-0.8-0.8-1.1c-0.4-0.3-1-0.4-1.7-0.6c-0.1,0-0.1,0-0.2,0c-1.3-0.3-3-0.8-3.9-2.5c-0.7-1.3-1.4-1.9-2.2-2.1
	c-0.8-0.2-1.7-0.1-2.8,0.3c-0.9,0.3-1.8-0.1-2.5-0.6c-0.5-0.4-1-0.8-1.5-1.2l-0.1-0.1c-0.4-0.3-0.7-0.6-1-0.9
	c-0.5-0.4-1-0.7-1.4-0.9c-0.5-0.2-1-0.2-1.5,0c-0.9,0.4-1.7,0.5-2.5,0.3c-0.7-0.2-1.4-0.5-2-0.9c-0.1-0.1-0.2-0.1-0.3-0.2
	c-1.1-0.7-2.2-1.3-3.6-1.3c-1.4,0-2.5,0.6-3.6,1.3c-0.1,0.1-0.2,0.1-0.3,0.2c-0.6,0.4-1.3,0.8-2,0.9c-0.8,0.2-1.6,0.1-2.5-0.3
	c-0.5-0.2-1-0.2-1.6,0.1c-0.6,0.3-1.3,0.8-2,1.4c-0.1,0.1-0.3,0.2-0.4,0.4c-0.5,0.5-1.1,1-1.7,1.3c-0.7,0.4-1.5,0.9-2.4,0.6
	c-1.1-0.4-2-0.5-2.8-0.3c-0.8,0.2-1.5,0.8-2.2,2.1c-0.9,1.7-2.6,2.2-3.9,2.5c-0.1,0-0.1,0-0.2,0c-0.7,0.2-1.3,0.3-1.7,0.6
	c-0.4,0.2-0.7,0.5-0.8,1.1c-0.4,1.5-0.8,2.7-1.4,3.6c-0.7,1-1.5,1.6-2.8,2c-0.4,0.1-0.7,0.6-0.7,1.6C7.2,46.4,7.4,47.2,7.5,47.8
	L7.5,47.8z M19.7,80.1h40.7c9.7-6.6,15.7-20,18.2-30c0.1-0.4-0.2-0.9-0.7-0.9H2.2c-0.5,0-0.8,0.4-0.7,0.9C4,60.2,10,73.6,19.7,80.1
	L19.7,80.1z M37.1,31.3c0.2,0.4,0,0.8-0.3,1L35.3,33c-0.4,0.2-0.8,0-1-0.3c-0.2-0.4,0-0.8,0.3-1l1.5-0.7
	C36.4,30.8,36.9,30.9,37.1,31.3z M40,36.4c0.2,0.4,0,0.8-0.3,1l-1.5,0.7c-0.4,0.2-0.8,0-1-0.3c-0.2-0.4,0-0.8,0.3-1l1.5-0.7
	C39.4,35.9,39.8,36.1,40,36.4L40,36.4z M24.6,37.2c0.2,0.4,0,0.8-0.3,1l-1.5,0.7c-0.4,0.2-0.8,0-1-0.3c-0.2-0.4,0-0.8,0.3-1l1.5-0.7
	C23.9,36.7,24.4,36.8,24.6,37.2z M33.4,37.2c0.2,0.4,0,0.8-0.3,1l-1.5,0.7c-0.4,0.2-0.8,0-1-0.3c-0.2-0.4,0-0.8,0.3-1l1.5-0.7
	C32.8,36.7,33.2,36.8,33.4,37.2z M17.2,37.9c0.2,0.4,0,0.8-0.3,1l-1.5,0.7c-0.4,0.2-0.8,0-1-0.3c-0.2-0.4,0-0.8,0.3-1l1.5-0.7
	C16.6,37.4,17,37.5,17.2,37.9L17.2,37.9z M25.3,43.8c0.2,0.4,0,0.8-0.3,1l-1.5,0.7c-0.4,0.2-0.8,0-1-0.3c-0.2-0.4,0-0.8,0.3-1
	l1.5-0.7C24.7,43.3,25.1,43.4,25.3,43.8z M18,81.6c-0.4,0-0.7,0.3-0.7,0.7v0.7c0,0.4,0.3,0.7,0.7,0.7h44.1c0.4,0,0.7-0.3,0.7-0.7
	v-0.7c0-0.4-0.3-0.7-0.7-0.7H18z"/>
</svg>
