<?xml version="1.0" encoding="utf-8"?>
<!-- Generator: Adobe Illustrator 28.0.0, SVG Export Plug-In . SVG Version: 6.00 Build 0)  -->
<svg version="1.1" id="Ebene_1" xmlns="http://www.w3.org/2000/svg" xmlns:xlink="http://www.w3.org/1999/xlink" x="0px" y="0px"
	 viewBox="0 0 66.4 93.4" style="enable-background:new 0 0 66.4 93.4;" xml:space="preserve">
<polygon style="fill:#F47D19;" points="7.3,37.3 13.7,91.8 54.3,92 60.5,36.9 44.7,36.9 40.6,43 33.6,47.7 25.4,44.3 23,37.1 "/>
<polygon style="fill:#FFEFA9;" points="9.4,56.8 57.8,57 56.6,76.9 11.7,77.1 "/>
<polygon style="fill:#FFD600;" points="10.8,3.8 12.8,10.7 18.8,9 19.2,1.6 26.7,3 29.6,4.3 29,8.7 36.4,7.6 37.9,14.3 41.1,2.1 
	50.8,4.3 50.8,20.9 55.8,5.9 64.6,7.3 57.4,36.5 44.1,37.3 41.3,43 34.8,47.2 26.5,44.4 23.3,37.2 7.3,37.3 8.5,34.2 1.7,8.1 "/>
<path d="M29.9,2.2L20.1,0c-0.8-0.2-1.6,0.3-1.8,1.1c0,0.1,0,0.1,0,0.2l-0.6,6.6l-4.1,0.7l-1.4-5.3c-0.1-0.4-0.4-0.8-0.8-1
	c-0.4-0.2-0.9-0.2-1.3,0L0.8,6.7C0.2,7.1-0.1,7.8,0,8.5l7.3,26.9H7.3c-0.4,0-0.8,0.2-1.1,0.5c-0.3,0.3-0.4,0.7-0.4,1.2l5.6,55
	c0.1,0.8,0.7,1.3,1.5,1.3h41.7c0.8,0,1.4-0.6,1.5-1.3l5.6-55c0-0.4-0.1-0.8-0.4-1.2c-0.3-0.3-0.7-0.5-1.1-0.5H59l7.3-28.2
	c0.2-0.8-0.3-1.6-1.1-1.8c-0.1,0-0.1,0-0.2,0l-8.9-1.2c-0.7-0.1-1.4,0.4-1.6,1.1l-3.2,11.4l1.2-12.7c0.1-0.8-0.4-1.5-1.2-1.6l-9.9-2
	c-0.4-0.1-0.8,0-1.2,0.3c-0.3,0.3-0.6,0.6-0.6,1.1l-0.8,8.6l-0.2-3.1c0-0.4-0.2-0.7-0.5-1c-0.3-0.3-0.7-0.4-1.1-0.4l-6.1,0.4
	l0.2-2.4C31.2,3.1,30.7,2.4,29.9,2.2z M49.4,4.9L48,19.2l-2.1-0.5c-0.8-0.2-1.6,0.3-1.8,1.2c0,0,0,0,0,0.1l-3.6,22.1
	c-0.5,0.7-1.1,1.2-1.8,1.7l3.8-40.3L49.4,4.9z M63,8l-7.1,27.3h-1.2l2-12.6c0.1-0.8-0.4-1.5-1.1-1.7l-2.3-0.6L57,7.2L63,8z
	 M58.6,38.4l-1.8,17H10.7l-1.8-17h13.4c0.8,6.3,6.6,10.7,12.9,9.9c5.2-0.7,9.2-4.7,9.9-9.9H58.6z M14.3,90.4l-1.2-12h41.5l-1.2,12
	H14.3z M54.8,75.4h-42l-1.8-17h45.5L54.8,75.4z M9.7,5.9l0.9,3.2l0,0c-0.7,0.1-1.3,0.8-1.3,1.5L10,33.9l-6.8-25L9.7,5.9z M21.1,3.4
	L28,4.9l-0.2,1.5L27,6.4c-0.8,0.1-1.4,0.8-1.4,1.6c0,0,0,0,0,0l0.8,12.1h-4.1c-0.8,0-1.5,0.7-1.5,1.5v13.8h-2.8L21.1,3.4z
	 M53.6,23.6l-1.9,11.7h-7.1L46.8,22L53.6,23.6z M30.9,44.9c-3.4-1.2-5.6-4.4-5.6-8c0-0.8-0.6-1.4-1.4-1.5V23.1h7V44.9z M15,35.4h-2
	l-0.8-23.5l5.1-0.8L15,35.4z M35.5,45.2c-0.5,0.1-1.1,0.2-1.6,0.2V21.6c0-0.8-0.7-1.5-1.5-1.5h-2.9L28.8,9.3l7-0.5l1.4,19.6
	L35.5,45.2z"/>
</svg>
