<?xml version="1.0" encoding="utf-8"?>
<!-- Generator: Adobe Illustrator 28.0.0, SVG Export Plug-In . SVG Version: 6.00 Build 0)  -->
<svg version="1.1" id="Ebene_1" xmlns="http://www.w3.org/2000/svg" xmlns:xlink="http://www.w3.org/1999/xlink" x="0px" y="0px"
	 viewBox="0 0 82.5 78.7" style="enable-background:new 0 0 82.5 78.7;" xml:space="preserve">
<style type="text/css">
	.st0{fill:#E6DECC;}
	.st1{fill:#227754;}
	.st2{fill:#24AD40;}
</style>
<polygon class="st0" points="4,35.9 78.9,36.2 80.6,43.6 74.8,56.7 61.8,68.8 60.9,75.5 23.9,77 19.5,68.8 8.8,59.4 2.8,47.2 
	1.6,38.5 "/>
<polygon class="st1" points="67.2,9.2 74.6,11.2 75.8,20.5 75.6,26.8 73.4,35 53.7,35.6 53.1,26.1 50.5,19.2 57,15.9 61.3,12.7 
	65.3,9.3 "/>
<polygon class="st2" points="39.7,2.5 43.2,9.3 53.2,24.9 53.4,35.3 37.6,36 34.9,30.3 31.2,25.9 31,17.4 34.7,8 "/>
<polygon class="st1" points="7.3,35 5.7,28.2 7.4,24.1 5.8,18.7 8.9,11.3 17.2,10.5 21.2,14.5 22.6,18.8 27.3,19.3 30.4,23.2 
	31,27.6 35,30.1 36.4,32.7 36.5,35 "/>
<path d="M81.1,35.6c-1.1-1.2-2.6-1.9-4.2-1.9h-0.6c0,0,0,0,0-0.1c1.8-3,1.7-6.7-0.1-9.6c0.5-0.5,0.9-1.1,1.2-1.7
	c1.4-2.4,1.7-5.2,1-7.8c-0.7-2.7-2.4-4.9-4.8-6.2c-2.4-1.4-5.2-1.8-7.8-1c-2.7,0.7-4.9,2.4-6.3,4.8c-0.4,0.6-0.6,1.3-0.9,1.9
	c-2.9-0.1-5.6,1.2-7.4,3.4c-0.2-0.3-0.3-0.6-0.5-0.8c-1-1.8-2.2-3.4-3.3-4.9c-1.6-2.2-3.2-4.3-4.1-6.8l-1.2-3
	c-0.3-0.9-1.1-1.6-2.1-1.8c-1-0.2-1.9,0.1-2.6,0.8c-3.6,3.6-7.1,10.6-8.2,17.6c-1.5-1.1-3.3-1.9-5.2-2c-0.2-0.7-0.4-1.4-0.7-2
	c-2.4-5.2-8.6-7.4-13.7-5c-2.5,1.2-4.4,3.2-5.3,5.8c-0.9,2.6-0.8,5.4,0.3,7.9C5,23.9,5.4,24.5,5.8,25c-1.9,2.5-2.4,5.8-1.2,8.8
	c-1.2,0.2-2.3,0.8-3.1,1.8c-1.1,1.2-1.6,2.7-1.4,4.3c1.3,12.4,8.2,23.7,18.7,30.5v2.7c0,3.1,2.5,5.6,5.6,5.6h33.8
	c3.1,0,5.6-2.5,5.6-5.6v-2.7c10.5-6.8,17.5-18.1,18.7-30.5C82.6,38.3,82.1,36.8,81.1,35.6z M53.5,20.6c1.2-2.1,3.7-3.2,6.1-2.6
	c0.5,0.1,1.1,0,1.5-0.3c0.4-0.3,0.7-0.8,0.8-1.3c0.1-0.8,0.4-1.6,0.8-2.4c0.9-1.5,2.3-2.6,4-3.1c1.7-0.5,3.5-0.2,5,0.7
	c1.5,0.9,2.6,2.3,3.1,4c0.5,1.7,0.2,3.5-0.7,5c-0.4,0.7-1,1.4-1.6,1.9c-0.4,0.3-0.7,0.8-0.7,1.3c0,0.5,0.1,1.1,0.5,1.4
	c1.7,1.8,2,4.5,0.8,6.6c-0.5,0.8-1.1,1.4-2,1.9h-8.3l2.3-0.6c1-0.3,1.6-1.3,1.3-2.3c-0.3-1-1.3-1.6-2.3-1.3l-0.8,0.2l5.2-9.1
	c0.5-0.9,0.2-2-0.7-2.6c-0.9-0.5-2-0.2-2.6,0.7L63,23l-0.2-0.7c-0.3-1-1.3-1.6-2.3-1.3c-1,0.3-1.6,1.3-1.3,2.3l1.2,4.4l-3.6,6.2
	h-1.4c0.3-4.4-0.8-8.7-2.2-12.2C53.2,21.2,53.4,20.9,53.5,20.6L53.5,20.6z M39.2,4.6l0.6,1.6c1.2,3,2.9,5.4,4.6,7.7
	c1.1,1.5,2.2,3,3.1,4.6c1.8,3.3,4.6,9.4,4.1,15.3H45l-1.9-11.6c-0.2-1-1.1-1.7-2.2-1.5c-1,0.2-1.7,1.1-1.5,2.2l1.8,10.9h-2
	c-0.1-0.8-0.4-1.7-0.8-2.5c-1.1-2.4-3.2-4.1-5.6-4.9c0.1-0.9,0-1.7-0.2-2.5C32.4,16.9,35.7,8.9,39.2,4.6L39.2,4.6z M7.9,16.6
	c0.6-1.6,1.8-3,3.4-3.7c3.3-1.5,7.2-0.1,8.7,3.2c0.4,0.8,0.6,1.6,0.6,2.4c0,0.5,0.3,1,0.7,1.3c0.4,0.3,0.9,0.5,1.4,0.4
	c2.5-0.3,4.9,0.9,5.9,3.2c0.7,1.5,0.5,2.9,0.3,3.8c-0.1,0.5,0,1.1,0.3,1.6c0.3,0.5,0.8,0.7,1.4,0.8c2,0.2,3.7,1.4,4.5,3.2
	c0.1,0.3,0.2,0.6,0.3,0.9H23.1l-2.6-5.6l1.6-4.3c0.4-1-0.1-2-1.1-2.4c-1-0.4-2,0.1-2.4,1.1l-0.3,0.7l-1.3-2.7
	c-0.4-0.9-1.6-1.3-2.5-0.9c-0.9,0.4-1.3,1.6-0.9,2.5l2.8,6.1L15.7,28c-1-0.4-2,0.1-2.4,1.1s0.1,2,1.1,2.4l4.2,1.5l0.3,0.6H8.7
	c-0.2-0.2-0.3-0.5-0.5-0.8c-1-2.2-0.5-4.9,1.4-6.5c0.4-0.4,0.6-0.9,0.6-1.4c0-0.5-0.2-1-0.6-1.4c-0.6-0.6-1.1-1.3-1.5-2
	C7.4,20.1,7.3,18.3,7.9,16.6z M60.9,67.8c-0.6,0.3-0.9,0.9-0.9,1.6v3.8c0,1-0.8,1.9-1.9,1.9H24.4c-1,0-1.9-0.8-1.9-1.9v-3.8
	c0-0.7-0.3-1.3-0.9-1.6C13.8,63,8,55.5,5.3,46.9H60c1,0,1.9-0.8,1.9-1.9S61,43.1,60,43.1H4.3c-0.2-1.2-0.4-2.4-0.6-3.6
	c-0.1-0.5,0.1-1,0.5-1.4c0.4-0.4,0.9-0.6,1.4-0.6h71.2c0.5,0,1.1,0.2,1.4,0.6c0.3,0.4,0.5,0.9,0.5,1.4c-0.1,1.2-0.3,2.4-0.6,3.6
	h-8.8c-1,0-1.9,0.8-1.9,1.9s0.8,1.9,1.9,1.9h7.8C74.5,55.5,68.7,63,60.9,67.8L60.9,67.8z"/>
</svg>
