<?xml version="1.0" encoding="utf-8"?>
<!-- Generator: Adobe Illustrator 28.0.0, SVG Export Plug-In . SVG Version: 6.00 Build 0)  -->
<svg version="1.1" id="Ebene_1" xmlns="http://www.w3.org/2000/svg" xmlns:xlink="http://www.w3.org/1999/xlink" x="0px" y="0px"
	 viewBox="0 0 88.9 81.8" style="enable-background:new 0 0 88.9 81.8;" xml:space="preserve">
<style type="text/css">
	.st0{fill:#76CD26;}
	.st1{fill:#E63D1F;}
	.st2{fill:#227754;}
	.st3{fill:#E6DECC;}
	.st4{fill:#FCC413;}
</style>
<polygon class="st0" points="35.3,1.6 36,6.7 43,11.7 45.2,9.8 42.6,3.1 36.4,1.2 "/>
<polygon class="st0" points="35.1,13.4 44,14.6 54.2,13.3 54.4,16.3 52.6,20.9 53.1,25.5 51,34.3 35.2,35.1 34.5,28.9 29.6,21.8 
	28,21.2 28.6,18.5 33.3,13.6 "/>
<polygon class="st1" points="20.2,19 29.1,21.4 34.4,28.7 35.3,34.6 5.4,36 5.6,32.2 8.8,24.6 17.2,19.4 "/>
<polygon class="st2" points="61.1,6.3 67.5,8.2 72.9,4.7 80.9,5.5 84.6,10.6 84.1,17.8 85.8,21.7 87.2,28.7 83.4,34.4 59.9,35.7 
	50.8,34.2 51.4,31.4 52.6,27.6 52.1,23.2 53.3,19.1 55.1,15.3 55.2,11.2 "/>
<path d="M85.2,33.7c0.6-0.6,1.2-1.2,1.7-1.9c2.2-2.8,2.5-6.6,0.7-9.7c-0.7-1.2-1.5-2.3-2.5-3.2c2.6-4.7,1.2-10.6-3.2-13.6
	C77.6,2.2,71.6,2.9,68,6.9c-1.2-0.6-2.5-1-3.9-1.3c-3.5-0.6-7,1-8.9,4.1c-0.5,0.7-0.9,1.4-1.1,2.2c-2.1,0-4.2,0.3-6.2,0.8
	C47,13,46,13.2,45,13.3c-1-0.1-2-0.3-3-0.5c-3.1-0.7-6.9-1.5-9.2,0h0c-2.5,1.6-4.5,4-5.6,6.8c-4.9-2.2-10.5-1.8-15.1,0.9
	c-4.6,2.8-7.5,7.8-7.9,13.1C4.2,33.6,86.5,34.3,85.2,33.7L85.2,33.7z M57.3,11.2c3.9-5.6,9.7-2,10.4-1.6c0.5,0.4,1.3,0.2,1.7-0.3
	l0,0c1.2-1.8,3.1-3.1,5.2-3.5s4.3,0.1,6.1,1.3c1.8,1.2,3,3.1,3.3,5.3c0.4,2.1-0.2,4.3-1.5,6.1l0,0v0c-0.4,0.6-0.2,1.3,0.3,1.7
	c0.6,0.5,6,4.7,2.1,10.3c-1,1.4-2.4,2.5-4.1,3h-14c1.5-1.9,2.9-3.9,4.2-6c2.7-0.4,5.3-1.3,7.7-2.5c0.3-0.1,0.5-0.4,0.6-0.7
	c0.1-0.3,0.1-0.7-0.1-1c-0.2-0.3-0.4-0.5-0.7-0.6c-0.3-0.1-0.7-0.1-0.9,0.1c-1.5,0.8-3.1,1.4-4.8,1.8c0.7-1.2,1.2-2.2,1.6-3l0,0
	c0.7-1.4,0.2-3-1.1-3.8c-1.3-0.8-3-0.3-3.8,1c-0.8,1.4-2.4,3.9-4.2,6.4c-0.2-1.8-0.1-3.6,0.2-5.4c0.1-0.3,0-0.7-0.2-0.9
	s-0.5-0.5-0.8-0.5c-0.3-0.1-0.7,0-0.9,0.2s-0.4,0.5-0.5,0.8c-0.4,2.9-0.4,5.8,0.1,8.6c-0.7,0.8-1.4,1.6-2.1,2.3c-1,1-2,2.1-2.9,3.3
	h-0.3c-0.2-2.5,0-5,0.8-7.4c0.2-0.6-0.1-1.3-0.8-1.6c-0.6-0.2-1.3,0.1-1.6,0.7c-0.9,2.6-1.2,5.4-1,8.2h-2.8c0-1,0.3-2,1-2.9
	c1.1-1.4,1.4-3.3,0.6-4.9c-0.9-2-0.7-4.3,0.6-6.1c0.2-0.3,0.4-0.6,0.7-0.8c0.7-0.7,1-1.7,0.9-2.7C55.9,14.3,56.3,12.6,57.3,11.2
	L57.3,11.2z M65.2,28.9C65.2,28.9,65.2,28.9,65.2,28.9c2.3-2.9,4.3-5.9,6.2-9c0.1-0.2,0.3-0.2,0.5-0.1c0.2,0.1,0.2,0.3,0.2,0.5
	c-1.1,2.2-5,9.4-8.6,13.1l-2.3,0c0.5-0.6,1-1.1,1.4-1.5v0C63.5,31,64.4,30,65.2,28.9L65.2,28.9z M34.1,14.9c1.5-1,4.9-0.2,7.4,0.3
	c1.2,0.3,2.3,0.5,3.5,0.6c1.2-0.1,2.3-0.3,3.4-0.6c1.7-0.4,3.4-0.7,5.1-0.8c-0.1,0.6-0.1,1.3,0,1.9c0,0.2-0.1,0.5-0.2,0.7
	c-2.5,2.6-3.2,6.4-1.7,9.7c0.4,0.8,0.3,1.6-0.2,2.3c-1,1.3-1.5,2.8-1.5,4.4H36.8c-0.4-5.2-3.1-9.8-7.5-12.6
	C30.2,18.3,31.9,16.2,34.1,14.9L34.1,14.9z M20.5,20.6c7.2,0,13.3,5.6,13.9,12.8h-2c-0.6-6.1-5.7-10.8-11.9-10.8
	c-6.1,0-11.3,4.7-11.9,10.8h-2C7.2,26.2,13.3,20.6,20.5,20.6L20.5,20.6z M20.5,33.4l-5.1-6.4c2.7-2,6.6-2.2,9.7-0.1L20.5,33.4z
	 M12.9,28.9l3.7,4.5h-5.5C11.3,31.8,11.9,30.2,12.9,28.9L12.9,28.9z M28.1,28.9L28.1,28.9c1,1.3,1.6,2.9,1.8,4.5h-5.4L28.1,28.9z
	 M43.7,12.4c0.5,0,0.9,0,1.4-0.1c0.6-0.1,1-0.5,1.1-1.1c0.5-3.1-0.6-6.2-2.8-8.4C41.2,0.7,38-0.4,35,0.1c-0.6,0.1-1,0.5-1.1,1.1
	c-0.5,3.1,0.6,6.2,2.7,8.4C38.5,11.5,41.1,12.5,43.7,12.4L43.7,12.4z M41.6,4.6C43,6,43.8,8,43.8,10h-0.1c-2,0-3.9-0.7-5.4-2.1
	c-1.4-1.4-2.1-3.4-2.1-5.4C38.3,2.4,40.2,3.2,41.6,4.6L41.6,4.6z"/>
<polygon class="st3" points="4.3,35.6 85,35.9 86.9,43.9 80.6,58 66.6,71.1 65.6,78.3 25.7,79.9 21,71.1 9.5,61 3,47.7 1.7,38.4 "/>
<path d="M87.4,35.3c-1.2-1.3-2.8-2-4.5-2h-0.7c0,0-77.2,0.1-77.2,0.1c-1.3,0.3-2.5,0.9-3.4,1.9c-1.1,1.3-1.7,2.9-1.5,4.6
	c1.4,13.3,8.9,25.6,20.2,32.9v2.9c0,3.3,2.7,6.1,6.1,6.1h36.4c3.3,0,6.1-2.7,6.1-6.1v-2.9C80,65.4,87.5,53.2,88.9,39.9
	C89.1,38.2,88.5,36.5,87.4,35.3z M65.6,69.9c-0.6,0.4-1,1-1,1.7v4c0,1.1-0.9,2-2,2H26.3c-1.1,0-2-0.9-2-2v-4c0-0.7-0.4-1.4-1-1.7
	C14.9,64.8,8.6,56.7,5.7,47.4h59c1.1,0,2-0.9,2-2s-0.9-2-2-2h-60c-0.3-1.3-0.5-2.6-0.6-3.9C4,38.9,4.2,38.4,4.5,38
	c0.4-0.4,0.9-0.7,1.5-0.7h76.8c0.6,0,1.1,0.2,1.5,0.7c0.4,0.4,0.6,0.9,0.5,1.5c-0.1,1.3-0.3,2.6-0.6,3.9h-9.5c-1.1,0-2,0.9-2,2
	s0.9,2,2,2h8.4C80.3,56.7,74.1,64.8,65.6,69.9L65.6,69.9z"/>
<path class="st4" d="M13.9,31.9l-0.3,0.6c-0.1,0.1-0.3,0.2-0.4,0.1l-0.2-0.1c-0.1-0.1-0.2-0.3-0.1-0.4l0.3-0.6
	c0.1-0.1,0.3-0.2,0.4-0.1l0.2,0.1C13.9,31.5,14,31.7,13.9,31.9z"/>
<path class="st4" d="M27.9,31.6l0.4,0.5c0.1,0.1,0.1,0.3-0.1,0.4L28,32.7c-0.1,0.1-0.3,0.1-0.4-0.1l-0.4-0.5
	c-0.1-0.1-0.1-0.3,0.1-0.4l0.2-0.1C27.6,31.5,27.8,31.5,27.9,31.6z"/>
<path class="st4" d="M19.9,27.4h0.7c0.2,0,0.3,0.1,0.3,0.3v0.2c0,0.2-0.1,0.3-0.3,0.3h-0.7c-0.2,0-0.3-0.1-0.3-0.3l0-0.2
	C19.6,27.5,19.8,27.4,19.9,27.4z"/>
<path class="st4" d="M20,29.8h0.7c0.2,0,0.3,0.1,0.3,0.3v0.2c0,0.2-0.1,0.3-0.3,0.3H20c-0.2,0-0.3-0.1-0.3-0.3v-0.2
	C19.7,29.9,19.8,29.8,20,29.8z"/>
</svg>
