<svg height="24" viewBox="0 0 24 24" width="24" xmlns="http://www.w3.org/2000/svg"><path d="m12 2c5.5 0 10 4.5 10 10s-4.5 10-10 10-10-4.5-10-10 4.5-10 10-10m2.92 10.81c-1.08 0-1.97.75-2.21 1.75-.54-.23-1.05-.17-1.42-.01-.24-1-1.14-1.74-2.21-1.74-1.25 0-2.26 1.01-2.26 2.26s1.01 2.26 2.26 2.26c1.2 0 2.16-.91 2.25-2.08.2-.13.71-.39 1.34.01.1 1.16 1.06 2.07 2.25 2.07 1.25 0 2.26-1.01 2.26-2.26s-1.01-2.26-2.26-2.26m-5.84.64c.92 0 1.62.73 1.62 1.62s-.7 1.62-1.62 1.62c-.89 0-1.62-.73-1.62-1.62s.73-1.62 1.62-1.62m5.84 0c.89 0 1.62.73 1.62 1.62s-.73 1.62-1.62 1.62c-.92 0-1.62-.73-1.62-1.62s.7-1.62 1.62-1.62m2.91-1.95h-11.66v.67h11.66zm-3.68-4.61c-.15-.3-.48-.46-.8-.36l-1.35.47-1.35-.47-.04-.03c-.32-.07-.66.11-.77.42l-1.48 3.91h7.28l-1.48-3.91z"/></svg>