<?xml version="1.0" encoding="utf-8"?>
<!-- Generator: Adobe Illustrator 28.0.0, SVG Export Plug-In . SVG Version: 6.00 Build 0)  -->
<svg version="1.1" id="Ebene_1" xmlns="http://www.w3.org/2000/svg" xmlns:xlink="http://www.w3.org/1999/xlink" x="0px" y="0px"
	 viewBox="0 0 120 120" style="enable-background:new 0 0 120 120;" xml:space="preserve">
<g>
	<path style="fill:#73B8F0;stroke:#000000;stroke-width:3;stroke-miterlimit:10;" d="M51.4,83.4c-17.1,0-34.7-7.3-49.2-20.7
		c-0.9-0.7-0.9-2-0.3-2.9c10.3-13,24.3-21.4,40.2-22.6c27.1,0,37.8,7.1,53.4,21.4c0.9,0.7,0.9,2,0.3,2.9
		c-10.3,13-29.4,21.9-39.9,21.9C55.9,83.4,51.4,83.4,51.4,83.4L51.4,83.4z"/>
	<path d="M32.1,80.2c-0.3,0-0.7,0-0.9-0.3C30,79.4,29.6,78.1,30,77c5.3-11.8,5.6-23.2,0.3-34.1c-0.4-1.2,0-2.5,1.2-2.9
		c1.2-0.4,2.5,0,2.9,1.2c6,12.1,5.7,24.8,0,37.8C33.7,79.7,33,80.2,32.1,80.2L32.1,80.2z"/>
	<path style="fill:#73B8F0;stroke:#000000;stroke-width:3;stroke-miterlimit:10;" d="M116.1,82.8c-0.7,0-1.3-0.3-1.6-0.7L96.9,61.5
		c-0.7-0.9-0.7-2,0-2.9l17.7-20.7c0.7-0.7,1.6-0.9,2.5-0.7s1.5,1.2,1.5,2.2v41.3c0,0.9-0.7,1.7-1.3,2
		C116.6,82.8,116.4,82.8,116.1,82.8L116.1,82.8z"/>
	<path d="M23,62.5c-2.4,0-4.1-1.7-4.1-4.1s1.8-4.1,4.1-4.1s4.1,1.7,4.1,4.1C27.1,60.8,25.2,62.5,23,62.5z"/>
</g>
</svg>
