<?xml version="1.0" encoding="utf-8"?>
<!-- Generator: Adobe Illustrator 28.0.0, SVG Export Plug-In . SVG Version: 6.00 Build 0)  -->
<svg version="1.1" id="Ebene_1" xmlns="http://www.w3.org/2000/svg" xmlns:xlink="http://www.w3.org/1999/xlink" x="0px" y="0px"
	 viewBox="0 0 82.5 34.7" style="enable-background:new 0 0 82.5 34.7;" xml:space="preserve">
<g>
	<path style="fill:#73B8F0;stroke:#000000;stroke-width:3;stroke-miterlimit:10;" d="M35.4,33.2c-11.6,0-23.6-5-33.4-14.2
		c-0.6-0.5-0.6-1.4-0.2-2c7-8.9,16.5-14.7,27.3-15.5c18.4,0,25.7,4.9,36.3,14.7c0.6,0.5,0.6,1.4,0.2,2c-7,8.9-20,15-27.1,15
		C38.5,33.2,35.4,33.2,35.4,33.2L35.4,33.2z"/>
	<path d="M22.3,31c-0.2,0-0.5,0-0.6-0.2c-0.8-0.3-1.1-1.2-0.8-2c3.6-8.1,3.8-15.9,0.2-23.4c-0.3-0.8,0-1.7,0.8-2s1.7,0,2,0.8
		c4.1,8.3,3.9,17,0,25.9C23.4,30.7,22.9,31,22.3,31L22.3,31z"/>
	<path style="fill:#73B8F0;stroke:#000000;stroke-width:3;stroke-miterlimit:10;" d="M79.4,32.8c-0.5,0-0.9-0.2-1.1-0.5l-12-14.1
		c-0.5-0.6-0.5-1.4,0-2L78.3,2c0.5-0.5,1.1-0.6,1.7-0.5s1,0.8,1,1.5v28.3c0,0.6-0.5,1.2-0.9,1.4C79.7,32.8,79.6,32.8,79.4,32.8
		L79.4,32.8z"/>
	<path d="M16.1,18.9c-1.6,0-2.8-1.2-2.8-2.8s1.2-2.8,2.8-2.8s2.8,1.2,2.8,2.8S17.6,18.9,16.1,18.9z"/>
</g>
</svg>
