<?xml version="1.0" encoding="utf-8"?>
<!-- Generator: Adobe Illustrator 28.0.0, SVG Export Plug-In . SVG Version: 6.00 Build 0)  -->
<svg version="1.1" id="Ebene_1" xmlns="http://www.w3.org/2000/svg" xmlns:xlink="http://www.w3.org/1999/xlink" x="0px" y="0px"
	 viewBox="0 0 120 120" style="enable-background:new 0 0 120 120;" xml:space="preserve">
<polygon style="fill:#FFFFFF;" points="61,17.7 79.1,17.1 89.3,19.4 99,23.3 106.5,28.2 112.3,34.3 118.2,43.8 119,51.4 116.2,57.7 
	105.9,65.7 89,72 73.7,74.1 65.2,75.6 47.1,82.8 30.7,83.4 17.8,80.4 9,73.7 2.3,63.9 0.7,53.1 3.2,47.9 11.8,39.1 24.1,31.5 
	34.6,26.2 55.4,19.3 "/>
<g>
	<path style="fill:#FFFCED;stroke:#000000;stroke-width:1.5;stroke-miterlimit:10;" d="M96,21.8C64.2,6.8,23.8,31.1,19.4,34
		C13.2,37.9,0.8,47.4,0.8,54.1c0,2.4,0,23.8,0,23.8C0.3,86.6,4.2,95,11.7,100.3c6.2,4.3,14.8,6.6,23.8,6.6c8.6,0,17.7-2,25.8-5.9
		c5.7-2.8,11.3-4.2,17-4.3c19.9-0.8,36.4-9.9,40.1-22.2c0.5-1.6,0.8-3.4,0.8-5.3V49.8C118.8,38.6,106.1,26.5,96,21.8L96,21.8z
		 M0.8,54.4C0.8,44.8,21.1,33,21.1,33c1.3-0.8,27.2-16,52.8-16c7.2,0,17.7,2.9,24.5,6c10.3,4.7,20.7,17.4,20.7,26.7
		c0,12.1-22.9,23-41,23.7c-6.2,0.3-12.4,1.8-18.3,4.7c-15.5,7.6-34.9,7.5-46.1-0.4c-7.6-5.3-12.9-13.5-12.9-22V54.4z"/>
	<path style="fill:#E94C4F;stroke:#000000;stroke-miterlimit:10;" d="M17.6,72.3c4.3,3,10.9,4.7,18.1,4.7s14.8-1.7,21.2-4.9
		c6.7-3.3,13.8-5.1,21.1-5.4c17.1-0.7,28.6-8.2,30.7-14.9c2-7-7.2-16.2-17.1-20.8c-5.4-2.5-11.6-3.8-18.4-3.8
		c-23.5,0-47.3,14.7-48.4,15.4c-6.6,4.2-12.3,8.2-13.7,13.9C9.6,62.1,12.2,68.5,17.6,72.3L17.6,72.3z"/>
	<path style="fill:#FFFFFF;stroke:#000000;stroke-width:3;stroke-miterlimit:10;" d="M34,66.5c5.9,0,10.5-3.2,10.5-7.2
		S39.9,52,34,52s-10.5,3.2-10.5,7.2S28.1,66.5,34,66.5z"/>
</g>
</svg>
