<?xml version="1.0" encoding="utf-8"?>
<!-- Generator: Adobe Illustrator 28.0.0, SVG Export Plug-In . SVG Version: 6.00 Build 0)  -->
<svg version="1.1" id="Ebene_1" xmlns="http://www.w3.org/2000/svg" xmlns:xlink="http://www.w3.org/1999/xlink" x="0px" y="0px"
	 viewBox="0 0 91.4 70" style="enable-background:new 0 0 91.4 70;" xml:space="preserve">
<g>
	<path style="fill:#FFFCED;stroke:#000000;stroke-width:1.5;stroke-miterlimit:10;" d="M73.1,4.4C48.9-7,18.3,11.5,14.9,13.7
		C10.2,16.7,0.8,23.9,0.8,29c0,1.8,0,18.1,0,18.1c-0.4,6.6,2.6,13,8.3,17c4.7,3.3,11.2,5,18.1,5c6.5,0,13.4-1.5,19.6-4.5
		c4.3-2.1,8.6-3.2,12.9-3.3c15.1-0.6,27.6-7.5,30.4-16.9c0.4-1.2,0.6-2.6,0.6-4V25.7C90.4,17.2,80.7,8,73.1,4.4L73.1,4.4z M0.8,29.2
		c0-7.3,15.4-16.3,15.4-16.3c1-0.6,20.7-12.1,40.1-12.1c5.5,0,13.4,2.2,18.6,4.6C82.7,9,90.6,18.6,90.6,25.7
		c0,9.2-17.4,17.5-31.1,18c-4.7,0.2-9.4,1.4-13.9,3.6c-11.8,5.8-26.5,5.7-35-0.3c-5.8-4.1-9.8-10.3-9.8-16.8L0.8,29.2z"/>
	<path style="fill:#E94C4F;stroke:#000000;stroke-miterlimit:10;" d="M13.6,42.8c3.3,2.3,8.3,3.6,13.7,3.6s11.2-1.3,16.1-3.7
		c5.1-2.5,10.5-3.9,16-4.1c13-0.5,21.7-6.2,23.3-11.3c1.5-5.3-5.5-12.3-13-15.8c-4.1-1.9-8.8-2.9-14-2.9C37.9,8.6,19.8,19.8,19,20.3
		c-5,3.2-9.3,6.2-10.4,10.6C7.5,35.1,9.5,39.9,13.6,42.8L13.6,42.8z"/>
	<path style="fill:#FFFFFF;stroke:#000000;stroke-width:3;stroke-miterlimit:10;" d="M26,38.4c4.5,0,8-2.4,8-5.5s-3.5-5.5-8-5.5
		s-8,2.4-8,5.5S21.5,38.4,26,38.4z"/>
</g>
</svg>
