<?xml version="1.0" encoding="utf-8"?>
<!-- Generator: Adobe Illustrator 28.0.0, SVG Export Plug-In . SVG Version: 6.00 Build 0)  -->
<svg version="1.1" id="Ebene_1" xmlns="http://www.w3.org/2000/svg" xmlns:xlink="http://www.w3.org/1999/xlink" x="0px" y="0px"
	 viewBox="0 0 88.1 81.1" style="enable-background:new 0 0 88.1 81.1;" xml:space="preserve">
<style type="text/css">
	.st0{fill:#018B38;}
</style>
<g>
	<path class="st0" d="M63.1,15.8c-10.5,8.6-15.6,11.7-21.9,25c-2.8,5.9-6.6,22.4-5,34c1.6-5.5,3.6-9.3,6.1-13.6
		c4.9-8.7,12.4-18.6,21.3-26.9c-7.6,12.3-19.9,32.6-24,46.8c10.8-3.5,27.6-14.8,33.7-23.6C84.6,41.1,88.3,19.8,88.1,0
		C88.1,0,68.2,11.6,63.1,15.8L63.1,15.8z"/>
	<path class="st0" d="M13.9,44.6c6,7.5,12.8,15.2,16.9,22.6C30.4,60.8,31.1,56,32.1,51c-1.3-7.1-7.8-13.9-13.8-18.6
		c-4.8-4.1-10.9-7-18.2-11.3c-0.2,7.1,0.1,10.4,1.3,17.5c1.2,7,3.5,16.1,8.4,21.3c3.7,4,6.8,6.9,11.2,10.1c3.3,2.4,6.3,5.3,8.7,8.6
		c0.5,0.8,1.2,1.5,1.7,2.3C27.5,68.8,19.6,54.8,13.9,44.6L13.9,44.6z"/>
</g>
</svg>
