<?xml version="1.0" encoding="utf-8"?>
<!-- Generator: Adobe Illustrator 28.0.0, SVG Export Plug-In . SVG Version: 6.00 Build 0)  -->
<svg version="1.1" id="Ebene_1" xmlns="http://www.w3.org/2000/svg" xmlns:xlink="http://www.w3.org/1999/xlink" x="0px" y="0px"
	 viewBox="0 0 120 120" style="enable-background:new 0 0 120 120;" xml:space="preserve">
<g>
	<path style="fill:#018B38;" d="M85.9,23.4c-14.3,12.7-21.3,17.3-29.8,37c-3.8,8.7-9,33.1-6.8,50.3c2.2-8.1,4.9-13.8,8.3-20.1
		c6.7-12.9,16.9-27.5,29-39.8C76.3,68.9,59.5,99,53.9,120c14.7-5.2,37.6-21.9,45.9-34.9c15.4-24.3,20.4-55.8,20.2-85
		C120,0,92.9,17.2,85.9,23.4L85.9,23.4z"/>
	<path style="fill:#018B38;" d="M18.9,66c8.2,11.1,17.4,22.5,23,33.4c-0.5-9.5,0.4-16.6,1.8-24c-1.8-10.5-10.6-20.6-18.8-27.5
		C18.4,41.9,10,37.6,0.1,31.2c-0.3,10.5,0.1,15.4,1.8,25.9c1.6,10.4,4.8,23.8,11.4,31.5c5,5.9,9.3,10.2,15.3,14.9
		c4.5,3.5,8.6,7.8,11.9,12.7c0.7,1.2,1.6,2.2,2.3,3.4C37.4,101.8,26.7,81.1,18.9,66L18.9,66z"/>
</g>
</svg>
