<?xml version="1.0" encoding="utf-8"?>
<!-- Generator: Adobe Illustrator 28.0.0, SVG Export Plug-In . SVG Version: 6.00 Build 0)  -->
<svg version="1.1" id="Ebene_1" xmlns="http://www.w3.org/2000/svg" xmlns:xlink="http://www.w3.org/1999/xlink" x="0px" y="0px"
	 viewBox="0 0 120 120" style="enable-background:new 0 0 120 120;" xml:space="preserve">
<polygon style="fill:#FFFFFF;" points="78.6,46.7 92.4,58.4 102.6,59.8 114.7,78.4 117.3,87.9 117.3,98.9 110.8,114.5 86.1,113.9 
	79,101 80.5,87.9 76.5,92.1 67.8,81.6 68.7,58.4 75.8,48.1 "/>
<polygon style="fill:#FFFFFF;" points="9.8,44.4 45.7,44.1 47.4,51.9 54.6,67.3 54.9,116.7 49.3,119.5 3.6,118.6 1.4,114 1.5,68.8 
	7.9,57.5 "/>
<path style="fill:#018B38;stroke:#000000;stroke-width:2;stroke-miterlimit:10;" d="M81.3,6.6c-10.8-4-15.2-6.4-27.6-5.4
	c-5.4,0.5-19.1,4.8-26.8,11c4.7-1.2,8.3-1.3,12.5-1.4c8.4-0.1,18.8,1,28.8,4c-12.2-0.2-32.3-0.6-44.4,2.5
	c7.2,6.4,22.6,13.8,31.6,14.5c16.8,1.2,33.8-5.2,48.2-13.9C103.6,18.1,86.6,8.6,81.3,6.6L81.3,6.6z"/>
<g>
	<path style="stroke:#000000;stroke-miterlimit:10;" d="M44.9,42.3H11.6c-2.1,0-3.7,1.9-3.7,4.1V53L1.5,66c-0.7,1.5-1,3-1,4.6V114
		c0,3.1,2.2,5.5,4.9,5.5h45.5c2.7,0,4.9-2.5,4.9-5.5V70.7c0-1.6-0.3-3.3-1-4.6l-6.3-13v-6.5C48.5,44.1,46.9,42.3,44.9,42.3
		L44.9,42.3z M52.7,67.3c0.4,1,0.7,2.2,0.7,3.3V114c0,1.5-1.2,2.8-2.5,2.8H5.4c-1.3,0-2.5-1.2-2.5-2.8V70.7c0-1.2,0.3-2.4,0.7-3.3
		l5.5-11.1l5.5,11.1c0.4,1,0.7,2.2,0.7,3.3v40.8c0,1.8,2.5,1.8,2.5,0V70.7c0-1.6-0.3-3.3-1-4.6l-6.3-13v-6.5c0-0.7,0.6-1.3,1.2-1.3
		H45c0.7,0,1.2,0.6,1.2,1.3v5.3h-31c-1.6,0-1.6,2.7,0,2.8h31.2L52.7,67.3L52.7,67.3z"/>
	<path style="stroke:#000000;stroke-miterlimit:10;" d="M45.7,74.1c-0.6-0.1-1.3,0.3-1.5,1c-0.6,2.7-2.7,4.4-5.2,4.4h-7
		c-2.4,0-4.6-1.8-5.2-4.4c-0.1-0.7-0.9-1.2-1.5-1c-2.2,0.9,0,4.3,0.9,5.5H22c-0.7,0-1.2,0.6-1.2,1.3c0,3.8,2.8,6.9,6.2,6.9h0.4
		L29,98.4v0.1c0.4,2.7,2.5,4.4,4.9,4.4h3.5c2.4,0,4.4-1.9,4.9-4.6L44,87.9c3.5,0.3,6.6-3,6.5-6.9c0-0.7-0.6-1.3-1.2-1.3H45
		C45.7,78.4,47.9,75,45.7,74.1L45.7,74.1z M27,85c-1.6,0-3.1-1.2-3.5-2.8h4.3C27.2,83.1,27,84.2,27,85L27,85z M37.3,100.3h-3.5
		c-1.2,0-2.1-0.9-2.4-2.1c0.3-1.2,1.2-2.1,2.4-2.1h3.5c1.2,0,2.1,0.9,2.4,2.1C39.4,99.4,38.5,100.3,37.3,100.3z M41.6,85.6l-1.3,8.9
		c-1.5-1.5-4.7-1-6.5-1.2c-1.2,0-2.1,0.4-2.9,1.2l-1.3-8.9c-0.3-1.6,0.9-3.3,2.4-3.3l0,0h7.1C40.6,82.2,41.9,83.9,41.6,85.6
		L41.6,85.6z M47.6,82.4c-0.4,1.6-1.9,2.8-3.5,2.8c-0.1-0.1,0-1.6-0.7-2.8H47.6L47.6,82.4z"/>
</g>
<path style="fill:#1D1D1B;" d="M117.8,83.3c-1.9-12.3-9.6-27.7-20.2-27.7c-1.3,0-2.7,0.3-4,0.7c-5-7.5-11.8-13.3-18.4-11.8
	c-5,1.2-8.8,6.1-10.8,14c-1.6,6.8-1.8,14-0.4,20.8c1.9,8.4,6,13.2,11.2,15.1c0.1,5.3,2.5,10.5,6.5,14.2c-0.3,0.7-0.6,1.6-0.6,2.5
	c0,3.4,2.8,6.1,6,6.1h21.1h0.4c3.4-0.3,5.9-3.1,5.6-6.5c0-0.7-0.3-1.5-0.6-2.2c4-3.7,6.3-9,6.3-14.5v-8.3c0-0.7-0.3-1.3-0.7-1.8
	C118.8,83.6,118.4,83.4,117.8,83.3z M97.6,60.8c6.6,0,13,11.5,15,22.5H82.7C84.6,72.3,91.1,60.8,97.6,60.8L97.6,60.8z M69.2,78.4
	C67.8,72.3,68,66,69.5,59.9c1.5-5.8,4-9.6,6.9-10.4h0.7c3.8-0.3,8.5,3.8,12.2,9.5c-6.2,5.2-10.5,15.5-11.8,24.3
	c-0.6,0.1-1,0.3-1.5,0.7s-0.7,1-0.7,1.8v3C72,86.2,69.7,82.5,69.2,78.4L69.2,78.4z M114.8,94.1c0,4.9-2.4,9.3-6.2,12.1
	c-1.2,0.7-1.5,2.4-0.6,3.5c0.1,0.3,0.4,0.6,0.7,0.7c0.4,0.3,0.6,0.9,0.3,1.3l-0.1,0.1c-0.1,0.1-0.4,0.3-0.7,0.3H87.1
	c-0.3,0-0.4-0.1-0.6-0.3c-0.1-0.1-0.3-0.4-0.3-0.6c0-0.3,0.1-0.6,0.4-0.7c1.2-0.7,1.5-2.4,0.7-3.5c-0.1-0.3-0.4-0.4-0.7-0.7
	c-4-2.8-6.3-7.2-6.3-12.1v-5.8h34.5C114.8,88.4,114.8,94.1,114.8,94.1z M94.5,64.5c1.2-0.7,2.8-0.3,3.5,1c0.7,1.2,0.3,2.8-1,3.5
	c-1.8,0.9-3.1,2.4-4,4c-0.4,0.9-1.2,1.5-2.2,1.5c-0.4,0-0.9,0-1.2-0.1c-1.3-0.6-1.8-2.1-1.3-3.4C89.8,68.3,91.8,66,94.5,64.5z"/>
<path style="fill:#FFFFFF;" d="M228.3,92.1"/>
</svg>
