<?xml version="1.0" encoding="utf-8"?>
<!-- Generator: Adobe Illustrator 28.0.0, SVG Export Plug-In . SVG Version: 6.00 Build 0)  -->
<svg version="1.1" id="Ebene_1" xmlns="http://www.w3.org/2000/svg" xmlns:xlink="http://www.w3.org/1999/xlink" x="0px" y="0px"
	 viewBox="0 0 120 120" style="enable-background:new 0 0 120 120;" xml:space="preserve">
<ellipse style="fill:#90CAA4;stroke:#000000;stroke-width:5;stroke-miterlimit:10;" cx="60.1" cy="60" rx="57.5" ry="57.5"/>
<polygon style="fill:#FFFFFF;" points="73.1,47.7 82.5,55.6 89.4,56.5 97.6,69.1 99.4,75.5 99.4,83 95,93.5 78.2,93.1 73.4,84.4 
	74.4,75.5 71.7,78.4 65.8,71.3 66.4,55.6 71.2,48.6 "/>
<polygon style="fill:#FFFFFF;" points="26.4,46.1 50.8,45.9 51.9,51.2 56.8,61.6 57,95 53.2,96.9 22.2,96.3 20.7,93.2 20.8,62.6 
	25.1,55 "/>
<path style="fill:#018B38;stroke:#000000;stroke-width:2;stroke-miterlimit:10;" d="M77.7,21.5c-9.1-3.4-12.8-5.4-23.3-4.5
	c-4.6,0.4-16.2,4-22.7,9.2c4-1,7-1.1,10.6-1.2c7.1-0.1,15.9,0.9,24.3,3.4c-10.3-0.2-27.3-0.5-37.5,2.1c6.1,5.4,19.1,11.6,26.7,12.2
	c14.2,1,28.6-4.4,40.7-11.7C96.5,31.2,82.2,23.1,77.7,21.5L77.7,21.5z"/>
<g>
	<path style="stroke:#000000;stroke-miterlimit:10;" d="M50.2,44.7H27.6c-1.4,0-2.5,1.3-2.5,2.8v4.4l-4.3,8.8c-0.5,1-0.7,2-0.7,3.1
		v29.4c0,2.1,1.5,3.7,3.3,3.7h30.9c1.8,0,3.3-1.7,3.3-3.7V63.9c0-1.1-0.2-2.2-0.7-3.1L52.6,52v-4.4C52.7,45.9,51.6,44.7,50.2,44.7
		L50.2,44.7z M55.5,61.6c0.3,0.7,0.5,1.5,0.5,2.2v29.4c0,1-0.8,1.9-1.7,1.9H23.4c-0.9,0-1.7-0.8-1.7-1.9V63.9c0-0.8,0.2-1.6,0.5-2.2
		l3.7-7.5l3.7,7.5c0.3,0.7,0.5,1.5,0.5,2.2v27.6c0,1.2,1.7,1.2,1.7,0V63.9c0-1.1-0.2-2.2-0.7-3.1L26.8,52v-4.4
		c0-0.5,0.4-0.9,0.8-0.9h22.6c0.5,0,0.8,0.4,0.8,0.9v3.6H30.1c-1.1,0-1.1,1.8,0,1.9h21.2L55.5,61.6L55.5,61.6z"/>
	<path style="stroke:#000000;stroke-miterlimit:10;" d="M50.8,66.2c-0.4-0.1-0.9,0.2-1,0.7c-0.4,1.8-1.8,3-3.5,3h-4.8
		c-1.6,0-3.1-1.2-3.5-3c-0.1-0.5-0.6-0.8-1-0.7c-1.5,0.6,0,2.9,0.6,3.7h-2.9c-0.5,0-0.8,0.4-0.8,0.9c0,2.6,1.9,4.7,4.2,4.7h0.3
		l1.1,7.2v0.1c0.3,1.8,1.7,3,3.3,3h2.4c1.6,0,3-1.3,3.3-3.1l1.1-7.2c2.4,0.2,4.5-2,4.4-4.7c0-0.5-0.4-0.9-0.8-0.9h-2.9
		C50.8,69.1,52.3,66.8,50.8,66.2L50.8,66.2z M38.1,73.6c-1.1,0-2.1-0.8-2.4-1.9h2.9C38.2,72.3,38.1,73,38.1,73.6L38.1,73.6z
		 M45.1,83.9h-2.4c-0.8,0-1.4-0.6-1.6-1.4c0.2-0.8,0.8-1.4,1.6-1.4h2.4c0.8,0,1.4,0.6,1.6,1.4C46.5,83.3,45.9,83.9,45.1,83.9z
		 M48,74l-0.9,6c-1-1-3.2-0.7-4.4-0.8c-0.8,0-1.4,0.3-2,0.8l-0.9-6c-0.2-1.1,0.6-2.2,1.6-2.2h0.1h4.8C47.3,71.7,48.2,72.8,48,74
		L48,74z M52.1,71.8c-0.3,1.1-1.3,1.9-2.4,1.9c-0.1-0.1,0-1.1-0.5-1.9H52.1L52.1,71.8z"/>
</g>
<path style="fill:#1D1D1B;" d="M99.7,72.4c-1.3-8.3-6.5-18.7-13.7-18.7c-0.9,0-1.8,0.2-2.7,0.5c-3.4-5.1-8-9-12.5-8
	c-3.4,0.8-6,4.1-7.3,9.5c-1.1,4.6-1.2,9.5-0.3,14.1c1.3,5.7,4.1,8.9,7.6,10.2c0.1,3.6,1.7,7.1,4.4,9.6c-0.2,0.5-0.4,1.1-0.4,1.7
	c0,2.3,1.9,4.1,4.1,4.1h14.3h0.3c2.3-0.2,4-2.1,3.8-4.4c0-0.5-0.2-1-0.4-1.5c2.7-2.5,4.3-6.1,4.3-9.8v-5.6c0-0.5-0.2-0.9-0.5-1.2
	C100.4,72.6,100.1,72.5,99.7,72.4z M86,57.2c4.5,0,8.8,7.8,10.2,15.2H75.9C77.2,65,81.6,57.2,86,57.2L86,57.2z M66.7,69.1
	c-0.9-4.1-0.8-8.4,0.2-12.5c1-3.9,2.7-6.5,4.7-7h0.5c2.6-0.2,5.8,2.6,8.3,6.4c-4.2,3.5-7.1,10.5-8,16.4c-0.4,0.1-0.7,0.2-1,0.5
	s-0.5,0.7-0.5,1.2v2C68.6,74.4,67.1,71.9,66.7,69.1L66.7,69.1z M97.7,79.7c0,3.3-1.6,6.3-4.2,8.2c-0.8,0.5-1,1.6-0.4,2.4
	c0.1,0.2,0.3,0.4,0.5,0.5c0.3,0.2,0.4,0.6,0.2,0.9l-0.1,0.1c-0.1,0.1-0.3,0.2-0.5,0.2H78.9c-0.2,0-0.3-0.1-0.4-0.2
	c-0.1-0.1-0.2-0.3-0.2-0.4c0-0.2,0.1-0.4,0.3-0.5c0.8-0.5,1-1.6,0.5-2.4c-0.1-0.2-0.3-0.3-0.5-0.5c-2.7-1.9-4.3-4.9-4.3-8.2v-3.9
	h23.4C97.7,75.9,97.7,79.7,97.7,79.7z M83.9,59.7c0.8-0.5,1.9-0.2,2.4,0.7c0.5,0.8,0.2,1.9-0.7,2.4c-1.2,0.6-2.1,1.6-2.7,2.7
	c-0.3,0.6-0.8,1-1.5,1c-0.3,0-0.6,0-0.8-0.1c-0.9-0.4-1.2-1.4-0.9-2.3C80.7,62.3,82.1,60.7,83.9,59.7z"/>
<path style="fill:#FFFFFF;" d="M228.3,85.7"/>
</svg>
