<?xml version="1.0" encoding="utf-8"?>
<!-- Generator: Adobe Illustrator 28.0.0, SVG Export Plug-In . SVG Version: 6.00 Build 0)  -->
<svg version="1.1" id="Ebene_1" xmlns="http://www.w3.org/2000/svg" xmlns:xlink="http://www.w3.org/1999/xlink" x="0px" y="0px"
	 viewBox="0 0 120.8 117.6" style="enable-background:new 0 0 120.8 117.6;" xml:space="preserve">
<style type="text/css">
	.st0{fill:#90CAA4;stroke:#000000;stroke-width:5;stroke-miterlimit:10;}
	.st1{fill:#FFFFFF;}
	.st2{fill:#018B38;stroke:#000000;stroke-width:2;stroke-miterlimit:10;}
	.st3{stroke:#000000;stroke-miterlimit:10;}
	.st4{fill:#1D1D1B;}
</style>
<ellipse class="st0" cx="60.4" cy="58.8" rx="57.9" ry="56.3"/>
<polygon class="st1" points="73.5,46.5 82.9,54.4 89.8,55.3 98,67.9 99.8,74.3 99.8,81.8 95.4,92.3 78.6,91.9 73.8,83.2 74.8,74.3 
	72.1,77.2 66.2,70.1 66.8,54.4 71.6,47.4 "/>
<polygon class="st1" points="26.8,44.9 51.2,44.7 52.3,50 57.2,60.4 57.4,93.8 53.6,95.7 22.6,95.1 21.1,92 21.2,61.4 25.5,53.8 "/>
<path class="st2" d="M78.1,20.3c-9.1-3.4-12.8-5.4-23.3-4.5c-4.6,0.4-16.2,4-22.7,9.2c4-1,7-1.1,10.6-1.2c7.1-0.1,15.9,0.9,24.3,3.4
	c-10.3-0.2-27.3-0.5-37.5,2.1c6.1,5.4,19.1,11.6,26.7,12.2c14.2,1,28.6-4.4,40.7-11.7C96.9,30,82.6,21.9,78.1,20.3L78.1,20.3z"/>
<g>
	<path class="st3" d="M50.6,43.5H28c-1.4,0-2.5,1.3-2.5,2.8v4.4l-4.3,8.8c-0.5,1-0.7,2-0.7,3.1v29.4c0,2.1,1.5,3.7,3.3,3.7h30.9
		c1.8,0,3.3-1.7,3.3-3.7V62.7c0-1.1-0.2-2.2-0.7-3.1l-4.3-8.8v-4.4C53.1,44.7,52,43.5,50.6,43.5L50.6,43.5z M55.9,60.4
		c0.3,0.7,0.5,1.5,0.5,2.2v29.4c0,1-0.8,1.9-1.7,1.9H23.8c-0.9,0-1.7-0.8-1.7-1.9V62.7c0-0.8,0.2-1.6,0.5-2.2l3.7-7.5l3.7,7.5
		c0.3,0.7,0.5,1.5,0.5,2.2v27.6c0,1.2,1.7,1.2,1.7,0V62.7c0-1.1-0.2-2.2-0.7-3.1l-4.3-8.8v-4.4c0-0.5,0.4-0.9,0.8-0.9h22.6
		c0.5,0,0.8,0.4,0.8,0.9V50H30.5c-1.1,0-1.1,1.8,0,1.9h21.2L55.9,60.4L55.9,60.4z"/>
	<path class="st3" d="M51.2,65c-0.4-0.1-0.9,0.2-1,0.7c-0.4,1.8-1.8,3-3.5,3h-4.8c-1.6,0-3.1-1.2-3.5-3c-0.1-0.5-0.6-0.8-1-0.7
		c-1.5,0.6,0,2.9,0.6,3.7h-2.9c-0.5,0-0.8,0.4-0.8,0.9c0,2.6,1.9,4.7,4.2,4.7h0.3l1.1,7.2c0,0,0,0.1,0,0.1c0.3,1.8,1.7,3,3.3,3h2.4
		c1.6,0,3-1.3,3.3-3.1l1.1-7.2c2.4,0.2,4.5-2,4.4-4.7c0-0.5-0.4-0.9-0.8-0.9h-2.9C51.2,67.9,52.7,65.6,51.2,65L51.2,65z M38.5,72.4
		c-1.1,0-2.1-0.8-2.4-1.9h2.9C38.6,71.1,38.5,71.8,38.5,72.4L38.5,72.4z M45.5,82.7h-2.4c-0.8,0-1.4-0.6-1.6-1.4
		c0.2-0.8,0.8-1.4,1.6-1.4h2.4c0.8,0,1.4,0.6,1.6,1.4C46.9,82.1,46.3,82.7,45.5,82.7z M48.4,72.8l-0.9,6c-1-1-3.2-0.7-4.4-0.8
		c-0.8,0-1.4,0.3-2,0.8l-0.9-6c-0.2-1.1,0.6-2.2,1.6-2.2h0.1h4.8C47.7,70.5,48.6,71.6,48.4,72.8L48.4,72.8z M52.5,70.6
		c-0.3,1.1-1.3,1.9-2.4,1.9c-0.1-0.1,0-1.1-0.5-1.9H52.5L52.5,70.6z"/>
</g>
<path class="st4" d="M100.1,71.2c-1.3-8.3-6.5-18.7-13.7-18.7c-0.9,0-1.8,0.2-2.7,0.5c-3.4-5.1-8-9-12.5-8c-3.4,0.8-6,4.1-7.3,9.5
	c-1.1,4.6-1.2,9.5-0.3,14.1c1.3,5.7,4.1,8.9,7.6,10.2c0.1,3.6,1.7,7.1,4.4,9.6c-0.2,0.5-0.4,1.1-0.4,1.7c0,2.3,1.9,4.1,4.1,4.1
	l14.3,0l0.3,0c2.3-0.2,4-2.1,3.8-4.4c0-0.5-0.2-1-0.4-1.5c2.7-2.5,4.3-6.1,4.3-9.8l0-5.6c0-0.5-0.2-0.9-0.5-1.2
	C100.8,71.4,100.5,71.3,100.1,71.2z M86.4,56c4.5,0,8.8,7.8,10.2,15.2l-20.3,0C77.6,63.8,82,56,86.4,56L86.4,56z M67.1,67.9
	c-0.9-4.1-0.8-8.4,0.2-12.5c1-3.9,2.7-6.5,4.7-7l0.5,0c2.6-0.2,5.8,2.6,8.3,6.4c-4.2,3.5-7.1,10.5-8,16.4c-0.4,0.1-0.7,0.2-1,0.5
	c-0.3,0.3-0.5,0.7-0.5,1.2l0,2C69,73.2,67.5,70.7,67.1,67.9L67.1,67.9z M98.1,78.5c0,3.3-1.6,6.3-4.2,8.2c-0.8,0.5-1,1.6-0.4,2.4
	c0.1,0.2,0.3,0.4,0.5,0.5c0.3,0.2,0.4,0.6,0.2,0.9c0,0-0.1,0.1-0.1,0.1c-0.1,0.1-0.3,0.2-0.5,0.2l-14.3,0c-0.2,0-0.3-0.1-0.4-0.2
	c-0.1-0.1-0.2-0.3-0.2-0.4c0-0.2,0.1-0.4,0.3-0.5c0.8-0.5,1-1.6,0.5-2.4c-0.1-0.2-0.3-0.3-0.5-0.5c-2.7-1.9-4.3-4.9-4.3-8.2l0-3.9
	l23.4,0L98.1,78.5z M84.3,58.5c0.8-0.5,1.9-0.2,2.4,0.7c0.5,0.8,0.2,1.9-0.7,2.4c-1.2,0.6-2.1,1.6-2.7,2.7c-0.3,0.6-0.8,1-1.5,1
	c-0.3,0-0.6,0-0.8-0.1c-0.9-0.4-1.2-1.4-0.9-2.3C81.1,61.1,82.5,59.5,84.3,58.5z"/>
<path class="st1" d="M174.3,84.5"/>
</svg>
