<?xml version="1.0" encoding="utf-8"?>
<!-- Generator: Adobe Illustrator 28.0.0, SVG Export Plug-In . SVG Version: 6.00 Build 0)  -->
<svg version="1.1" id="Ebene_1" xmlns="http://www.w3.org/2000/svg" xmlns:xlink="http://www.w3.org/1999/xlink" x="0px" y="0px"
	 viewBox="0 0 660 552" style="enable-background:new 0 0 660 552;" xml:space="preserve">
<style type="text/css">
	.st0{fill:#BF6B00;}
</style>
<path class="st0" d="M375.4,389.4c3,0.4,6,0.8,9.1,1c7.4,0.6,12.7,1.2,17.8,7.1c0.5,0.7,1,1.4,1.6,2.1c0.6,0.7,1.2,1.4,1.8,2.1
	c1.1,1.3,2.1,2.5,3.1,3.8c1.3,1.7,1.3,1.7,3.3,3.6c0,1,0,2,0,3c-1.4,1.2-1.4,1.2-3.3,2.3c-0.7,0.4-1.4,0.8-2.1,1.3
	c-0.7,0.4-1.5,0.9-2.2,1.3c-9.8,5.1-9.8,5.1-15.3,14.1c-1.8,13.4,0.9,24.2,7,36c0.4,0.7,0.8,1.5,1.2,2.2c6.2,11.9,13.4,23,21.1,34
	c0.6,1,1.3,1.9,2,2.9c0.6,0.8,1.1,1.7,1.7,2.5c1.1,2.4,1.1,2.4,1,5c-0.9,2.3-0.9,2.3-2.7,3.4c-2.5,1-4.7,1.4-7.4,1.7
	c-1,0.1-2,0.2-3,0.4c-1,0.1-2.1,0.2-3.2,0.4c-1,0.1-2,0.3-3,0.4c-16.5,2-32.9,2.3-49.5,2.3c-1.1,0-2.3,0-3.4,0
	c-25.5,0-44.3,0.7-52.2-0.8c-4.8-0.9-6.7-3-3.7-10.4c0.8-1.4,1.1-1.9,2-3.4c1.1-2,0.5-0.8,1.7-3.1c0.5-1,1.1-2.1,1.6-3.1
	c0.9-1.6,0.9-1.6,1.7-3.3c1.2-2.3,2.4-4.7,3.5-7c0.6-1.2,1.2-2.4,1.8-3.6c2.7-5.3,5.3-10.7,7.9-16.1c0.4-0.9,0.9-1.9,1.4-2.8
	c4.2-8.7,7.2-15.8,6.5-25.6c0-1-0.1-2-0.1-3c-0.5-5.3-1.3-9.1-5.3-12.9c-1.8-1.4-3.7-2.8-5.6-4.1c-1.6-1.2-3.2-2.4-4.8-3.6
	c-7.8-6.2-7.8-6.2-16.2-11.4c1.5-3.7,3.6-5.6,6.6-8.1c0.8-0.7,1.6-1.3,2.5-2c3.5-2.3,7-3.6,10.9-4.9c0.9-0.3,1.8-0.6,2.7-1
	C335,384.9,353.6,386.1,375.4,389.4z"/>
<g>
	<defs>
		<rect id="SVGID_1_" x="-2.3" width="660" height="552"/>
	</defs>
	<clipPath id="SVGID_00000170984055505702835850000006745169851366413457_">
		<use xlink:href="#SVGID_1_"  style="overflow:visible;"/>
	</clipPath>
</g>
</svg>
