<?xml version="1.0" encoding="UTF-8"?>
<svg id="Ebene_1" data-name="Ebene 1" xmlns="http://www.w3.org/2000/svg" viewBox="0 0 1024 856.44">
  <defs>
    <style>
      .cls-1 {
        fill: #fefefe;
      }

      .cls-1, .cls-2, .cls-3 {
        stroke-width: 0px;
      }

      .cls-2 {
        fill: #fefdfc;
      }

      .cls-3 {
        fill: #fe8f01;
      }
    </style>
  </defs>
  <path class="cls-1" d="m0,856.44V0h1024v856.44H0Zm645.19-474.7c.74-.4,1.49-.8,2.23-1.21,2.67,3.11,5.02,6.59,8.06,9.28,17.6,15.56,34.92,31.48,53.19,46.22,18.28,14.74,40.29,16.04,62.58,13.65,9.32-1,16.07-6.26,17.31-16.06,1.7-13.53,4.69-27.32,3.62-40.72-4.35-54.54-9.84-109-15.33-163.44-2.23-22.09-13.85-38.41-34.54-46.64-10.35-4.12-21.72-6.71-32.82-7.64-9.53-.8-17.6-.9-18.85-12.74-.05-.48-.43-.93-.7-1.37-17.51-28.76-58.89-40.79-84.55-35.79-27.14,5.28-43.53,23.55-54.31,47.4-5.28,11.69-8.81,24.21-12.71,36.49-5.38,16.95-9.18,34.61-20.46,48.95-2.91,3.7-7.61,7.47-12.01,8.26-18.78,3.38-37.76,5.71-56.68,8.31-29.3,4.02-57.04,13.04-77.84,34.51-15.15,15.63-28.27,33.73-39.71,52.33-14.27,23.22-25.99,48.02-38.59,72.25-5.74,11.04-3.84,14.54,8.75,14.52,21.17-.02,42.35-.75,63.51-1.48,11.17-.39,14.38-3.57,12.74-14.33-1.66-10.92,1.06-20.47,6.09-29.68,10.58-19.37,27.19-33.05,45-44.98,11.31-7.58,24.2.72,23.91,14.39-.24,11.36-1.63,22.7-1.65,34.05-.04,25.28-.77,50.66,1.26,75.79,1,12.36-1.42,21.36-10.56,28.62-7.87,6.25-16.08,12.16-24.62,17.45-12.07,7.47-24.57,14.23-36.89,21.3-15.87,9.11-28.63,21.48-36.4,38.05-9.84,21-19.97,42.03-27.52,63.9-5.23,15.14-8.23,31.64-8.84,47.66-1.07,28.1.25,56.31.98,84.46.47,18.29,8.07,27.9,26.18,30.94,28.46,4.79,56.94,5.66,84.84-4.26,14.82-5.27,17.22-6.81,17.23-22.42.01-24-1.89-48-1.85-72,.03-18.27.04-36.85,3.25-54.72,4.63-25.81,24.41-40.02,47.39-47.43,35.74-11.53,72.67-11.62,109.57-4.74,13.62,2.54,24.49,9.26,32.21,20.89,16.64,25.08,29.87,51.97,39.35,80.41,10.11,30.32,18.58,61.2,27.61,91.87,2.71,9.18,9.15,15.05,17.82,16.52,26.88,4.55,54,5.07,80.99.67,9.91-1.62,15.05-8.12,14.85-17.77-.61-30.04-2.54-60.2-12.67-88.59-7.24-20.29-17.7-39.52-27.66-58.74-16.03-30.94-31.59-62.4-54.37-89.07-16.42-19.23-34.6-36.96-52.3-55.06-6.75-6.91-11.17-14.63-13-24.1-6.68-34.59-4.68-69.36-3.08-104.14Z"/>
  <path class="cls-3" d="m645.19,381.74c-1.6,34.78-3.6,69.56,3.08,104.14,1.83,9.47,6.24,17.2,13,24.1,17.7,18.1,35.88,35.84,52.3,55.06,22.78,26.67,38.34,58.13,54.37,89.07,9.96,19.22,20.42,38.45,27.66,58.74,10.13,28.39,12.05,58.55,12.67,88.59.2,9.65-4.94,16.15-14.85,17.77-26.99,4.4-54.1,3.88-80.99-.67-8.67-1.47-15.11-7.34-17.82-16.52-9.04-30.68-17.51-61.55-27.61-91.87-9.48-28.45-22.71-55.33-39.35-80.41-7.71-11.63-18.59-18.35-32.21-20.89-36.9-6.89-73.83-6.8-109.57,4.74-22.97,7.41-42.75,21.62-47.39,47.43-3.21,17.87-3.22,36.46-3.25,54.72-.04,24,1.86,48,1.85,72,0,15.61-2.41,17.15-17.23,22.42-27.9,9.92-56.38,9.05-84.84,4.26-18.11-3.05-25.7-12.65-26.18-30.94-.73-28.15-2.05-56.36-.98-84.46.61-16.02,3.61-32.52,8.84-47.66,7.55-21.86,17.68-42.89,27.52-63.9,7.77-16.57,20.52-28.94,36.4-38.05,12.32-7.07,24.82-13.83,36.89-21.3,8.54-5.29,16.75-11.2,24.62-17.45,9.14-7.26,11.56-16.26,10.56-28.62-2.04-25.14-1.3-50.51-1.26-75.79.02-11.35,1.41-22.69,1.65-34.05.29-13.67-12.6-21.97-23.91-14.39-17.81,11.93-34.42,25.61-45,44.98-5.03,9.21-7.75,18.76-6.09,29.68,1.64,10.77-1.56,13.95-12.74,14.33-21.16.73-42.34,1.45-63.51,1.48-12.59.01-14.49-3.49-8.75-14.52,12.6-24.23,24.32-49.03,38.59-72.25,11.43-18.6,24.56-36.7,39.71-52.33,20.81-21.47,48.54-30.49,77.84-34.51,18.92-2.6,37.9-4.93,56.68-8.31,4.41-.79,9.1-4.56,12.01-8.26,11.29-14.34,15.09-32,20.46-48.95,3.89-12.28,7.43-24.79,12.71-36.49,10.77-23.85,27.17-42.12,54.31-47.4,25.66-4.99,67.05,7.03,84.55,35.79.27.44.65.89.7,1.37,1.25,11.85,9.32,11.94,18.85,12.74,11.1.93,22.46,3.52,32.82,7.64,20.69,8.23,32.31,24.55,34.54,46.64,5.49,54.44,10.98,108.9,15.33,163.44,1.07,13.4-1.91,27.18-3.62,40.72-1.23,9.8-7.99,15.06-17.31,16.06-22.3,2.39-44.3,1.09-62.58-13.65-18.27-14.74-35.59-30.66-53.19-46.22-3.04-2.69-5.39-6.16-8.06-9.28-.74.4-1.49.8-2.23,1.21Zm41.15-158.21c-8.16,12.86-15.24,24.26-22.57,35.5-4.09,6.27-8.8,12.13-12.86,18.41-5.69,8.8-5.77,10.65,2.42,16.64,15.4,11.27,31.11,22.18,47.13,32.54,5.5,3.56,12.18,5.66,18.6,7.35,13.83,3.63,18.76.03,17.39-14.4-1.26-13.27-3.85-26.59-7.55-39.4-6.9-23.9-26.02-38.87-42.57-56.65Z"/>
  <path class="cls-2" d="m686.34,223.53c16.55,17.77,35.66,32.74,42.57,56.65,3.7,12.81,6.29,26.13,7.55,39.4,1.37,14.42-3.57,18.03-17.39,14.4-6.42-1.69-13.1-3.79-18.6-7.35-16.03-10.36-31.73-21.27-47.13-32.54-8.19-5.99-8.11-7.84-2.42-16.64,4.06-6.28,8.77-12.15,12.86-18.41,7.33-11.24,14.41-22.64,22.57-35.5Z"/>
</svg>