<?xml version="1.0" encoding="utf-8"?>
<!-- Generator: Adobe Illustrator 28.0.0, SVG Export Plug-In . SVG Version: 6.00 Build 0)  -->
<svg version="1.1" id="Ebene_1" xmlns="http://www.w3.org/2000/svg" xmlns:xlink="http://www.w3.org/1999/xlink" x="0px" y="0px"
	 viewBox="0 0 660 552" style="enable-background:new 0 0 660 552;" xml:space="preserve">
<style type="text/css">
	.st0{fill:#EA8301;}
	.st1{fill:#AC6000;}
	.st2{fill:#AB6000;}
	.st3{fill:#D27500;}
	.st4{fill:#D47600;}
	.st5{fill:#6D3D00;}
	.st6{fill:#6C3C00;}
	.st7{fill:#D27600;}
</style>
<path class="st0" d="M660,550c-7.4,0-14.9-0.1-22.3,0c-2.5,0-5.2,0-7.7,0c-3.6,0.1-7.1,0-10.8,0c-1.1,0-10.1,0-11.2,0
	c0,0,0-0.3-3.8-3c-0.7-0.5-4.1-3.3-4.1-3.3s0-4.4,0-5.2c0.1-0.8,0-1.5,0-2.4c0-0.8,0-1.5,0-2.4c0-1.9,0-3.8,0.1-5.7
	c-0.9,0.1-0.1,0-0.9,0.1c-2.7,0.2-5.2,0.3-7.9,0.5c-0.9,0-1.2,0-2.8,0.1c-1.3,0-1.3,0-2.7,0.1c-0.8,0.1-3,0.1-3.8,0.1
	c0,0-0.7-0.4-6-4c0-66,0-132,0-200c-161.7,0-323.4,0-490,0c0,10.6,0,21.1,0,32c0,5.5,0,11.1-0.1,16.6c0,1.4,0,2.8,0,4.2
	c0,4.4-0.1,8.9-0.1,13.3c0,1.6,0,3.1,0,4.7c0,7.3-0.1,14.7-0.1,22c-0.1,8.3-0.1,16.7-0.2,25c0,6.5-0.1,13.1-0.1,19.6
	c0,3.9-0.1,7.7-0.1,11.6c-0.1,9.3-0.1,18.6-0.3,27.9c0,1,0,2.1,0,3.2c-0.1,2.7-0.1,5.4-0.2,8.2c0,0.8,0,1.5,0,2.3
	c-0.1,3.2-0.7,5.4-0.7,5.4l-5,3H56c0,5.6,0,12.2,0,18c-3.9,1.9-5.1,2.2-9.2,2.2c-1.1,0-2.1,0-3.2,0c-1.1,0-2.2,0-3.3,0
	c-1,0-2,0-3.1,0c-3,0-6,0-8.9,0c-5.4,0-10.8-0.1-16.2-0.1c-2.3,0-4.6,0-6.8,0c-1,0-2,0-3,0c-0.7,0-1.4,0-2.1,0
	c0-48.8,0-97.3,0-146.5c0.1-7.2-0.1-14.5,0-21.8c0-8-0.1-15.6,0-23.6c0-3.3,0-6.7,0-10c0-3.9,0-7.9,0-11.9c0-2.1,0-4.1,0-6.2
	c0.1-7.7,0-14.8,0-22.5c0-1,0-2.2,0-3.2c0-1.8-0.1-5.8,0-8.2c37.5-3.8,77.4-4.9,115.1-4.8c6.1,0,12.2,0,18.4,0c13.2,0,26.5,0,39.7,0
	c11.6,0,23.1,0,34.7,0c1.2,0,1.2,0,2.3,0c3.1,0,6.3,0,9.4,0c29.3,0,58.7,0,88,0c26,0,51.9,0,77.9,0c29.3,0,58.7,0,88,0
	c3.1,0,6.3,0,9.4,0c1.2,0,1.2,0,2.3,0c11.6,0,23.1,0,34.7,0c13.1,0,26.3,0,39.4,0c6.7,0,13.4,0,20.1,0c52.1-0.1,55,2,80.5,6.2"/>
<path class="st0" d="M656.3,450.6"/>
<path class="st0" d="M658.4,388.9"/>
<path class="st0" d="M657.5,329.1c0.1,5.2,0.2,10.4,0.2,15.6"/>
<path class="st1" d="M56,325c9.9,0,19.8,0,30,0c0,22.1,0,44.1-0.2,66.2c0,1.6,0,3.1,0,4.7c0,7.3-0.1,14.6-0.1,22
	c-0.1,8.3-0.1,16.7-0.2,25c0,6.5-0.1,13.1-0.1,19.6c0,3.9-0.1,7.7-0.1,11.6c-0.1,9.3-0.1,18.6-0.3,27.9c0,1,0,2.1,0,3.2
	c-0.1,2.7-0.1,5.4-0.2,8.2c0,0.8,0,1.5,0,2.3c-0.1,3.2-5.7,8.4-5.7,8.4H56C56,458,56,393,56,325z"/>
<path class="st2" d="M576,325c8.2,0,16.5,0,25,0c0,67,0,134,0,203c-10.4,0.8-19,1-19,1s-3.4-2.2-6-4"/>
<path class="st3" d="M0,290.2c34.1-3.4,75-4.8,109.2-4.8c6.1,0,12.3,0,18.4,0c13.3,0,26.6,0,39.8,0c11.6,0,23.2,0,34.8,0
	c0.8,0,1.6,0,2.4,0c3.2,0,6.3,0,9.5,0c29.4,0,58.8,0,88.3,0c26.1,0,52.1,0,78.2,0c29.4,0,58.8,0,88.2,0c3.1,0,6.3,0,9.4,0
	c1.2,0,1.2,0,2.3,0c11.6,0,23.2,0,34.8,0c13.2,0,26.4,0,39.6,0c6.7,0,13.4,0,20.2,0c6.2,0,12.3,0,18.5,0c2.2,0,4.4,0,6.6,0
	c21.3,0,44.7,2.6,59.8,6.1"/>
<path class="st3" d="M655.2,291.4"/>
<path class="st4" d="M601,325c2.3,0,4.6,0,7,0c0,74.2,0,148.5,0,225l-7.9-6.3c0,0,0-6,0-7.7c0-1.4,0-1.4,0-2.7c0-3,0-6,0.1-9.1
	c0-2.2,0-4.3,0-6.5c0-5.9,0-11.8,0.1-17.7c0-6.2,0-12.3,0.1-18.5c0-11.7,0.1-23.3,0.1-35c0.1-13.3,0.1-26.5,0.2-39.8
	C600.7,379.6,600.8,352.3,601,325z"/>
<path class="st5" d="M576,325c2,0,4,0,6,0c0,67.3,0,134.6,0,204c-6-4-6-4-6-4"/>
<path class="st6" d="M85.5,520.5c-1.7,1-4.8,2.5-6.5,3.5c0-65.7,0-131.3,0-199c2.3,0,4.6,0,7,0"/>
<path class="st7" d="M51,325c1.7,0,3.3,0,5,0c0,71.6,0,143.2,0,217c-2.5,1-2.5,1-5,2C51,471.7,51,399.5,51,325z"/>
<path class="st5" d="M580.3,528.3"/>
</svg>
