<?xml version="1.0" encoding="UTF-8"?>
<svg id="Ebene_1" data-name="Ebene 1" xmlns="http://www.w3.org/2000/svg" viewBox="0 0 697.3 935.82">
  <defs>
    <style>
      .cls-1 {
        fill: #f28e1c;
        stroke-width: 0px;
      }
    </style>
  </defs>
  <path class="cls-1" d="m280.85,915.72c-12.27-.25-24.53-.32-36.73-1.99-9.06-1.24-17.98-2.96-26.66-5.97-8.21-2.86-14.48-8.13-19.77-14.79-3.04-3.82-4.27-8.05-4.26-13.04.02-18.35,2.43-36.43,5.69-54.42,4.83-26.69,9.49-53.41,13.07-80.31,1-7.49,1.62-15.05,2.04-22.6,3.01-52.93,2.75-105.93,3.1-158.91.25-37.45,4.45-74.44,11.94-111.1,3.18-15.58,6.22-31.2,9.12-46.84,1-5.38,1.51-10.85,2-16.31.3-3.37-.07-6.75-.51-10.14-.7-5.39-2.93-9.88-6.48-13.94-9.99-11.45-21.09-21.71-32.99-31.13-11.26-8.92-23.05-17.11-35.14-24.87-19.12-12.27-37.57-25.51-55.88-38.93-1.68-1.23-3.28-2.59-4.77-4.04-19.49-18.99-37.37-39.38-53.11-61.6-5.43-7.67-10.42-15.63-14.9-23.91-4.73-8.76-8.55-17.86-11.27-27.45C16.94,123.82,9.11,94.07,3.49,63.78,1.82,54.79.79,45.72.12,36.61c-.39-5.25.19-10.44,1.04-15.59,1.04-6.28,4.34-11.06,9.77-14.42C16.37,3.24,22.38,1.53,28.61.67c5.43-.75,10.93-.83,16.42-.42,10.73.8,18.75,5.83,23.91,15.31,3.76,6.91,6.36,14.3,8.79,21.73,5.43,16.61,10.92,33.19,17.45,49.41,5.75,14.29,12.04,28.32,19.78,41.68,14.79,25.54,34.87,46.09,59.11,62.71,13.67,9.37,28.97,14.27,45.3,15.87,10.12.99,20.27,1.83,30.48,1.69,6.55-.09,13.01-.93,19.51-1.45,6.14-.49,10.1-3.66,12.05-9.48,1.83-5.48,3.04-11.08,3.24-16.85.36-10.18.1-20.31-.95-30.48-1.98-18.97-2.51-38.01-1.24-57.08.76-11.46,1.42-22.92,3.74-34.2.58-2.81,1.21-5.61,1.93-8.38,3.08-11.83,10.3-20.28,21.06-25.9,5.59-2.92,11.47-5.07,17.55-6.56,7.34-1.8,14.72-3.47,22.26-4.29,16.43-1.8,32.27.43,47.46,6.92,3.1,1.32,6.07,3.03,8.94,4.82,11.86,7.39,18.12,18.34,20.26,31.97,1.89,12.02.73,23.94-.83,35.86-1.66,12.7-5.13,25.03-7.59,37.56-3.5,17.84-4.12,35.73-1.02,53.69,1.25,7.22,3.43,14.17,6.2,20.96,5.16,12.69,14.58,20.65,27.27,25.2,8.81,3.16,17.93,3.82,27.04,2.68,17.64-2.2,34.93-6.05,51.36-13.15,22.57-9.75,41.08-24.6,55.72-44.3,10.3-13.87,18.89-28.79,26.81-44.1,11.16-21.57,20.92-43.77,29.74-66.38.66-1.7,1.34-3.4,1.99-5.1,2.29-6.02,6.98-9.04,13.06-9.79,7.92-.98,15.65.29,22.99,3.35,5.85,2.44,9.54,7.15,12.07,12.79,4.88,10.87,7.31,22.22,6.75,34.21-.9,19.24-6.01,37.54-12.24,55.58-8.4,24.31-20.71,46.67-33.92,68.62-18.26,30.33-41.59,56.16-69.1,78.24-7.31,5.87-15.26,10.96-23.05,16.21-14.94,10.06-29.85,20.16-43.94,31.41-12.68,10.12-24.71,20.92-34.82,33.69-2.11,2.66-4.1,5.41-6.04,8.18-12.27,17.53-15.68,36.6-10.19,57.33,2.88,10.87,6.66,21.4,11.15,31.7,8.55,19.66,18.81,38.43,29.78,56.81,10.84,18.14,21.77,36.24,33.13,54.06,17.58,27.58,32.88,56.28,45.32,86.55,12,29.2,23.73,58.48,32.57,88.84,3.81,13.1,5.78,26.46,7.23,39.97,2.48,23.11,3.74,46.3,4.11,69.53.19,12-.47,23.97-2.27,35.89-1.24,8.19-5.7,13.04-13.25,15.79-5.43,1.98-11.01,3.36-16.67,4.14-7.23.99-14.48,1.83-21.82,1.99-20.14.46-40.2-.3-60.1-3.45-7.71-1.22-15.32-3.13-22.95-4.84-2.02-.45-3.92-1.43-5.92-2.02-8.76-2.59-12.39-8.84-12.88-17.54-.5-8.67.65-17.22,1.92-25.72,2.43-16.25,5.44-32.41,7.76-48.67,2.44-17.05,4.24-34.17,4.44-51.43.09-7.61-.34-15.13-2.15-22.53-3.1-12.66-6.19-25.33-9.33-37.98-2.88-11.59-8.46-21.88-15.63-31.3-8.38-11-17.07-21.77-25.49-32.75-13.37-17.42-31.36-25.25-52.92-25.81-4.7-.12-9.4-.19-14.09-.08-2.59.06-5.23.3-7.75.88-9.84,2.26-14.3,7.12-15.51,17.12-.95,7.78-1.35,15.59-.95,23.44,1.52,29.45,2.89,58.91,4.44,88.35,1.15,21.89,2.74,43.76,3.7,65.66.91,20.86,1.95,41.72,1.79,62.61-.02,2.86-.31,5.73-.56,8.58-.4,4.57-2.94,7.69-6.86,9.81-3.95,2.13-8.2,3.35-12.6,4.05-13.94,2.2-27.97,3.34-42.08,3.6-2.87.05-5.74,0-8.61,0l-.02.04Z"/>
</svg>